<?xml version="1.0" encoding="UTF-8" standalone="no"?>
<svg xmlns="http://www.w3.org/2000/svg" contentScriptType="application/ecmascript" contentStyleType="text/css"
     height="682px" preserveAspectRatio="none" style="width:1978px;height:682px;" version="1.1" viewBox="0 0 1978 682"
     width="1978px" zoomAndPan="magnify"><defs><filter height="300%" id="fjbspebgb760" width="300%" x="-1" y="-1"><feGaussianBlur result="blurOut" stdDeviation="2.0"/><feColorMatrix in="blurOut" result="blurOut2" type="matrix" values="0 0 0 0 0 0 0 0 0 0 0 0 0 0 0 0 0 0 .4 0"/><feOffset dx="4.0" dy="4.0" in="blurOut2" result="blurOut3"/><feBlend in="SourceGraphic" in2="blurOut3" mode="normal"/></filter></defs><g><!--MD5=[491e7f2c0c9250fb4d1154da1be3239e]
cluster com.urjc.mca.tfm.generateuml--><polygon fill="#FFFFFF" filter="url(#fjbspebgb760)" points="1290,6,1547,6,1554,28.2969,1557,28.2969,1557,105,1290,105,1290,6" style="stroke:#000000;stroke-width:1.5;"/><line style="stroke:#000000;stroke-width:1.5;" x1="1290" x2="1554" y1="28.2969" y2="28.2969"/><text fill="#000000" font-family="sans-serif" font-size="14" font-weight="bold" lengthAdjust="spacingAndGlyphs" textLength="251" x="1294" y="20.9951">com.urjc.mca.tfm.generateuml</text><!--MD5=[e6b1b26b4646fd5f3b41199c0418982b]
cluster com.urjc.mca.tfm.generateuml.model--><polygon fill="#FFFFFF" filter="url(#fjbspebgb760)" points="512,576,823,576,830,598.2969,833,598.2969,833,675,512,675,512,576" style="stroke:#000000;stroke-width:1.5;"/><line style="stroke:#000000;stroke-width:1.5;" x1="512" x2="830" y1="598.2969" y2="598.2969"/><text fill="#000000" font-family="sans-serif" font-size="14" font-weight="bold" lengthAdjust="spacingAndGlyphs" textLength="305" x="516" y="590.9951">com.urjc.mca.tfm.generateuml.model</text><!--MD5=[c66e735c89a839b0f40df60143f9640e]
cluster org.eclipse.jdt.core.dom--><polygon fill="#FFFFFF" filter="url(#fjbspebgb760)" points="16,129,218,129,225,151.2969,1913,151.2969,1913,552,16,552,16,129" style="stroke:#000000;stroke-width:1.5;"/><line style="stroke:#000000;stroke-width:1.5;" x1="16" x2="225" y1="151.2969" y2="151.2969"/><text fill="#000000" font-family="sans-serif" font-size="14" font-weight="bold" lengthAdjust="spacingAndGlyphs" textLength="196" x="20" y="143.9951">org.eclipse.jdt.core.dom</text><!--MD5=[8d7a8bc778e30081ce0119d655edae1c]
class com.urjc.mca.tfm.generateuml.JavaAnalyzerEclipseAST--><rect codeLine="1" fill="#FEFECE" filter="url(#fjbspebgb760)" height="48" id="com.urjc.mca.tfm.generateuml.JavaAnalyzerEclipseAST" style="stroke:#A80036;stroke-width:1.5;" width="175" x="1335.5" y="41"/><ellipse cx="1350.5" cy="57" fill="#ADD1B2" rx="11" ry="11" style="stroke:#A80036;stroke-width:1.0;"/><path d="M1352.8438,52.6719 C1351.9063,52.2344 1351.3125,52.0938 1350.4375,52.0938 C1347.8125,52.0938 1345.8125,54.1719 1345.8125,56.8906 L1345.8125,58.0156 C1345.8125,60.5938 1347.9219,62.4844 1350.8125,62.4844 C1352.0313,62.4844 1353.1875,62.1875 1353.9375,61.6406 C1354.5156,61.2344 1354.8438,60.7813 1354.8438,60.3906 C1354.8438,59.9375 1354.4531,59.5469 1353.9844,59.5469 C1353.7656,59.5469 1353.5625,59.625 1353.375,59.8125 C1352.9219,60.2969 1352.9219,60.2969 1352.7344,60.3906 C1352.3125,60.6563 1351.625,60.7813 1350.8594,60.7813 C1348.8125,60.7813 1347.5156,59.6875 1347.5156,57.9844 L1347.5156,56.8906 C1347.5156,55.1094 1348.7656,53.7969 1350.5,53.7969 C1351.0781,53.7969 1351.6875,53.9531 1352.1563,54.2031 C1352.6406,54.4844 1352.8125,54.7031 1352.9063,55.1094 C1352.9688,55.5156 1353,55.6406 1353.1406,55.7656 C1353.2813,55.9063 1353.5156,56.0156 1353.7344,56.0156 C1354,56.0156 1354.2656,55.875 1354.4375,55.6563 C1354.5469,55.5 1354.5781,55.3125 1354.5781,54.8906 L1354.5781,53.4688 C1354.5781,53.0313 1354.5625,52.9063 1354.4688,52.75 C1354.3125,52.4844 1354.0313,52.3438 1353.7344,52.3438 C1353.4375,52.3438 1353.2344,52.4375 1353.0156,52.75 L1352.8438,52.6719 Z " fill="#000000"/><text fill="#000000" font-family="sans-serif" font-size="12" lengthAdjust="spacingAndGlyphs" textLength="143" x="1364.5" y="61.1543">JavaAnalyzerEclipseAST</text><line style="stroke:#A80036;stroke-width:1.5;" x1="1336.5" x2="1509.5" y1="73" y2="73"/><line style="stroke:#A80036;stroke-width:1.5;" x1="1336.5" x2="1509.5" y1="81" y2="81"/><!--MD5=[ea56b9ecae5862df673fe2fa3ad17a74]
class com.urjc.mca.tfm.generateuml.model.Domain--><rect codeLine="2" fill="#FEFECE" filter="url(#fjbspebgb760)" height="48" id="com.urjc.mca.tfm.generateuml.model.Domain" style="stroke:#A80036;stroke-width:1.5;" width="77" x="678.5" y="611"/><ellipse cx="693.5" cy="627" fill="#ADD1B2" rx="11" ry="11" style="stroke:#A80036;stroke-width:1.0;"/><path d="M695.8438,622.6719 C694.9063,622.2344 694.3125,622.0938 693.4375,622.0938 C690.8125,622.0938 688.8125,624.1719 688.8125,626.8906 L688.8125,628.0156 C688.8125,630.5938 690.9219,632.4844 693.8125,632.4844 C695.0313,632.4844 696.1875,632.1875 696.9375,631.6406 C697.5156,631.2344 697.8438,630.7813 697.8438,630.3906 C697.8438,629.9375 697.4531,629.5469 696.9844,629.5469 C696.7656,629.5469 696.5625,629.625 696.375,629.8125 C695.9219,630.2969 695.9219,630.2969 695.7344,630.3906 C695.3125,630.6563 694.625,630.7813 693.8594,630.7813 C691.8125,630.7813 690.5156,629.6875 690.5156,627.9844 L690.5156,626.8906 C690.5156,625.1094 691.7656,623.7969 693.5,623.7969 C694.0781,623.7969 694.6875,623.9531 695.1563,624.2031 C695.6406,624.4844 695.8125,624.7031 695.9063,625.1094 C695.9688,625.5156 696,625.6406 696.1406,625.7656 C696.2813,625.9063 696.5156,626.0156 696.7344,626.0156 C697,626.0156 697.2656,625.875 697.4375,625.6563 C697.5469,625.5 697.5781,625.3125 697.5781,624.8906 L697.5781,623.4688 C697.5781,623.0313 697.5625,622.9063 697.4688,622.75 C697.3125,622.4844 697.0313,622.3438 696.7344,622.3438 C696.4375,622.3438 696.2344,622.4375 696.0156,622.75 L695.8438,622.6719 Z " fill="#000000"/><text fill="#000000" font-family="sans-serif" font-size="12" lengthAdjust="spacingAndGlyphs" textLength="45" x="707.5" y="631.1543">Domain</text><line style="stroke:#A80036;stroke-width:1.5;" x1="679.5" x2="754.5" y1="643" y2="643"/><line style="stroke:#A80036;stroke-width:1.5;" x1="679.5" x2="754.5" y1="651" y2="651"/><!--MD5=[1f41066e9334f465d509339b9bb6fb7f]
class com.urjc.mca.tfm.generateuml.model.Unit--><rect codeLine="12" fill="#FEFECE" filter="url(#fjbspebgb760)" height="48" id="com.urjc.mca.tfm.generateuml.model.Unit" style="stroke:#A80036;stroke-width:1.5;" width="55" x="588.5" y="611"/><ellipse cx="603.5" cy="627" fill="#ADD1B2" rx="11" ry="11" style="stroke:#A80036;stroke-width:1.0;"/><path d="M605.8438,622.6719 C604.9063,622.2344 604.3125,622.0938 603.4375,622.0938 C600.8125,622.0938 598.8125,624.1719 598.8125,626.8906 L598.8125,628.0156 C598.8125,630.5938 600.9219,632.4844 603.8125,632.4844 C605.0313,632.4844 606.1875,632.1875 606.9375,631.6406 C607.5156,631.2344 607.8438,630.7813 607.8438,630.3906 C607.8438,629.9375 607.4531,629.5469 606.9844,629.5469 C606.7656,629.5469 606.5625,629.625 606.375,629.8125 C605.9219,630.2969 605.9219,630.2969 605.7344,630.3906 C605.3125,630.6563 604.625,630.7813 603.8594,630.7813 C601.8125,630.7813 600.5156,629.6875 600.5156,627.9844 L600.5156,626.8906 C600.5156,625.1094 601.7656,623.7969 603.5,623.7969 C604.0781,623.7969 604.6875,623.9531 605.1563,624.2031 C605.6406,624.4844 605.8125,624.7031 605.9063,625.1094 C605.9688,625.5156 606,625.6406 606.1406,625.7656 C606.2813,625.9063 606.5156,626.0156 606.7344,626.0156 C607,626.0156 607.2656,625.875 607.4375,625.6563 C607.5469,625.5 607.5781,625.3125 607.5781,624.8906 L607.5781,623.4688 C607.5781,623.0313 607.5625,622.9063 607.4688,622.75 C607.3125,622.4844 607.0313,622.3438 606.7344,622.3438 C606.4375,622.3438 606.2344,622.4375 606.0156,622.75 L605.8438,622.6719 Z " fill="#000000"/><text fill="#000000" font-family="sans-serif" font-size="12" lengthAdjust="spacingAndGlyphs" textLength="23" x="617.5" y="631.1543">Unit</text><line style="stroke:#A80036;stroke-width:1.5;" x1="589.5" x2="642.5" y1="643" y2="643"/><line style="stroke:#A80036;stroke-width:1.5;" x1="589.5" x2="642.5" y1="651" y2="651"/><!--MD5=[ff23930648dc83153cbfa14f728d52b6]
class org.eclipse.jdt.core.dom.ASTParser--><rect codeLine="3" fill="#FEFECE" filter="url(#fjbspebgb760)" height="48" id="org.eclipse.jdt.core.dom.ASTParser" style="stroke:#A80036;stroke-width:1.5;" width="93" x="1276.5" y="164"/><ellipse cx="1291.5" cy="180" fill="#ADD1B2" rx="11" ry="11" style="stroke:#A80036;stroke-width:1.0;"/><path d="M1293.8438,175.6719 C1292.9063,175.2344 1292.3125,175.0938 1291.4375,175.0938 C1288.8125,175.0938 1286.8125,177.1719 1286.8125,179.8906 L1286.8125,181.0156 C1286.8125,183.5938 1288.9219,185.4844 1291.8125,185.4844 C1293.0313,185.4844 1294.1875,185.1875 1294.9375,184.6406 C1295.5156,184.2344 1295.8438,183.7813 1295.8438,183.3906 C1295.8438,182.9375 1295.4531,182.5469 1294.9844,182.5469 C1294.7656,182.5469 1294.5625,182.625 1294.375,182.8125 C1293.9219,183.2969 1293.9219,183.2969 1293.7344,183.3906 C1293.3125,183.6563 1292.625,183.7813 1291.8594,183.7813 C1289.8125,183.7813 1288.5156,182.6875 1288.5156,180.9844 L1288.5156,179.8906 C1288.5156,178.1094 1289.7656,176.7969 1291.5,176.7969 C1292.0781,176.7969 1292.6875,176.9531 1293.1563,177.2031 C1293.6406,177.4844 1293.8125,177.7031 1293.9063,178.1094 C1293.9688,178.5156 1294,178.6406 1294.1406,178.7656 C1294.2813,178.9063 1294.5156,179.0156 1294.7344,179.0156 C1295,179.0156 1295.2656,178.875 1295.4375,178.6563 C1295.5469,178.5 1295.5781,178.3125 1295.5781,177.8906 L1295.5781,176.4688 C1295.5781,176.0313 1295.5625,175.9063 1295.4688,175.75 C1295.3125,175.4844 1295.0313,175.3438 1294.7344,175.3438 C1294.4375,175.3438 1294.2344,175.4375 1294.0156,175.75 L1293.8438,175.6719 Z " fill="#000000"/><text fill="#000000" font-family="sans-serif" font-size="12" lengthAdjust="spacingAndGlyphs" textLength="61" x="1305.5" y="184.1543">ASTParser</text><line style="stroke:#A80036;stroke-width:1.5;" x1="1277.5" x2="1368.5" y1="196" y2="196"/><line style="stroke:#A80036;stroke-width:1.5;" x1="1277.5" x2="1368.5" y1="204" y2="204"/><!--MD5=[284e6faa80031bdbf12cb41c0ca271dc]
class org.eclipse.jdt.core.dom.CompilationUnit--><rect codeLine="4" fill="#FEFECE" filter="url(#fjbspebgb760)" height="48" id="org.eclipse.jdt.core.dom.CompilationUnit" style="stroke:#A80036;stroke-width:1.5;" width="125" x="1260.5" y="272"/><ellipse cx="1275.5" cy="288" fill="#ADD1B2" rx="11" ry="11" style="stroke:#A80036;stroke-width:1.0;"/><path d="M1277.8438,283.6719 C1276.9063,283.2344 1276.3125,283.0938 1275.4375,283.0938 C1272.8125,283.0938 1270.8125,285.1719 1270.8125,287.8906 L1270.8125,289.0156 C1270.8125,291.5938 1272.9219,293.4844 1275.8125,293.4844 C1277.0313,293.4844 1278.1875,293.1875 1278.9375,292.6406 C1279.5156,292.2344 1279.8438,291.7813 1279.8438,291.3906 C1279.8438,290.9375 1279.4531,290.5469 1278.9844,290.5469 C1278.7656,290.5469 1278.5625,290.625 1278.375,290.8125 C1277.9219,291.2969 1277.9219,291.2969 1277.7344,291.3906 C1277.3125,291.6563 1276.625,291.7813 1275.8594,291.7813 C1273.8125,291.7813 1272.5156,290.6875 1272.5156,288.9844 L1272.5156,287.8906 C1272.5156,286.1094 1273.7656,284.7969 1275.5,284.7969 C1276.0781,284.7969 1276.6875,284.9531 1277.1563,285.2031 C1277.6406,285.4844 1277.8125,285.7031 1277.9063,286.1094 C1277.9688,286.5156 1278,286.6406 1278.1406,286.7656 C1278.2813,286.9063 1278.5156,287.0156 1278.7344,287.0156 C1279,287.0156 1279.2656,286.875 1279.4375,286.6563 C1279.5469,286.5 1279.5781,286.3125 1279.5781,285.8906 L1279.5781,284.4688 C1279.5781,284.0313 1279.5625,283.9063 1279.4688,283.75 C1279.3125,283.4844 1279.0313,283.3438 1278.7344,283.3438 C1278.4375,283.3438 1278.2344,283.4375 1278.0156,283.75 L1277.8438,283.6719 Z " fill="#000000"/><text fill="#000000" font-family="sans-serif" font-size="12" lengthAdjust="spacingAndGlyphs" textLength="93" x="1289.5" y="292.1543">CompilationUnit</text><line style="stroke:#A80036;stroke-width:1.5;" x1="1261.5" x2="1384.5" y1="304" y2="304"/><line style="stroke:#A80036;stroke-width:1.5;" x1="1261.5" x2="1384.5" y1="312" y2="312"/><!--MD5=[3646dcb3ebc8bde5c16d7453bfec9e8c]
class org.eclipse.jdt.core.dom.VariableDeclarationFragment--><rect codeLine="5" fill="#FEFECE" filter="url(#fjbspebgb760)" height="48" id="org.eclipse.jdt.core.dom.VariableDeclarationFragment" style="stroke:#A80036;stroke-width:1.5;" width="206" x="1691" y="488"/><ellipse cx="1706" cy="504" fill="#ADD1B2" rx="11" ry="11" style="stroke:#A80036;stroke-width:1.0;"/><path d="M1708.3438,499.6719 C1707.4063,499.2344 1706.8125,499.0938 1705.9375,499.0938 C1703.3125,499.0938 1701.3125,501.1719 1701.3125,503.8906 L1701.3125,505.0156 C1701.3125,507.5938 1703.4219,509.4844 1706.3125,509.4844 C1707.5313,509.4844 1708.6875,509.1875 1709.4375,508.6406 C1710.0156,508.2344 1710.3438,507.7813 1710.3438,507.3906 C1710.3438,506.9375 1709.9531,506.5469 1709.4844,506.5469 C1709.2656,506.5469 1709.0625,506.625 1708.875,506.8125 C1708.4219,507.2969 1708.4219,507.2969 1708.2344,507.3906 C1707.8125,507.6563 1707.125,507.7813 1706.3594,507.7813 C1704.3125,507.7813 1703.0156,506.6875 1703.0156,504.9844 L1703.0156,503.8906 C1703.0156,502.1094 1704.2656,500.7969 1706,500.7969 C1706.5781,500.7969 1707.1875,500.9531 1707.6563,501.2031 C1708.1406,501.4844 1708.3125,501.7031 1708.4063,502.1094 C1708.4688,502.5156 1708.5,502.6406 1708.6406,502.7656 C1708.7813,502.9063 1709.0156,503.0156 1709.2344,503.0156 C1709.5,503.0156 1709.7656,502.875 1709.9375,502.6563 C1710.0469,502.5 1710.0781,502.3125 1710.0781,501.8906 L1710.0781,500.4688 C1710.0781,500.0313 1710.0625,499.9063 1709.9688,499.75 C1709.8125,499.4844 1709.5313,499.3438 1709.2344,499.3438 C1708.9375,499.3438 1708.7344,499.4375 1708.5156,499.75 L1708.3438,499.6719 Z " fill="#000000"/><text fill="#000000" font-family="sans-serif" font-size="12" lengthAdjust="spacingAndGlyphs" textLength="174" x="1720" y="508.1543">VariableDeclarationFragment</text><line style="stroke:#A80036;stroke-width:1.5;" x1="1692" x2="1896" y1="520" y2="520"/><line style="stroke:#A80036;stroke-width:1.5;" x1="1692" x2="1896" y1="528" y2="528"/><!--MD5=[bcf0c44048c959307ddd3db50db84fd0]
class org.eclipse.jdt.core.dom.MethodDeclaration--><rect codeLine="6" fill="#FEFECE" filter="url(#fjbspebgb760)" height="48" id="org.eclipse.jdt.core.dom.MethodDeclaration" style="stroke:#A80036;stroke-width:1.5;" width="145" x="364.5" y="488"/><ellipse cx="379.5" cy="504" fill="#ADD1B2" rx="11" ry="11" style="stroke:#A80036;stroke-width:1.0;"/><path d="M381.8438,499.6719 C380.9063,499.2344 380.3125,499.0938 379.4375,499.0938 C376.8125,499.0938 374.8125,501.1719 374.8125,503.8906 L374.8125,505.0156 C374.8125,507.5938 376.9219,509.4844 379.8125,509.4844 C381.0313,509.4844 382.1875,509.1875 382.9375,508.6406 C383.5156,508.2344 383.8438,507.7813 383.8438,507.3906 C383.8438,506.9375 383.4531,506.5469 382.9844,506.5469 C382.7656,506.5469 382.5625,506.625 382.375,506.8125 C381.9219,507.2969 381.9219,507.2969 381.7344,507.3906 C381.3125,507.6563 380.625,507.7813 379.8594,507.7813 C377.8125,507.7813 376.5156,506.6875 376.5156,504.9844 L376.5156,503.8906 C376.5156,502.1094 377.7656,500.7969 379.5,500.7969 C380.0781,500.7969 380.6875,500.9531 381.1563,501.2031 C381.6406,501.4844 381.8125,501.7031 381.9063,502.1094 C381.9688,502.5156 382,502.6406 382.1406,502.7656 C382.2813,502.9063 382.5156,503.0156 382.7344,503.0156 C383,503.0156 383.2656,502.875 383.4375,502.6563 C383.5469,502.5 383.5781,502.3125 383.5781,501.8906 L383.5781,500.4688 C383.5781,500.0313 383.5625,499.9063 383.4688,499.75 C383.3125,499.4844 383.0313,499.3438 382.7344,499.3438 C382.4375,499.3438 382.2344,499.4375 382.0156,499.75 L381.8438,499.6719 Z " fill="#000000"/><text fill="#000000" font-family="sans-serif" font-size="12" lengthAdjust="spacingAndGlyphs" textLength="113" x="393.5" y="508.1543">MethodDeclaration</text><line style="stroke:#A80036;stroke-width:1.5;" x1="365.5" x2="508.5" y1="520" y2="520"/><line style="stroke:#A80036;stroke-width:1.5;" x1="365.5" x2="508.5" y1="528" y2="528"/><!--MD5=[01d26c28d0555c5553c80af4bd2bd9e8]
class org.eclipse.jdt.core.dom.ClassInstanceCreation--><rect codeLine="7" fill="#FEFECE" filter="url(#fjbspebgb760)" height="48" id="org.eclipse.jdt.core.dom.ClassInstanceCreation" style="stroke:#A80036;stroke-width:1.5;" width="164" x="915" y="488"/><ellipse cx="930" cy="504" fill="#ADD1B2" rx="11" ry="11" style="stroke:#A80036;stroke-width:1.0;"/><path d="M932.3438,499.6719 C931.4063,499.2344 930.8125,499.0938 929.9375,499.0938 C927.3125,499.0938 925.3125,501.1719 925.3125,503.8906 L925.3125,505.0156 C925.3125,507.5938 927.4219,509.4844 930.3125,509.4844 C931.5313,509.4844 932.6875,509.1875 933.4375,508.6406 C934.0156,508.2344 934.3438,507.7813 934.3438,507.3906 C934.3438,506.9375 933.9531,506.5469 933.4844,506.5469 C933.2656,506.5469 933.0625,506.625 932.875,506.8125 C932.4219,507.2969 932.4219,507.2969 932.2344,507.3906 C931.8125,507.6563 931.125,507.7813 930.3594,507.7813 C928.3125,507.7813 927.0156,506.6875 927.0156,504.9844 L927.0156,503.8906 C927.0156,502.1094 928.2656,500.7969 930,500.7969 C930.5781,500.7969 931.1875,500.9531 931.6563,501.2031 C932.1406,501.4844 932.3125,501.7031 932.4063,502.1094 C932.4688,502.5156 932.5,502.6406 932.6406,502.7656 C932.7813,502.9063 933.0156,503.0156 933.2344,503.0156 C933.5,503.0156 933.7656,502.875 933.9375,502.6563 C934.0469,502.5 934.0781,502.3125 934.0781,501.8906 L934.0781,500.4688 C934.0781,500.0313 934.0625,499.9063 933.9688,499.75 C933.8125,499.4844 933.5313,499.3438 933.2344,499.3438 C932.9375,499.3438 932.7344,499.4375 932.5156,499.75 L932.3438,499.6719 Z " fill="#000000"/><text fill="#000000" font-family="sans-serif" font-size="12" lengthAdjust="spacingAndGlyphs" textLength="132" x="944" y="508.1543">ClassInstanceCreation</text><line style="stroke:#A80036;stroke-width:1.5;" x1="916" x2="1078" y1="520" y2="520"/><line style="stroke:#A80036;stroke-width:1.5;" x1="916" x2="1078" y1="528" y2="528"/><!--MD5=[a4d3a96bd0ecccd03dc046445ca835ce]
class org.eclipse.jdt.core.dom.ExpressionStatement--><rect codeLine="8" fill="#FEFECE" filter="url(#fjbspebgb760)" height="48" id="org.eclipse.jdt.core.dom.ExpressionStatement" style="stroke:#A80036;stroke-width:1.5;" width="160" x="1114" y="488"/><ellipse cx="1129" cy="504" fill="#ADD1B2" rx="11" ry="11" style="stroke:#A80036;stroke-width:1.0;"/><path d="M1131.3438,499.6719 C1130.4063,499.2344 1129.8125,499.0938 1128.9375,499.0938 C1126.3125,499.0938 1124.3125,501.1719 1124.3125,503.8906 L1124.3125,505.0156 C1124.3125,507.5938 1126.4219,509.4844 1129.3125,509.4844 C1130.5313,509.4844 1131.6875,509.1875 1132.4375,508.6406 C1133.0156,508.2344 1133.3438,507.7813 1133.3438,507.3906 C1133.3438,506.9375 1132.9531,506.5469 1132.4844,506.5469 C1132.2656,506.5469 1132.0625,506.625 1131.875,506.8125 C1131.4219,507.2969 1131.4219,507.2969 1131.2344,507.3906 C1130.8125,507.6563 1130.125,507.7813 1129.3594,507.7813 C1127.3125,507.7813 1126.0156,506.6875 1126.0156,504.9844 L1126.0156,503.8906 C1126.0156,502.1094 1127.2656,500.7969 1129,500.7969 C1129.5781,500.7969 1130.1875,500.9531 1130.6563,501.2031 C1131.1406,501.4844 1131.3125,501.7031 1131.4063,502.1094 C1131.4688,502.5156 1131.5,502.6406 1131.6406,502.7656 C1131.7813,502.9063 1132.0156,503.0156 1132.2344,503.0156 C1132.5,503.0156 1132.7656,502.875 1132.9375,502.6563 C1133.0469,502.5 1133.0781,502.3125 1133.0781,501.8906 L1133.0781,500.4688 C1133.0781,500.0313 1133.0625,499.9063 1132.9688,499.75 C1132.8125,499.4844 1132.5313,499.3438 1132.2344,499.3438 C1131.9375,499.3438 1131.7344,499.4375 1131.5156,499.75 L1131.3438,499.6719 Z " fill="#000000"/><text fill="#000000" font-family="sans-serif" font-size="12" lengthAdjust="spacingAndGlyphs" textLength="128" x="1143" y="508.1543">ExpressionStatement</text><line style="stroke:#A80036;stroke-width:1.5;" x1="1115" x2="1273" y1="520" y2="520"/><line style="stroke:#A80036;stroke-width:1.5;" x1="1115" x2="1273" y1="528" y2="528"/><!--MD5=[d0e0a836fbb70e4a56901df409b980fd]
class org.eclipse.jdt.core.dom.PackageDeclaration--><rect codeLine="9" fill="#FEFECE" filter="url(#fjbspebgb760)" height="48" id="org.eclipse.jdt.core.dom.PackageDeclaration" style="stroke:#A80036;stroke-width:1.5;" width="150" x="545" y="488"/><ellipse cx="560" cy="504" fill="#ADD1B2" rx="11" ry="11" style="stroke:#A80036;stroke-width:1.0;"/><path d="M562.3438,499.6719 C561.4063,499.2344 560.8125,499.0938 559.9375,499.0938 C557.3125,499.0938 555.3125,501.1719 555.3125,503.8906 L555.3125,505.0156 C555.3125,507.5938 557.4219,509.4844 560.3125,509.4844 C561.5313,509.4844 562.6875,509.1875 563.4375,508.6406 C564.0156,508.2344 564.3438,507.7813 564.3438,507.3906 C564.3438,506.9375 563.9531,506.5469 563.4844,506.5469 C563.2656,506.5469 563.0625,506.625 562.875,506.8125 C562.4219,507.2969 562.4219,507.2969 562.2344,507.3906 C561.8125,507.6563 561.125,507.7813 560.3594,507.7813 C558.3125,507.7813 557.0156,506.6875 557.0156,504.9844 L557.0156,503.8906 C557.0156,502.1094 558.2656,500.7969 560,500.7969 C560.5781,500.7969 561.1875,500.9531 561.6563,501.2031 C562.1406,501.4844 562.3125,501.7031 562.4063,502.1094 C562.4688,502.5156 562.5,502.6406 562.6406,502.7656 C562.7813,502.9063 563.0156,503.0156 563.2344,503.0156 C563.5,503.0156 563.7656,502.875 563.9375,502.6563 C564.0469,502.5 564.0781,502.3125 564.0781,501.8906 L564.0781,500.4688 C564.0781,500.0313 564.0625,499.9063 563.9688,499.75 C563.8125,499.4844 563.5313,499.3438 563.2344,499.3438 C562.9375,499.3438 562.7344,499.4375 562.5156,499.75 L562.3438,499.6719 Z " fill="#000000"/><text fill="#000000" font-family="sans-serif" font-size="12" lengthAdjust="spacingAndGlyphs" textLength="118" x="574" y="508.1543">PackageDeclaration</text><line style="stroke:#A80036;stroke-width:1.5;" x1="546" x2="694" y1="520" y2="520"/><line style="stroke:#A80036;stroke-width:1.5;" x1="546" x2="694" y1="528" y2="528"/><!--MD5=[e8d7f3130103893b102790ee27ced939]
class org.eclipse.jdt.core.dom.ParameterizedType--><rect codeLine="10" fill="#FEFECE" filter="url(#fjbspebgb760)" height="48" id="org.eclipse.jdt.core.dom.ParameterizedType" style="stroke:#A80036;stroke-width:1.5;" width="149" x="730.5" y="488"/><ellipse cx="745.5" cy="504" fill="#ADD1B2" rx="11" ry="11" style="stroke:#A80036;stroke-width:1.0;"/><path d="M747.8438,499.6719 C746.9063,499.2344 746.3125,499.0938 745.4375,499.0938 C742.8125,499.0938 740.8125,501.1719 740.8125,503.8906 L740.8125,505.0156 C740.8125,507.5938 742.9219,509.4844 745.8125,509.4844 C747.0313,509.4844 748.1875,509.1875 748.9375,508.6406 C749.5156,508.2344 749.8438,507.7813 749.8438,507.3906 C749.8438,506.9375 749.4531,506.5469 748.9844,506.5469 C748.7656,506.5469 748.5625,506.625 748.375,506.8125 C747.9219,507.2969 747.9219,507.2969 747.7344,507.3906 C747.3125,507.6563 746.625,507.7813 745.8594,507.7813 C743.8125,507.7813 742.5156,506.6875 742.5156,504.9844 L742.5156,503.8906 C742.5156,502.1094 743.7656,500.7969 745.5,500.7969 C746.0781,500.7969 746.6875,500.9531 747.1563,501.2031 C747.6406,501.4844 747.8125,501.7031 747.9063,502.1094 C747.9688,502.5156 748,502.6406 748.1406,502.7656 C748.2813,502.9063 748.5156,503.0156 748.7344,503.0156 C749,503.0156 749.2656,502.875 749.4375,502.6563 C749.5469,502.5 749.5781,502.3125 749.5781,501.8906 L749.5781,500.4688 C749.5781,500.0313 749.5625,499.9063 749.4688,499.75 C749.3125,499.4844 749.0313,499.3438 748.7344,499.3438 C748.4375,499.3438 748.2344,499.4375 748.0156,499.75 L747.8438,499.6719 Z " fill="#000000"/><text fill="#000000" font-family="sans-serif" font-size="12" lengthAdjust="spacingAndGlyphs" textLength="117" x="759.5" y="508.1543">ParameterizedType</text><line style="stroke:#A80036;stroke-width:1.5;" x1="731.5" x2="878.5" y1="520" y2="520"/><line style="stroke:#A80036;stroke-width:1.5;" x1="731.5" x2="878.5" y1="528" y2="528"/><!--MD5=[20b661fbd9962092b29ae70008360699]
class org.eclipse.jdt.core.dom.TypeDeclaration--><rect codeLine="11" fill="#FEFECE" filter="url(#fjbspebgb760)" height="48" id="org.eclipse.jdt.core.dom.TypeDeclaration" style="stroke:#A80036;stroke-width:1.5;" width="130" x="199" y="488"/><ellipse cx="214" cy="504" fill="#ADD1B2" rx="11" ry="11" style="stroke:#A80036;stroke-width:1.0;"/><path d="M216.3438,499.6719 C215.4063,499.2344 214.8125,499.0938 213.9375,499.0938 C211.3125,499.0938 209.3125,501.1719 209.3125,503.8906 L209.3125,505.0156 C209.3125,507.5938 211.4219,509.4844 214.3125,509.4844 C215.5313,509.4844 216.6875,509.1875 217.4375,508.6406 C218.0156,508.2344 218.3438,507.7813 218.3438,507.3906 C218.3438,506.9375 217.9531,506.5469 217.4844,506.5469 C217.2656,506.5469 217.0625,506.625 216.875,506.8125 C216.4219,507.2969 216.4219,507.2969 216.2344,507.3906 C215.8125,507.6563 215.125,507.7813 214.3594,507.7813 C212.3125,507.7813 211.0156,506.6875 211.0156,504.9844 L211.0156,503.8906 C211.0156,502.1094 212.2656,500.7969 214,500.7969 C214.5781,500.7969 215.1875,500.9531 215.6563,501.2031 C216.1406,501.4844 216.3125,501.7031 216.4063,502.1094 C216.4688,502.5156 216.5,502.6406 216.6406,502.7656 C216.7813,502.9063 217.0156,503.0156 217.2344,503.0156 C217.5,503.0156 217.7656,502.875 217.9375,502.6563 C218.0469,502.5 218.0781,502.3125 218.0781,501.8906 L218.0781,500.4688 C218.0781,500.0313 218.0625,499.9063 217.9688,499.75 C217.8125,499.4844 217.5313,499.3438 217.2344,499.3438 C216.9375,499.3438 216.7344,499.4375 216.5156,499.75 L216.3438,499.6719 Z " fill="#000000"/><text fill="#000000" font-family="sans-serif" font-size="12" lengthAdjust="spacingAndGlyphs" textLength="98" x="228" y="508.1543">TypeDeclaration</text><line style="stroke:#A80036;stroke-width:1.5;" x1="200" x2="328" y1="520" y2="520"/><line style="stroke:#A80036;stroke-width:1.5;" x1="200" x2="328" y1="528" y2="528"/><!--MD5=[0eb6ebc2e0fba0acccccc62289cbf454]
class org.eclipse.jdt.core.dom.VariableDeclarationStatement--><rect codeLine="13" fill="#FEFECE" filter="url(#fjbspebgb760)" height="48" id="org.eclipse.jdt.core.dom.VariableDeclarationStatement" style="stroke:#A80036;stroke-width:1.5;" width="210" x="1309" y="488"/><ellipse cx="1324" cy="504" fill="#ADD1B2" rx="11" ry="11" style="stroke:#A80036;stroke-width:1.0;"/><path d="M1326.3438,499.6719 C1325.4063,499.2344 1324.8125,499.0938 1323.9375,499.0938 C1321.3125,499.0938 1319.3125,501.1719 1319.3125,503.8906 L1319.3125,505.0156 C1319.3125,507.5938 1321.4219,509.4844 1324.3125,509.4844 C1325.5313,509.4844 1326.6875,509.1875 1327.4375,508.6406 C1328.0156,508.2344 1328.3438,507.7813 1328.3438,507.3906 C1328.3438,506.9375 1327.9531,506.5469 1327.4844,506.5469 C1327.2656,506.5469 1327.0625,506.625 1326.875,506.8125 C1326.4219,507.2969 1326.4219,507.2969 1326.2344,507.3906 C1325.8125,507.6563 1325.125,507.7813 1324.3594,507.7813 C1322.3125,507.7813 1321.0156,506.6875 1321.0156,504.9844 L1321.0156,503.8906 C1321.0156,502.1094 1322.2656,500.7969 1324,500.7969 C1324.5781,500.7969 1325.1875,500.9531 1325.6563,501.2031 C1326.1406,501.4844 1326.3125,501.7031 1326.4063,502.1094 C1326.4688,502.5156 1326.5,502.6406 1326.6406,502.7656 C1326.7813,502.9063 1327.0156,503.0156 1327.2344,503.0156 C1327.5,503.0156 1327.7656,502.875 1327.9375,502.6563 C1328.0469,502.5 1328.0781,502.3125 1328.0781,501.8906 L1328.0781,500.4688 C1328.0781,500.0313 1328.0625,499.9063 1327.9688,499.75 C1327.8125,499.4844 1327.5313,499.3438 1327.2344,499.3438 C1326.9375,499.3438 1326.7344,499.4375 1326.5156,499.75 L1326.3438,499.6719 Z " fill="#000000"/><text fill="#000000" font-family="sans-serif" font-size="12" lengthAdjust="spacingAndGlyphs" textLength="178" x="1338" y="508.1543">VariableDeclarationStatement</text><line style="stroke:#A80036;stroke-width:1.5;" x1="1310" x2="1518" y1="520" y2="520"/><line style="stroke:#A80036;stroke-width:1.5;" x1="1310" x2="1518" y1="528" y2="528"/><!--MD5=[478f211e43ea5a0d265a55a9a03620b4]
class org.eclipse.jdt.core.dom.EnumDeclaration--><rect codeLine="14" fill="#FEFECE" filter="url(#fjbspebgb760)" height="48" id="org.eclipse.jdt.core.dom.EnumDeclaration" style="stroke:#A80036;stroke-width:1.5;" width="132" x="32" y="488"/><ellipse cx="47" cy="504" fill="#ADD1B2" rx="11" ry="11" style="stroke:#A80036;stroke-width:1.0;"/><path d="M49.3438,499.6719 C48.4063,499.2344 47.8125,499.0938 46.9375,499.0938 C44.3125,499.0938 42.3125,501.1719 42.3125,503.8906 L42.3125,505.0156 C42.3125,507.5938 44.4219,509.4844 47.3125,509.4844 C48.5313,509.4844 49.6875,509.1875 50.4375,508.6406 C51.0156,508.2344 51.3438,507.7813 51.3438,507.3906 C51.3438,506.9375 50.9531,506.5469 50.4844,506.5469 C50.2656,506.5469 50.0625,506.625 49.875,506.8125 C49.4219,507.2969 49.4219,507.2969 49.2344,507.3906 C48.8125,507.6563 48.125,507.7813 47.3594,507.7813 C45.3125,507.7813 44.0156,506.6875 44.0156,504.9844 L44.0156,503.8906 C44.0156,502.1094 45.2656,500.7969 47,500.7969 C47.5781,500.7969 48.1875,500.9531 48.6563,501.2031 C49.1406,501.4844 49.3125,501.7031 49.4063,502.1094 C49.4688,502.5156 49.5,502.6406 49.6406,502.7656 C49.7813,502.9063 50.0156,503.0156 50.2344,503.0156 C50.5,503.0156 50.7656,502.875 50.9375,502.6563 C51.0469,502.5 51.0781,502.3125 51.0781,501.8906 L51.0781,500.4688 C51.0781,500.0313 51.0625,499.9063 50.9688,499.75 C50.8125,499.4844 50.5313,499.3438 50.2344,499.3438 C49.9375,499.3438 49.7344,499.4375 49.5156,499.75 L49.3438,499.6719 Z " fill="#000000"/><text fill="#000000" font-family="sans-serif" font-size="12" lengthAdjust="spacingAndGlyphs" textLength="100" x="61" y="508.1543">EnumDeclaration</text><line style="stroke:#A80036;stroke-width:1.5;" x1="33" x2="163" y1="520" y2="520"/><line style="stroke:#A80036;stroke-width:1.5;" x1="33" x2="163" y1="528" y2="528"/><!--MD5=[777463e4c10ed9296eaae53a1f500ca4]
class org.eclipse.jdt.core.dom.Assignment--><rect codeLine="15" fill="#FEFECE" filter="url(#fjbspebgb760)" height="48" id="org.eclipse.jdt.core.dom.Assignment" style="stroke:#A80036;stroke-width:1.5;" width="102" x="1554" y="488"/><ellipse cx="1569" cy="504" fill="#ADD1B2" rx="11" ry="11" style="stroke:#A80036;stroke-width:1.0;"/><path d="M1571.3438,499.6719 C1570.4063,499.2344 1569.8125,499.0938 1568.9375,499.0938 C1566.3125,499.0938 1564.3125,501.1719 1564.3125,503.8906 L1564.3125,505.0156 C1564.3125,507.5938 1566.4219,509.4844 1569.3125,509.4844 C1570.5313,509.4844 1571.6875,509.1875 1572.4375,508.6406 C1573.0156,508.2344 1573.3438,507.7813 1573.3438,507.3906 C1573.3438,506.9375 1572.9531,506.5469 1572.4844,506.5469 C1572.2656,506.5469 1572.0625,506.625 1571.875,506.8125 C1571.4219,507.2969 1571.4219,507.2969 1571.2344,507.3906 C1570.8125,507.6563 1570.125,507.7813 1569.3594,507.7813 C1567.3125,507.7813 1566.0156,506.6875 1566.0156,504.9844 L1566.0156,503.8906 C1566.0156,502.1094 1567.2656,500.7969 1569,500.7969 C1569.5781,500.7969 1570.1875,500.9531 1570.6563,501.2031 C1571.1406,501.4844 1571.3125,501.7031 1571.4063,502.1094 C1571.4688,502.5156 1571.5,502.6406 1571.6406,502.7656 C1571.7813,502.9063 1572.0156,503.0156 1572.2344,503.0156 C1572.5,503.0156 1572.7656,502.875 1572.9375,502.6563 C1573.0469,502.5 1573.0781,502.3125 1573.0781,501.8906 L1573.0781,500.4688 C1573.0781,500.0313 1573.0625,499.9063 1572.9688,499.75 C1572.8125,499.4844 1572.5313,499.3438 1572.2344,499.3438 C1571.9375,499.3438 1571.7344,499.4375 1571.5156,499.75 L1571.3438,499.6719 Z " fill="#000000"/><text fill="#000000" font-family="sans-serif" font-size="12" lengthAdjust="spacingAndGlyphs" textLength="70" x="1583" y="508.1543">Assignment</text><line style="stroke:#A80036;stroke-width:1.5;" x1="1555" x2="1655" y1="520" y2="520"/><line style="stroke:#A80036;stroke-width:1.5;" x1="1555" x2="1655" y1="528" y2="528"/><!--MD5=[6c005ade106806a56f04cb72a4a05bec]
class org.eclipse.jdt.core.dom.ASTVisitor--><rect fill="#FEFECE" filter="url(#fjbspebgb760)" height="48" id="org.eclipse.jdt.core.dom.ASTVisitor" style="stroke:#A80036;stroke-width:1.5;" width="93" x="950.5" y="380"/><ellipse cx="965.5" cy="396" fill="#ADD1B2" rx="11" ry="11" style="stroke:#A80036;stroke-width:1.0;"/><path d="M967.8438,391.6719 C966.9063,391.2344 966.3125,391.0938 965.4375,391.0938 C962.8125,391.0938 960.8125,393.1719 960.8125,395.8906 L960.8125,397.0156 C960.8125,399.5938 962.9219,401.4844 965.8125,401.4844 C967.0313,401.4844 968.1875,401.1875 968.9375,400.6406 C969.5156,400.2344 969.8438,399.7813 969.8438,399.3906 C969.8438,398.9375 969.4531,398.5469 968.9844,398.5469 C968.7656,398.5469 968.5625,398.625 968.375,398.8125 C967.9219,399.2969 967.9219,399.2969 967.7344,399.3906 C967.3125,399.6563 966.625,399.7813 965.8594,399.7813 C963.8125,399.7813 962.5156,398.6875 962.5156,396.9844 L962.5156,395.8906 C962.5156,394.1094 963.7656,392.7969 965.5,392.7969 C966.0781,392.7969 966.6875,392.9531 967.1563,393.2031 C967.6406,393.4844 967.8125,393.7031 967.9063,394.1094 C967.9688,394.5156 968,394.6406 968.1406,394.7656 C968.2813,394.9063 968.5156,395.0156 968.7344,395.0156 C969,395.0156 969.2656,394.875 969.4375,394.6563 C969.5469,394.5 969.5781,394.3125 969.5781,393.8906 L969.5781,392.4688 C969.5781,392.0313 969.5625,391.9063 969.4688,391.75 C969.3125,391.4844 969.0313,391.3438 968.7344,391.3438 C968.4375,391.3438 968.2344,391.4375 968.0156,391.75 L967.8438,391.6719 Z " fill="#000000"/><text fill="#000000" font-family="sans-serif" font-size="12" lengthAdjust="spacingAndGlyphs" textLength="61" x="979.5" y="400.1543">ASTVisitor</text><line style="stroke:#A80036;stroke-width:1.5;" x1="951.5" x2="1042.5" y1="412" y2="412"/><line style="stroke:#A80036;stroke-width:1.5;" x1="951.5" x2="1042.5" y1="420" y2="420"/><!--MD5=[029835e2ded6e2a5c3b7c2c1170c10eb]
link com.urjc.mca.tfm.generateuml.JavaAnalyzerEclipseAST to org.eclipse.jdt.core.dom.CompilationUnit--><path codeLine="16" d="M1420.32,89.004 C1416.22,118.642 1406.67,171.201 1387,212 C1377.16,232.398 1361.77,252.579 1348.54,267.934 " fill="none" id="com.urjc.mca.tfm.generateuml.JavaAnalyzerEclipseAST-to-org.eclipse.jdt.core.dom.CompilationUnit" style="stroke:#A80036;stroke-width:1.0;stroke-dasharray:7.0,7.0;"/><polygon fill="#A80036" points="1345.23,271.73,1354.1588,267.5736,1348.5152,267.9608,1348.128,262.3172,1345.23,271.73" style="stroke:#A80036;stroke-width:1.0;"/><!--MD5=[34cab9a6072e9858572fddc7dec59882]
link org.eclipse.jdt.core.dom.CompilationUnit to org.eclipse.jdt.core.dom.ASTVisitor--><path codeLine="17" d="M1260.14,317.438 C1198.72,337.41 1106.32,367.455 1048.94,386.113 " fill="none" id="org.eclipse.jdt.core.dom.CompilationUnit-to-org.eclipse.jdt.core.dom.ASTVisitor" style="stroke:#A80036;stroke-width:1.0;stroke-dasharray:7.0,7.0;"/><polygon fill="#A80036" points="1043.84,387.77,1053.6351,388.7975,1048.596,386.2271,1051.1664,381.1879,1043.84,387.77" style="stroke:#A80036;stroke-width:1.0;"/><!--MD5=[05322a7dd6d6190e904121ce3daa3700]
link org.eclipse.jdt.core.dom.ASTVisitor to org.eclipse.jdt.core.dom.TypeDeclaration--><path codeLine="18" d="M950.124,408.664 C842.67,417.568 570.609,442.983 347,488 C342.786,488.848 338.471,489.796 334.132,490.811 " fill="none" id="org.eclipse.jdt.core.dom.ASTVisitor-to-org.eclipse.jdt.core.dom.TypeDeclaration" style="stroke:#A80036;stroke-width:1.0;stroke-dasharray:7.0,7.0;"/><polygon fill="#A80036" points="329.031,492.03,338.7145,493.8272,333.8939,490.8671,336.8539,486.0465,329.031,492.03" style="stroke:#A80036;stroke-width:1.0;"/><!--MD5=[012576c3693a382b9d26c3fea09b0d3e]
link org.eclipse.jdt.core.dom.ASTVisitor to org.eclipse.jdt.core.dom.MethodDeclaration--><path codeLine="19" d="M950.41,412.034 C865.732,425.082 681.095,454.753 527,488 C522.921,488.88 518.747,489.817 514.539,490.791 " fill="none" id="org.eclipse.jdt.core.dom.ASTVisitor-to-org.eclipse.jdt.core.dom.MethodDeclaration" style="stroke:#A80036;stroke-width:1.0;stroke-dasharray:7.0,7.0;"/><polygon fill="#A80036" points="509.587,491.949,519.2619,493.7918,514.4553,490.8091,517.438,486.0025,509.587,491.949" style="stroke:#A80036;stroke-width:1.0;"/><!--MD5=[435db353db163c08d41e876eaf4e1a75]
link org.eclipse.jdt.core.dom.ASTVisitor to org.eclipse.jdt.core.dom.ClassInstanceCreation--><path codeLine="20" d="M997,428 C997,444.003 997,465.446 997,482.528 " fill="none" id="org.eclipse.jdt.core.dom.ASTVisitor-to-org.eclipse.jdt.core.dom.ClassInstanceCreation" style="stroke:#A80036;stroke-width:1.0;stroke-dasharray:7.0,7.0;"/><polygon fill="#A80036" points="997,487.678,1001,478.678,997,482.678,993,478.678,997,487.678" style="stroke:#A80036;stroke-width:1.0;"/><!--MD5=[0904f7633b9f8f38ee8b1e62886c19f6]
link org.eclipse.jdt.core.dom.TypeDeclaration to com.urjc.mca.tfm.generateuml.model.Unit--><path codeLine="21" d="M300.201,536.076 C314.401,544.433 331.083,553.423 347,560 C429.013,593.8893 531.412,617.1725 583.014,627.6734 " fill="none" id="org.eclipse.jdt.core.dom.TypeDeclaration-to-com.urjc.mca.tfm.generateuml.model.Unit" style="stroke:#A80036;stroke-width:1.0;stroke-dasharray:7.0,7.0;"/><polygon fill="#A80036" points="588.148,628.71,580.1182,623.0072,583.247,627.72,578.5342,630.8489,588.148,628.71" style="stroke:#A80036;stroke-width:1.0;"/><!--MD5=[86339fa1feca51ebf337a643f0d8215f]
link org.eclipse.jdt.core.dom.EnumDeclaration to com.urjc.mca.tfm.generateuml.model.Unit--><path codeLine="22" d="M132.656,536.194 C147.068,544.874 164.307,554.06 181,560 C325.31,611.3521 509.564,627.6301 583.328,632.2964 " fill="none" id="org.eclipse.jdt.core.dom.EnumDeclaration-to-com.urjc.mca.tfm.generateuml.model.Unit" style="stroke:#A80036;stroke-width:1.0;stroke-dasharray:7.0,7.0;"/><polygon fill="#A80036" points="588.446,632.6126,579.71,628.0648,583.4555,632.304,579.2163,636.0495,588.446,632.6126" style="stroke:#A80036;stroke-width:1.0;"/><!--MD5=[0f035b33e551859d88e83d995cd9def2]
link org.eclipse.jdt.core.dom.ASTVisitor to org.eclipse.jdt.core.dom.EnumDeclaration--><path codeLine="23" d="M950.143,406.994 C824.559,412.932 470.337,433.6 181,488 C177.177,488.719 173.274,489.529 169.346,490.405 " fill="none" id="org.eclipse.jdt.core.dom.ASTVisitor-to-org.eclipse.jdt.core.dom.EnumDeclaration" style="stroke:#A80036;stroke-width:1.0;stroke-dasharray:7.0,7.0;"/><polygon fill="#A80036" points="164.362,491.547,174.0281,493.4353,169.2356,490.43,172.2409,485.6375,164.362,491.547" style="stroke:#A80036;stroke-width:1.0;"/><!--MD5=[47122138642ec215b341970a3bb984bd]
link org.eclipse.jdt.core.dom.ASTVisitor to org.eclipse.jdt.core.dom.ParameterizedType--><path codeLine="24" d="M955.339,428 C924.749,444.889 883.183,467.837 851.51,485.323 " fill="none" id="org.eclipse.jdt.core.dom.ASTVisitor-to-org.eclipse.jdt.core.dom.ParameterizedType" style="stroke:#A80036;stroke-width:1.0;stroke-dasharray:7.0,7.0;"/><polygon fill="#A80036" points="846.911,487.862,856.7232,487.0129,851.288,485.445,852.8559,480.0097,846.911,487.862" style="stroke:#A80036;stroke-width:1.0;"/><!--MD5=[21930e28c69e81570a290158e11a43b3]
link org.eclipse.jdt.core.dom.ASTVisitor to org.eclipse.jdt.core.dom.Assignment--><path codeLine="25" d="M1043.66,409.5 C1137.74,419.161 1356.55,444.604 1536,488 C1540.15,489.003 1544.4,490.141 1548.66,491.362 " fill="none" id="org.eclipse.jdt.core.dom.ASTVisitor-to-org.eclipse.jdt.core.dom.Assignment" style="stroke:#A80036;stroke-width:1.0;stroke-dasharray:7.0,7.0;"/><polygon fill="#A80036" points="1553.66,492.83,1546.141,486.4688,1548.8602,491.4292,1543.8998,494.1484,1553.66,492.83" style="stroke:#A80036;stroke-width:1.0;"/><!--MD5=[ed3dc1f32a63450d82832dc4fcb683f2]
link org.eclipse.jdt.core.dom.ASTVisitor to org.eclipse.jdt.core.dom.VariableDeclarationFragment--><path codeLine="26" d="M1043.86,409.682 C1153.96,420.916 1437.6,451.216 1673,488 C1677.18,488.653 1681.43,489.341 1685.72,490.057 " fill="none" id="org.eclipse.jdt.core.dom.ASTVisitor-to-org.eclipse.jdt.core.dom.VariableDeclarationFragment" style="stroke:#A80036;stroke-width:1.0;stroke-dasharray:7.0,7.0;"/><polygon fill="#A80036" points="1690.77,490.909,1682.5725,485.4499,1685.8415,490.0666,1681.2248,493.3356,1690.77,490.909" style="stroke:#A80036;stroke-width:1.0;"/><!--MD5=[f0d0f0cb51057d7f93c2abfc2ee887dc]
link org.eclipse.jdt.core.dom.ASTVisitor to org.eclipse.jdt.core.dom.ExpressionStatement--><path codeLine="27" d="M1039.75,428 C1071.13,444.889 1113.78,467.837 1146.28,485.323 " fill="none" id="org.eclipse.jdt.core.dom.ASTVisitor-to-org.eclipse.jdt.core.dom.ExpressionStatement" style="stroke:#A80036;stroke-width:1.0;stroke-dasharray:7.0,7.0;"/><polygon fill="#A80036" points="1151,487.862,1144.9524,480.0885,1146.5916,485.5027,1141.1775,487.1419,1151,487.862" style="stroke:#A80036;stroke-width:1.0;"/><!--MD5=[74e93fc5080fe546a6ec5d6e01c3a9a2]
link org.eclipse.jdt.core.dom.ASTVisitor to org.eclipse.jdt.core.dom.VariableDeclarationStatement--><path codeLine="28" d="M1043.62,416.851 C1109.78,433.669 1232.41,464.84 1318.38,486.694 " fill="none" id="org.eclipse.jdt.core.dom.ASTVisitor-to-org.eclipse.jdt.core.dom.VariableDeclarationStatement" style="stroke:#A80036;stroke-width:1.0;stroke-dasharray:7.0,7.0;"/><polygon fill="#A80036" points="1323.47,487.988,1315.7291,481.8988,1318.6233,486.7592,1313.763,489.6535,1323.47,487.988" style="stroke:#A80036;stroke-width:1.0;"/><!--MD5=[a494263d08eea4ebcfbbb0562ebfb0ad]
link org.eclipse.jdt.core.dom.ASTVisitor to org.eclipse.jdt.core.dom.PackageDeclaration--><path codeLine="29" d="M950.394,418.104 C887.936,435.665 776.145,467.097 700.065,488.488 " fill="none" id="org.eclipse.jdt.core.dom.ASTVisitor-to-org.eclipse.jdt.core.dom.PackageDeclaration" style="stroke:#A80036;stroke-width:1.0;stroke-dasharray:7.0,7.0;"/><polygon fill="#A80036" points="695.107,489.882,704.8539,491.2954,699.9202,488.528,702.6876,483.5943,695.107,489.882" style="stroke:#A80036;stroke-width:1.0;"/><!--MD5=[adf2ef385b74af2c9160434b501eb48c]
link com.urjc.mca.tfm.generateuml.JavaAnalyzerEclipseAST to com.urjc.mca.tfm.generateuml.model.Domain--><path codeLine="30" d="M1510.55,70.328 C1643.46,77.708 1883.83,94.549 1913,121 C1971.57,174.108 1950,215.938 1950,295 C1950,295 1950,295 1950,405 C1950,475.824 1967.21,514.421 1913,560 C1823.34,635.3891 965.602,635.4022 760.77,634.3169 " fill="none" id="com.urjc.mca.tfm.generateuml.JavaAnalyzerEclipseAST-to-com.urjc.mca.tfm.generateuml.model.Domain" style="stroke:#A80036;stroke-width:1.0;stroke-dasharray:7.0,7.0;"/><polygon fill="#A80036" points="755.764,634.2895,764.741,638.3409,760.7639,634.3181,764.7867,630.341,755.764,634.2895" style="stroke:#A80036;stroke-width:1.0;"/><!--MD5=[48bf6721a392af1c2f8ca880e713c790]
link com.urjc.mca.tfm.generateuml.JavaAnalyzerEclipseAST to org.eclipse.jdt.core.dom.ASTParser--><path codeLine="31" d="M1403.96,89.044 C1387.31,109.184 1363.12,138.453 1345.52,159.75 " fill="none" id="com.urjc.mca.tfm.generateuml.JavaAnalyzerEclipseAST-to-org.eclipse.jdt.core.dom.ASTParser" style="stroke:#A80036;stroke-width:1.0;stroke-dasharray:7.0,7.0;"/><polygon fill="#A80036" points="1342.31,163.63,1351.1244,159.2361,1345.4932,159.7742,1344.9551,154.143,1342.31,163.63" style="stroke:#A80036;stroke-width:1.0;"/><!--MD5=[e6adc0769aab4eb6e2b6ba45556e302c]
link org.eclipse.jdt.core.dom.ASTParser to org.eclipse.jdt.core.dom.CompilationUnit--><path codeLine="32" d="M1323,212 C1323,228.003 1323,249.446 1323,266.528 " fill="none" id="org.eclipse.jdt.core.dom.ASTParser-to-org.eclipse.jdt.core.dom.CompilationUnit" style="stroke:#A80036;stroke-width:1.0;stroke-dasharray:7.0,7.0;"/><polygon fill="#A80036" points="1323,271.678,1327,262.678,1323,266.678,1319,262.678,1323,271.678" style="stroke:#A80036;stroke-width:1.0;"/><!--MD5=[d164ec837733ea4b5a2ca915e2b4ea83]
link org.eclipse.jdt.core.dom.MethodDeclaration to com.urjc.mca.tfm.generateuml.model.Domain--><path codeLine="33" d="M472.765,536.123 C488.72,545.242 508.145,554.773 527,560 C555.746,567.97 634.315,554.666 661,568 C677.811,576.401 691.562,592.3447 701.23,606.4571 " fill="none" id="org.eclipse.jdt.core.dom.MethodDeclaration-to-com.urjc.mca.tfm.generateuml.model.Domain" style="stroke:#A80036;stroke-width:1.0;stroke-dasharray:7.0,7.0;"/><polygon fill="#A80036" points="704.098,610.7677,702.4408,601.0593,701.3275,606.6055,695.7813,605.4921,704.098,610.7677" style="stroke:#A80036;stroke-width:1.0;"/><!--MD5=[1c5ff87548cb90277a6eb976e19e98ed]
link org.eclipse.jdt.core.dom.ClassInstanceCreation to com.urjc.mca.tfm.generateuml.model.Domain--><path codeLine="34" d="M949.153,536.074 C932.702,543.851 914.118,552.464 897,560 C850.684,580.39 796.95,602.2511 760.332,616.8826 " fill="none" id="org.eclipse.jdt.core.dom.ClassInstanceCreation-to-com.urjc.mca.tfm.generateuml.model.Domain" style="stroke:#A80036;stroke-width:1.0;stroke-dasharray:7.0,7.0;"/><polygon fill="#A80036" points="755.505,618.8088,765.3466,619.1861,760.1485,616.9547,762.38,611.7565,755.505,618.8088" style="stroke:#A80036;stroke-width:1.0;"/><!--MD5=[58e4d783794d4aeabeb12b047600737e]
link org.eclipse.jdt.core.dom.ExpressionStatement to com.urjc.mca.tfm.generateuml.model.Domain--><path codeLine="35" d="M1152.05,536.018 C1135.05,544.569 1114.99,553.708 1096,560 C978.078,599.079 832.295,620.356 760.769,629.1274 " fill="none" id="org.eclipse.jdt.core.dom.ExpressionStatement-to-com.urjc.mca.tfm.generateuml.model.Domain" style="stroke:#A80036;stroke-width:1.0;stroke-dasharray:7.0,7.0;"/><polygon fill="#A80036" points="755.749,629.7374,765.1656,632.6231,760.7125,629.1345,764.2011,624.6814,755.749,629.7374" style="stroke:#A80036;stroke-width:1.0;"/><!--MD5=[bad69af2bcdb48e7a013d13aa16aad59]
link org.eclipse.jdt.core.dom.TypeDeclaration to com.urjc.mca.tfm.generateuml.model.Domain--><path codeLine="36" d="M296.275,536.181 C311.006,545.431 329.127,555.047 347,560 C380.632,569.321 629.519,552.935 661,568 C678.075,576.171 691.905,592.2812 701.55,606.5389 " fill="none" id="org.eclipse.jdt.core.dom.TypeDeclaration-to-com.urjc.mca.tfm.generateuml.model.Domain" style="stroke:#A80036;stroke-width:1.0;stroke-dasharray:7.0,7.0;"/><polygon fill="#A80036" points="704.407,610.8933,702.813,601.1743,701.6636,606.7131,696.1248,605.5637,704.407,610.8933" style="stroke:#A80036;stroke-width:1.0;"/><!--MD5=[759b2a2668ab469ff75b74c14f136be7]
link org.eclipse.jdt.core.dom.VariableDeclarationStatement to com.urjc.mca.tfm.generateuml.model.Domain--><path codeLine="37" d="M1361.91,536.042 C1340.34,544.753 1314.83,554.001 1291,560 C1096.92,608.8557 857.359,626.4842 760.588,631.9025 " fill="none" id="org.eclipse.jdt.core.dom.VariableDeclarationStatement-to-com.urjc.mca.tfm.generateuml.model.Domain" style="stroke:#A80036;stroke-width:1.0;stroke-dasharray:7.0,7.0;"/><polygon fill="#A80036" points="755.531,632.1817,764.7379,635.6793,760.5234,631.906,764.2967,627.6915,755.531,632.1817" style="stroke:#A80036;stroke-width:1.0;"/><!--MD5=[c35c8c293128bb3e9e4cc1c423b62061]
link org.eclipse.jdt.core.dom.EnumDeclaration to com.urjc.mca.tfm.generateuml.model.Domain--><path codeLine="38" d="M129.861,536.008 C144.658,545.348 162.946,555.082 181,560 C206.733,567.01 636.892,556.594 661,568 C678.111,576.096 691.942,592.2047 701.577,606.4806 " fill="none" id="org.eclipse.jdt.core.dom.EnumDeclaration-to-com.urjc.mca.tfm.generateuml.model.Domain" style="stroke:#A80036;stroke-width:1.0;stroke-dasharray:7.0,7.0;"/><polygon fill="#A80036" points="704.432,610.8413,702.85,601.1203,701.6938,606.6578,696.1563,605.5015,704.432,610.8413" style="stroke:#A80036;stroke-width:1.0;"/><!--MD5=[2447c2948fcd5d368a6124d8f6b30d42]
link org.eclipse.jdt.core.dom.Assignment to com.urjc.mca.tfm.generateuml.model.Domain--><path codeLine="39" d="M1577.92,536.177 C1565.86,545.188 1551.01,554.622 1536,560 C1391.05,611.9324 908.958,628.8854 760.738,632.9365 " fill="none" id="org.eclipse.jdt.core.dom.Assignment-to-com.urjc.mca.tfm.generateuml.model.Domain" style="stroke:#A80036;stroke-width:1.0;stroke-dasharray:7.0,7.0;"/><polygon fill="#A80036" points="755.607,633.0752,764.7123,636.8294,760.6052,632.9395,764.4951,628.8324,755.607,633.0752" style="stroke:#A80036;stroke-width:1.0;"/><!--MD5=[189176421da731655ce8f45882fa3f23]
@startuml
class com.urjc.mca.tfm.generateuml.JavaAnalyzerEclipseAST
class com.urjc.mca.tfm.generateuml.model.Domain
class org.eclipse.jdt.core.dom.ASTParser
class org.eclipse.jdt.core.dom.CompilationUnit
class org.eclipse.jdt.core.dom.VariableDeclarationFragment
class org.eclipse.jdt.core.dom.MethodDeclaration
class org.eclipse.jdt.core.dom.ClassInstanceCreation
class org.eclipse.jdt.core.dom.ExpressionStatement
class org.eclipse.jdt.core.dom.PackageDeclaration
class org.eclipse.jdt.core.dom.ParameterizedType
class org.eclipse.jdt.core.dom.TypeDeclaration
class com.urjc.mca.tfm.generateuml.model.Unit
class org.eclipse.jdt.core.dom.VariableDeclarationStatement
class org.eclipse.jdt.core.dom.EnumDeclaration
class org.eclipse.jdt.core.dom.Assignment
com.urjc.mca.tfm.generateuml.JavaAnalyzerEclipseAST ..> org.eclipse.jdt.core.dom.CompilationUnit
org.eclipse.jdt.core.dom.CompilationUnit ..> org.eclipse.jdt.core.dom.ASTVisitor
org.eclipse.jdt.core.dom.ASTVisitor ..> org.eclipse.jdt.core.dom.TypeDeclaration
org.eclipse.jdt.core.dom.ASTVisitor ..> org.eclipse.jdt.core.dom.MethodDeclaration
org.eclipse.jdt.core.dom.ASTVisitor ..> org.eclipse.jdt.core.dom.ClassInstanceCreation
org.eclipse.jdt.core.dom.TypeDeclaration ..> com.urjc.mca.tfm.generateuml.model.Unit
org.eclipse.jdt.core.dom.EnumDeclaration ..> com.urjc.mca.tfm.generateuml.model.Unit
org.eclipse.jdt.core.dom.ASTVisitor ..> org.eclipse.jdt.core.dom.EnumDeclaration
org.eclipse.jdt.core.dom.ASTVisitor ..> org.eclipse.jdt.core.dom.ParameterizedType
org.eclipse.jdt.core.dom.ASTVisitor ..> org.eclipse.jdt.core.dom.Assignment
org.eclipse.jdt.core.dom.ASTVisitor..> org.eclipse.jdt.core.dom.VariableDeclarationFragment
org.eclipse.jdt.core.dom.ASTVisitor ..> org.eclipse.jdt.core.dom.ExpressionStatement
org.eclipse.jdt.core.dom.ASTVisitor ..> org.eclipse.jdt.core.dom.VariableDeclarationStatement
org.eclipse.jdt.core.dom.ASTVisitor..> org.eclipse.jdt.core.dom.PackageDeclaration
com.urjc.mca.tfm.generateuml.JavaAnalyzerEclipseAST ..> com.urjc.mca.tfm.generateuml.model.Domain
com.urjc.mca.tfm.generateuml.JavaAnalyzerEclipseAST ..> org.eclipse.jdt.core.dom.ASTParser
org.eclipse.jdt.core.dom.ASTParser ..> org.eclipse.jdt.core.dom.CompilationUnit
org.eclipse.jdt.core.dom.MethodDeclaration ..> com.urjc.mca.tfm.generateuml.model.Domain
org.eclipse.jdt.core.dom.ClassInstanceCreation ..> com.urjc.mca.tfm.generateuml.model.Domain
org.eclipse.jdt.core.dom.ExpressionStatement ..> com.urjc.mca.tfm.generateuml.model.Domain
org.eclipse.jdt.core.dom.TypeDeclaration ..> com.urjc.mca.tfm.generateuml.model.Domain
org.eclipse.jdt.core.dom.VariableDeclarationStatement ..> com.urjc.mca.tfm.generateuml.model.Domain
org.eclipse.jdt.core.dom.EnumDeclaration ..> com.urjc.mca.tfm.generateuml.model.Domain
org.eclipse.jdt.core.dom.Assignment ..> com.urjc.mca.tfm.generateuml.model.Domain
@enduml

PlantUML version 1.2020.22beta2(Unknown compile time)
(GPL source distribution)
Java Runtime: Java(TM) SE Runtime Environment
JVM: Java HotSpot(TM) 64-Bit Server VM
Default Encoding: UTF-8
Language: en
Country: US
--></g></svg>