<?xml version="1.0" encoding="UTF-8" standalone="no"?>
<svg xmlns="http://www.w3.org/2000/svg" contentScriptType="application/ecmascript" contentStyleType="text/css"
     height="328px" preserveAspectRatio="none" style="width:1258px;height:328px;" version="1.1" viewBox="0 0 1258 328"
     width="1258px" zoomAndPan="magnify"><defs><filter height="300%" id="ftspbmqyygoac" width="300%" x="-1" y="-1"><feGaussianBlur result="blurOut" stdDeviation="2.0"/><feColorMatrix in="blurOut" result="blurOut2" type="matrix" values="0 0 0 0 0 0 0 0 0 0 0 0 0 0 0 0 0 0 .4 0"/><feOffset dx="4.0" dy="4.0" in="blurOut2" result="blurOut3"/><feBlend in="SourceGraphic" in2="blurOut3" mode="normal"/></filter></defs><g><!--MD5=[99dd8b6df412fca688bb489fee29bcf4]
cluster afferent X--><polygon fill="#FFFFFF" filter="url(#ftspbmqyygoac)" points="16,6,105,6,112,28.2969,402,28.2969,402,321,16,321,16,6" style="stroke:#000000;stroke-width:1.5;"/><line style="stroke:#000000;stroke-width:1.5;" x1="16" x2="112" y1="28.2969" y2="28.2969"/><text fill="#000000" font-family="sans-serif" font-size="14" font-weight="bold" lengthAdjust="spacingAndGlyphs" textLength="83" x="20" y="20.9951">afferent X</text><!--MD5=[38c929fba5af1bc3482eb4e3166f5216]
cluster afferent Base_de_X--><polygon fill="#FFFFFF" filter="url(#ftspbmqyygoac)" points="426,6,587,6,594,28.2969,597,28.2969,597,213,426,213,426,6" style="stroke:#000000;stroke-width:1.5;"/><line style="stroke:#000000;stroke-width:1.5;" x1="426" x2="594" y1="28.2969" y2="28.2969"/><text fill="#000000" font-family="sans-serif" font-size="14" font-weight="bold" lengthAdjust="spacingAndGlyphs" textLength="155" x="430" y="20.9951">afferent Base_de_X</text><!--MD5=[7656b6c06fff1ae5de3564c8c9928256]
cluster afferent Parte_de_X--><polygon fill="#FFFFFF" filter="url(#ftspbmqyygoac)" points="621,6,787,6,794,28.2969,797,28.2969,797,213,621,213,621,6" style="stroke:#000000;stroke-width:1.5;"/><line style="stroke:#000000;stroke-width:1.5;" x1="621" x2="794" y1="28.2969" y2="28.2969"/><text fill="#000000" font-family="sans-serif" font-size="14" font-weight="bold" lengthAdjust="spacingAndGlyphs" textLength="160" x="625" y="20.9951">afferent Parte_de_X</text><!--MD5=[caec8bc7d6bbb91db57fb50d14488297]
cluster afferent Asociada_de_X--><polygon fill="#FFFFFF" filter="url(#ftspbmqyygoac)" points="821,6,1017,6,1024,28.2969,1027,28.2969,1027,213,821,213,821,6" style="stroke:#000000;stroke-width:1.5;"/><line style="stroke:#000000;stroke-width:1.5;" x1="821" x2="1024" y1="28.2969" y2="28.2969"/><text fill="#000000" font-family="sans-serif" font-size="14" font-weight="bold" lengthAdjust="spacingAndGlyphs" textLength="190" x="825" y="20.9951">afferent Asociada_de_X</text><!--MD5=[35abec803f74d20514e4dfc6a1181cf6]
cluster afferent Usada_por_X--><polygon fill="#FFFFFF" filter="url(#ftspbmqyygoac)" points="1051,6,1231,6,1238,28.2969,1241,28.2969,1241,213,1051,213,1051,6" style="stroke:#000000;stroke-width:1.5;"/><line style="stroke:#000000;stroke-width:1.5;" x1="1051" x2="1238" y1="28.2969" y2="28.2969"/><text fill="#000000" font-family="sans-serif" font-size="14" font-weight="bold" lengthAdjust="spacingAndGlyphs" textLength="174" x="1055" y="20.9951">afferent Usada_por_X</text><!--MD5=[03edfea51289ec132f60bb029eac77b5]
class afferent X.Todo_de_X--><rect codeLine="1" fill="#FEFECE" filter="url(#ftspbmqyygoac)" height="48" id="afferent X.Todo_de_X" style="stroke:#A80036;stroke-width:1.5;" width="99" x="286.5" y="41"/><ellipse cx="301.5" cy="57" fill="#ADD1B2" rx="11" ry="11" style="stroke:#A80036;stroke-width:1.0;"/><path d="M303.8438,52.6719 C302.9063,52.2344 302.3125,52.0938 301.4375,52.0938 C298.8125,52.0938 296.8125,54.1719 296.8125,56.8906 L296.8125,58.0156 C296.8125,60.5938 298.9219,62.4844 301.8125,62.4844 C303.0313,62.4844 304.1875,62.1875 304.9375,61.6406 C305.5156,61.2344 305.8438,60.7813 305.8438,60.3906 C305.8438,59.9375 305.4531,59.5469 304.9844,59.5469 C304.7656,59.5469 304.5625,59.625 304.375,59.8125 C303.9219,60.2969 303.9219,60.2969 303.7344,60.3906 C303.3125,60.6563 302.625,60.7813 301.8594,60.7813 C299.8125,60.7813 298.5156,59.6875 298.5156,57.9844 L298.5156,56.8906 C298.5156,55.1094 299.7656,53.7969 301.5,53.7969 C302.0781,53.7969 302.6875,53.9531 303.1563,54.2031 C303.6406,54.4844 303.8125,54.7031 303.9063,55.1094 C303.9688,55.5156 304,55.6406 304.1406,55.7656 C304.2813,55.9063 304.5156,56.0156 304.7344,56.0156 C305,56.0156 305.2656,55.875 305.4375,55.6563 C305.5469,55.5 305.5781,55.3125 305.5781,54.8906 L305.5781,53.4688 C305.5781,53.0313 305.5625,52.9063 305.4688,52.75 C305.3125,52.4844 305.0313,52.3438 304.7344,52.3438 C304.4375,52.3438 304.2344,52.4375 304.0156,52.75 L303.8438,52.6719 Z " fill="#000000"/><text fill="#000000" font-family="sans-serif" font-size="12" lengthAdjust="spacingAndGlyphs" textLength="67" x="315.5" y="61.1543">Todo_de_X</text><line style="stroke:#A80036;stroke-width:1.5;" x1="287.5" x2="384.5" y1="73" y2="73"/><line style="stroke:#A80036;stroke-width:1.5;" x1="287.5" x2="384.5" y1="81" y2="81"/><!--MD5=[67441d4cd35b41646fe31905d5e6dab4]
class afferent X.Usa_X--><rect codeLine="2" fill="#FEFECE" filter="url(#ftspbmqyygoac)" height="48" id="afferent X.Usa_X" style="stroke:#A80036;stroke-width:1.5;" width="69" x="182.5" y="41"/><ellipse cx="197.5" cy="57" fill="#ADD1B2" rx="11" ry="11" style="stroke:#A80036;stroke-width:1.0;"/><path d="M199.8438,52.6719 C198.9063,52.2344 198.3125,52.0938 197.4375,52.0938 C194.8125,52.0938 192.8125,54.1719 192.8125,56.8906 L192.8125,58.0156 C192.8125,60.5938 194.9219,62.4844 197.8125,62.4844 C199.0313,62.4844 200.1875,62.1875 200.9375,61.6406 C201.5156,61.2344 201.8438,60.7813 201.8438,60.3906 C201.8438,59.9375 201.4531,59.5469 200.9844,59.5469 C200.7656,59.5469 200.5625,59.625 200.375,59.8125 C199.9219,60.2969 199.9219,60.2969 199.7344,60.3906 C199.3125,60.6563 198.625,60.7813 197.8594,60.7813 C195.8125,60.7813 194.5156,59.6875 194.5156,57.9844 L194.5156,56.8906 C194.5156,55.1094 195.7656,53.7969 197.5,53.7969 C198.0781,53.7969 198.6875,53.9531 199.1563,54.2031 C199.6406,54.4844 199.8125,54.7031 199.9063,55.1094 C199.9688,55.5156 200,55.6406 200.1406,55.7656 C200.2813,55.9063 200.5156,56.0156 200.7344,56.0156 C201,56.0156 201.2656,55.875 201.4375,55.6563 C201.5469,55.5 201.5781,55.3125 201.5781,54.8906 L201.5781,53.4688 C201.5781,53.0313 201.5625,52.9063 201.4688,52.75 C201.3125,52.4844 201.0313,52.3438 200.7344,52.3438 C200.4375,52.3438 200.2344,52.4375 200.0156,52.75 L199.8438,52.6719 Z " fill="#000000"/><text fill="#000000" font-family="sans-serif" font-size="12" lengthAdjust="spacingAndGlyphs" textLength="37" x="211.5" y="61.1543">Usa_X</text><line style="stroke:#A80036;stroke-width:1.5;" x1="183.5" x2="250.5" y1="73" y2="73"/><line style="stroke:#A80036;stroke-width:1.5;" x1="183.5" x2="250.5" y1="81" y2="81"/><!--MD5=[8ed6f213f1e6cb6879251bbfb45986eb]
class afferent X.Asociado_a_X--><rect codeLine="3" fill="#FEFECE" filter="url(#ftspbmqyygoac)" height="48" id="afferent X.Asociado_a_X" style="stroke:#A80036;stroke-width:1.5;" width="115" x="32.5" y="41"/><ellipse cx="47.5" cy="57" fill="#ADD1B2" rx="11" ry="11" style="stroke:#A80036;stroke-width:1.0;"/><path d="M49.8438,52.6719 C48.9063,52.2344 48.3125,52.0938 47.4375,52.0938 C44.8125,52.0938 42.8125,54.1719 42.8125,56.8906 L42.8125,58.0156 C42.8125,60.5938 44.9219,62.4844 47.8125,62.4844 C49.0313,62.4844 50.1875,62.1875 50.9375,61.6406 C51.5156,61.2344 51.8438,60.7813 51.8438,60.3906 C51.8438,59.9375 51.4531,59.5469 50.9844,59.5469 C50.7656,59.5469 50.5625,59.625 50.375,59.8125 C49.9219,60.2969 49.9219,60.2969 49.7344,60.3906 C49.3125,60.6563 48.625,60.7813 47.8594,60.7813 C45.8125,60.7813 44.5156,59.6875 44.5156,57.9844 L44.5156,56.8906 C44.5156,55.1094 45.7656,53.7969 47.5,53.7969 C48.0781,53.7969 48.6875,53.9531 49.1563,54.2031 C49.6406,54.4844 49.8125,54.7031 49.9063,55.1094 C49.9688,55.5156 50,55.6406 50.1406,55.7656 C50.2813,55.9063 50.5156,56.0156 50.7344,56.0156 C51,56.0156 51.2656,55.875 51.4375,55.6563 C51.5469,55.5 51.5781,55.3125 51.5781,54.8906 L51.5781,53.4688 C51.5781,53.0313 51.5625,52.9063 51.4688,52.75 C51.3125,52.4844 51.0313,52.3438 50.7344,52.3438 C50.4375,52.3438 50.2344,52.4375 50.0156,52.75 L49.8438,52.6719 Z " fill="#000000"/><text fill="#000000" font-family="sans-serif" font-size="12" lengthAdjust="spacingAndGlyphs" textLength="83" x="61.5" y="61.1543">Asociado_a_X</text><line style="stroke:#A80036;stroke-width:1.5;" x1="33.5" x2="146.5" y1="73" y2="73"/><line style="stroke:#A80036;stroke-width:1.5;" x1="33.5" x2="146.5" y1="81" y2="81"/><!--MD5=[715177340bc28670ee9a4e4fed7d9df4]
class afferent X.Descendiente_de_X--><rect codeLine="4" fill="#FEFECE" filter="url(#ftspbmqyygoac)" height="48" id="afferent X.Descendiente_de_X" style="stroke:#A80036;stroke-width:1.5;" width="152" x="141" y="257"/><ellipse cx="156" cy="273" fill="#ADD1B2" rx="11" ry="11" style="stroke:#A80036;stroke-width:1.0;"/><path d="M158.3438,268.6719 C157.4063,268.2344 156.8125,268.0938 155.9375,268.0938 C153.3125,268.0938 151.3125,270.1719 151.3125,272.8906 L151.3125,274.0156 C151.3125,276.5938 153.4219,278.4844 156.3125,278.4844 C157.5313,278.4844 158.6875,278.1875 159.4375,277.6406 C160.0156,277.2344 160.3438,276.7813 160.3438,276.3906 C160.3438,275.9375 159.9531,275.5469 159.4844,275.5469 C159.2656,275.5469 159.0625,275.625 158.875,275.8125 C158.4219,276.2969 158.4219,276.2969 158.2344,276.3906 C157.8125,276.6563 157.125,276.7813 156.3594,276.7813 C154.3125,276.7813 153.0156,275.6875 153.0156,273.9844 L153.0156,272.8906 C153.0156,271.1094 154.2656,269.7969 156,269.7969 C156.5781,269.7969 157.1875,269.9531 157.6563,270.2031 C158.1406,270.4844 158.3125,270.7031 158.4063,271.1094 C158.4688,271.5156 158.5,271.6406 158.6406,271.7656 C158.7813,271.9063 159.0156,272.0156 159.2344,272.0156 C159.5,272.0156 159.7656,271.875 159.9375,271.6563 C160.0469,271.5 160.0781,271.3125 160.0781,270.8906 L160.0781,269.4688 C160.0781,269.0313 160.0625,268.9063 159.9688,268.75 C159.8125,268.4844 159.5313,268.3438 159.2344,268.3438 C158.9375,268.3438 158.7344,268.4375 158.5156,268.75 L158.3438,268.6719 Z " fill="#000000"/><text fill="#000000" font-family="sans-serif" font-size="12" lengthAdjust="spacingAndGlyphs" textLength="120" x="170" y="277.1543">Descendiente_de_X</text><line style="stroke:#A80036;stroke-width:1.5;" x1="142" x2="292" y1="289" y2="289"/><line style="stroke:#A80036;stroke-width:1.5;" x1="142" x2="292" y1="297" y2="297"/><!--MD5=[ab933961ea6cf2807964d33181a516b6]
class afferent X.X--><rect fill="#FEFECE" filter="url(#ftspbmqyygoac)" height="48" id="afferent X.X" style="stroke:#A80036;stroke-width:1.5;" width="40" x="197" y="149"/><ellipse cx="212" cy="165" fill="#ADD1B2" rx="11" ry="11" style="stroke:#A80036;stroke-width:1.0;"/><path d="M214.3438,160.6719 C213.4063,160.2344 212.8125,160.0938 211.9375,160.0938 C209.3125,160.0938 207.3125,162.1719 207.3125,164.8906 L207.3125,166.0156 C207.3125,168.5938 209.4219,170.4844 212.3125,170.4844 C213.5313,170.4844 214.6875,170.1875 215.4375,169.6406 C216.0156,169.2344 216.3438,168.7813 216.3438,168.3906 C216.3438,167.9375 215.9531,167.5469 215.4844,167.5469 C215.2656,167.5469 215.0625,167.625 214.875,167.8125 C214.4219,168.2969 214.4219,168.2969 214.2344,168.3906 C213.8125,168.6563 213.125,168.7813 212.3594,168.7813 C210.3125,168.7813 209.0156,167.6875 209.0156,165.9844 L209.0156,164.8906 C209.0156,163.1094 210.2656,161.7969 212,161.7969 C212.5781,161.7969 213.1875,161.9531 213.6563,162.2031 C214.1406,162.4844 214.3125,162.7031 214.4063,163.1094 C214.4688,163.5156 214.5,163.6406 214.6406,163.7656 C214.7813,163.9063 215.0156,164.0156 215.2344,164.0156 C215.5,164.0156 215.7656,163.875 215.9375,163.6563 C216.0469,163.5 216.0781,163.3125 216.0781,162.8906 L216.0781,161.4688 C216.0781,161.0313 216.0625,160.9063 215.9688,160.75 C215.8125,160.4844 215.5313,160.3438 215.2344,160.3438 C214.9375,160.3438 214.7344,160.4375 214.5156,160.75 L214.3438,160.6719 Z " fill="#000000"/><text fill="#000000" font-family="sans-serif" font-size="12" lengthAdjust="spacingAndGlyphs" textLength="8" x="226" y="169.1543">X</text><line style="stroke:#A80036;stroke-width:1.5;" x1="198" x2="236" y1="181" y2="181"/><line style="stroke:#A80036;stroke-width:1.5;" x1="198" x2="236" y1="189" y2="189"/><!--MD5=[7937826fe85a875258299b555dde29f6]
class afferent Base_de_X.X--><rect codeLine="5" fill="#FEFECE" filter="url(#ftspbmqyygoac)" height="48" id="afferent Base_de_X.X" style="stroke:#A80036;stroke-width:1.5;" width="40" x="491" y="149"/><ellipse cx="506" cy="165" fill="#ADD1B2" rx="11" ry="11" style="stroke:#A80036;stroke-width:1.0;"/><path d="M508.3438,160.6719 C507.4063,160.2344 506.8125,160.0938 505.9375,160.0938 C503.3125,160.0938 501.3125,162.1719 501.3125,164.8906 L501.3125,166.0156 C501.3125,168.5938 503.4219,170.4844 506.3125,170.4844 C507.5313,170.4844 508.6875,170.1875 509.4375,169.6406 C510.0156,169.2344 510.3438,168.7813 510.3438,168.3906 C510.3438,167.9375 509.9531,167.5469 509.4844,167.5469 C509.2656,167.5469 509.0625,167.625 508.875,167.8125 C508.4219,168.2969 508.4219,168.2969 508.2344,168.3906 C507.8125,168.6563 507.125,168.7813 506.3594,168.7813 C504.3125,168.7813 503.0156,167.6875 503.0156,165.9844 L503.0156,164.8906 C503.0156,163.1094 504.2656,161.7969 506,161.7969 C506.5781,161.7969 507.1875,161.9531 507.6563,162.2031 C508.1406,162.4844 508.3125,162.7031 508.4063,163.1094 C508.4688,163.5156 508.5,163.6406 508.6406,163.7656 C508.7813,163.9063 509.0156,164.0156 509.2344,164.0156 C509.5,164.0156 509.7656,163.875 509.9375,163.6563 C510.0469,163.5 510.0781,163.3125 510.0781,162.8906 L510.0781,161.4688 C510.0781,161.0313 510.0625,160.9063 509.9688,160.75 C509.8125,160.4844 509.5313,160.3438 509.2344,160.3438 C508.9375,160.3438 508.7344,160.4375 508.5156,160.75 L508.3438,160.6719 Z " fill="#000000"/><text fill="#000000" font-family="sans-serif" font-size="12" lengthAdjust="spacingAndGlyphs" textLength="8" x="520" y="169.1543">X</text><line style="stroke:#A80036;stroke-width:1.5;" x1="492" x2="530" y1="181" y2="181"/><line style="stroke:#A80036;stroke-width:1.5;" x1="492" x2="530" y1="189" y2="189"/><!--MD5=[6e2fbde308cfb16bde0341698cdefff3]
class afferent Base_de_X.Base_de_X--><rect fill="#FEFECE" filter="url(#ftspbmqyygoac)" height="48" id="afferent Base_de_X.Base_de_X" style="stroke:#A80036;stroke-width:1.5;" width="98" x="462" y="41"/><ellipse cx="477" cy="57" fill="#ADD1B2" rx="11" ry="11" style="stroke:#A80036;stroke-width:1.0;"/><path d="M479.3438,52.6719 C478.4063,52.2344 477.8125,52.0938 476.9375,52.0938 C474.3125,52.0938 472.3125,54.1719 472.3125,56.8906 L472.3125,58.0156 C472.3125,60.5938 474.4219,62.4844 477.3125,62.4844 C478.5313,62.4844 479.6875,62.1875 480.4375,61.6406 C481.0156,61.2344 481.3438,60.7813 481.3438,60.3906 C481.3438,59.9375 480.9531,59.5469 480.4844,59.5469 C480.2656,59.5469 480.0625,59.625 479.875,59.8125 C479.4219,60.2969 479.4219,60.2969 479.2344,60.3906 C478.8125,60.6563 478.125,60.7813 477.3594,60.7813 C475.3125,60.7813 474.0156,59.6875 474.0156,57.9844 L474.0156,56.8906 C474.0156,55.1094 475.2656,53.7969 477,53.7969 C477.5781,53.7969 478.1875,53.9531 478.6563,54.2031 C479.1406,54.4844 479.3125,54.7031 479.4063,55.1094 C479.4688,55.5156 479.5,55.6406 479.6406,55.7656 C479.7813,55.9063 480.0156,56.0156 480.2344,56.0156 C480.5,56.0156 480.7656,55.875 480.9375,55.6563 C481.0469,55.5 481.0781,55.3125 481.0781,54.8906 L481.0781,53.4688 C481.0781,53.0313 481.0625,52.9063 480.9688,52.75 C480.8125,52.4844 480.5313,52.3438 480.2344,52.3438 C479.9375,52.3438 479.7344,52.4375 479.5156,52.75 L479.3438,52.6719 Z " fill="#000000"/><text fill="#000000" font-family="sans-serif" font-size="12" lengthAdjust="spacingAndGlyphs" textLength="66" x="491" y="61.1543">Base_de_X</text><line style="stroke:#A80036;stroke-width:1.5;" x1="463" x2="559" y1="73" y2="73"/><line style="stroke:#A80036;stroke-width:1.5;" x1="463" x2="559" y1="81" y2="81"/><!--MD5=[923d4f75171e8f42b5b146a87de062ee]
class afferent Parte_de_X.X--><rect codeLine="6" fill="#FEFECE" filter="url(#ftspbmqyygoac)" height="48" id="afferent Parte_de_X.X" style="stroke:#A80036;stroke-width:1.5;" width="40" x="689" y="41"/><ellipse cx="704" cy="57" fill="#ADD1B2" rx="11" ry="11" style="stroke:#A80036;stroke-width:1.0;"/><path d="M706.3438,52.6719 C705.4063,52.2344 704.8125,52.0938 703.9375,52.0938 C701.3125,52.0938 699.3125,54.1719 699.3125,56.8906 L699.3125,58.0156 C699.3125,60.5938 701.4219,62.4844 704.3125,62.4844 C705.5313,62.4844 706.6875,62.1875 707.4375,61.6406 C708.0156,61.2344 708.3438,60.7813 708.3438,60.3906 C708.3438,59.9375 707.9531,59.5469 707.4844,59.5469 C707.2656,59.5469 707.0625,59.625 706.875,59.8125 C706.4219,60.2969 706.4219,60.2969 706.2344,60.3906 C705.8125,60.6563 705.125,60.7813 704.3594,60.7813 C702.3125,60.7813 701.0156,59.6875 701.0156,57.9844 L701.0156,56.8906 C701.0156,55.1094 702.2656,53.7969 704,53.7969 C704.5781,53.7969 705.1875,53.9531 705.6563,54.2031 C706.1406,54.4844 706.3125,54.7031 706.4063,55.1094 C706.4688,55.5156 706.5,55.6406 706.6406,55.7656 C706.7813,55.9063 707.0156,56.0156 707.2344,56.0156 C707.5,56.0156 707.7656,55.875 707.9375,55.6563 C708.0469,55.5 708.0781,55.3125 708.0781,54.8906 L708.0781,53.4688 C708.0781,53.0313 708.0625,52.9063 707.9688,52.75 C707.8125,52.4844 707.5313,52.3438 707.2344,52.3438 C706.9375,52.3438 706.7344,52.4375 706.5156,52.75 L706.3438,52.6719 Z " fill="#000000"/><text fill="#000000" font-family="sans-serif" font-size="12" lengthAdjust="spacingAndGlyphs" textLength="8" x="718" y="61.1543">X</text><line style="stroke:#A80036;stroke-width:1.5;" x1="690" x2="728" y1="73" y2="73"/><line style="stroke:#A80036;stroke-width:1.5;" x1="690" x2="728" y1="81" y2="81"/><!--MD5=[9ecf1cfee1538a1e3d42ac90e074e26f]
class afferent Parte_de_X.Parte_de_X--><rect fill="#FEFECE" filter="url(#ftspbmqyygoac)" height="48" id="afferent Parte_de_X.Parte_de_X" style="stroke:#A80036;stroke-width:1.5;" width="98" x="660" y="149"/><ellipse cx="675" cy="165" fill="#ADD1B2" rx="11" ry="11" style="stroke:#A80036;stroke-width:1.0;"/><path d="M677.3438,160.6719 C676.4063,160.2344 675.8125,160.0938 674.9375,160.0938 C672.3125,160.0938 670.3125,162.1719 670.3125,164.8906 L670.3125,166.0156 C670.3125,168.5938 672.4219,170.4844 675.3125,170.4844 C676.5313,170.4844 677.6875,170.1875 678.4375,169.6406 C679.0156,169.2344 679.3438,168.7813 679.3438,168.3906 C679.3438,167.9375 678.9531,167.5469 678.4844,167.5469 C678.2656,167.5469 678.0625,167.625 677.875,167.8125 C677.4219,168.2969 677.4219,168.2969 677.2344,168.3906 C676.8125,168.6563 676.125,168.7813 675.3594,168.7813 C673.3125,168.7813 672.0156,167.6875 672.0156,165.9844 L672.0156,164.8906 C672.0156,163.1094 673.2656,161.7969 675,161.7969 C675.5781,161.7969 676.1875,161.9531 676.6563,162.2031 C677.1406,162.4844 677.3125,162.7031 677.4063,163.1094 C677.4688,163.5156 677.5,163.6406 677.6406,163.7656 C677.7813,163.9063 678.0156,164.0156 678.2344,164.0156 C678.5,164.0156 678.7656,163.875 678.9375,163.6563 C679.0469,163.5 679.0781,163.3125 679.0781,162.8906 L679.0781,161.4688 C679.0781,161.0313 679.0625,160.9063 678.9688,160.75 C678.8125,160.4844 678.5313,160.3438 678.2344,160.3438 C677.9375,160.3438 677.7344,160.4375 677.5156,160.75 L677.3438,160.6719 Z " fill="#000000"/><text fill="#000000" font-family="sans-serif" font-size="12" lengthAdjust="spacingAndGlyphs" textLength="66" x="689" y="169.1543">Parte_de_X</text><line style="stroke:#A80036;stroke-width:1.5;" x1="661" x2="757" y1="181" y2="181"/><line style="stroke:#A80036;stroke-width:1.5;" x1="661" x2="757" y1="189" y2="189"/><!--MD5=[18343ad2e5af2c35aac23db0f7be7b8b]
class afferent Asociada_de_X.X--><rect codeLine="7" fill="#FEFECE" filter="url(#ftspbmqyygoac)" height="48" id="afferent Asociada_de_X.X" style="stroke:#A80036;stroke-width:1.5;" width="40" x="904" y="41"/><ellipse cx="919" cy="57" fill="#ADD1B2" rx="11" ry="11" style="stroke:#A80036;stroke-width:1.0;"/><path d="M921.3438,52.6719 C920.4063,52.2344 919.8125,52.0938 918.9375,52.0938 C916.3125,52.0938 914.3125,54.1719 914.3125,56.8906 L914.3125,58.0156 C914.3125,60.5938 916.4219,62.4844 919.3125,62.4844 C920.5313,62.4844 921.6875,62.1875 922.4375,61.6406 C923.0156,61.2344 923.3438,60.7813 923.3438,60.3906 C923.3438,59.9375 922.9531,59.5469 922.4844,59.5469 C922.2656,59.5469 922.0625,59.625 921.875,59.8125 C921.4219,60.2969 921.4219,60.2969 921.2344,60.3906 C920.8125,60.6563 920.125,60.7813 919.3594,60.7813 C917.3125,60.7813 916.0156,59.6875 916.0156,57.9844 L916.0156,56.8906 C916.0156,55.1094 917.2656,53.7969 919,53.7969 C919.5781,53.7969 920.1875,53.9531 920.6563,54.2031 C921.1406,54.4844 921.3125,54.7031 921.4063,55.1094 C921.4688,55.5156 921.5,55.6406 921.6406,55.7656 C921.7813,55.9063 922.0156,56.0156 922.2344,56.0156 C922.5,56.0156 922.7656,55.875 922.9375,55.6563 C923.0469,55.5 923.0781,55.3125 923.0781,54.8906 L923.0781,53.4688 C923.0781,53.0313 923.0625,52.9063 922.9688,52.75 C922.8125,52.4844 922.5313,52.3438 922.2344,52.3438 C921.9375,52.3438 921.7344,52.4375 921.5156,52.75 L921.3438,52.6719 Z " fill="#000000"/><text fill="#000000" font-family="sans-serif" font-size="12" lengthAdjust="spacingAndGlyphs" textLength="8" x="933" y="61.1543">X</text><line style="stroke:#A80036;stroke-width:1.5;" x1="905" x2="943" y1="73" y2="73"/><line style="stroke:#A80036;stroke-width:1.5;" x1="905" x2="943" y1="81" y2="81"/><!--MD5=[e18f174a44cd5228c3771d59fbc57c22]
class afferent Asociada_de_X.Asociada_de_X--><rect fill="#FEFECE" filter="url(#ftspbmqyygoac)" height="48" id="afferent Asociada_de_X.Asociada_de_X" style="stroke:#A80036;stroke-width:1.5;" width="123" x="862.5" y="149"/><ellipse cx="877.5" cy="165" fill="#ADD1B2" rx="11" ry="11" style="stroke:#A80036;stroke-width:1.0;"/><path d="M879.8438,160.6719 C878.9063,160.2344 878.3125,160.0938 877.4375,160.0938 C874.8125,160.0938 872.8125,162.1719 872.8125,164.8906 L872.8125,166.0156 C872.8125,168.5938 874.9219,170.4844 877.8125,170.4844 C879.0313,170.4844 880.1875,170.1875 880.9375,169.6406 C881.5156,169.2344 881.8438,168.7813 881.8438,168.3906 C881.8438,167.9375 881.4531,167.5469 880.9844,167.5469 C880.7656,167.5469 880.5625,167.625 880.375,167.8125 C879.9219,168.2969 879.9219,168.2969 879.7344,168.3906 C879.3125,168.6563 878.625,168.7813 877.8594,168.7813 C875.8125,168.7813 874.5156,167.6875 874.5156,165.9844 L874.5156,164.8906 C874.5156,163.1094 875.7656,161.7969 877.5,161.7969 C878.0781,161.7969 878.6875,161.9531 879.1563,162.2031 C879.6406,162.4844 879.8125,162.7031 879.9063,163.1094 C879.9688,163.5156 880,163.6406 880.1406,163.7656 C880.2813,163.9063 880.5156,164.0156 880.7344,164.0156 C881,164.0156 881.2656,163.875 881.4375,163.6563 C881.5469,163.5 881.5781,163.3125 881.5781,162.8906 L881.5781,161.4688 C881.5781,161.0313 881.5625,160.9063 881.4688,160.75 C881.3125,160.4844 881.0313,160.3438 880.7344,160.3438 C880.4375,160.3438 880.2344,160.4375 880.0156,160.75 L879.8438,160.6719 Z " fill="#000000"/><text fill="#000000" font-family="sans-serif" font-size="12" lengthAdjust="spacingAndGlyphs" textLength="91" x="891.5" y="169.1543">Asociada_de_X</text><line style="stroke:#A80036;stroke-width:1.5;" x1="863.5" x2="984.5" y1="181" y2="181"/><line style="stroke:#A80036;stroke-width:1.5;" x1="863.5" x2="984.5" y1="189" y2="189"/><!--MD5=[f9e066a6bbe037aeab62ec5b404c2324]
class afferent Usada_por_X.X--><rect codeLine="8" fill="#FEFECE" filter="url(#ftspbmqyygoac)" height="48" id="afferent Usada_por_X.X" style="stroke:#A80036;stroke-width:1.5;" width="40" x="1126" y="41"/><ellipse cx="1141" cy="57" fill="#ADD1B2" rx="11" ry="11" style="stroke:#A80036;stroke-width:1.0;"/><path d="M1143.3438,52.6719 C1142.4063,52.2344 1141.8125,52.0938 1140.9375,52.0938 C1138.3125,52.0938 1136.3125,54.1719 1136.3125,56.8906 L1136.3125,58.0156 C1136.3125,60.5938 1138.4219,62.4844 1141.3125,62.4844 C1142.5313,62.4844 1143.6875,62.1875 1144.4375,61.6406 C1145.0156,61.2344 1145.3438,60.7813 1145.3438,60.3906 C1145.3438,59.9375 1144.9531,59.5469 1144.4844,59.5469 C1144.2656,59.5469 1144.0625,59.625 1143.875,59.8125 C1143.4219,60.2969 1143.4219,60.2969 1143.2344,60.3906 C1142.8125,60.6563 1142.125,60.7813 1141.3594,60.7813 C1139.3125,60.7813 1138.0156,59.6875 1138.0156,57.9844 L1138.0156,56.8906 C1138.0156,55.1094 1139.2656,53.7969 1141,53.7969 C1141.5781,53.7969 1142.1875,53.9531 1142.6563,54.2031 C1143.1406,54.4844 1143.3125,54.7031 1143.4063,55.1094 C1143.4688,55.5156 1143.5,55.6406 1143.6406,55.7656 C1143.7813,55.9063 1144.0156,56.0156 1144.2344,56.0156 C1144.5,56.0156 1144.7656,55.875 1144.9375,55.6563 C1145.0469,55.5 1145.0781,55.3125 1145.0781,54.8906 L1145.0781,53.4688 C1145.0781,53.0313 1145.0625,52.9063 1144.9688,52.75 C1144.8125,52.4844 1144.5313,52.3438 1144.2344,52.3438 C1143.9375,52.3438 1143.7344,52.4375 1143.5156,52.75 L1143.3438,52.6719 Z " fill="#000000"/><text fill="#000000" font-family="sans-serif" font-size="12" lengthAdjust="spacingAndGlyphs" textLength="8" x="1155" y="61.1543">X</text><line style="stroke:#A80036;stroke-width:1.5;" x1="1127" x2="1165" y1="73" y2="73"/><line style="stroke:#A80036;stroke-width:1.5;" x1="1127" x2="1165" y1="81" y2="81"/><!--MD5=[3d01d3b38ed74fb7ff2d7ae6df46a3be]
class afferent Usada_por_X.Usada_por_X--><rect fill="#FEFECE" filter="url(#ftspbmqyygoac)" height="48" id="afferent Usada_por_X.Usada_por_X" style="stroke:#A80036;stroke-width:1.5;" width="111" x="1090.5" y="149"/><ellipse cx="1105.5" cy="165" fill="#ADD1B2" rx="11" ry="11" style="stroke:#A80036;stroke-width:1.0;"/><path d="M1107.8438,160.6719 C1106.9063,160.2344 1106.3125,160.0938 1105.4375,160.0938 C1102.8125,160.0938 1100.8125,162.1719 1100.8125,164.8906 L1100.8125,166.0156 C1100.8125,168.5938 1102.9219,170.4844 1105.8125,170.4844 C1107.0313,170.4844 1108.1875,170.1875 1108.9375,169.6406 C1109.5156,169.2344 1109.8438,168.7813 1109.8438,168.3906 C1109.8438,167.9375 1109.4531,167.5469 1108.9844,167.5469 C1108.7656,167.5469 1108.5625,167.625 1108.375,167.8125 C1107.9219,168.2969 1107.9219,168.2969 1107.7344,168.3906 C1107.3125,168.6563 1106.625,168.7813 1105.8594,168.7813 C1103.8125,168.7813 1102.5156,167.6875 1102.5156,165.9844 L1102.5156,164.8906 C1102.5156,163.1094 1103.7656,161.7969 1105.5,161.7969 C1106.0781,161.7969 1106.6875,161.9531 1107.1563,162.2031 C1107.6406,162.4844 1107.8125,162.7031 1107.9063,163.1094 C1107.9688,163.5156 1108,163.6406 1108.1406,163.7656 C1108.2813,163.9063 1108.5156,164.0156 1108.7344,164.0156 C1109,164.0156 1109.2656,163.875 1109.4375,163.6563 C1109.5469,163.5 1109.5781,163.3125 1109.5781,162.8906 L1109.5781,161.4688 C1109.5781,161.0313 1109.5625,160.9063 1109.4688,160.75 C1109.3125,160.4844 1109.0313,160.3438 1108.7344,160.3438 C1108.4375,160.3438 1108.2344,160.4375 1108.0156,160.75 L1107.8438,160.6719 Z " fill="#000000"/><text fill="#000000" font-family="sans-serif" font-size="12" lengthAdjust="spacingAndGlyphs" textLength="79" x="1119.5" y="169.1543">Usada_por_X</text><line style="stroke:#A80036;stroke-width:1.5;" x1="1091.5" x2="1200.5" y1="181" y2="181"/><line style="stroke:#A80036;stroke-width:1.5;" x1="1091.5" x2="1200.5" y1="189" y2="189"/><!--MD5=[2840db4d12e7be932d911f878f4b6c46]
link afferent X.Todo_de_X to afferent X.X--><path codeLine="9" d="M301.2186,96.9819 C301.2186,96.9819 263.479,130.599 247.275,145.032 " fill="none" id="afferent X.Todo_de_X-afferent X.X" style="stroke:#A80036;stroke-width:1.0;"/><polygon fill="#A80036" points="237.254,153.959,246.6349,150.9593,240.9875,150.6332,241.3136,144.9857,237.254,153.959" style="stroke:#A80036;stroke-width:1.0;"/><line style="stroke:#A80036;stroke-width:1.0;" x1="240.9875" x2="246.9615" y1="150.6332" y2="145.3115"/><polygon fill="#A80036" points="310.179,89,303.0382,90.0042,301.2186,96.9819,308.3594,95.9778,310.179,89" style="stroke:#A80036;stroke-width:1.0;"/><!--MD5=[214a41c7acc92825e8d60d510b201428]
link afferent X.Usa_X to afferent X.X--><path codeLine="10" d="M217,89 C217,105.003 217,126.446 217,143.528 " fill="none" id="afferent X.Usa_X-to-afferent X.X" style="stroke:#A80036;stroke-width:1.0;stroke-dasharray:7.0,7.0;"/><polygon fill="#A80036" points="217,148.678,221,139.678,217,143.678,213,139.678,217,148.678" style="stroke:#A80036;stroke-width:1.0;"/><!--MD5=[95d169eca20bfd8ec007d2663de8349a]
link afferent X.Asociado_a_X to afferent X.X--><path codeLine="11" d="M117.557,89 C140.083,107.802 171.608,134.114 193.084,152.039 " fill="none" id="afferent X.Asociado_a_X-to-afferent X.X" style="stroke:#A80036;stroke-width:1.0;"/><polygon fill="#A80036" points="196.973,155.284,192.6272,146.4458,193.1346,152.0798,187.5005,152.5873,196.973,155.284" style="stroke:#A80036;stroke-width:1.0;"/><!--MD5=[caf0f87192616517c3dbfa5031d26502]
reverse link afferent X.X to afferent X.Descendiente_de_X--><path codeLine="12" d="M217,217.024 C217,230.579 217,245.0381 217,256.6784 " fill="none" id="afferent X.X-backto-afferent X.Descendiente_de_X" style="stroke:#A80036;stroke-width:1.0;"/><polygon fill="none" points="210,217,217,197,224,217,210,217" style="stroke:#A80036;stroke-width:1.0;"/><!--MD5=[1400a78ea06bd6d7cbc170f9b956c98c]
reverse link afferent Base_de_X.Base_de_X to afferent Base_de_X.X--><path codeLine="13" d="M511,109.024 C511,122.579 511,137.038 511,148.678 " fill="none" id="afferent Base_de_X.Base_de_X-backto-afferent Base_de_X.X" style="stroke:#A80036;stroke-width:1.0;"/><polygon fill="none" points="504,109,511,89,518,109,504,109" style="stroke:#A80036;stroke-width:1.0;"/><!--MD5=[bb457d311fee2f1836a8aa9186fdbe3a]
link afferent Parte_de_X.X to afferent Parte_de_X.Parte_de_X--><path codeLine="14" d="M709,101 C709,101 709,124.677 709,135.364 " fill="none" id="afferent Parte_de_X.X-afferent Parte_de_X.Parte_de_X" style="stroke:#A80036;stroke-width:1.0;"/><polygon fill="#A80036" points="709,148.678,713,139.678,709,143.678,705,139.678,709,148.678" style="stroke:#A80036;stroke-width:1.0;"/><line style="stroke:#A80036;stroke-width:1.0;" x1="709" x2="709" y1="143.678" y2="135.678"/><polygon fill="#A80036" points="709,89,705,95,709,101,713,95,709,89" style="stroke:#A80036;stroke-width:1.0;"/><!--MD5=[0e6353e039dd8df318cb0acace9c214d]
link afferent Asociada_de_X.X to afferent Asociada_de_X.Asociada_de_X--><path codeLine="15" d="M924,89 C924,105.003 924,126.446 924,143.528 " fill="none" id="afferent Asociada_de_X.X-to-afferent Asociada_de_X.Asociada_de_X" style="stroke:#A80036;stroke-width:1.0;"/><polygon fill="#A80036" points="924,148.678,928,139.678,924,143.678,920,139.678,924,148.678" style="stroke:#A80036;stroke-width:1.0;"/><!--MD5=[eaff039ff926f25810809a39a3c81daa]
link afferent Usada_por_X.X to afferent Usada_por_X.Usada_por_X--><path codeLine="16" d="M1146,89 C1146,105.003 1146,126.446 1146,143.528 " fill="none" id="afferent Usada_por_X.X-to-afferent Usada_por_X.Usada_por_X" style="stroke:#A80036;stroke-width:1.0;stroke-dasharray:7.0,7.0;"/><polygon fill="#A80036" points="1146,148.678,1150,139.678,1146,143.678,1142,139.678,1146,148.678" style="stroke:#A80036;stroke-width:1.0;"/><!--MD5=[34b06a82d23eeb6d54eca9ee2e4d977f]
@startuml
class "afferent X.Todo_de_X"
class "afferent X.Usa_X"
class "afferent X.Asociado_a_X"
class "afferent X.Descendiente_de_X"
class "afferent Base_de_X.X"
class "afferent Parte_de_X.X"
class "afferent Asociada_de_X.X"
class "afferent Usada_por_X.X"
"afferent X.Todo_de_X" *- -> "afferent X.X"
"afferent X.Usa_X" ..> "afferent X.X"
"afferent X.Asociado_a_X" - -> "afferent X.X"
"afferent X.X" <|- - "afferent X.Descendiente_de_X"
"afferent Base_de_X.Base_de_X" <|- - "afferent Base_de_X.X"
"afferent Parte_de_X.X" *- -> "afferent Parte_de_X.Parte_de_X"
"afferent Asociada_de_X.X" - -> "afferent Asociada_de_X.Asociada_de_X"
"afferent Usada_por_X.X" ..> "afferent Usada_por_X.Usada_por_X"
@enduml

PlantUML version 1.2020.21beta7(Unknown compile time)
(GPL source distribution)
Java Runtime: Java(TM) SE Runtime Environment
JVM: Java HotSpot(TM) 64-Bit Server VM
Default Encoding: UTF-8
Language: en
Country: US
--></g></svg>