<?xml version="1.0" encoding="UTF-8" standalone="no"?>
<svg xmlns="http://www.w3.org/2000/svg" contentScriptType="application/ecmascript" contentStyleType="text/css"
     height="285px" preserveAspectRatio="none" style="width:423px;height:285px;" version="1.1" viewBox="0 0 423 285"
     width="423px" zoomAndPan="magnify"><defs><filter height="300%" id="f15cgxr12k8qk1" width="300%" x="-1" y="-1"><feGaussianBlur result="blurOut" stdDeviation="2.0"/><feColorMatrix in="blurOut" result="blurOut2" type="matrix" values="0 0 0 0 0 0 0 0 0 0 0 0 0 0 0 0 0 0 .4 0"/><feOffset dx="4.0" dy="4.0" in="blurOut2" result="blurOut3"/><feBlend in="SourceGraphic" in2="blurOut3" mode="normal"/></filter></defs><g><!--MD5=[b203f6b098b8dffe494a95d9c500f8e2]
class X--><rect codeLine="1" fill="#FEFECE" filter="url(#f15cgxr12k8qk1)" height="48" id="X" style="stroke:#A80036;stroke-width:1.5;" width="40" x="182" y="115"/><ellipse cx="197" cy="131" fill="#ADD1B2" rx="11" ry="11" style="stroke:#A80036;stroke-width:1.0;"/><path d="M199.3438,126.6719 C198.4063,126.2344 197.8125,126.0938 196.9375,126.0938 C194.3125,126.0938 192.3125,128.1719 192.3125,130.8906 L192.3125,132.0156 C192.3125,134.5938 194.4219,136.4844 197.3125,136.4844 C198.5313,136.4844 199.6875,136.1875 200.4375,135.6406 C201.0156,135.2344 201.3438,134.7813 201.3438,134.3906 C201.3438,133.9375 200.9531,133.5469 200.4844,133.5469 C200.2656,133.5469 200.0625,133.625 199.875,133.8125 C199.4219,134.2969 199.4219,134.2969 199.2344,134.3906 C198.8125,134.6563 198.125,134.7813 197.3594,134.7813 C195.3125,134.7813 194.0156,133.6875 194.0156,131.9844 L194.0156,130.8906 C194.0156,129.1094 195.2656,127.7969 197,127.7969 C197.5781,127.7969 198.1875,127.9531 198.6563,128.2031 C199.1406,128.4844 199.3125,128.7031 199.4063,129.1094 C199.4688,129.5156 199.5,129.6406 199.6406,129.7656 C199.7813,129.9063 200.0156,130.0156 200.2344,130.0156 C200.5,130.0156 200.7656,129.875 200.9375,129.6563 C201.0469,129.5 201.0781,129.3125 201.0781,128.8906 L201.0781,127.4688 C201.0781,127.0313 201.0625,126.9063 200.9688,126.75 C200.8125,126.4844 200.5313,126.3438 200.2344,126.3438 C199.9375,126.3438 199.7344,126.4375 199.5156,126.75 L199.3438,126.6719 Z " fill="#000000"/><text fill="#000000" font-family="sans-serif" font-size="12" lengthAdjust="spacingAndGlyphs" textLength="8" x="211" y="135.1543">X</text><line style="stroke:#A80036;stroke-width:1.5;" x1="183" x2="221" y1="147" y2="147"/><line style="stroke:#A80036;stroke-width:1.5;" x1="183" x2="221" y1="155" y2="155"/><!--MD5=[22a1cbd3ab17de77f13c89af3918aa66]
class Base_de_X--><rect fill="#FEFECE" filter="url(#f15cgxr12k8qk1)" height="48" id="Base_de_X" style="stroke:#A80036;stroke-width:1.5;" width="98" x="153" y="7"/><ellipse cx="168" cy="23" fill="#ADD1B2" rx="11" ry="11" style="stroke:#A80036;stroke-width:1.0;"/><path d="M170.3438,18.6719 C169.4063,18.2344 168.8125,18.0938 167.9375,18.0938 C165.3125,18.0938 163.3125,20.1719 163.3125,22.8906 L163.3125,24.0156 C163.3125,26.5938 165.4219,28.4844 168.3125,28.4844 C169.5313,28.4844 170.6875,28.1875 171.4375,27.6406 C172.0156,27.2344 172.3438,26.7813 172.3438,26.3906 C172.3438,25.9375 171.9531,25.5469 171.4844,25.5469 C171.2656,25.5469 171.0625,25.625 170.875,25.8125 C170.4219,26.2969 170.4219,26.2969 170.2344,26.3906 C169.8125,26.6563 169.125,26.7813 168.3594,26.7813 C166.3125,26.7813 165.0156,25.6875 165.0156,23.9844 L165.0156,22.8906 C165.0156,21.1094 166.2656,19.7969 168,19.7969 C168.5781,19.7969 169.1875,19.9531 169.6563,20.2031 C170.1406,20.4844 170.3125,20.7031 170.4063,21.1094 C170.4688,21.5156 170.5,21.6406 170.6406,21.7656 C170.7813,21.9063 171.0156,22.0156 171.2344,22.0156 C171.5,22.0156 171.7656,21.875 171.9375,21.6563 C172.0469,21.5 172.0781,21.3125 172.0781,20.8906 L172.0781,19.4688 C172.0781,19.0313 172.0625,18.9063 171.9688,18.75 C171.8125,18.4844 171.5313,18.3438 171.2344,18.3438 C170.9375,18.3438 170.7344,18.4375 170.5156,18.75 L170.3438,18.6719 Z " fill="#000000"/><text fill="#000000" font-family="sans-serif" font-size="12" lengthAdjust="spacingAndGlyphs" textLength="66" x="182" y="27.1543">Base_de_X</text><line style="stroke:#A80036;stroke-width:1.5;" x1="154" x2="250" y1="39" y2="39"/><line style="stroke:#A80036;stroke-width:1.5;" x1="154" x2="250" y1="47" y2="47"/><!--MD5=[52f19dd252a42a30cb2891e9e71dd286]
class Parte_de_X--><rect fill="#FEFECE" filter="url(#f15cgxr12k8qk1)" height="48" id="Parte_de_X" style="stroke:#A80036;stroke-width:1.5;" width="98" x="7" y="223"/><ellipse cx="22" cy="239" fill="#ADD1B2" rx="11" ry="11" style="stroke:#A80036;stroke-width:1.0;"/><path d="M24.3438,234.6719 C23.4063,234.2344 22.8125,234.0938 21.9375,234.0938 C19.3125,234.0938 17.3125,236.1719 17.3125,238.8906 L17.3125,240.0156 C17.3125,242.5938 19.4219,244.4844 22.3125,244.4844 C23.5313,244.4844 24.6875,244.1875 25.4375,243.6406 C26.0156,243.2344 26.3438,242.7813 26.3438,242.3906 C26.3438,241.9375 25.9531,241.5469 25.4844,241.5469 C25.2656,241.5469 25.0625,241.625 24.875,241.8125 C24.4219,242.2969 24.4219,242.2969 24.2344,242.3906 C23.8125,242.6563 23.125,242.7813 22.3594,242.7813 C20.3125,242.7813 19.0156,241.6875 19.0156,239.9844 L19.0156,238.8906 C19.0156,237.1094 20.2656,235.7969 22,235.7969 C22.5781,235.7969 23.1875,235.9531 23.6563,236.2031 C24.1406,236.4844 24.3125,236.7031 24.4063,237.1094 C24.4688,237.5156 24.5,237.6406 24.6406,237.7656 C24.7813,237.9063 25.0156,238.0156 25.2344,238.0156 C25.5,238.0156 25.7656,237.875 25.9375,237.6563 C26.0469,237.5 26.0781,237.3125 26.0781,236.8906 L26.0781,235.4688 C26.0781,235.0313 26.0625,234.9063 25.9688,234.75 C25.8125,234.4844 25.5313,234.3438 25.2344,234.3438 C24.9375,234.3438 24.7344,234.4375 24.5156,234.75 L24.3438,234.6719 Z " fill="#000000"/><text fill="#000000" font-family="sans-serif" font-size="12" lengthAdjust="spacingAndGlyphs" textLength="66" x="36" y="243.1543">Parte_de_X</text><line style="stroke:#A80036;stroke-width:1.5;" x1="8" x2="104" y1="255" y2="255"/><line style="stroke:#A80036;stroke-width:1.5;" x1="8" x2="104" y1="263" y2="263"/><!--MD5=[6c22519ea395e20cf232be558f9e2405]
class Asociada_de_X--><rect fill="#FEFECE" filter="url(#f15cgxr12k8qk1)" height="48" id="Asociada_de_X" style="stroke:#A80036;stroke-width:1.5;" width="123" x="140.5" y="223"/><ellipse cx="155.5" cy="239" fill="#ADD1B2" rx="11" ry="11" style="stroke:#A80036;stroke-width:1.0;"/><path d="M157.8438,234.6719 C156.9063,234.2344 156.3125,234.0938 155.4375,234.0938 C152.8125,234.0938 150.8125,236.1719 150.8125,238.8906 L150.8125,240.0156 C150.8125,242.5938 152.9219,244.4844 155.8125,244.4844 C157.0313,244.4844 158.1875,244.1875 158.9375,243.6406 C159.5156,243.2344 159.8438,242.7813 159.8438,242.3906 C159.8438,241.9375 159.4531,241.5469 158.9844,241.5469 C158.7656,241.5469 158.5625,241.625 158.375,241.8125 C157.9219,242.2969 157.9219,242.2969 157.7344,242.3906 C157.3125,242.6563 156.625,242.7813 155.8594,242.7813 C153.8125,242.7813 152.5156,241.6875 152.5156,239.9844 L152.5156,238.8906 C152.5156,237.1094 153.7656,235.7969 155.5,235.7969 C156.0781,235.7969 156.6875,235.9531 157.1563,236.2031 C157.6406,236.4844 157.8125,236.7031 157.9063,237.1094 C157.9688,237.5156 158,237.6406 158.1406,237.7656 C158.2813,237.9063 158.5156,238.0156 158.7344,238.0156 C159,238.0156 159.2656,237.875 159.4375,237.6563 C159.5469,237.5 159.5781,237.3125 159.5781,236.8906 L159.5781,235.4688 C159.5781,235.0313 159.5625,234.9063 159.4688,234.75 C159.3125,234.4844 159.0313,234.3438 158.7344,234.3438 C158.4375,234.3438 158.2344,234.4375 158.0156,234.75 L157.8438,234.6719 Z " fill="#000000"/><text fill="#000000" font-family="sans-serif" font-size="12" lengthAdjust="spacingAndGlyphs" textLength="91" x="169.5" y="243.1543">Asociada_de_X</text><line style="stroke:#A80036;stroke-width:1.5;" x1="141.5" x2="262.5" y1="255" y2="255"/><line style="stroke:#A80036;stroke-width:1.5;" x1="141.5" x2="262.5" y1="263" y2="263"/><!--MD5=[3ecf0aca36280e86fcbeb2f288230d09]
class Usada_por_X--><rect fill="#FEFECE" filter="url(#f15cgxr12k8qk1)" height="48" id="Usada_por_X" style="stroke:#A80036;stroke-width:1.5;" width="111" x="298.5" y="223"/><ellipse cx="313.5" cy="239" fill="#ADD1B2" rx="11" ry="11" style="stroke:#A80036;stroke-width:1.0;"/><path d="M315.8438,234.6719 C314.9063,234.2344 314.3125,234.0938 313.4375,234.0938 C310.8125,234.0938 308.8125,236.1719 308.8125,238.8906 L308.8125,240.0156 C308.8125,242.5938 310.9219,244.4844 313.8125,244.4844 C315.0313,244.4844 316.1875,244.1875 316.9375,243.6406 C317.5156,243.2344 317.8438,242.7813 317.8438,242.3906 C317.8438,241.9375 317.4531,241.5469 316.9844,241.5469 C316.7656,241.5469 316.5625,241.625 316.375,241.8125 C315.9219,242.2969 315.9219,242.2969 315.7344,242.3906 C315.3125,242.6563 314.625,242.7813 313.8594,242.7813 C311.8125,242.7813 310.5156,241.6875 310.5156,239.9844 L310.5156,238.8906 C310.5156,237.1094 311.7656,235.7969 313.5,235.7969 C314.0781,235.7969 314.6875,235.9531 315.1563,236.2031 C315.6406,236.4844 315.8125,236.7031 315.9063,237.1094 C315.9688,237.5156 316,237.6406 316.1406,237.7656 C316.2813,237.9063 316.5156,238.0156 316.7344,238.0156 C317,238.0156 317.2656,237.875 317.4375,237.6563 C317.5469,237.5 317.5781,237.3125 317.5781,236.8906 L317.5781,235.4688 C317.5781,235.0313 317.5625,234.9063 317.4688,234.75 C317.3125,234.4844 317.0313,234.3438 316.7344,234.3438 C316.4375,234.3438 316.2344,234.4375 316.0156,234.75 L315.8438,234.6719 Z " fill="#000000"/><text fill="#000000" font-family="sans-serif" font-size="12" lengthAdjust="spacingAndGlyphs" textLength="79" x="327.5" y="243.1543">Usada_por_X</text><line style="stroke:#A80036;stroke-width:1.5;" x1="299.5" x2="408.5" y1="255" y2="255"/><line style="stroke:#A80036;stroke-width:1.5;" x1="299.5" x2="408.5" y1="263" y2="263"/><!--MD5=[ca1cf99bbb2ae1fd4feee5b77318b751]
reverse link Base_de_X to X--><path codeLine="2" d="M202,75.024 C202,88.579 202,103.038 202,114.678 " fill="none" id="Base_de_X-backto-X" style="stroke:#A80036;stroke-width:1.0;"/><polygon fill="none" points="195,75,202,55,209,75,195,75" style="stroke:#A80036;stroke-width:1.0;"/><!--MD5=[8f2dcd240040c2eade0e72e1b2ea1beb]
link X to Parte_de_X--><path codeLine="3" d="M171.9892,161.7902 C171.9892,161.7902 121.642,198.3422 98.4918,215.1498 " fill="none" id="X-Parte_de_X" style="stroke:#A80036;stroke-width:1.0;"/><polygon fill="#A80036" points="87.9163,222.8279,97.5493,220.7771,91.9624,219.8903,92.8492,214.3034,87.9163,222.8279" style="stroke:#A80036;stroke-width:1.0;"/><line style="stroke:#A80036;stroke-width:1.0;" x1="91.9624" x2="98.4361" y1="219.8903" y2="215.1903"/><polygon fill="#A80036" points="181.699,154.739,174.4937,155.028,171.9892,161.7902,179.1945,161.5012,181.699,154.739" style="stroke:#A80036;stroke-width:1.0;"/><!--MD5=[e7581afab7b188a58f333aa91668dd6c]
link X to Asociada_de_X--><path codeLine="4" d="M202,163 C202,179.003 202,200.4461 202,217.528 " fill="none" id="X-to-Asociada_de_X" style="stroke:#A80036;stroke-width:1.0;"/><polygon fill="#A80036" points="202,222.6784,206,213.6784,202,217.6784,198,213.6784,202,222.6784" style="stroke:#A80036;stroke-width:1.0;"/><!--MD5=[1248d5f0690561e329afa6bc128b87d1]
link X to Usada_por_X--><path codeLine="5" d="M222.184,154.076 C246.199,170.823 286.785,199.1262 316.591,219.912 " fill="none" id="X-to-Usada_por_X" style="stroke:#A80036;stroke-width:1.0;stroke-dasharray:7.0,7.0;"/><polygon fill="#A80036" points="320.907,222.922,315.8127,214.493,316.8057,220.062,311.2367,221.055,320.907,222.922" style="stroke:#A80036;stroke-width:1.0;"/><!--MD5=[bcd9a4085db031dd61f66345413c2c0a]
@startuml
class X
Base_de_X <|- - X
X *- -> Parte_de_X
X - -> Asociada_de_X
X ..> Usada_por_X
@enduml

PlantUML version 1.2020.21beta7(Unknown compile time)
(GPL source distribution)
Java Runtime: Java(TM) SE Runtime Environment
JVM: Java HotSpot(TM) 64-Bit Server VM
Default Encoding: UTF-8
Language: en
Country: US
--></g></svg>