<?xml version="1.0" encoding="UTF-8" standalone="no"?>
<svg xmlns="http://www.w3.org/2000/svg" contentScriptType="application/ecmascript" contentStyleType="text/css"
     height="81px" preserveAspectRatio="none" style="width:194px;height:81px;" version="1.1" viewBox="0 0 194 81"
     width="194px" zoomAndPan="magnify"><defs><filter height="300%" id="fvttnvsmpv9l4" width="300%" x="-1" y="-1"><feGaussianBlur result="blurOut" stdDeviation="2.0"/><feColorMatrix in="blurOut" result="blurOut2" type="matrix" values="0 0 0 0 0 0 0 0 0 0 0 0 0 0 0 0 0 0 .4 0"/><feOffset dx="4.0" dy="4.0" in="blurOut2" result="blurOut3"/><feBlend in="SourceGraphic" in2="blurOut3" mode="normal"/></filter></defs><g><!--MD5=[71453aad0c321cc4e5ffc62c5a278467]
class unit--><rect codeLine="1" fill="#FEFECE" filter="url(#fvttnvsmpv9l4)" height="60.8047" id="unit" style="stroke:#A80036;stroke-width:1.5;" width="173" x="7" y="7"/><ellipse cx="78.75" cy="23" fill="#ADD1B2" rx="11" ry="11" style="stroke:#A80036;stroke-width:1.0;"/><path d="M81.0938,18.6719 C80.1563,18.2344 79.5625,18.0938 78.6875,18.0938 C76.0625,18.0938 74.0625,20.1719 74.0625,22.8906 L74.0625,24.0156 C74.0625,26.5938 76.1719,28.4844 79.0625,28.4844 C80.2813,28.4844 81.4375,28.1875 82.1875,27.6406 C82.7656,27.2344 83.0938,26.7813 83.0938,26.3906 C83.0938,25.9375 82.7031,25.5469 82.2344,25.5469 C82.0156,25.5469 81.8125,25.625 81.625,25.8125 C81.1719,26.2969 81.1719,26.2969 80.9844,26.3906 C80.5625,26.6563 79.875,26.7813 79.1094,26.7813 C77.0625,26.7813 75.7656,25.6875 75.7656,23.9844 L75.7656,22.8906 C75.7656,21.1094 77.0156,19.7969 78.75,19.7969 C79.3281,19.7969 79.9375,19.9531 80.4063,20.2031 C80.8906,20.4844 81.0625,20.7031 81.1563,21.1094 C81.2188,21.5156 81.25,21.6406 81.3906,21.7656 C81.5313,21.9063 81.7656,22.0156 81.9844,22.0156 C82.25,22.0156 82.5156,21.875 82.6875,21.6563 C82.7969,21.5 82.8281,21.3125 82.8281,20.8906 L82.8281,19.4688 C82.8281,19.0313 82.8125,18.9063 82.7188,18.75 C82.5625,18.4844 82.2813,18.3438 81.9844,18.3438 C81.6875,18.3438 81.4844,18.4375 81.2656,18.75 L81.0938,18.6719 Z " fill="#000000"/><text fill="#000000" font-family="sans-serif" font-size="12" lengthAdjust="spacingAndGlyphs" textLength="21" x="99.25" y="27.1543">unit</text><line style="stroke:#A80036;stroke-width:1.5;" x1="8" x2="179" y1="39" y2="39"/><line style="stroke:#A80036;stroke-width:1.5;" x1="8" x2="179" y1="47" y2="47"/><ellipse cx="18" cy="58" fill="#84BE84" rx="3" ry="3" style="stroke:#038048;stroke-width:1.0;"/><text fill="#000000" font-family="sans-serif" font-size="11" lengthAdjust="spacingAndGlyphs" textLength="147" x="27" y="61.2104">function(String, int): String</text><!--MD5=[692c70a7e585ea43501952a2dee9424c]
@startuml
class unit{
+ function(String, int): String
}
@enduml

PlantUML version 1.2020.21beta7(Unknown compile time)
(GPL source distribution)
Java Runtime: Java(TM) SE Runtime Environment
JVM: Java HotSpot(TM) 64-Bit Server VM
Default Encoding: UTF-8
Language: en
Country: US
--></g></svg>