<?xml version="1.0" encoding="UTF-8" standalone="no"?>
<svg xmlns="http://www.w3.org/2000/svg" contentScriptType="application/ecmascript" contentStyleType="text/css"
     height="220px" preserveAspectRatio="none" style="width:536px;height:220px;" version="1.1" viewBox="0 0 536 220"
     width="536px" zoomAndPan="magnify"><defs><filter height="300%" id="ff52p4004923n" width="300%" x="-1" y="-1"><feGaussianBlur result="blurOut" stdDeviation="2.0"/><feColorMatrix in="blurOut" result="blurOut2" type="matrix" values="0 0 0 0 0 0 0 0 0 0 0 0 0 0 0 0 0 0 .4 0"/><feOffset dx="4.0" dy="4.0" in="blurOut2" result="blurOut3"/><feBlend in="SourceGraphic" in2="blurOut3" mode="normal"/></filter></defs><g><!--MD5=[b56d8ef9af079015670ad96965866810]
cluster mastermind--><polygon fill="#FFFFFF" filter="url(#ff52p4004923n)" points="16,6,120,6,127,28.2969,218,28.2969,218,213,16,213,16,6" style="stroke:#000000;stroke-width:1.5;"/><line style="stroke:#000000;stroke-width:1.5;" x1="16" x2="127" y1="28.2969" y2="28.2969"/><text fill="#000000" font-family="sans-serif" font-size="14" font-weight="bold" lengthAdjust="spacingAndGlyphs" textLength="98" x="20" y="20.9951">mastermind</text><!--MD5=[f4a8416df5d5f7c80a7d3a30f9e0f7a6]
cluster mastermind.controllers--><polygon fill="#FFFFFF" filter="url(#ff52p4004923n)" points="242,114,440,114,447,136.2969,519,136.2969,519,213,242,213,242,114" style="stroke:#000000;stroke-width:1.5;"/><line style="stroke:#000000;stroke-width:1.5;" x1="242" x2="447" y1="136.2969" y2="136.2969"/><text fill="#000000" font-family="sans-serif" font-size="14" font-weight="bold" lengthAdjust="spacingAndGlyphs" textLength="192" x="246" y="128.9951">mastermind.controllers</text><!--MD5=[af8367dd2ccf4210e960c645428a2237]
class mastermind.MastermindStandalone--><rect codeLine="1" fill="#FEFECE" filter="url(#ff52p4004923n)" height="48" id="mastermind.MastermindStandalone" style="stroke:#A80036;stroke-width:1.5;" width="169" x="32.5" y="149"/><ellipse cx="47.5" cy="165" fill="#ADD1B2" rx="11" ry="11" style="stroke:#A80036;stroke-width:1.0;"/><path d="M49.8438,160.6719 C48.9063,160.2344 48.3125,160.0938 47.4375,160.0938 C44.8125,160.0938 42.8125,162.1719 42.8125,164.8906 L42.8125,166.0156 C42.8125,168.5938 44.9219,170.4844 47.8125,170.4844 C49.0313,170.4844 50.1875,170.1875 50.9375,169.6406 C51.5156,169.2344 51.8438,168.7813 51.8438,168.3906 C51.8438,167.9375 51.4531,167.5469 50.9844,167.5469 C50.7656,167.5469 50.5625,167.625 50.375,167.8125 C49.9219,168.2969 49.9219,168.2969 49.7344,168.3906 C49.3125,168.6563 48.625,168.7813 47.8594,168.7813 C45.8125,168.7813 44.5156,167.6875 44.5156,165.9844 L44.5156,164.8906 C44.5156,163.1094 45.7656,161.7969 47.5,161.7969 C48.0781,161.7969 48.6875,161.9531 49.1563,162.2031 C49.6406,162.4844 49.8125,162.7031 49.9063,163.1094 C49.9688,163.5156 50,163.6406 50.1406,163.7656 C50.2813,163.9063 50.5156,164.0156 50.7344,164.0156 C51,164.0156 51.2656,163.875 51.4375,163.6563 C51.5469,163.5 51.5781,163.3125 51.5781,162.8906 L51.5781,161.4688 C51.5781,161.0313 51.5625,160.9063 51.4688,160.75 C51.3125,160.4844 51.0313,160.3438 50.7344,160.3438 C50.4375,160.3438 50.2344,160.4375 50.0156,160.75 L49.8438,160.6719 Z " fill="#000000"/><text fill="#000000" font-family="sans-serif" font-size="12" lengthAdjust="spacingAndGlyphs" textLength="137" x="61.5" y="169.1543">MastermindStandalone</text><line style="stroke:#A80036;stroke-width:1.5;" x1="33.5" x2="200.5" y1="181" y2="181"/><line style="stroke:#A80036;stroke-width:1.5;" x1="33.5" x2="200.5" y1="189" y2="189"/><!--MD5=[3690083fa3c0b91189e580515c0d9fca]
class mastermind.Mastermind--><rect codeLine="2" fill="#FEFECE" filter="url(#ff52p4004923n)" height="48" id="mastermind.Mastermind" style="stroke:#A80036;stroke-width:1.5;" width="102" x="100" y="41"/><ellipse cx="115" cy="57" fill="#ADD1B2" rx="11" ry="11" style="stroke:#A80036;stroke-width:1.0;"/><path d="M117.3438,52.6719 C116.4063,52.2344 115.8125,52.0938 114.9375,52.0938 C112.3125,52.0938 110.3125,54.1719 110.3125,56.8906 L110.3125,58.0156 C110.3125,60.5938 112.4219,62.4844 115.3125,62.4844 C116.5313,62.4844 117.6875,62.1875 118.4375,61.6406 C119.0156,61.2344 119.3438,60.7813 119.3438,60.3906 C119.3438,59.9375 118.9531,59.5469 118.4844,59.5469 C118.2656,59.5469 118.0625,59.625 117.875,59.8125 C117.4219,60.2969 117.4219,60.2969 117.2344,60.3906 C116.8125,60.6563 116.125,60.7813 115.3594,60.7813 C113.3125,60.7813 112.0156,59.6875 112.0156,57.9844 L112.0156,56.8906 C112.0156,55.1094 113.2656,53.7969 115,53.7969 C115.5781,53.7969 116.1875,53.9531 116.6563,54.2031 C117.1406,54.4844 117.3125,54.7031 117.4063,55.1094 C117.4688,55.5156 117.5,55.6406 117.6406,55.7656 C117.7813,55.9063 118.0156,56.0156 118.2344,56.0156 C118.5,56.0156 118.7656,55.875 118.9375,55.6563 C119.0469,55.5 119.0781,55.3125 119.0781,54.8906 L119.0781,53.4688 C119.0781,53.0313 119.0625,52.9063 118.9688,52.75 C118.8125,52.4844 118.5313,52.3438 118.2344,52.3438 C117.9375,52.3438 117.7344,52.4375 117.5156,52.75 L117.3438,52.6719 Z " fill="#000000"/><text fill="#000000" font-family="sans-serif" font-size="12" lengthAdjust="spacingAndGlyphs" textLength="70" x="129" y="61.1543">Mastermind</text><line style="stroke:#A80036;stroke-width:1.5;" x1="101" x2="201" y1="73" y2="73"/><line style="stroke:#A80036;stroke-width:1.5;" x1="101" x2="201" y1="81" y2="81"/><!--MD5=[b58a43e292de1e464ebdad08002bf268]
class mastermind.controllers.AcceptorController--><rect codeLine="3" fill="#FEFECE" filter="url(#ff52p4004923n)" height="48" id="mastermind.controllers.AcceptorController" style="stroke:#A80036;stroke-width:1.5;" width="146" x="357" y="149"/><ellipse cx="372" cy="165" fill="#ADD1B2" rx="11" ry="11" style="stroke:#A80036;stroke-width:1.0;"/><path d="M374.3438,160.6719 C373.4063,160.2344 372.8125,160.0938 371.9375,160.0938 C369.3125,160.0938 367.3125,162.1719 367.3125,164.8906 L367.3125,166.0156 C367.3125,168.5938 369.4219,170.4844 372.3125,170.4844 C373.5313,170.4844 374.6875,170.1875 375.4375,169.6406 C376.0156,169.2344 376.3438,168.7813 376.3438,168.3906 C376.3438,167.9375 375.9531,167.5469 375.4844,167.5469 C375.2656,167.5469 375.0625,167.625 374.875,167.8125 C374.4219,168.2969 374.4219,168.2969 374.2344,168.3906 C373.8125,168.6563 373.125,168.7813 372.3594,168.7813 C370.3125,168.7813 369.0156,167.6875 369.0156,165.9844 L369.0156,164.8906 C369.0156,163.1094 370.2656,161.7969 372,161.7969 C372.5781,161.7969 373.1875,161.9531 373.6563,162.2031 C374.1406,162.4844 374.3125,162.7031 374.4063,163.1094 C374.4688,163.5156 374.5,163.6406 374.6406,163.7656 C374.7813,163.9063 375.0156,164.0156 375.2344,164.0156 C375.5,164.0156 375.7656,163.875 375.9375,163.6563 C376.0469,163.5 376.0781,163.3125 376.0781,162.8906 L376.0781,161.4688 C376.0781,161.0313 376.0625,160.9063 375.9688,160.75 C375.8125,160.4844 375.5313,160.3438 375.2344,160.3438 C374.9375,160.3438 374.7344,160.4375 374.5156,160.75 L374.3438,160.6719 Z " fill="#000000"/><text fill="#000000" font-family="sans-serif" font-size="12" lengthAdjust="spacingAndGlyphs" textLength="114" x="386" y="169.1543">AcceptorController</text><line style="stroke:#A80036;stroke-width:1.5;" x1="358" x2="502" y1="181" y2="181"/><line style="stroke:#A80036;stroke-width:1.5;" x1="358" x2="502" y1="189" y2="189"/><!--MD5=[23fa68f5dd51b02db50930b64c1246c4]
class mastermind.controllers.Logic--><rect codeLine="4" fill="#FEFECE" filter="url(#ff52p4004923n)" height="48" id="mastermind.controllers.Logic" style="stroke:#A80036;stroke-width:1.5;" width="64" x="258" y="149"/><ellipse cx="273" cy="165" fill="#ADD1B2" rx="11" ry="11" style="stroke:#A80036;stroke-width:1.0;"/><path d="M275.3438,160.6719 C274.4063,160.2344 273.8125,160.0938 272.9375,160.0938 C270.3125,160.0938 268.3125,162.1719 268.3125,164.8906 L268.3125,166.0156 C268.3125,168.5938 270.4219,170.4844 273.3125,170.4844 C274.5313,170.4844 275.6875,170.1875 276.4375,169.6406 C277.0156,169.2344 277.3438,168.7813 277.3438,168.3906 C277.3438,167.9375 276.9531,167.5469 276.4844,167.5469 C276.2656,167.5469 276.0625,167.625 275.875,167.8125 C275.4219,168.2969 275.4219,168.2969 275.2344,168.3906 C274.8125,168.6563 274.125,168.7813 273.3594,168.7813 C271.3125,168.7813 270.0156,167.6875 270.0156,165.9844 L270.0156,164.8906 C270.0156,163.1094 271.2656,161.7969 273,161.7969 C273.5781,161.7969 274.1875,161.9531 274.6563,162.2031 C275.1406,162.4844 275.3125,162.7031 275.4063,163.1094 C275.4688,163.5156 275.5,163.6406 275.6406,163.7656 C275.7813,163.9063 276.0156,164.0156 276.2344,164.0156 C276.5,164.0156 276.7656,163.875 276.9375,163.6563 C277.0469,163.5 277.0781,163.3125 277.0781,162.8906 L277.0781,161.4688 C277.0781,161.0313 277.0625,160.9063 276.9688,160.75 C276.8125,160.4844 276.5313,160.3438 276.2344,160.3438 C275.9375,160.3438 275.7344,160.4375 275.5156,160.75 L275.3438,160.6719 Z " fill="#000000"/><text fill="#000000" font-family="sans-serif" font-size="12" lengthAdjust="spacingAndGlyphs" textLength="32" x="287" y="169.1543">Logic</text><line style="stroke:#A80036;stroke-width:1.5;" x1="259" x2="321" y1="181" y2="181"/><line style="stroke:#A80036;stroke-width:1.5;" x1="259" x2="321" y1="189" y2="189"/><!--MD5=[93984ed98969f17eca0b0c63a4fb7b90]
reverse link mastermind.Mastermind to mastermind.MastermindStandalone--><path codeLine="5" d="M137.51,108.057 C133.073,121.889 128.303,136.7609 124.481,148.6784 " fill="none" id="mastermind.Mastermind-backto-mastermind.MastermindStandalone" style="stroke:#A80036;stroke-width:1.0;"/><polygon fill="none" points="130.848,105.907,143.623,89,144.179,110.183,130.848,105.907" style="stroke:#A80036;stroke-width:1.0;"/><!--MD5=[f8f665bea3764aed7a8af8c932bae351]
link mastermind.Mastermind to mastermind.controllers.Logic--><path codeLine="6" d="M202.7444,95.457 C202.7444,95.457 213.538,102.678 218,106 C231.6,116.128 245.562,128.414 257.527,139.6272 " fill="none" id="mastermind.Mastermind-mastermind.controllers.Logic" style="stroke:#A80036;stroke-width:1.0;"/><polygon fill="#A80036" points="267.056,148.7227,263.3073,139.6152,263.4391,145.2705,257.7837,145.4023,267.056,148.7227" style="stroke:#A80036;stroke-width:1.0;"/><line style="stroke:#A80036;stroke-width:1.0;" x1="263.4391" x2="257.6525" y1="145.2705" y2="139.7469"/><polygon fill="#A80036" points="192.603,89.042,195.5354,95.63,202.7444,95.457,199.812,88.869,192.603,89.042" style="stroke:#A80036;stroke-width:1.0;"/><!--MD5=[81fa55b484d0c70023259419a0b25274]
link mastermind.Mastermind to mastermind.controllers.AcceptorController--><path codeLine="7" d="M202.152,70.891 C241.247,76.016 295.761,86.209 340,106 C362.012,115.847 383.892,131.7184 400.567,145.4291 " fill="none" id="mastermind.Mastermind-to-mastermind.controllers.AcceptorController" style="stroke:#A80036;stroke-width:1.0;stroke-dasharray:7.0,7.0;"/><polygon fill="#A80036" points="404.691,148.8634,400.3334,140.031,400.8483,145.6644,395.2149,146.1793,404.691,148.8634" style="stroke:#A80036;stroke-width:1.0;"/><!--MD5=[801f29aab8207d48c67ca8655d741226]
@startuml
class mastermind.MastermindStandalone
class mastermind.Mastermind
class mastermind.controllers.AcceptorController
class mastermind.controllers.Logic
mastermind.Mastermind <|- - mastermind.MastermindStandalone
mastermind.Mastermind *- -> mastermind.controllers.Logic
mastermind.Mastermind ..> mastermind.controllers.AcceptorController
@enduml

PlantUML version 1.2020.21beta7(Unknown compile time)
(GPL source distribution)
Java Runtime: Java(TM) SE Runtime Environment
JVM: Java HotSpot(TM) 64-Bit Server VM
Default Encoding: UTF-8
Language: en
Country: US
--></g></svg>