<?xml version="1.0" encoding="UTF-8" standalone="no"?>
<svg xmlns="http://www.w3.org/2000/svg" contentScriptType="application/ecmascript" contentStyleType="text/css"
     height="112px" preserveAspectRatio="none" style="width:229px;height:112px;" version="1.1" viewBox="0 0 229 112"
     width="229px" zoomAndPan="magnify"><defs><filter height="300%" id="fb08ix4pwghgh" width="300%" x="-1" y="-1"><feGaussianBlur result="blurOut" stdDeviation="2.0"/><feColorMatrix in="blurOut" result="blurOut2" type="matrix" values="0 0 0 0 0 0 0 0 0 0 0 0 0 0 0 0 0 0 .4 0"/><feOffset dx="4.0" dy="4.0" in="blurOut2" result="blurOut3"/><feBlend in="SourceGraphic" in2="blurOut3" mode="normal"/></filter></defs><g><!--MD5=[3c22739714270d73bb1ebb97dee24d10]
cluster package--><polygon fill="#FFFFFF" filter="url(#fb08ix4pwghgh)" points="16,6,89,6,96,28.2969,212,28.2969,212,105,16,105,16,6" style="stroke:#000000;stroke-width:1.5;"/><line style="stroke:#000000;stroke-width:1.5;" x1="16" x2="96" y1="28.2969" y2="28.2969"/><text fill="#000000" font-family="sans-serif" font-size="14" font-weight="bold" lengthAdjust="spacingAndGlyphs" textLength="67" x="20" y="20.9951">package</text><!--MD5=[e108eb7ecdb5e0eb0f3c0ef062fd094b]
class package.Unit1--><rect codeLine="1" fill="#FEFECE" filter="url(#fb08ix4pwghgh)" height="48" id="package.Unit1" style="stroke:#A80036;stroke-width:1.5;" width="65" x="130.5" y="41"/><ellipse cx="145.5" cy="57" fill="#A9DCDF" rx="11" ry="11" style="stroke:#A80036;stroke-width:1.0;"/><path d="M147.5781,58.8125 L147.9688,59.7969 L147.5781,59.7969 C147.125,59.7969 147.0156,59.8125 146.8594,59.9219 C146.6094,60.0781 146.4531,60.3594 146.4531,60.6563 C146.4531,60.9219 146.5938,61.1719 146.8125,61.3281 C146.9531,61.4531 147.1563,61.5 147.5781,61.5 L149.9375,61.5 C150.2969,61.5 150.5156,61.4688 150.6563,61.375 C150.9063,61.2344 151.0625,60.9375 151.0625,60.6563 C151.0625,60.375 150.9219,60.125 150.7031,59.9688 C150.5313,59.8281 150.375,59.7969 149.9063,59.7969 L146.5156,51.5938 L142.8438,51.5938 C142.3906,51.5938 142.2656,51.6094 142.1094,51.7031 C141.8594,51.875 141.7031,52.1563 141.7031,52.4375 C141.7031,52.7188 141.8438,52.9688 142.0625,53.1406 C142.2344,53.25 142.4063,53.2813 142.8438,53.2813 L143.9219,53.2813 L141.2813,59.7969 C140.8594,59.7969 140.7031,59.8125 140.5469,59.9219 C140.2969,60.0781 140.1406,60.3594 140.1406,60.6563 C140.1406,61.2188 140.5156,61.5 141.2656,61.5 L143.5313,61.5 C143.8906,61.5 144.1094,61.4688 144.2344,61.375 C144.5,61.2344 144.6406,60.9375 144.6406,60.6563 C144.6406,60.375 144.5156,60.125 144.2969,59.9531 C144.125,59.8281 143.9844,59.7969 143.5313,59.7969 L143.1406,59.7969 L143.5313,58.8125 L147.5781,58.8125 Z M146.875,57.1094 L144.2031,57.1094 L145.5469,53.8438 L146.875,57.1094 Z " fill="#000000"/><text fill="#000000" font-family="sans-serif" font-size="12" font-style="italic" lengthAdjust="spacingAndGlyphs" textLength="33" x="159.5" y="61.1543">Unit1</text><line style="stroke:#A80036;stroke-width:1.5;" x1="131.5" x2="194.5" y1="73" y2="73"/><line style="stroke:#A80036;stroke-width:1.5;" x1="131.5" x2="194.5" y1="81" y2="81"/><!--MD5=[1d558ec828be8f5f92ddc937644d94df]
class package.Unit2--><rect codeLine="2" fill="#FEFECE" filter="url(#fb08ix4pwghgh)" height="48" id="package.Unit2" style="stroke:#A80036;stroke-width:1.5;" width="63" x="32.5" y="41"/><ellipse cx="47.5" cy="57" fill="#ADD1B2" rx="11" ry="11" style="stroke:#A80036;stroke-width:1.0;"/><path d="M49.8438,52.6719 C48.9063,52.2344 48.3125,52.0938 47.4375,52.0938 C44.8125,52.0938 42.8125,54.1719 42.8125,56.8906 L42.8125,58.0156 C42.8125,60.5938 44.9219,62.4844 47.8125,62.4844 C49.0313,62.4844 50.1875,62.1875 50.9375,61.6406 C51.5156,61.2344 51.8438,60.7813 51.8438,60.3906 C51.8438,59.9375 51.4531,59.5469 50.9844,59.5469 C50.7656,59.5469 50.5625,59.625 50.375,59.8125 C49.9219,60.2969 49.9219,60.2969 49.7344,60.3906 C49.3125,60.6563 48.625,60.7813 47.8594,60.7813 C45.8125,60.7813 44.5156,59.6875 44.5156,57.9844 L44.5156,56.8906 C44.5156,55.1094 45.7656,53.7969 47.5,53.7969 C48.0781,53.7969 48.6875,53.9531 49.1563,54.2031 C49.6406,54.4844 49.8125,54.7031 49.9063,55.1094 C49.9688,55.5156 50,55.6406 50.1406,55.7656 C50.2813,55.9063 50.5156,56.0156 50.7344,56.0156 C51,56.0156 51.2656,55.875 51.4375,55.6563 C51.5469,55.5 51.5781,55.3125 51.5781,54.8906 L51.5781,53.4688 C51.5781,53.0313 51.5625,52.9063 51.4688,52.75 C51.3125,52.4844 51.0313,52.3438 50.7344,52.3438 C50.4375,52.3438 50.2344,52.4375 50.0156,52.75 L49.8438,52.6719 Z " fill="#000000"/><text fill="#000000" font-family="sans-serif" font-size="12" lengthAdjust="spacingAndGlyphs" textLength="31" x="61.5" y="61.1543">Unit2</text><line style="stroke:#A80036;stroke-width:1.5;" x1="33.5" x2="94.5" y1="73" y2="73"/><line style="stroke:#A80036;stroke-width:1.5;" x1="33.5" x2="94.5" y1="81" y2="81"/><!--MD5=[1858ea9e432d6063b03b599b82773703]
@startuml
abstract class package.Unit1
class package.Unit2
@enduml

PlantUML version 1.2020.21beta7(Unknown compile time)
(GPL source distribution)
Java Runtime: Java(TM) SE Runtime Environment
JVM: Java HotSpot(TM) 64-Bit Server VM
Default Encoding: UTF-8
Language: en
Country: US
--></g></svg>