<?xml version="1.0" encoding="UTF-8" standalone="no"?>
<svg xmlns="http://www.w3.org/2000/svg" contentScriptType="application/ecmascript" contentStyleType="text/css"
     height="235px" preserveAspectRatio="none" style="width:375px;height:235px;" version="1.1" viewBox="0 0 375 235"
     width="375px" zoomAndPan="magnify"><defs><filter height="300%" id="f1f13wafjzr3c1" width="300%" x="-1" y="-1"><feGaussianBlur result="blurOut" stdDeviation="2.0"/><feColorMatrix in="blurOut" result="blurOut2" type="matrix" values="0 0 0 0 0 0 0 0 0 0 0 0 0 0 0 0 0 0 .4 0"/><feOffset dx="4.0" dy="4.0" in="blurOut2" result="blurOut3"/><feBlend in="SourceGraphic" in2="blurOut3" mode="normal"/></filter></defs><g><!--MD5=[491e7f2c0c9250fb4d1154da1be3239e]
cluster com.urjc.mca.tfm.generateuml--><polygon fill="#FFFFFF" filter="url(#f1f13wafjzr3c1)" points="58,6,315,6,322,28.2969,325,28.2969,325,105,58,105,58,6" style="stroke:#000000;stroke-width:1.5;"/><line style="stroke:#000000;stroke-width:1.5;" x1="58" x2="322" y1="28.2969" y2="28.2969"/><text fill="#000000" font-family="sans-serif" font-size="14" font-weight="bold" lengthAdjust="spacingAndGlyphs" textLength="251" x="62" y="20.9951">com.urjc.mca.tfm.generateuml</text><!--MD5=[00232f94da57497e00eb37673ac15597]
cluster javax.script--><polygon fill="#FFFFFF" filter="url(#f1f13wafjzr3c1)" points="16,129,118,129,125,151.2969,208,151.2969,208,228,16,228,16,129" style="stroke:#000000;stroke-width:1.5;"/><line style="stroke:#000000;stroke-width:1.5;" x1="16" x2="125" y1="151.2969" y2="151.2969"/><text fill="#000000" font-family="sans-serif" font-size="14" font-weight="bold" lengthAdjust="spacingAndGlyphs" textLength="96" x="20" y="143.9951">javax.script</text><!--MD5=[7db3c59d38ae5b37b484eb2df9368145]
cluster java.util--><polygon fill="#FFFFFF" filter="url(#f1f13wafjzr3c1)" points="232,129,305,129,312,151.2969,358,151.2969,358,228,232,228,232,129" style="stroke:#000000;stroke-width:1.5;"/><line style="stroke:#000000;stroke-width:1.5;" x1="232" x2="312" y1="151.2969" y2="151.2969"/><text fill="#000000" font-family="sans-serif" font-size="14" font-weight="bold" lengthAdjust="spacingAndGlyphs" textLength="67" x="236" y="143.9951">java.util</text><!--MD5=[8cbb841bd28e462ee56cb00234350e9e]
class com.urjc.mca.tfm.generateuml.GenerateImage--><rect codeLine="1" fill="#FEFECE" filter="url(#f1f13wafjzr3c1)" height="48" id="com.urjc.mca.tfm.generateuml.GenerateImage" style="stroke:#A80036;stroke-width:1.5;" width="125" x="82.5" y="41"/><ellipse cx="97.5" cy="57" fill="#ADD1B2" rx="11" ry="11" style="stroke:#A80036;stroke-width:1.0;"/><path d="M99.8438,52.6719 C98.9063,52.2344 98.3125,52.0938 97.4375,52.0938 C94.8125,52.0938 92.8125,54.1719 92.8125,56.8906 L92.8125,58.0156 C92.8125,60.5938 94.9219,62.4844 97.8125,62.4844 C99.0313,62.4844 100.1875,62.1875 100.9375,61.6406 C101.5156,61.2344 101.8438,60.7813 101.8438,60.3906 C101.8438,59.9375 101.4531,59.5469 100.9844,59.5469 C100.7656,59.5469 100.5625,59.625 100.375,59.8125 C99.9219,60.2969 99.9219,60.2969 99.7344,60.3906 C99.3125,60.6563 98.625,60.7813 97.8594,60.7813 C95.8125,60.7813 94.5156,59.6875 94.5156,57.9844 L94.5156,56.8906 C94.5156,55.1094 95.7656,53.7969 97.5,53.7969 C98.0781,53.7969 98.6875,53.9531 99.1563,54.2031 C99.6406,54.4844 99.8125,54.7031 99.9063,55.1094 C99.9688,55.5156 100,55.6406 100.1406,55.7656 C100.2813,55.9063 100.5156,56.0156 100.7344,56.0156 C101,56.0156 101.2656,55.875 101.4375,55.6563 C101.5469,55.5 101.5781,55.3125 101.5781,54.8906 L101.5781,53.4688 C101.5781,53.0313 101.5625,52.9063 101.4688,52.75 C101.3125,52.4844 101.0313,52.3438 100.7344,52.3438 C100.4375,52.3438 100.2344,52.4375 100.0156,52.75 L99.8438,52.6719 Z " fill="#000000"/><text fill="#000000" font-family="sans-serif" font-size="12" lengthAdjust="spacingAndGlyphs" textLength="93" x="111.5" y="61.1543">GenerateImage</text><line style="stroke:#A80036;stroke-width:1.5;" x1="83.5" x2="206.5" y1="73" y2="73"/><line style="stroke:#A80036;stroke-width:1.5;" x1="83.5" x2="206.5" y1="81" y2="81"/><!--MD5=[df20aaeafe58a81adcfe1b49d5ef6154]
class javax.script.ScriptEngineManager--><rect codeLine="2" fill="#FEFECE" filter="url(#f1f13wafjzr3c1)" height="48" id="javax.script.ScriptEngineManager" style="stroke:#A80036;stroke-width:1.5;" width="159" x="32.5" y="164"/><ellipse cx="47.5" cy="180" fill="#ADD1B2" rx="11" ry="11" style="stroke:#A80036;stroke-width:1.0;"/><path d="M49.8438,175.6719 C48.9063,175.2344 48.3125,175.0938 47.4375,175.0938 C44.8125,175.0938 42.8125,177.1719 42.8125,179.8906 L42.8125,181.0156 C42.8125,183.5938 44.9219,185.4844 47.8125,185.4844 C49.0313,185.4844 50.1875,185.1875 50.9375,184.6406 C51.5156,184.2344 51.8438,183.7813 51.8438,183.3906 C51.8438,182.9375 51.4531,182.5469 50.9844,182.5469 C50.7656,182.5469 50.5625,182.625 50.375,182.8125 C49.9219,183.2969 49.9219,183.2969 49.7344,183.3906 C49.3125,183.6563 48.625,183.7813 47.8594,183.7813 C45.8125,183.7813 44.5156,182.6875 44.5156,180.9844 L44.5156,179.8906 C44.5156,178.1094 45.7656,176.7969 47.5,176.7969 C48.0781,176.7969 48.6875,176.9531 49.1563,177.2031 C49.6406,177.4844 49.8125,177.7031 49.9063,178.1094 C49.9688,178.5156 50,178.6406 50.1406,178.7656 C50.2813,178.9063 50.5156,179.0156 50.7344,179.0156 C51,179.0156 51.2656,178.875 51.4375,178.6563 C51.5469,178.5 51.5781,178.3125 51.5781,177.8906 L51.5781,176.4688 C51.5781,176.0313 51.5625,175.9063 51.4688,175.75 C51.3125,175.4844 51.0313,175.3438 50.7344,175.3438 C50.4375,175.3438 50.2344,175.4375 50.0156,175.75 L49.8438,175.6719 Z " fill="#000000"/><text fill="#000000" font-family="sans-serif" font-size="12" lengthAdjust="spacingAndGlyphs" textLength="127" x="61.5" y="184.1543">ScriptEngineManager</text><line style="stroke:#A80036;stroke-width:1.5;" x1="33.5" x2="190.5" y1="196" y2="196"/><line style="stroke:#A80036;stroke-width:1.5;" x1="33.5" x2="190.5" y1="204" y2="204"/><!--MD5=[3e5da536a98d1ce88349162a207d5656]
class java.util.Properties--><rect codeLine="3" fill="#FEFECE" filter="url(#f1f13wafjzr3c1)" height="48" id="java.util.Properties" style="stroke:#A80036;stroke-width:1.5;" width="94" x="248" y="164"/><ellipse cx="263" cy="180" fill="#ADD1B2" rx="11" ry="11" style="stroke:#A80036;stroke-width:1.0;"/><path d="M265.3438,175.6719 C264.4063,175.2344 263.8125,175.0938 262.9375,175.0938 C260.3125,175.0938 258.3125,177.1719 258.3125,179.8906 L258.3125,181.0156 C258.3125,183.5938 260.4219,185.4844 263.3125,185.4844 C264.5313,185.4844 265.6875,185.1875 266.4375,184.6406 C267.0156,184.2344 267.3438,183.7813 267.3438,183.3906 C267.3438,182.9375 266.9531,182.5469 266.4844,182.5469 C266.2656,182.5469 266.0625,182.625 265.875,182.8125 C265.4219,183.2969 265.4219,183.2969 265.2344,183.3906 C264.8125,183.6563 264.125,183.7813 263.3594,183.7813 C261.3125,183.7813 260.0156,182.6875 260.0156,180.9844 L260.0156,179.8906 C260.0156,178.1094 261.2656,176.7969 263,176.7969 C263.5781,176.7969 264.1875,176.9531 264.6563,177.2031 C265.1406,177.4844 265.3125,177.7031 265.4063,178.1094 C265.4688,178.5156 265.5,178.6406 265.6406,178.7656 C265.7813,178.9063 266.0156,179.0156 266.2344,179.0156 C266.5,179.0156 266.7656,178.875 266.9375,178.6563 C267.0469,178.5 267.0781,178.3125 267.0781,177.8906 L267.0781,176.4688 C267.0781,176.0313 267.0625,175.9063 266.9688,175.75 C266.8125,175.4844 266.5313,175.3438 266.2344,175.3438 C265.9375,175.3438 265.7344,175.4375 265.5156,175.75 L265.3438,175.6719 Z " fill="#000000"/><text fill="#000000" font-family="sans-serif" font-size="12" lengthAdjust="spacingAndGlyphs" textLength="62" x="277" y="184.1543">Properties</text><line style="stroke:#A80036;stroke-width:1.5;" x1="249" x2="341" y1="196" y2="196"/><line style="stroke:#A80036;stroke-width:1.5;" x1="249" x2="341" y1="204" y2="204"/><!--MD5=[74183f3ae61317309f11eea4b594d5b6]
link com.urjc.mca.tfm.generateuml.GenerateImage to javax.script.ScriptEngineManager--><path codeLine="4" d="M138.715,89.044 C133.314,108.85 125.504,137.484 119.723,158.683 " fill="none" id="com.urjc.mca.tfm.generateuml.GenerateImage-to-javax.script.ScriptEngineManager" style="stroke:#A80036;stroke-width:1.0;"/><polygon fill="#A80036" points="118.374,163.6297,124.6009,155.9991,119.6895,158.8058,116.8827,153.8944,118.374,163.6297" style="stroke:#A80036;stroke-width:1.0;"/><!--MD5=[c8eed6ae7a9e12fb06cbde0caeec7712]
link com.urjc.mca.tfm.generateuml.GenerateImage to java.util.Properties--><path codeLine="5" d="M173.567,89.044 C198.822,109.416 235.657,139.13 262.128,160.4834 " fill="none" id="com.urjc.mca.tfm.generateuml.GenerateImage-to-java.util.Properties" style="stroke:#A80036;stroke-width:1.0;"/><polygon fill="#A80036" points="266.284,163.8361,261.7896,155.0725,262.392,160.6972,256.7674,161.2997,266.284,163.8361" style="stroke:#A80036;stroke-width:1.0;"/><!--MD5=[a403cca124b891407e1ccd9688538ddd]
@startuml
class com.urjc.mca.tfm.generateuml.GenerateImage
class javax.script.ScriptEngineManager
class java.util.Properties
com.urjc.mca.tfm.generateuml.GenerateImage - -> javax.script.ScriptEngineManager
com.urjc.mca.tfm.generateuml.GenerateImage - -> java.util.Properties
@enduml

PlantUML version 1.2020.22beta2(Unknown compile time)
(GPL source distribution)
Java Runtime: Java(TM) SE Runtime Environment
JVM: Java HotSpot(TM) 64-Bit Server VM
Default Encoding: UTF-8
Language: en
Country: US
--></g></svg>