<?xml version="1.0" encoding="UTF-8" standalone="no"?>
<svg xmlns="http://www.w3.org/2000/svg" contentScriptType="application/ecmascript" contentStyleType="text/css"
     height="235px" preserveAspectRatio="none" style="width:354px;height:235px;" version="1.1" viewBox="0 0 354 235"
     width="354px" zoomAndPan="magnify"><defs><filter height="300%" id="ftc0rh11m49po" width="300%" x="-1" y="-1"><feGaussianBlur result="blurOut" stdDeviation="2.0"/><feColorMatrix in="blurOut" result="blurOut2" type="matrix" values="0 0 0 0 0 0 0 0 0 0 0 0 0 0 0 0 0 0 .4 0"/><feOffset dx="4.0" dy="4.0" in="blurOut2" result="blurOut3"/><feBlend in="SourceGraphic" in2="blurOut3" mode="normal"/></filter></defs><g><!--MD5=[491e7f2c0c9250fb4d1154da1be3239e]
cluster com.urjc.mca.tfm.generateuml--><polygon fill="#FFFFFF" filter="url(#ftc0rh11m49po)" points="35,6,292,6,299,28.2969,302,28.2969,302,105,35,105,35,6" style="stroke:#000000;stroke-width:1.5;"/><line style="stroke:#000000;stroke-width:1.5;" x1="35" x2="299" y1="28.2969" y2="28.2969"/><text fill="#000000" font-family="sans-serif" font-size="14" font-weight="bold" lengthAdjust="spacingAndGlyphs" textLength="251" x="39" y="20.9951">com.urjc.mca.tfm.generateuml</text><!--MD5=[e6b1b26b4646fd5f3b41199c0418982b]
cluster com.urjc.mca.tfm.generateuml.model--><polygon fill="#FFFFFF" filter="url(#ftc0rh11m49po)" points="16,129,327,129,334,151.2969,337,151.2969,337,228,16,228,16,129" style="stroke:#000000;stroke-width:1.5;"/><line style="stroke:#000000;stroke-width:1.5;" x1="16" x2="334" y1="151.2969" y2="151.2969"/><text fill="#000000" font-family="sans-serif" font-size="14" font-weight="bold" lengthAdjust="spacingAndGlyphs" textLength="305" x="20" y="143.9951">com.urjc.mca.tfm.generateuml.model</text><!--MD5=[730dde7c6e792ea4f148dbbbebccedf0]
class com.urjc.mca.tfm.generateuml.ClassDiagramGenerator--><rect codeLine="1" fill="#FEFECE" filter="url(#ftc0rh11m49po)" height="48" id="com.urjc.mca.tfm.generateuml.ClassDiagramGenerator" style="stroke:#A80036;stroke-width:1.5;" width="175" x="77.5" y="41"/><ellipse cx="92.5" cy="57" fill="#ADD1B2" rx="11" ry="11" style="stroke:#A80036;stroke-width:1.0;"/><path d="M94.8438,52.6719 C93.9063,52.2344 93.3125,52.0938 92.4375,52.0938 C89.8125,52.0938 87.8125,54.1719 87.8125,56.8906 L87.8125,58.0156 C87.8125,60.5938 89.9219,62.4844 92.8125,62.4844 C94.0313,62.4844 95.1875,62.1875 95.9375,61.6406 C96.5156,61.2344 96.8438,60.7813 96.8438,60.3906 C96.8438,59.9375 96.4531,59.5469 95.9844,59.5469 C95.7656,59.5469 95.5625,59.625 95.375,59.8125 C94.9219,60.2969 94.9219,60.2969 94.7344,60.3906 C94.3125,60.6563 93.625,60.7813 92.8594,60.7813 C90.8125,60.7813 89.5156,59.6875 89.5156,57.9844 L89.5156,56.8906 C89.5156,55.1094 90.7656,53.7969 92.5,53.7969 C93.0781,53.7969 93.6875,53.9531 94.1563,54.2031 C94.6406,54.4844 94.8125,54.7031 94.9063,55.1094 C94.9688,55.5156 95,55.6406 95.1406,55.7656 C95.2813,55.9063 95.5156,56.0156 95.7344,56.0156 C96,56.0156 96.2656,55.875 96.4375,55.6563 C96.5469,55.5 96.5781,55.3125 96.5781,54.8906 L96.5781,53.4688 C96.5781,53.0313 96.5625,52.9063 96.4688,52.75 C96.3125,52.4844 96.0313,52.3438 95.7344,52.3438 C95.4375,52.3438 95.2344,52.4375 95.0156,52.75 L94.8438,52.6719 Z " fill="#000000"/><text fill="#000000" font-family="sans-serif" font-size="12" lengthAdjust="spacingAndGlyphs" textLength="143" x="106.5" y="61.1543">ClassDiagramGenerator</text><line style="stroke:#A80036;stroke-width:1.5;" x1="78.5" x2="251.5" y1="73" y2="73"/><line style="stroke:#A80036;stroke-width:1.5;" x1="78.5" x2="251.5" y1="81" y2="81"/><!--MD5=[ea56b9ecae5862df673fe2fa3ad17a74]
class com.urjc.mca.tfm.generateuml.model.Domain--><rect codeLine="2" fill="#FEFECE" filter="url(#ftc0rh11m49po)" height="48" id="com.urjc.mca.tfm.generateuml.model.Domain" style="stroke:#A80036;stroke-width:1.5;" width="77" x="152.5" y="164"/><ellipse cx="167.5" cy="180" fill="#ADD1B2" rx="11" ry="11" style="stroke:#A80036;stroke-width:1.0;"/><path d="M169.8438,175.6719 C168.9063,175.2344 168.3125,175.0938 167.4375,175.0938 C164.8125,175.0938 162.8125,177.1719 162.8125,179.8906 L162.8125,181.0156 C162.8125,183.5938 164.9219,185.4844 167.8125,185.4844 C169.0313,185.4844 170.1875,185.1875 170.9375,184.6406 C171.5156,184.2344 171.8438,183.7813 171.8438,183.3906 C171.8438,182.9375 171.4531,182.5469 170.9844,182.5469 C170.7656,182.5469 170.5625,182.625 170.375,182.8125 C169.9219,183.2969 169.9219,183.2969 169.7344,183.3906 C169.3125,183.6563 168.625,183.7813 167.8594,183.7813 C165.8125,183.7813 164.5156,182.6875 164.5156,180.9844 L164.5156,179.8906 C164.5156,178.1094 165.7656,176.7969 167.5,176.7969 C168.0781,176.7969 168.6875,176.9531 169.1563,177.2031 C169.6406,177.4844 169.8125,177.7031 169.9063,178.1094 C169.9688,178.5156 170,178.6406 170.1406,178.7656 C170.2813,178.9063 170.5156,179.0156 170.7344,179.0156 C171,179.0156 171.2656,178.875 171.4375,178.6563 C171.5469,178.5 171.5781,178.3125 171.5781,177.8906 L171.5781,176.4688 C171.5781,176.0313 171.5625,175.9063 171.4688,175.75 C171.3125,175.4844 171.0313,175.3438 170.7344,175.3438 C170.4375,175.3438 170.2344,175.4375 170.0156,175.75 L169.8438,175.6719 Z " fill="#000000"/><text fill="#000000" font-family="sans-serif" font-size="12" lengthAdjust="spacingAndGlyphs" textLength="45" x="181.5" y="184.1543">Domain</text><line style="stroke:#A80036;stroke-width:1.5;" x1="153.5" x2="228.5" y1="196" y2="196"/><line style="stroke:#A80036;stroke-width:1.5;" x1="153.5" x2="228.5" y1="204" y2="204"/><!--MD5=[1f41066e9334f465d509339b9bb6fb7f]
class com.urjc.mca.tfm.generateuml.model.Unit--><rect codeLine="3" fill="#FEFECE" filter="url(#ftc0rh11m49po)" height="48" id="com.urjc.mca.tfm.generateuml.model.Unit" style="stroke:#A80036;stroke-width:1.5;" width="55" x="62.5" y="164"/><ellipse cx="77.5" cy="180" fill="#ADD1B2" rx="11" ry="11" style="stroke:#A80036;stroke-width:1.0;"/><path d="M79.8438,175.6719 C78.9063,175.2344 78.3125,175.0938 77.4375,175.0938 C74.8125,175.0938 72.8125,177.1719 72.8125,179.8906 L72.8125,181.0156 C72.8125,183.5938 74.9219,185.4844 77.8125,185.4844 C79.0313,185.4844 80.1875,185.1875 80.9375,184.6406 C81.5156,184.2344 81.8438,183.7813 81.8438,183.3906 C81.8438,182.9375 81.4531,182.5469 80.9844,182.5469 C80.7656,182.5469 80.5625,182.625 80.375,182.8125 C79.9219,183.2969 79.9219,183.2969 79.7344,183.3906 C79.3125,183.6563 78.625,183.7813 77.8594,183.7813 C75.8125,183.7813 74.5156,182.6875 74.5156,180.9844 L74.5156,179.8906 C74.5156,178.1094 75.7656,176.7969 77.5,176.7969 C78.0781,176.7969 78.6875,176.9531 79.1563,177.2031 C79.6406,177.4844 79.8125,177.7031 79.9063,178.1094 C79.9688,178.5156 80,178.6406 80.1406,178.7656 C80.2813,178.9063 80.5156,179.0156 80.7344,179.0156 C81,179.0156 81.2656,178.875 81.4375,178.6563 C81.5469,178.5 81.5781,178.3125 81.5781,177.8906 L81.5781,176.4688 C81.5781,176.0313 81.5625,175.9063 81.4688,175.75 C81.3125,175.4844 81.0313,175.3438 80.7344,175.3438 C80.4375,175.3438 80.2344,175.4375 80.0156,175.75 L79.8438,175.6719 Z " fill="#000000"/><text fill="#000000" font-family="sans-serif" font-size="12" lengthAdjust="spacingAndGlyphs" textLength="23" x="91.5" y="184.1543">Unit</text><line style="stroke:#A80036;stroke-width:1.5;" x1="63.5" x2="116.5" y1="196" y2="196"/><line style="stroke:#A80036;stroke-width:1.5;" x1="63.5" x2="116.5" y1="204" y2="204"/><!--MD5=[28cc1b1a9d532aa219f0017d9b3c3d85]
link com.urjc.mca.tfm.generateuml.ClassDiagramGenerator to com.urjc.mca.tfm.generateuml.model.Unit--><path codeLine="4" d="M144.3944,99.2432 C144.3944,99.2432 121.586,136.041 111.463,152.3738 " fill="none" id="com.urjc.mca.tfm.generateuml.ClassDiagramGenerator-com.urjc.mca.tfm.generateuml.model.Unit" style="stroke:#A80036;stroke-width:1.0;"/><polygon fill="#A80036" points="104.486,163.6297,112.6273,158.0872,107.1201,159.3798,105.8275,153.8726,104.486,163.6297" style="stroke:#A80036;stroke-width:1.0;"/><line style="stroke:#A80036;stroke-width:1.0;" x1="107.1201" x2="111.3345" y1="159.3798" y2="152.5801"/><polygon fill="#FFFFFF" points="150.717,89.044,144.1559,92.0361,144.3944,99.2432,150.9554,96.2512,150.717,89.044" style="stroke:#A80036;stroke-width:1.0;"/><!--MD5=[c2d88e46dac462800c828a3d4d6bd927]
link com.urjc.mca.tfm.generateuml.ClassDiagramGenerator to com.urjc.mca.tfm.generateuml.model.Domain--><path codeLine="5" d="M169.952,89.044 C174.207,108.85 180.36,137.484 184.915,158.683 " fill="none" id="com.urjc.mca.tfm.generateuml.ClassDiagramGenerator-to-com.urjc.mca.tfm.generateuml.model.Domain" style="stroke:#A80036;stroke-width:1.0;stroke-dasharray:7.0,7.0;"/><polygon fill="#A80036" points="185.978,163.6297,187.998,153.9902,184.9276,158.7413,180.1765,155.6709,185.978,163.6297" style="stroke:#A80036;stroke-width:1.0;"/><!--MD5=[aa7179f44a2386a7ea9b3eab2900bf97]
@startuml
class com.urjc.mca.tfm.generateuml.ClassDiagramGenerator
class com.urjc.mca.tfm.generateuml.model.Domain
class com.urjc.mca.tfm.generateuml.model.Unit
com.urjc.mca.tfm.generateuml.ClassDiagramGenerator o- -> com.urjc.mca.tfm.generateuml.model.Unit
com.urjc.mca.tfm.generateuml.ClassDiagramGenerator ..> com.urjc.mca.tfm.generateuml.model.Domain
@enduml

PlantUML version 1.2020.22beta2(Unknown compile time)
(GPL source distribution)
Java Runtime: Java(TM) SE Runtime Environment
JVM: Java HotSpot(TM) 64-Bit Server VM
Default Encoding: UTF-8
Language: en
Country: US
--></g></svg>