<?xml version="1.0" encoding="UTF-8" standalone="no"?>
<svg xmlns="http://www.w3.org/2000/svg" contentScriptType="application/ecmascript" contentStyleType="text/css"
     height="790px" preserveAspectRatio="none" style="width:1688px;height:790px;" version="1.1" viewBox="0 0 1688 790"
     width="1688px" zoomAndPan="magnify"><defs><filter height="300%" id="f1145581913pcs" width="300%" x="-1" y="-1"><feGaussianBlur result="blurOut" stdDeviation="2.0"/><feColorMatrix in="blurOut" result="blurOut2" type="matrix" values="0 0 0 0 0 0 0 0 0 0 0 0 0 0 0 0 0 0 .4 0"/><feOffset dx="4.0" dy="4.0" in="blurOut2" result="blurOut3"/><feBlend in="SourceGraphic" in2="blurOut3" mode="normal"/></filter></defs><g><!--MD5=[491e7f2c0c9250fb4d1154da1be3239e]
cluster com.urjc.mca.tfm.generateuml--><polygon fill="#FFFFFF" filter="url(#f1145581913pcs)" points="146,6,403,6,410,28.2969,890,28.2969,890,444,146,444,146,6" style="stroke:#000000;stroke-width:1.5;"/><line style="stroke:#000000;stroke-width:1.5;" x1="146" x2="410" y1="28.2969" y2="28.2969"/><text fill="#000000" font-family="sans-serif" font-size="14" font-weight="bold" lengthAdjust="spacingAndGlyphs" textLength="251" x="150" y="20.9951">com.urjc.mca.tfm.generateuml</text><!--MD5=[c66e735c89a839b0f40df60143f9640e]
cluster org.eclipse.jdt.core.dom--><polygon fill="#FFFFFF" filter="url(#f1145581913pcs)" points="1417,345,1619,345,1626,367.2969,1671,367.2969,1671,444,1417,444,1417,345" style="stroke:#000000;stroke-width:1.5;"/><line style="stroke:#000000;stroke-width:1.5;" x1="1417" x2="1626" y1="367.2969" y2="367.2969"/><text fill="#000000" font-family="sans-serif" font-size="14" font-weight="bold" lengthAdjust="spacingAndGlyphs" textLength="196" x="1421" y="359.9951">org.eclipse.jdt.core.dom</text><!--MD5=[e6b1b26b4646fd5f3b41199c0418982b]
cluster com.urjc.mca.tfm.generateuml.model--><polygon fill="#FFFFFF" filter="url(#f1145581913pcs)" points="914,345,1225,345,1232,367.2969,1235,367.2969,1235,783,914,783,914,345" style="stroke:#000000;stroke-width:1.5;"/><line style="stroke:#000000;stroke-width:1.5;" x1="914" x2="1232" y1="367.2969" y2="367.2969"/><text fill="#000000" font-family="sans-serif" font-size="14" font-weight="bold" lengthAdjust="spacingAndGlyphs" textLength="305" x="918" y="359.9951">com.urjc.mca.tfm.generateuml.model</text><!--MD5=[7db3c59d38ae5b37b484eb2df9368145]
cluster java.util--><polygon fill="#FFFFFF" filter="url(#f1145581913pcs)" points="234,468,307,468,314,490.2969,360,490.2969,360,567,234,567,234,468" style="stroke:#000000;stroke-width:1.5;"/><line style="stroke:#000000;stroke-width:1.5;" x1="234" x2="314" y1="490.2969" y2="490.2969"/><text fill="#000000" font-family="sans-serif" font-size="14" font-weight="bold" lengthAdjust="spacingAndGlyphs" textLength="67" x="238" y="482.9951">java.util</text><!--MD5=[0d852700fdad35b7061d461d6907a324]
cluster java.io--><polygon fill="#FFFFFF" filter="url(#f1145581913pcs)" points="1259,345,1319,345,1326,367.2969,1393,367.2969,1393,444,1259,444,1259,345" style="stroke:#000000;stroke-width:1.5;"/><line style="stroke:#000000;stroke-width:1.5;" x1="1259" x2="1326" y1="367.2969" y2="367.2969"/><text fill="#000000" font-family="sans-serif" font-size="14" font-weight="bold" lengthAdjust="spacingAndGlyphs" textLength="54" x="1263" y="359.9951">java.io</text><!--MD5=[aa8f7b917213fcc1c2766e2d59b49067]
cluster java.lang--><polygon fill="#FFFFFF" filter="url(#f1145581913pcs)" points="16,222,96,222,103,244.2969,122,244.2969,122,321,16,321,16,222" style="stroke:#000000;stroke-width:1.5;"/><line style="stroke:#000000;stroke-width:1.5;" x1="16" x2="103" y1="244.2969" y2="244.2969"/><text fill="#000000" font-family="sans-serif" font-size="14" font-weight="bold" lengthAdjust="spacingAndGlyphs" textLength="74" x="20" y="236.9951">java.lang</text><!--MD5=[8d7a8bc778e30081ce0119d655edae1c]
class com.urjc.mca.tfm.generateuml.JavaAnalyzerEclipseAST--><rect codeLine="1" fill="#FEFECE" filter="url(#f1145581913pcs)" height="48" id="com.urjc.mca.tfm.generateuml.JavaAnalyzerEclipseAST" style="stroke:#A80036;stroke-width:1.5;" width="175" x="698.5" y="257"/><ellipse cx="713.5" cy="273" fill="#ADD1B2" rx="11" ry="11" style="stroke:#A80036;stroke-width:1.0;"/><path d="M715.8438,268.6719 C714.9063,268.2344 714.3125,268.0938 713.4375,268.0938 C710.8125,268.0938 708.8125,270.1719 708.8125,272.8906 L708.8125,274.0156 C708.8125,276.5938 710.9219,278.4844 713.8125,278.4844 C715.0313,278.4844 716.1875,278.1875 716.9375,277.6406 C717.5156,277.2344 717.8438,276.7813 717.8438,276.3906 C717.8438,275.9375 717.4531,275.5469 716.9844,275.5469 C716.7656,275.5469 716.5625,275.625 716.375,275.8125 C715.9219,276.2969 715.9219,276.2969 715.7344,276.3906 C715.3125,276.6563 714.625,276.7813 713.8594,276.7813 C711.8125,276.7813 710.5156,275.6875 710.5156,273.9844 L710.5156,272.8906 C710.5156,271.1094 711.7656,269.7969 713.5,269.7969 C714.0781,269.7969 714.6875,269.9531 715.1563,270.2031 C715.6406,270.4844 715.8125,270.7031 715.9063,271.1094 C715.9688,271.5156 716,271.6406 716.1406,271.7656 C716.2813,271.9063 716.5156,272.0156 716.7344,272.0156 C717,272.0156 717.2656,271.875 717.4375,271.6563 C717.5469,271.5 717.5781,271.3125 717.5781,270.8906 L717.5781,269.4688 C717.5781,269.0313 717.5625,268.9063 717.4688,268.75 C717.3125,268.4844 717.0313,268.3438 716.7344,268.3438 C716.4375,268.3438 716.2344,268.4375 716.0156,268.75 L715.8438,268.6719 Z " fill="#000000"/><text fill="#000000" font-family="sans-serif" font-size="12" lengthAdjust="spacingAndGlyphs" textLength="143" x="727.5" y="277.1543">JavaAnalyzerEclipseAST</text><line style="stroke:#A80036;stroke-width:1.5;" x1="699.5" x2="872.5" y1="289" y2="289"/><line style="stroke:#A80036;stroke-width:1.5;" x1="699.5" x2="872.5" y1="297" y2="297"/><!--MD5=[730dde7c6e792ea4f148dbbbebccedf0]
class com.urjc.mca.tfm.generateuml.ClassDiagramGenerator--><rect codeLine="6" fill="#FEFECE" filter="url(#f1145581913pcs)" height="48" id="com.urjc.mca.tfm.generateuml.ClassDiagramGenerator" style="stroke:#A80036;stroke-width:1.5;" width="175" x="488.5" y="257"/><ellipse cx="503.5" cy="273" fill="#ADD1B2" rx="11" ry="11" style="stroke:#A80036;stroke-width:1.0;"/><path d="M505.8438,268.6719 C504.9063,268.2344 504.3125,268.0938 503.4375,268.0938 C500.8125,268.0938 498.8125,270.1719 498.8125,272.8906 L498.8125,274.0156 C498.8125,276.5938 500.9219,278.4844 503.8125,278.4844 C505.0313,278.4844 506.1875,278.1875 506.9375,277.6406 C507.5156,277.2344 507.8438,276.7813 507.8438,276.3906 C507.8438,275.9375 507.4531,275.5469 506.9844,275.5469 C506.7656,275.5469 506.5625,275.625 506.375,275.8125 C505.9219,276.2969 505.9219,276.2969 505.7344,276.3906 C505.3125,276.6563 504.625,276.7813 503.8594,276.7813 C501.8125,276.7813 500.5156,275.6875 500.5156,273.9844 L500.5156,272.8906 C500.5156,271.1094 501.7656,269.7969 503.5,269.7969 C504.0781,269.7969 504.6875,269.9531 505.1563,270.2031 C505.6406,270.4844 505.8125,270.7031 505.9063,271.1094 C505.9688,271.5156 506,271.6406 506.1406,271.7656 C506.2813,271.9063 506.5156,272.0156 506.7344,272.0156 C507,272.0156 507.2656,271.875 507.4375,271.6563 C507.5469,271.5 507.5781,271.3125 507.5781,270.8906 L507.5781,269.4688 C507.5781,269.0313 507.5625,268.9063 507.4688,268.75 C507.3125,268.4844 507.0313,268.3438 506.7344,268.3438 C506.4375,268.3438 506.2344,268.4375 506.0156,268.75 L505.8438,268.6719 Z " fill="#000000"/><text fill="#000000" font-family="sans-serif" font-size="12" lengthAdjust="spacingAndGlyphs" textLength="143" x="517.5" y="277.1543">ClassDiagramGenerator</text><line style="stroke:#A80036;stroke-width:1.5;" x1="489.5" x2="662.5" y1="289" y2="289"/><line style="stroke:#A80036;stroke-width:1.5;" x1="489.5" x2="662.5" y1="297" y2="297"/><!--MD5=[8cbb841bd28e462ee56cb00234350e9e]
class com.urjc.mca.tfm.generateuml.GenerateImage--><rect codeLine="7" fill="#FEFECE" filter="url(#f1145581913pcs)" height="48" id="com.urjc.mca.tfm.generateuml.GenerateImage" style="stroke:#A80036;stroke-width:1.5;" width="125" x="328.5" y="257"/><ellipse cx="343.5" cy="273" fill="#ADD1B2" rx="11" ry="11" style="stroke:#A80036;stroke-width:1.0;"/><path d="M345.8438,268.6719 C344.9063,268.2344 344.3125,268.0938 343.4375,268.0938 C340.8125,268.0938 338.8125,270.1719 338.8125,272.8906 L338.8125,274.0156 C338.8125,276.5938 340.9219,278.4844 343.8125,278.4844 C345.0313,278.4844 346.1875,278.1875 346.9375,277.6406 C347.5156,277.2344 347.8438,276.7813 347.8438,276.3906 C347.8438,275.9375 347.4531,275.5469 346.9844,275.5469 C346.7656,275.5469 346.5625,275.625 346.375,275.8125 C345.9219,276.2969 345.9219,276.2969 345.7344,276.3906 C345.3125,276.6563 344.625,276.7813 343.8594,276.7813 C341.8125,276.7813 340.5156,275.6875 340.5156,273.9844 L340.5156,272.8906 C340.5156,271.1094 341.7656,269.7969 343.5,269.7969 C344.0781,269.7969 344.6875,269.9531 345.1563,270.2031 C345.6406,270.4844 345.8125,270.7031 345.9063,271.1094 C345.9688,271.5156 346,271.6406 346.1406,271.7656 C346.2813,271.9063 346.5156,272.0156 346.7344,272.0156 C347,272.0156 347.2656,271.875 347.4375,271.6563 C347.5469,271.5 347.5781,271.3125 347.5781,270.8906 L347.5781,269.4688 C347.5781,269.0313 347.5625,268.9063 347.4688,268.75 C347.3125,268.4844 347.0313,268.3438 346.7344,268.3438 C346.4375,268.3438 346.2344,268.4375 346.0156,268.75 L345.8438,268.6719 Z " fill="#000000"/><text fill="#000000" font-family="sans-serif" font-size="12" lengthAdjust="spacingAndGlyphs" textLength="93" x="357.5" y="277.1543">GenerateImage</text><line style="stroke:#A80036;stroke-width:1.5;" x1="329.5" x2="452.5" y1="289" y2="289"/><line style="stroke:#A80036;stroke-width:1.5;" x1="329.5" x2="452.5" y1="297" y2="297"/><!--MD5=[2ce6ebeeead493309275a631d28c0b87]
class com.urjc.mca.tfm.generateuml.CloneRepository--><rect codeLine="13" fill="#FEFECE" filter="url(#f1145581913pcs)" height="48" id="com.urjc.mca.tfm.generateuml.CloneRepository" style="stroke:#A80036;stroke-width:1.5;" width="131" x="162.5" y="257"/><ellipse cx="177.5" cy="273" fill="#ADD1B2" rx="11" ry="11" style="stroke:#A80036;stroke-width:1.0;"/><path d="M179.8438,268.6719 C178.9063,268.2344 178.3125,268.0938 177.4375,268.0938 C174.8125,268.0938 172.8125,270.1719 172.8125,272.8906 L172.8125,274.0156 C172.8125,276.5938 174.9219,278.4844 177.8125,278.4844 C179.0313,278.4844 180.1875,278.1875 180.9375,277.6406 C181.5156,277.2344 181.8438,276.7813 181.8438,276.3906 C181.8438,275.9375 181.4531,275.5469 180.9844,275.5469 C180.7656,275.5469 180.5625,275.625 180.375,275.8125 C179.9219,276.2969 179.9219,276.2969 179.7344,276.3906 C179.3125,276.6563 178.625,276.7813 177.8594,276.7813 C175.8125,276.7813 174.5156,275.6875 174.5156,273.9844 L174.5156,272.8906 C174.5156,271.1094 175.7656,269.7969 177.5,269.7969 C178.0781,269.7969 178.6875,269.9531 179.1563,270.2031 C179.6406,270.4844 179.8125,270.7031 179.9063,271.1094 C179.9688,271.5156 180,271.6406 180.1406,271.7656 C180.2813,271.9063 180.5156,272.0156 180.7344,272.0156 C181,272.0156 181.2656,271.875 181.4375,271.6563 C181.5469,271.5 181.5781,271.3125 181.5781,270.8906 L181.5781,269.4688 C181.5781,269.0313 181.5625,268.9063 181.4688,268.75 C181.3125,268.4844 181.0313,268.3438 180.7344,268.3438 C180.4375,268.3438 180.2344,268.4375 180.0156,268.75 L179.8438,268.6719 Z " fill="#000000"/><text fill="#000000" font-family="sans-serif" font-size="12" lengthAdjust="spacingAndGlyphs" textLength="99" x="191.5" y="277.1543">CloneRepository</text><line style="stroke:#A80036;stroke-width:1.5;" x1="163.5" x2="292.5" y1="289" y2="289"/><line style="stroke:#A80036;stroke-width:1.5;" x1="163.5" x2="292.5" y1="297" y2="297"/><!--MD5=[caebe37441fde438dbb58586b9cceffe]
class com.urjc.mca.tfm.generateuml.StreamGobbler--><rect codeLine="14" fill="#FEFECE" filter="url(#f1145581913pcs)" height="48" id="com.urjc.mca.tfm.generateuml.StreamGobbler" style="stroke:#A80036;stroke-width:1.5;" width="124" x="166" y="380"/><ellipse cx="181" cy="396" fill="#ADD1B2" rx="11" ry="11" style="stroke:#A80036;stroke-width:1.0;"/><path d="M183.3438,391.6719 C182.4063,391.2344 181.8125,391.0938 180.9375,391.0938 C178.3125,391.0938 176.3125,393.1719 176.3125,395.8906 L176.3125,397.0156 C176.3125,399.5938 178.4219,401.4844 181.3125,401.4844 C182.5313,401.4844 183.6875,401.1875 184.4375,400.6406 C185.0156,400.2344 185.3438,399.7813 185.3438,399.3906 C185.3438,398.9375 184.9531,398.5469 184.4844,398.5469 C184.2656,398.5469 184.0625,398.625 183.875,398.8125 C183.4219,399.2969 183.4219,399.2969 183.2344,399.3906 C182.8125,399.6563 182.125,399.7813 181.3594,399.7813 C179.3125,399.7813 178.0156,398.6875 178.0156,396.9844 L178.0156,395.8906 C178.0156,394.1094 179.2656,392.7969 181,392.7969 C181.5781,392.7969 182.1875,392.9531 182.6563,393.2031 C183.1406,393.4844 183.3125,393.7031 183.4063,394.1094 C183.4688,394.5156 183.5,394.6406 183.6406,394.7656 C183.7813,394.9063 184.0156,395.0156 184.2344,395.0156 C184.5,395.0156 184.7656,394.875 184.9375,394.6563 C185.0469,394.5 185.0781,394.3125 185.0781,393.8906 L185.0781,392.4688 C185.0781,392.0313 185.0625,391.9063 184.9688,391.75 C184.8125,391.4844 184.5313,391.3438 184.2344,391.3438 C183.9375,391.3438 183.7344,391.4375 183.5156,391.75 L183.3438,391.6719 Z " fill="#000000"/><text fill="#000000" font-family="sans-serif" font-size="12" lengthAdjust="spacingAndGlyphs" textLength="92" x="195" y="400.1543">StreamGobbler</text><line style="stroke:#A80036;stroke-width:1.5;" x1="167" x2="289" y1="412" y2="412"/><line style="stroke:#A80036;stroke-width:1.5;" x1="167" x2="289" y1="420" y2="420"/><!--MD5=[bd825578217b52b94d6b87474c3c3bcc]
class com.urjc.mca.tfm.generateuml.GenerateUml--><rect codeLine="16" fill="#FEFECE" filter="url(#f1145581913pcs)" height="48" id="com.urjc.mca.tfm.generateuml.GenerateUml" style="stroke:#A80036;stroke-width:1.5;" width="111" x="427.5" y="149"/><ellipse cx="442.5" cy="165" fill="#ADD1B2" rx="11" ry="11" style="stroke:#A80036;stroke-width:1.0;"/><path d="M444.8438,160.6719 C443.9063,160.2344 443.3125,160.0938 442.4375,160.0938 C439.8125,160.0938 437.8125,162.1719 437.8125,164.8906 L437.8125,166.0156 C437.8125,168.5938 439.9219,170.4844 442.8125,170.4844 C444.0313,170.4844 445.1875,170.1875 445.9375,169.6406 C446.5156,169.2344 446.8438,168.7813 446.8438,168.3906 C446.8438,167.9375 446.4531,167.5469 445.9844,167.5469 C445.7656,167.5469 445.5625,167.625 445.375,167.8125 C444.9219,168.2969 444.9219,168.2969 444.7344,168.3906 C444.3125,168.6563 443.625,168.7813 442.8594,168.7813 C440.8125,168.7813 439.5156,167.6875 439.5156,165.9844 L439.5156,164.8906 C439.5156,163.1094 440.7656,161.7969 442.5,161.7969 C443.0781,161.7969 443.6875,161.9531 444.1563,162.2031 C444.6406,162.4844 444.8125,162.7031 444.9063,163.1094 C444.9688,163.5156 445,163.6406 445.1406,163.7656 C445.2813,163.9063 445.5156,164.0156 445.7344,164.0156 C446,164.0156 446.2656,163.875 446.4375,163.6563 C446.5469,163.5 446.5781,163.3125 446.5781,162.8906 L446.5781,161.4688 C446.5781,161.0313 446.5625,160.9063 446.4688,160.75 C446.3125,160.4844 446.0313,160.3438 445.7344,160.3438 C445.4375,160.3438 445.2344,160.4375 445.0156,160.75 L444.8438,160.6719 Z " fill="#000000"/><text fill="#000000" font-family="sans-serif" font-size="12" lengthAdjust="spacingAndGlyphs" textLength="79" x="456.5" y="169.1543">GenerateUml</text><line style="stroke:#A80036;stroke-width:1.5;" x1="428.5" x2="537.5" y1="181" y2="181"/><line style="stroke:#A80036;stroke-width:1.5;" x1="428.5" x2="537.5" y1="189" y2="189"/><!--MD5=[ce89b2182c7cc889e32131ce2c55bdb9]
class com.urjc.mca.tfm.generateuml.GenerateumlApplication--><rect codeLine="17" fill="#FEFECE" filter="url(#f1145581913pcs)" height="48" id="com.urjc.mca.tfm.generateuml.GenerateumlApplication" style="stroke:#A80036;stroke-width:1.5;" width="175" x="395.5" y="41"/><ellipse cx="410.5" cy="57" fill="#ADD1B2" rx="11" ry="11" style="stroke:#A80036;stroke-width:1.0;"/><path d="M412.8438,52.6719 C411.9063,52.2344 411.3125,52.0938 410.4375,52.0938 C407.8125,52.0938 405.8125,54.1719 405.8125,56.8906 L405.8125,58.0156 C405.8125,60.5938 407.9219,62.4844 410.8125,62.4844 C412.0313,62.4844 413.1875,62.1875 413.9375,61.6406 C414.5156,61.2344 414.8438,60.7813 414.8438,60.3906 C414.8438,59.9375 414.4531,59.5469 413.9844,59.5469 C413.7656,59.5469 413.5625,59.625 413.375,59.8125 C412.9219,60.2969 412.9219,60.2969 412.7344,60.3906 C412.3125,60.6563 411.625,60.7813 410.8594,60.7813 C408.8125,60.7813 407.5156,59.6875 407.5156,57.9844 L407.5156,56.8906 C407.5156,55.1094 408.7656,53.7969 410.5,53.7969 C411.0781,53.7969 411.6875,53.9531 412.1563,54.2031 C412.6406,54.4844 412.8125,54.7031 412.9063,55.1094 C412.9688,55.5156 413,55.6406 413.1406,55.7656 C413.2813,55.9063 413.5156,56.0156 413.7344,56.0156 C414,56.0156 414.2656,55.875 414.4375,55.6563 C414.5469,55.5 414.5781,55.3125 414.5781,54.8906 L414.5781,53.4688 C414.5781,53.0313 414.5625,52.9063 414.4688,52.75 C414.3125,52.4844 414.0313,52.3438 413.7344,52.3438 C413.4375,52.3438 413.2344,52.4375 413.0156,52.75 L412.8438,52.6719 Z " fill="#000000"/><text fill="#000000" font-family="sans-serif" font-size="12" lengthAdjust="spacingAndGlyphs" textLength="143" x="424.5" y="61.1543">GenerateumlApplication</text><line style="stroke:#A80036;stroke-width:1.5;" x1="396.5" x2="569.5" y1="73" y2="73"/><line style="stroke:#A80036;stroke-width:1.5;" x1="396.5" x2="569.5" y1="81" y2="81"/><!--MD5=[6c005ade106806a56f04cb72a4a05bec]
class org.eclipse.jdt.core.dom.ASTVisitor--><rect codeLine="2" fill="#FEFECE" filter="url(#f1145581913pcs)" height="48" id="org.eclipse.jdt.core.dom.ASTVisitor" style="stroke:#A80036;stroke-width:1.5;" width="93" x="1561.5" y="380"/><ellipse cx="1576.5" cy="396" fill="#ADD1B2" rx="11" ry="11" style="stroke:#A80036;stroke-width:1.0;"/><path d="M1578.8438,391.6719 C1577.9063,391.2344 1577.3125,391.0938 1576.4375,391.0938 C1573.8125,391.0938 1571.8125,393.1719 1571.8125,395.8906 L1571.8125,397.0156 C1571.8125,399.5938 1573.9219,401.4844 1576.8125,401.4844 C1578.0313,401.4844 1579.1875,401.1875 1579.9375,400.6406 C1580.5156,400.2344 1580.8438,399.7813 1580.8438,399.3906 C1580.8438,398.9375 1580.4531,398.5469 1579.9844,398.5469 C1579.7656,398.5469 1579.5625,398.625 1579.375,398.8125 C1578.9219,399.2969 1578.9219,399.2969 1578.7344,399.3906 C1578.3125,399.6563 1577.625,399.7813 1576.8594,399.7813 C1574.8125,399.7813 1573.5156,398.6875 1573.5156,396.9844 L1573.5156,395.8906 C1573.5156,394.1094 1574.7656,392.7969 1576.5,392.7969 C1577.0781,392.7969 1577.6875,392.9531 1578.1563,393.2031 C1578.6406,393.4844 1578.8125,393.7031 1578.9063,394.1094 C1578.9688,394.5156 1579,394.6406 1579.1406,394.7656 C1579.2813,394.9063 1579.5156,395.0156 1579.7344,395.0156 C1580,395.0156 1580.2656,394.875 1580.4375,394.6563 C1580.5469,394.5 1580.5781,394.3125 1580.5781,393.8906 L1580.5781,392.4688 C1580.5781,392.0313 1580.5625,391.9063 1580.4688,391.75 C1580.3125,391.4844 1580.0313,391.3438 1579.7344,391.3438 C1579.4375,391.3438 1579.2344,391.4375 1579.0156,391.75 L1578.8438,391.6719 Z " fill="#000000"/><text fill="#000000" font-family="sans-serif" font-size="12" lengthAdjust="spacingAndGlyphs" textLength="61" x="1590.5" y="400.1543">ASTVisitor</text><line style="stroke:#A80036;stroke-width:1.5;" x1="1562.5" x2="1653.5" y1="412" y2="412"/><line style="stroke:#A80036;stroke-width:1.5;" x1="1562.5" x2="1653.5" y1="420" y2="420"/><!--MD5=[ff23930648dc83153cbfa14f728d52b6]
class org.eclipse.jdt.core.dom.ASTParser--><rect codeLine="4" fill="#FEFECE" filter="url(#f1145581913pcs)" height="48" id="org.eclipse.jdt.core.dom.ASTParser" style="stroke:#A80036;stroke-width:1.5;" width="93" x="1433.5" y="380"/><ellipse cx="1448.5" cy="396" fill="#ADD1B2" rx="11" ry="11" style="stroke:#A80036;stroke-width:1.0;"/><path d="M1450.8438,391.6719 C1449.9063,391.2344 1449.3125,391.0938 1448.4375,391.0938 C1445.8125,391.0938 1443.8125,393.1719 1443.8125,395.8906 L1443.8125,397.0156 C1443.8125,399.5938 1445.9219,401.4844 1448.8125,401.4844 C1450.0313,401.4844 1451.1875,401.1875 1451.9375,400.6406 C1452.5156,400.2344 1452.8438,399.7813 1452.8438,399.3906 C1452.8438,398.9375 1452.4531,398.5469 1451.9844,398.5469 C1451.7656,398.5469 1451.5625,398.625 1451.375,398.8125 C1450.9219,399.2969 1450.9219,399.2969 1450.7344,399.3906 C1450.3125,399.6563 1449.625,399.7813 1448.8594,399.7813 C1446.8125,399.7813 1445.5156,398.6875 1445.5156,396.9844 L1445.5156,395.8906 C1445.5156,394.1094 1446.7656,392.7969 1448.5,392.7969 C1449.0781,392.7969 1449.6875,392.9531 1450.1563,393.2031 C1450.6406,393.4844 1450.8125,393.7031 1450.9063,394.1094 C1450.9688,394.5156 1451,394.6406 1451.1406,394.7656 C1451.2813,394.9063 1451.5156,395.0156 1451.7344,395.0156 C1452,395.0156 1452.2656,394.875 1452.4375,394.6563 C1452.5469,394.5 1452.5781,394.3125 1452.5781,393.8906 L1452.5781,392.4688 C1452.5781,392.0313 1452.5625,391.9063 1452.4688,391.75 C1452.3125,391.4844 1452.0313,391.3438 1451.7344,391.3438 C1451.4375,391.3438 1451.2344,391.4375 1451.0156,391.75 L1450.8438,391.6719 Z " fill="#000000"/><text fill="#000000" font-family="sans-serif" font-size="12" lengthAdjust="spacingAndGlyphs" textLength="61" x="1462.5" y="400.1543">ASTParser</text><line style="stroke:#A80036;stroke-width:1.5;" x1="1434.5" x2="1525.5" y1="412" y2="412"/><line style="stroke:#A80036;stroke-width:1.5;" x1="1434.5" x2="1525.5" y1="420" y2="420"/><!--MD5=[ea56b9ecae5862df673fe2fa3ad17a74]
class com.urjc.mca.tfm.generateuml.model.Domain--><rect codeLine="3" fill="#FEFECE" filter="url(#f1145581913pcs)" height="48" id="com.urjc.mca.tfm.generateuml.model.Domain" style="stroke:#A80036;stroke-width:1.5;" width="77" x="930.5" y="380"/><ellipse cx="945.5" cy="396" fill="#ADD1B2" rx="11" ry="11" style="stroke:#A80036;stroke-width:1.0;"/><path d="M947.8438,391.6719 C946.9063,391.2344 946.3125,391.0938 945.4375,391.0938 C942.8125,391.0938 940.8125,393.1719 940.8125,395.8906 L940.8125,397.0156 C940.8125,399.5938 942.9219,401.4844 945.8125,401.4844 C947.0313,401.4844 948.1875,401.1875 948.9375,400.6406 C949.5156,400.2344 949.8438,399.7813 949.8438,399.3906 C949.8438,398.9375 949.4531,398.5469 948.9844,398.5469 C948.7656,398.5469 948.5625,398.625 948.375,398.8125 C947.9219,399.2969 947.9219,399.2969 947.7344,399.3906 C947.3125,399.6563 946.625,399.7813 945.8594,399.7813 C943.8125,399.7813 942.5156,398.6875 942.5156,396.9844 L942.5156,395.8906 C942.5156,394.1094 943.7656,392.7969 945.5,392.7969 C946.0781,392.7969 946.6875,392.9531 947.1563,393.2031 C947.6406,393.4844 947.8125,393.7031 947.9063,394.1094 C947.9688,394.5156 948,394.6406 948.1406,394.7656 C948.2813,394.9063 948.5156,395.0156 948.7344,395.0156 C949,395.0156 949.2656,394.875 949.4375,394.6563 C949.5469,394.5 949.5781,394.3125 949.5781,393.8906 L949.5781,392.4688 C949.5781,392.0313 949.5625,391.9063 949.4688,391.75 C949.3125,391.4844 949.0313,391.3438 948.7344,391.3438 C948.4375,391.3438 948.2344,391.4375 948.0156,391.75 L947.8438,391.6719 Z " fill="#000000"/><text fill="#000000" font-family="sans-serif" font-size="12" lengthAdjust="spacingAndGlyphs" textLength="45" x="959.5" y="400.1543">Domain</text><line style="stroke:#A80036;stroke-width:1.5;" x1="931.5" x2="1006.5" y1="412" y2="412"/><line style="stroke:#A80036;stroke-width:1.5;" x1="931.5" x2="1006.5" y1="420" y2="420"/><!--MD5=[1f41066e9334f465d509339b9bb6fb7f]
class com.urjc.mca.tfm.generateuml.model.Unit--><rect codeLine="5" fill="#FEFECE" filter="url(#f1145581913pcs)" height="48" id="com.urjc.mca.tfm.generateuml.model.Unit" style="stroke:#A80036;stroke-width:1.5;" width="55" x="1041.5" y="503"/><ellipse cx="1056.5" cy="519" fill="#ADD1B2" rx="11" ry="11" style="stroke:#A80036;stroke-width:1.0;"/><path d="M1058.8438,514.6719 C1057.9063,514.2344 1057.3125,514.0938 1056.4375,514.0938 C1053.8125,514.0938 1051.8125,516.1719 1051.8125,518.8906 L1051.8125,520.0156 C1051.8125,522.5938 1053.9219,524.4844 1056.8125,524.4844 C1058.0313,524.4844 1059.1875,524.1875 1059.9375,523.6406 C1060.5156,523.2344 1060.8438,522.7813 1060.8438,522.3906 C1060.8438,521.9375 1060.4531,521.5469 1059.9844,521.5469 C1059.7656,521.5469 1059.5625,521.625 1059.375,521.8125 C1058.9219,522.2969 1058.9219,522.2969 1058.7344,522.3906 C1058.3125,522.6563 1057.625,522.7813 1056.8594,522.7813 C1054.8125,522.7813 1053.5156,521.6875 1053.5156,519.9844 L1053.5156,518.8906 C1053.5156,517.1094 1054.7656,515.7969 1056.5,515.7969 C1057.0781,515.7969 1057.6875,515.9531 1058.1563,516.2031 C1058.6406,516.4844 1058.8125,516.7031 1058.9063,517.1094 C1058.9688,517.5156 1059,517.6406 1059.1406,517.7656 C1059.2813,517.9063 1059.5156,518.0156 1059.7344,518.0156 C1060,518.0156 1060.2656,517.875 1060.4375,517.6563 C1060.5469,517.5 1060.5781,517.3125 1060.5781,516.8906 L1060.5781,515.4688 C1060.5781,515.0313 1060.5625,514.9063 1060.4688,514.75 C1060.3125,514.4844 1060.0313,514.3438 1059.7344,514.3438 C1059.4375,514.3438 1059.2344,514.4375 1059.0156,514.75 L1058.8438,514.6719 Z " fill="#000000"/><text fill="#000000" font-family="sans-serif" font-size="12" lengthAdjust="spacingAndGlyphs" textLength="23" x="1070.5" y="523.1543">Unit</text><line style="stroke:#A80036;stroke-width:1.5;" x1="1042.5" x2="1095.5" y1="535" y2="535"/><line style="stroke:#A80036;stroke-width:1.5;" x1="1042.5" x2="1095.5" y1="543" y2="543"/><!--MD5=[f98716f1ae24997d098dd7e1aa24a199]
class com.urjc.mca.tfm.generateuml.model.Function--><rect codeLine="10" fill="#FEFECE" filter="url(#f1145581913pcs)" height="48" id="com.urjc.mca.tfm.generateuml.model.Function" style="stroke:#A80036;stroke-width:1.5;" width="82" x="1104" y="611"/><ellipse cx="1119" cy="627" fill="#ADD1B2" rx="11" ry="11" style="stroke:#A80036;stroke-width:1.0;"/><path d="M1121.3438,622.6719 C1120.4063,622.2344 1119.8125,622.0938 1118.9375,622.0938 C1116.3125,622.0938 1114.3125,624.1719 1114.3125,626.8906 L1114.3125,628.0156 C1114.3125,630.5938 1116.4219,632.4844 1119.3125,632.4844 C1120.5313,632.4844 1121.6875,632.1875 1122.4375,631.6406 C1123.0156,631.2344 1123.3438,630.7813 1123.3438,630.3906 C1123.3438,629.9375 1122.9531,629.5469 1122.4844,629.5469 C1122.2656,629.5469 1122.0625,629.625 1121.875,629.8125 C1121.4219,630.2969 1121.4219,630.2969 1121.2344,630.3906 C1120.8125,630.6563 1120.125,630.7813 1119.3594,630.7813 C1117.3125,630.7813 1116.0156,629.6875 1116.0156,627.9844 L1116.0156,626.8906 C1116.0156,625.1094 1117.2656,623.7969 1119,623.7969 C1119.5781,623.7969 1120.1875,623.9531 1120.6563,624.2031 C1121.1406,624.4844 1121.3125,624.7031 1121.4063,625.1094 C1121.4688,625.5156 1121.5,625.6406 1121.6406,625.7656 C1121.7813,625.9063 1122.0156,626.0156 1122.2344,626.0156 C1122.5,626.0156 1122.7656,625.875 1122.9375,625.6563 C1123.0469,625.5 1123.0781,625.3125 1123.0781,624.8906 L1123.0781,623.4688 C1123.0781,623.0313 1123.0625,622.9063 1122.9688,622.75 C1122.8125,622.4844 1122.5313,622.3438 1122.2344,622.3438 C1121.9375,622.3438 1121.7344,622.4375 1121.5156,622.75 L1121.3438,622.6719 Z " fill="#000000"/><text fill="#000000" font-family="sans-serif" font-size="12" lengthAdjust="spacingAndGlyphs" textLength="50" x="1133" y="631.1543">Function</text><line style="stroke:#A80036;stroke-width:1.5;" x1="1105" x2="1185" y1="643" y2="643"/><line style="stroke:#A80036;stroke-width:1.5;" x1="1105" x2="1185" y1="651" y2="651"/><!--MD5=[743b553e78215d7fd70d565007f6771a]
class com.urjc.mca.tfm.generateuml.model.Attribute--><rect codeLine="11" fill="#FEFECE" filter="url(#f1145581913pcs)" height="48" id="com.urjc.mca.tfm.generateuml.model.Attribute" style="stroke:#A80036;stroke-width:1.5;" width="83" x="967.5" y="611"/><ellipse cx="982.5" cy="627" fill="#ADD1B2" rx="11" ry="11" style="stroke:#A80036;stroke-width:1.0;"/><path d="M984.8438,622.6719 C983.9063,622.2344 983.3125,622.0938 982.4375,622.0938 C979.8125,622.0938 977.8125,624.1719 977.8125,626.8906 L977.8125,628.0156 C977.8125,630.5938 979.9219,632.4844 982.8125,632.4844 C984.0313,632.4844 985.1875,632.1875 985.9375,631.6406 C986.5156,631.2344 986.8438,630.7813 986.8438,630.3906 C986.8438,629.9375 986.4531,629.5469 985.9844,629.5469 C985.7656,629.5469 985.5625,629.625 985.375,629.8125 C984.9219,630.2969 984.9219,630.2969 984.7344,630.3906 C984.3125,630.6563 983.625,630.7813 982.8594,630.7813 C980.8125,630.7813 979.5156,629.6875 979.5156,627.9844 L979.5156,626.8906 C979.5156,625.1094 980.7656,623.7969 982.5,623.7969 C983.0781,623.7969 983.6875,623.9531 984.1563,624.2031 C984.6406,624.4844 984.8125,624.7031 984.9063,625.1094 C984.9688,625.5156 985,625.6406 985.1406,625.7656 C985.2813,625.9063 985.5156,626.0156 985.7344,626.0156 C986,626.0156 986.2656,625.875 986.4375,625.6563 C986.5469,625.5 986.5781,625.3125 986.5781,624.8906 L986.5781,623.4688 C986.5781,623.0313 986.5625,622.9063 986.4688,622.75 C986.3125,622.4844 986.0313,622.3438 985.7344,622.3438 C985.4375,622.3438 985.2344,622.4375 985.0156,622.75 L984.8438,622.6719 Z " fill="#000000"/><text fill="#000000" font-family="sans-serif" font-size="12" lengthAdjust="spacingAndGlyphs" textLength="51" x="996.5" y="631.1543">Attribute</text><line style="stroke:#A80036;stroke-width:1.5;" x1="968.5" x2="1049.5" y1="643" y2="643"/><line style="stroke:#A80036;stroke-width:1.5;" x1="968.5" x2="1049.5" y1="651" y2="651"/><!--MD5=[3df3ba26d5911a75717337ee70edf07b]
class com.urjc.mca.tfm.generateuml.model.Visibility--><rect codeLine="12" fill="#FEFECE" filter="url(#f1145581913pcs)" height="48" id="com.urjc.mca.tfm.generateuml.model.Visibility" style="stroke:#A80036;stroke-width:1.5;" width="81" x="968.5" y="719"/><ellipse cx="983.5" cy="735" fill="#ADD1B2" rx="11" ry="11" style="stroke:#A80036;stroke-width:1.0;"/><path d="M985.8438,730.6719 C984.9063,730.2344 984.3125,730.0938 983.4375,730.0938 C980.8125,730.0938 978.8125,732.1719 978.8125,734.8906 L978.8125,736.0156 C978.8125,738.5938 980.9219,740.4844 983.8125,740.4844 C985.0313,740.4844 986.1875,740.1875 986.9375,739.6406 C987.5156,739.2344 987.8438,738.7813 987.8438,738.3906 C987.8438,737.9375 987.4531,737.5469 986.9844,737.5469 C986.7656,737.5469 986.5625,737.625 986.375,737.8125 C985.9219,738.2969 985.9219,738.2969 985.7344,738.3906 C985.3125,738.6563 984.625,738.7813 983.8594,738.7813 C981.8125,738.7813 980.5156,737.6875 980.5156,735.9844 L980.5156,734.8906 C980.5156,733.1094 981.7656,731.7969 983.5,731.7969 C984.0781,731.7969 984.6875,731.9531 985.1563,732.2031 C985.6406,732.4844 985.8125,732.7031 985.9063,733.1094 C985.9688,733.5156 986,733.6406 986.1406,733.7656 C986.2813,733.9063 986.5156,734.0156 986.7344,734.0156 C987,734.0156 987.2656,733.875 987.4375,733.6563 C987.5469,733.5 987.5781,733.3125 987.5781,732.8906 L987.5781,731.4688 C987.5781,731.0313 987.5625,730.9063 987.4688,730.75 C987.3125,730.4844 987.0313,730.3438 986.7344,730.3438 C986.4375,730.3438 986.2344,730.4375 986.0156,730.75 L985.8438,730.6719 Z " fill="#000000"/><text fill="#000000" font-family="sans-serif" font-size="12" lengthAdjust="spacingAndGlyphs" textLength="49" x="997.5" y="739.1543">Visibility</text><line style="stroke:#A80036;stroke-width:1.5;" x1="969.5" x2="1048.5" y1="751" y2="751"/><line style="stroke:#A80036;stroke-width:1.5;" x1="969.5" x2="1048.5" y1="759" y2="759"/><!--MD5=[3e5da536a98d1ce88349162a207d5656]
class java.util.Properties--><rect codeLine="8" fill="#FEFECE" filter="url(#f1145581913pcs)" height="48" id="java.util.Properties" style="stroke:#A80036;stroke-width:1.5;" width="94" x="250" y="503"/><ellipse cx="265" cy="519" fill="#ADD1B2" rx="11" ry="11" style="stroke:#A80036;stroke-width:1.0;"/><path d="M267.3438,514.6719 C266.4063,514.2344 265.8125,514.0938 264.9375,514.0938 C262.3125,514.0938 260.3125,516.1719 260.3125,518.8906 L260.3125,520.0156 C260.3125,522.5938 262.4219,524.4844 265.3125,524.4844 C266.5313,524.4844 267.6875,524.1875 268.4375,523.6406 C269.0156,523.2344 269.3438,522.7813 269.3438,522.3906 C269.3438,521.9375 268.9531,521.5469 268.4844,521.5469 C268.2656,521.5469 268.0625,521.625 267.875,521.8125 C267.4219,522.2969 267.4219,522.2969 267.2344,522.3906 C266.8125,522.6563 266.125,522.7813 265.3594,522.7813 C263.3125,522.7813 262.0156,521.6875 262.0156,519.9844 L262.0156,518.8906 C262.0156,517.1094 263.2656,515.7969 265,515.7969 C265.5781,515.7969 266.1875,515.9531 266.6563,516.2031 C267.1406,516.4844 267.3125,516.7031 267.4063,517.1094 C267.4688,517.5156 267.5,517.6406 267.6406,517.7656 C267.7813,517.9063 268.0156,518.0156 268.2344,518.0156 C268.5,518.0156 268.7656,517.875 268.9375,517.6563 C269.0469,517.5 269.0781,517.3125 269.0781,516.8906 L269.0781,515.4688 C269.0781,515.0313 269.0625,514.9063 268.9688,514.75 C268.8125,514.4844 268.5313,514.3438 268.2344,514.3438 C267.9375,514.3438 267.7344,514.4375 267.5156,514.75 L267.3438,514.6719 Z " fill="#000000"/><text fill="#000000" font-family="sans-serif" font-size="12" lengthAdjust="spacingAndGlyphs" textLength="62" x="279" y="523.1543">Properties</text><line style="stroke:#A80036;stroke-width:1.5;" x1="251" x2="343" y1="535" y2="535"/><line style="stroke:#A80036;stroke-width:1.5;" x1="251" x2="343" y1="543" y2="543"/><!--MD5=[5a5af9b0547913863cbe0ddf55a9ab5e]
class java.io.Serializable--><rect codeLine="9" fill="#FEFECE" filter="url(#f1145581913pcs)" height="48" id="java.io.Serializable" style="stroke:#A80036;stroke-width:1.5;" width="102" x="1275" y="380"/><ellipse cx="1290" cy="396" fill="#ADD1B2" rx="11" ry="11" style="stroke:#A80036;stroke-width:1.0;"/><path d="M1292.3438,391.6719 C1291.4063,391.2344 1290.8125,391.0938 1289.9375,391.0938 C1287.3125,391.0938 1285.3125,393.1719 1285.3125,395.8906 L1285.3125,397.0156 C1285.3125,399.5938 1287.4219,401.4844 1290.3125,401.4844 C1291.5313,401.4844 1292.6875,401.1875 1293.4375,400.6406 C1294.0156,400.2344 1294.3438,399.7813 1294.3438,399.3906 C1294.3438,398.9375 1293.9531,398.5469 1293.4844,398.5469 C1293.2656,398.5469 1293.0625,398.625 1292.875,398.8125 C1292.4219,399.2969 1292.4219,399.2969 1292.2344,399.3906 C1291.8125,399.6563 1291.125,399.7813 1290.3594,399.7813 C1288.3125,399.7813 1287.0156,398.6875 1287.0156,396.9844 L1287.0156,395.8906 C1287.0156,394.1094 1288.2656,392.7969 1290,392.7969 C1290.5781,392.7969 1291.1875,392.9531 1291.6563,393.2031 C1292.1406,393.4844 1292.3125,393.7031 1292.4063,394.1094 C1292.4688,394.5156 1292.5,394.6406 1292.6406,394.7656 C1292.7813,394.9063 1293.0156,395.0156 1293.2344,395.0156 C1293.5,395.0156 1293.7656,394.875 1293.9375,394.6563 C1294.0469,394.5 1294.0781,394.3125 1294.0781,393.8906 L1294.0781,392.4688 C1294.0781,392.0313 1294.0625,391.9063 1293.9688,391.75 C1293.8125,391.4844 1293.5313,391.3438 1293.2344,391.3438 C1292.9375,391.3438 1292.7344,391.4375 1292.5156,391.75 L1292.3438,391.6719 Z " fill="#000000"/><text fill="#000000" font-family="sans-serif" font-size="12" lengthAdjust="spacingAndGlyphs" textLength="70" x="1304" y="400.1543">Serializable</text><line style="stroke:#A80036;stroke-width:1.5;" x1="1276" x2="1376" y1="412" y2="412"/><line style="stroke:#A80036;stroke-width:1.5;" x1="1276" x2="1376" y1="420" y2="420"/><!--MD5=[0d73d898558f5941c48aa254e51fef11]
class java.lang.Thread--><rect codeLine="15" fill="#FEFECE" filter="url(#f1145581913pcs)" height="48" id="java.lang.Thread" style="stroke:#A80036;stroke-width:1.5;" width="74" x="32" y="257"/><ellipse cx="47" cy="273" fill="#ADD1B2" rx="11" ry="11" style="stroke:#A80036;stroke-width:1.0;"/><path d="M49.3438,268.6719 C48.4063,268.2344 47.8125,268.0938 46.9375,268.0938 C44.3125,268.0938 42.3125,270.1719 42.3125,272.8906 L42.3125,274.0156 C42.3125,276.5938 44.4219,278.4844 47.3125,278.4844 C48.5313,278.4844 49.6875,278.1875 50.4375,277.6406 C51.0156,277.2344 51.3438,276.7813 51.3438,276.3906 C51.3438,275.9375 50.9531,275.5469 50.4844,275.5469 C50.2656,275.5469 50.0625,275.625 49.875,275.8125 C49.4219,276.2969 49.4219,276.2969 49.2344,276.3906 C48.8125,276.6563 48.125,276.7813 47.3594,276.7813 C45.3125,276.7813 44.0156,275.6875 44.0156,273.9844 L44.0156,272.8906 C44.0156,271.1094 45.2656,269.7969 47,269.7969 C47.5781,269.7969 48.1875,269.9531 48.6563,270.2031 C49.1406,270.4844 49.3125,270.7031 49.4063,271.1094 C49.4688,271.5156 49.5,271.6406 49.6406,271.7656 C49.7813,271.9063 50.0156,272.0156 50.2344,272.0156 C50.5,272.0156 50.7656,271.875 50.9375,271.6563 C51.0469,271.5 51.0781,271.3125 51.0781,270.8906 L51.0781,269.4688 C51.0781,269.0313 51.0625,268.9063 50.9688,268.75 C50.8125,268.4844 50.5313,268.3438 50.2344,268.3438 C49.9375,268.3438 49.7344,268.4375 49.5156,268.75 L49.3438,268.6719 Z " fill="#000000"/><text fill="#000000" font-family="sans-serif" font-size="12" lengthAdjust="spacingAndGlyphs" textLength="42" x="61" y="277.1543">Thread</text><line style="stroke:#A80036;stroke-width:1.5;" x1="33" x2="105" y1="289" y2="289"/><line style="stroke:#A80036;stroke-width:1.5;" x1="33" x2="105" y1="297" y2="297"/><!--MD5=[edc399ee8a92bbfbefebaf1ddbd918a0]
link com.urjc.mca.tfm.generateuml.GenerateUml to com.urjc.mca.tfm.generateuml.ClassDiagramGenerator--><path codeLine="18" d="M503.18,197 C517.583,213.417 537.009,235.559 552.175,252.844 " fill="none" id="com.urjc.mca.tfm.generateuml.GenerateUml-to-com.urjc.mca.tfm.generateuml.ClassDiagramGenerator" style="stroke:#A80036;stroke-width:1.0;stroke-dasharray:7.0,7.0;"/><polygon fill="#A80036" points="555.539,256.678,552.6109,247.2745,552.2417,252.9193,546.5969,252.5501,555.539,256.678" style="stroke:#A80036;stroke-width:1.0;"/><!--MD5=[782bf5adc1b9bf2e442a3fa8071e252b]
link com.urjc.mca.tfm.generateuml.GenerateUml to com.urjc.mca.tfm.generateuml.GenerateImage--><path codeLine="19" d="M463.037,197 C448.789,213.417 429.572,235.559 414.569,252.844 " fill="none" id="com.urjc.mca.tfm.generateuml.GenerateUml-to-com.urjc.mca.tfm.generateuml.GenerateImage" style="stroke:#A80036;stroke-width:1.0;stroke-dasharray:7.0,7.0;"/><polygon fill="#A80036" points="411.241,256.678,420.1612,252.5031,414.5184,252.902,414.1195,247.2592,411.241,256.678" style="stroke:#A80036;stroke-width:1.0;"/><!--MD5=[241a352af08a58644ccf835b4a2dfdd2]
link com.urjc.mca.tfm.generateuml.GenerateUml to com.urjc.mca.tfm.generateuml.JavaAnalyzerEclipseAST--><path codeLine="20" d="M538.742,179.794 C579.289,185.304 634.921,195.582 681,214 C706.093,224.03 731.82,240.089 751.527,253.854 " fill="none" id="com.urjc.mca.tfm.generateuml.GenerateUml-to-com.urjc.mca.tfm.generateuml.JavaAnalyzerEclipseAST" style="stroke:#A80036;stroke-width:1.0;stroke-dasharray:7.0,7.0;"/><polygon fill="#A80036" points="755.892,256.935,750.8444,248.4779,751.8066,254.0524,746.2322,255.0146,755.892,256.935" style="stroke:#A80036;stroke-width:1.0;"/><!--MD5=[f6a892926c342de14f51a0ad1b5a6ae8]
link com.urjc.mca.tfm.generateuml.GenerateUml to com.urjc.mca.tfm.generateuml.CloneRepository--><path codeLine="21" d="M427.462,180.542 C392.704,186.155 347.713,196.259 311,214 C290.37,223.969 270.183,239.843 254.883,253.526 " fill="none" id="com.urjc.mca.tfm.generateuml.GenerateUml-to-com.urjc.mca.tfm.generateuml.CloneRepository" style="stroke:#A80036;stroke-width:1.0;stroke-dasharray:7.0,7.0;"/><polygon fill="#A80036" points="251.101,256.952,260.4565,253.8739,254.8065,253.595,255.0854,247.9451,251.101,256.952" style="stroke:#A80036;stroke-width:1.0;"/><!--MD5=[15f7429532ccee1053ee61c7c7f4f1e0]
link com.urjc.mca.tfm.generateuml.JavaAnalyzerEclipseAST to org.eclipse.jdt.core.dom.ASTVisitor--><path codeLine="23" d="M873.506,284.85 C1060.01,291.427 1484.55,309.26 1544,337 C1562.24,345.514 1578.05,361.661 1589.39,375.853 " fill="none" id="com.urjc.mca.tfm.generateuml.JavaAnalyzerEclipseAST-to-org.eclipse.jdt.core.dom.ASTVisitor" style="stroke:#A80036;stroke-width:1.0;stroke-dasharray:7.0,7.0;"/><polygon fill="#A80036" points="1592.46,379.796,1590.0761,370.24,1589.3838,375.8543,1583.7695,375.162,1592.46,379.796" style="stroke:#A80036;stroke-width:1.0;"/><!--MD5=[adf2ef385b74af2c9160434b501eb48c]
link com.urjc.mca.tfm.generateuml.JavaAnalyzerEclipseAST to com.urjc.mca.tfm.generateuml.model.Domain--><path codeLine="24" d="M834.585,305.023 C852.483,314.189 872.618,325.331 890,337 C907.496,348.746 925.635,363.673 940.113,376.36 " fill="none" id="com.urjc.mca.tfm.generateuml.JavaAnalyzerEclipseAST-to-com.urjc.mca.tfm.generateuml.model.Domain" style="stroke:#A80036;stroke-width:1.0;stroke-dasharray:7.0,7.0;"/><polygon fill="#A80036" points="944.095,379.874,939.9943,370.9194,940.3463,376.5653,934.7004,376.9173,944.095,379.874" style="stroke:#A80036;stroke-width:1.0;"/><!--MD5=[f2fddcfd5d9018098e3cb6043383e3eb]
link com.urjc.mca.tfm.generateuml.JavaAnalyzerEclipseAST to com.urjc.mca.tfm.generateuml.model.Unit--><path codeLine="25" d="M873.552,292.352 C932.653,301.115 1003.63,315.689 1025,337 C1068.12,380.009 1072.28,456.516 1071,497.769 " fill="none" id="com.urjc.mca.tfm.generateuml.JavaAnalyzerEclipseAST-to-com.urjc.mca.tfm.generateuml.model.Unit" style="stroke:#A80036;stroke-width:1.0;stroke-dasharray:7.0,7.0;"/><polygon fill="#A80036" points="1070.81,502.864,1075.1438,494.0199,1070.997,497.8675,1067.1494,493.7207,1070.81,502.864" style="stroke:#A80036;stroke-width:1.0;"/><!--MD5=[48bf6721a392af1c2f8ca880e713c790]
link com.urjc.mca.tfm.generateuml.JavaAnalyzerEclipseAST to org.eclipse.jdt.core.dom.ASTParser--><path codeLine="26" d="M873.543,284.016 C1018.26,288.331 1300.56,301.181 1393,337 C1415.49,345.715 1437.11,362.067 1453.18,376.314 " fill="none" id="com.urjc.mca.tfm.generateuml.JavaAnalyzerEclipseAST-to-org.eclipse.jdt.core.dom.ASTParser" style="stroke:#A80036;stroke-width:1.0;stroke-dasharray:7.0,7.0;"/><polygon fill="#A80036" points="1457.14,379.885,1453.1262,370.8911,1453.4235,376.5402,1447.7745,376.8375,1457.14,379.885" style="stroke:#A80036;stroke-width:1.0;"/><!--MD5=[9dc629a89c2f886ef7b61b580c7c8806]
link com.urjc.mca.tfm.generateuml.model.Domain to com.urjc.mca.tfm.generateuml.model.Unit--><path codeLine="27" d="M995.6891,437.2942 C995.6891,437.2942 1027.38,475.644 1041.4,492.599 " fill="none" id="com.urjc.mca.tfm.generateuml.model.Domain-com.urjc.mca.tfm.generateuml.model.Unit" style="stroke:#A80036;stroke-width:1.0;"/><polygon fill="#A80036" points="1049.69,502.63,1047.037,493.1452,1046.5036,498.7768,1040.8719,498.2435,1049.69,502.63" style="stroke:#A80036;stroke-width:1.0;"/><line style="stroke:#A80036;stroke-width:1.0;" x1="1046.5036" x2="1041.405" y1="498.7768" y2="492.6085"/><polygon fill="#FFFFFF" points="988.045,428.044,988.7837,435.2172,995.6891,437.2942,994.9505,430.1211,988.045,428.044" style="stroke:#A80036;stroke-width:1.0;"/><!--MD5=[babbd0c57555f8fc0cb4ea12d690e051]
link com.urjc.mca.tfm.generateuml.model.Domain to com.urjc.mca.tfm.generateuml.model.Attribute--><path codeLine="28" d="M972.235,428.173 C976.914,460.964 986.101,522.736 996,575 C997.912,585.092 1000.26,596.097 1002.44,605.839 " fill="none" id="com.urjc.mca.tfm.generateuml.model.Domain-to-com.urjc.mca.tfm.generateuml.model.Attribute" style="stroke:#A80036;stroke-width:1.0;"/><polygon fill="#A80036" points="1003.56,610.807,1005.4909,601.1493,1002.4645,605.9285,997.6853,602.9021,1003.56,610.807" style="stroke:#A80036;stroke-width:1.0;"/><!--MD5=[53a0de494c58a64616b3ec1e09fe3d8f]
link com.urjc.mca.tfm.generateuml.model.Domain to com.urjc.mca.tfm.generateuml.model.Function--><path codeLine="29" d="M981.715,428.063 C986.67,437.722 992.087,449.199 996,460 C1013.92,509.458 991.006,534.029 1024,575 C1034.23,587.699 1069.25,604.083 1099.01,616.362 " fill="none" id="com.urjc.mca.tfm.generateuml.model.Domain-to-com.urjc.mca.tfm.generateuml.model.Function" style="stroke:#A80036;stroke-width:1.0;"/><polygon fill="#A80036" points="1103.73,618.296,1096.9239,611.1772,1099.1047,616.3968,1093.8852,618.5776,1103.73,618.296" style="stroke:#A80036;stroke-width:1.0;"/><!--MD5=[55039873b4a19525e2ea6e06ce02ebe3]
link com.urjc.mca.tfm.generateuml.model.Domain to com.urjc.mca.tfm.generateuml.model.Visibility--><path codeLine="30" d="M961.606,428.098 C948.275,473.547 923.913,577.275 950,659 C956.585,679.629 970.375,699.5182 982.968,714.6531 " fill="none" id="com.urjc.mca.tfm.generateuml.model.Domain-to-com.urjc.mca.tfm.generateuml.model.Visibility" style="stroke:#A80036;stroke-width:1.0;stroke-dasharray:7.0,7.0;"/><polygon fill="#A80036" points="986.481,718.7925,983.7078,709.3421,983.246,714.9801,977.608,714.5182,986.481,718.7925" style="stroke:#A80036;stroke-width:1.0;"/><!--MD5=[3a2513f5b96aecbadcbd8f8e663740a7]
reverse link java.io.Serializable to com.urjc.mca.tfm.generateuml.model.Unit--><path codeLine="31" d="M1258.87,436.606 C1206.09,461.457 1135.25,494.809 1096.75,512.935 " fill="none" id="java.io.Serializable-backto-com.urjc.mca.tfm.generateuml.model.Unit" style="stroke:#A80036;stroke-width:1.0;"/><polygon fill="none" points="1255.98,430.23,1277.06,428.044,1261.94,442.897,1255.98,430.23" style="stroke:#A80036;stroke-width:1.0;"/><!--MD5=[dcdb82ce0314014e2718da2cae276103]
link com.urjc.mca.tfm.generateuml.model.Unit to com.urjc.mca.tfm.generateuml.model.Attribute--><path codeLine="32" d="M1050.0688,561.4431 C1050.0688,561.4431 1035.45,587.279 1028.79,599.032 " fill="none" id="com.urjc.mca.tfm.generateuml.model.Unit-com.urjc.mca.tfm.generateuml.model.Attribute" style="stroke:#A80036;stroke-width:1.0;"/><polygon fill="#A80036" points="1022.2,610.678,1030.117,604.8196,1024.6649,606.3278,1023.1567,600.8757,1022.2,610.678" style="stroke:#A80036;stroke-width:1.0;"/><line style="stroke:#A80036;stroke-width:1.0;" x1="1024.6649" x2="1028.605" y1="606.3278" y2="599.365"/><polygon fill="#FFFFFF" points="1055.98,551,1049.5434,554.2512,1050.0688,561.4431,1056.5055,558.1919,1055.98,551" style="stroke:#A80036;stroke-width:1.0;"/><!--MD5=[6139a32c06a04bee09aea5a27b7c6977]
link com.urjc.mca.tfm.generateuml.model.Unit to com.urjc.mca.tfm.generateuml.model.Unit--><path codeLine="33" d="M1108.542,506.9014 C1108.542,506.9014 1131.5,514.027 1131.5,527 C1131.5,539.973 1121.88,546.712 1109.58,547.219 " fill="none" id="com.urjc.mca.tfm.generateuml.model.Unit-com.urjc.mca.tfm.generateuml.model.Unit" style="stroke:#A80036;stroke-width:1.0;"/><polygon fill="#A80036" points="1096.63,545.648,1105.0805,550.7066,1101.5933,546.2524,1106.0475,542.7653,1096.63,545.648" style="stroke:#A80036;stroke-width:1.0;"/><line style="stroke:#A80036;stroke-width:1.0;" x1="1101.5933" x2="1109.54" y1="546.2524" y2="547.2145"/><polygon fill="#FFFFFF" points="1096.63,508.352,1103.0695,511.5974,1108.542,506.9014,1102.1025,503.656,1096.63,508.352" style="stroke:#A80036;stroke-width:1.0;"/><!--MD5=[756c551b140893348b8d5c2fd802479f]
link com.urjc.mca.tfm.generateuml.model.Unit to com.urjc.mca.tfm.generateuml.model.Function--><path codeLine="34" d="M1092.4862,560.7495 C1092.4862,560.7495 1111.93,587.872 1120.65,600.033 " fill="none" id="com.urjc.mca.tfm.generateuml.model.Unit-com.urjc.mca.tfm.generateuml.model.Function" style="stroke:#A80036;stroke-width:1.0;"/><polygon fill="#A80036" points="1128.28,610.678,1126.2827,601.0338,1125.3649,606.6157,1119.783,605.6979,1128.28,610.678" style="stroke:#A80036;stroke-width:1.0;"/><line style="stroke:#A80036;stroke-width:1.0;" x1="1125.3649" x2="1120.705" y1="606.6157" y2="600.1135"/><polygon fill="#FFFFFF" points="1085.49,551,1085.7382,558.2068,1092.4862,560.7495,1092.2379,553.5427,1085.49,551" style="stroke:#A80036;stroke-width:1.0;"/><!--MD5=[28cc1b1a9d532aa219f0017d9b3c3d85]
link com.urjc.mca.tfm.generateuml.ClassDiagramGenerator to com.urjc.mca.tfm.generateuml.model.Unit--><path codeLine="35" d="M631.4781,310.5043 C631.4781,310.5043 813.951,403.534 913,452 C952.458,471.308 997.862,492.76 1029.47,507.574 " fill="none" id="com.urjc.mca.tfm.generateuml.ClassDiagramGenerator-com.urjc.mca.tfm.generateuml.model.Unit" style="stroke:#A80036;stroke-width:1.0;"/><polygon fill="#A80036" points="1041.29,513.102,1034.8361,505.6625,1036.762,510.9814,1031.4431,512.9073,1041.29,513.102" style="stroke:#A80036;stroke-width:1.0;"/><line style="stroke:#A80036;stroke-width:1.0;" x1="1036.762" x2="1029.51" y1="510.9814" y2="507.592"/><polygon fill="#FFFFFF" points="620.798,305.033,624.3143,311.3287,631.4781,310.5043,627.9618,304.2086,620.798,305.033" style="stroke:#A80036;stroke-width:1.0;"/><!--MD5=[c2d88e46dac462800c828a3d4d6bd927]
link com.urjc.mca.tfm.generateuml.ClassDiagramGenerator to com.urjc.mca.tfm.generateuml.model.Domain--><path codeLine="36" d="M617.617,305.052 C636.398,314.278 659.218,323.91 681,329 C726.259,339.576 846.619,320.318 890,337 C911.375,345.22 931.145,361.747 945.561,376.206 " fill="none" id="com.urjc.mca.tfm.generateuml.ClassDiagramGenerator-to-com.urjc.mca.tfm.generateuml.model.Domain" style="stroke:#A80036;stroke-width:1.0;stroke-dasharray:7.0,7.0;"/><polygon fill="#A80036" points="949.109,379.831,945.6721,370.6013,945.6115,376.2578,939.955,376.1972,949.109,379.831" style="stroke:#A80036;stroke-width:1.0;"/><!--MD5=[c8eed6ae7a9e12fb06cbde0caeec7712]
link com.urjc.mca.tfm.generateuml.GenerateImage to java.util.Properties--><path codeLine="37" d="M381.987,305.396 C364.616,350.486 326.568,449.248 307.845,497.849 " fill="none" id="com.urjc.mca.tfm.generateuml.GenerateImage-to-java.util.Properties" style="stroke:#A80036;stroke-width:1.0;"/><polygon fill="#A80036" points="305.986,502.675,312.9536,495.7142,307.7832,498.0092,305.4883,492.8387,305.986,502.675" style="stroke:#A80036;stroke-width:1.0;"/><!--MD5=[ccc759d86d7b9b958f3ce0b5d0e61de4]
link com.urjc.mca.tfm.generateuml.model.Function to com.urjc.mca.tfm.generateuml.model.Visibility--><path codeLine="38" d="M1115.49,659 C1094.16,675.624 1065.3,698.118 1043.01,715.4957 " fill="none" id="com.urjc.mca.tfm.generateuml.model.Function-to-com.urjc.mca.tfm.generateuml.model.Visibility" style="stroke:#A80036;stroke-width:1.0;stroke-dasharray:7.0,7.0;"/><polygon fill="#A80036" points="1038.92,718.6784,1048.4784,716.304,1042.8647,715.6061,1043.5626,709.9924,1038.92,718.6784" style="stroke:#A80036;stroke-width:1.0;"/><!--MD5=[1d2dc2fca9b10456294f2670e715c2fb]
link com.urjc.mca.tfm.generateuml.model.Function to com.urjc.mca.tfm.generateuml.model.Function--><path codeLine="39" d="M1186.05,615.107 C1204.75,613.076 1221,619.707 1221,635 C1221,648.859 1207.65,655.604 1191.23,655.236 " fill="none" id="com.urjc.mca.tfm.generateuml.model.Function-to-com.urjc.mca.tfm.generateuml.model.Function" style="stroke:#A80036;stroke-width:1.0;stroke-dasharray:7.0,7.0;"/><polygon fill="#A80036" points="1186.05,654.893,1194.7677,659.4759,1191.0392,655.2216,1195.2934,651.4932,1186.05,654.893" style="stroke:#A80036;stroke-width:1.0;"/><!--MD5=[bccce78be82852a6a4b2279cc5b86ed1]
link com.urjc.mca.tfm.generateuml.model.Attribute to com.urjc.mca.tfm.generateuml.model.Attribute--><path codeLine="40" d="M1050.71,615.066 C1069.36,613.168 1085.5,619.812 1085.5,635 C1085.5,648.764 1072.25,655.511 1055.88,655.242 " fill="none" id="com.urjc.mca.tfm.generateuml.model.Attribute-to-com.urjc.mca.tfm.generateuml.model.Attribute" style="stroke:#A80036;stroke-width:1.0;stroke-dasharray:7.0,7.0;"/><polygon fill="#A80036" points="1050.71,654.934,1059.4538,659.4667,1055.701,655.234,1059.9338,651.4812,1050.71,654.934" style="stroke:#A80036;stroke-width:1.0;"/><!--MD5=[ab3f45bae1ec7be492651a0c76608cf3]
link com.urjc.mca.tfm.generateuml.model.Attribute to com.urjc.mca.tfm.generateuml.model.Visibility--><path codeLine="41" d="M1009,659 C1009,675.003 1009,696.446 1009,713.528 " fill="none" id="com.urjc.mca.tfm.generateuml.model.Attribute-to-com.urjc.mca.tfm.generateuml.model.Visibility" style="stroke:#A80036;stroke-width:1.0;stroke-dasharray:7.0,7.0;"/><polygon fill="#A80036" points="1009,718.6784,1013,709.6784,1009,713.6784,1005,709.6784,1009,718.6784" style="stroke:#A80036;stroke-width:1.0;"/><!--MD5=[5d0a98b791e72311996c2969bd590d84]
link com.urjc.mca.tfm.generateuml.CloneRepository to com.urjc.mca.tfm.generateuml.StreamGobbler--><path codeLine="42" d="M228,305.044 C228,324.766 228,353.243 228,374.414 " fill="none" id="com.urjc.mca.tfm.generateuml.CloneRepository-to-com.urjc.mca.tfm.generateuml.StreamGobbler" style="stroke:#A80036;stroke-width:1.0;stroke-dasharray:7.0,7.0;"/><polygon fill="#A80036" points="228,379.63,232,370.63,228,374.63,224,370.63,228,379.63" style="stroke:#A80036;stroke-width:1.0;"/><!--MD5=[1465deb7f9e852a2256d52d0929b65ef]
reverse link java.lang.Thread to com.urjc.mca.tfm.generateuml.StreamGobbler--><path codeLine="43" d="M115.268,317.21 C141.768,337.377 174.275,362.115 197.561,379.836 " fill="none" id="java.lang.Thread-backto-com.urjc.mca.tfm.generateuml.StreamGobbler" style="stroke:#A80036;stroke-width:1.0;"/><polygon fill="none" points="110.957,322.726,99.2809,305.044,119.436,311.585,110.957,322.726" style="stroke:#A80036;stroke-width:1.0;"/><!--MD5=[807d5f2c679bcf9f1272168c76717b38]
link com.urjc.mca.tfm.generateuml.StreamGobbler to java.util.Properties--><path codeLine="44" d="M241.141,428.044 C252.53,448.017 269.04,476.968 281.157,498.218 " fill="none" id="com.urjc.mca.tfm.generateuml.StreamGobbler-to-java.util.Properties" style="stroke:#A80036;stroke-width:1.0;"/><polygon fill="#A80036" points="283.673,502.63,282.6884,492.8305,281.1957,498.2869,275.7393,496.7942,283.673,502.63" style="stroke:#A80036;stroke-width:1.0;"/><!--MD5=[7a3097b45ba5f91ff4f326835948772b]
link com.urjc.mca.tfm.generateuml.GenerateumlApplication to com.urjc.mca.tfm.generateuml.GenerateUml--><path codeLine="45" d="M483,89 C483,105.003 483,126.446 483,143.528 " fill="none" id="com.urjc.mca.tfm.generateuml.GenerateumlApplication-to-com.urjc.mca.tfm.generateuml.GenerateUml" style="stroke:#A80036;stroke-width:1.0;stroke-dasharray:7.0,7.0;"/><polygon fill="#A80036" points="483,148.678,487,139.678,483,143.678,479,139.678,483,148.678" style="stroke:#A80036;stroke-width:1.0;"/><!--MD5=[f41b6ca08dfa243d92747c90adb70c6b]
@startuml
class com.urjc.mca.tfm.generateuml.JavaAnalyzerEclipseAST
class org.eclipse.jdt.core.dom.ASTVisitor
class com.urjc.mca.tfm.generateuml.model.Domain
class org.eclipse.jdt.core.dom.ASTParser
class com.urjc.mca.tfm.generateuml.model.Unit
class com.urjc.mca.tfm.generateuml.ClassDiagramGenerator
class com.urjc.mca.tfm.generateuml.GenerateImage
class java.util.Properties
class java.io.Serializable
class com.urjc.mca.tfm.generateuml.model.Function
class com.urjc.mca.tfm.generateuml.model.Attribute
class com.urjc.mca.tfm.generateuml.model.Visibility
class com.urjc.mca.tfm.generateuml.CloneRepository
class com.urjc.mca.tfm.generateuml.StreamGobbler
class java.lang.Thread
class com.urjc.mca.tfm.generateuml.GenerateUml
class com.urjc.mca.tfm.generateuml.GenerateumlApplication
com.urjc.mca.tfm.generateuml.GenerateUml ..> com.urjc.mca.tfm.generateuml.ClassDiagramGenerator
com.urjc.mca.tfm.generateuml.GenerateUml ..> com.urjc.mca.tfm.generateuml.GenerateImage
com.urjc.mca.tfm.generateuml.GenerateUml ..> com.urjc.mca.tfm.generateuml.JavaAnalyzerEclipseAST
com.urjc.mca.tfm.generateuml.GenerateUml ..> com.urjc.mca.tfm.generateuml.CloneRepository

com.urjc.mca.tfm.generateuml.JavaAnalyzerEclipseAST ..> org.eclipse.jdt.core.dom.ASTVisitor
com.urjc.mca.tfm.generateuml.JavaAnalyzerEclipseAST ..> com.urjc.mca.tfm.generateuml.model.Domain
com.urjc.mca.tfm.generateuml.JavaAnalyzerEclipseAST ..> com.urjc.mca.tfm.generateuml.model.Unit
com.urjc.mca.tfm.generateuml.JavaAnalyzerEclipseAST ..> org.eclipse.jdt.core.dom.ASTParser
com.urjc.mca.tfm.generateuml.model.Domain o- -> com.urjc.mca.tfm.generateuml.model.Unit
com.urjc.mca.tfm.generateuml.model.Domain - -> com.urjc.mca.tfm.generateuml.model.Attribute
com.urjc.mca.tfm.generateuml.model.Domain - -> com.urjc.mca.tfm.generateuml.model.Function
com.urjc.mca.tfm.generateuml.model.Domain ..> com.urjc.mca.tfm.generateuml.model.Visibility
java.io.Serializable <|- - com.urjc.mca.tfm.generateuml.model.Unit
com.urjc.mca.tfm.generateuml.model.Unit o- -> com.urjc.mca.tfm.generateuml.model.Attribute
com.urjc.mca.tfm.generateuml.model.Unit o- -> com.urjc.mca.tfm.generateuml.model.Unit
com.urjc.mca.tfm.generateuml.model.Unit o- -> com.urjc.mca.tfm.generateuml.model.Function
com.urjc.mca.tfm.generateuml.ClassDiagramGenerator o- -> com.urjc.mca.tfm.generateuml.model.Unit
com.urjc.mca.tfm.generateuml.ClassDiagramGenerator ..> com.urjc.mca.tfm.generateuml.model.Domain
com.urjc.mca.tfm.generateuml.GenerateImage - -> java.util.Properties
com.urjc.mca.tfm.generateuml.model.Function ..> com.urjc.mca.tfm.generateuml.model.Visibility
com.urjc.mca.tfm.generateuml.model.Function ..> com.urjc.mca.tfm.generateuml.model.Function
com.urjc.mca.tfm.generateuml.model.Attribute ..> com.urjc.mca.tfm.generateuml.model.Attribute
com.urjc.mca.tfm.generateuml.model.Attribute ..> com.urjc.mca.tfm.generateuml.model.Visibility
com.urjc.mca.tfm.generateuml.CloneRepository ..> com.urjc.mca.tfm.generateuml.StreamGobbler
java.lang.Thread <|- - com.urjc.mca.tfm.generateuml.StreamGobbler
com.urjc.mca.tfm.generateuml.StreamGobbler - -> java.util.Properties
com.urjc.mca.tfm.generateuml.GenerateumlApplication ..> com.urjc.mca.tfm.generateuml.GenerateUml
@enduml

PlantUML version 1.2020.22(Sun Dec 06 09:36:27 UTC 2020)
(GPL source distribution)
Java Runtime: Java(TM) SE Runtime Environment
JVM: Java HotSpot(TM) 64-Bit Server VM
Default Encoding: UTF-8
Language: en
Country: US
--></g></svg>