<?xml version="1.0" encoding="UTF-8" standalone="no"?>
<svg xmlns="http://www.w3.org/2000/svg" contentScriptType="application/ecmascript" contentStyleType="text/css"
     height="436px" preserveAspectRatio="none" style="width:551px;height:436px;" version="1.1" viewBox="0 0 551 436"
     width="551px" zoomAndPan="magnify"><defs><filter height="300%" id="f2jmidfishqv9" width="300%" x="-1" y="-1"><feGaussianBlur result="blurOut" stdDeviation="2.0"/><feColorMatrix in="blurOut" result="blurOut2" type="matrix" values="0 0 0 0 0 0 0 0 0 0 0 0 0 0 0 0 0 0 .4 0"/><feOffset dx="4.0" dy="4.0" in="blurOut2" result="blurOut3"/><feBlend in="SourceGraphic" in2="blurOut3" mode="normal"/></filter></defs><g><!--MD5=[e6b1b26b4646fd5f3b41199c0418982b]
cluster com.urjc.mca.tfm.generateuml.model--><polygon fill="#FFFFFF" filter="url(#f2jmidfishqv9)" points="125,6,436,6,443,28.2969,446,28.2969,446,429,125,429,125,6" style="stroke:#000000;stroke-width:1.5;"/><line style="stroke:#000000;stroke-width:1.5;" x1="125" x2="443" y1="28.2969" y2="28.2969"/><text fill="#000000" font-family="sans-serif" font-size="14" font-weight="bold" lengthAdjust="spacingAndGlyphs" textLength="305" x="129" y="20.9951">com.urjc.mca.tfm.generateuml.model</text><!--MD5=[1f41066e9334f465d509339b9bb6fb7f]
class com.urjc.mca.tfm.generateuml.model.Unit--><rect codeLine="1" fill="#FEFECE" filter="url(#f2jmidfishqv9)" height="48" id="com.urjc.mca.tfm.generateuml.model.Unit" style="stroke:#A80036;stroke-width:1.5;" width="55" x="178.5" y="149"/><ellipse cx="193.5" cy="165" fill="#ADD1B2" rx="11" ry="11" style="stroke:#A80036;stroke-width:1.0;"/><path d="M195.8438,160.6719 C194.9063,160.2344 194.3125,160.0938 193.4375,160.0938 C190.8125,160.0938 188.8125,162.1719 188.8125,164.8906 L188.8125,166.0156 C188.8125,168.5938 190.9219,170.4844 193.8125,170.4844 C195.0313,170.4844 196.1875,170.1875 196.9375,169.6406 C197.5156,169.2344 197.8438,168.7813 197.8438,168.3906 C197.8438,167.9375 197.4531,167.5469 196.9844,167.5469 C196.7656,167.5469 196.5625,167.625 196.375,167.8125 C195.9219,168.2969 195.9219,168.2969 195.7344,168.3906 C195.3125,168.6563 194.625,168.7813 193.8594,168.7813 C191.8125,168.7813 190.5156,167.6875 190.5156,165.9844 L190.5156,164.8906 C190.5156,163.1094 191.7656,161.7969 193.5,161.7969 C194.0781,161.7969 194.6875,161.9531 195.1563,162.2031 C195.6406,162.4844 195.8125,162.7031 195.9063,163.1094 C195.9688,163.5156 196,163.6406 196.1406,163.7656 C196.2813,163.9063 196.5156,164.0156 196.7344,164.0156 C197,164.0156 197.2656,163.875 197.4375,163.6563 C197.5469,163.5 197.5781,163.3125 197.5781,162.8906 L197.5781,161.4688 C197.5781,161.0313 197.5625,160.9063 197.4688,160.75 C197.3125,160.4844 197.0313,160.3438 196.7344,160.3438 C196.4375,160.3438 196.2344,160.4375 196.0156,160.75 L195.8438,160.6719 Z " fill="#000000"/><text fill="#000000" font-family="sans-serif" font-size="12" lengthAdjust="spacingAndGlyphs" textLength="23" x="207.5" y="169.1543">Unit</text><line style="stroke:#A80036;stroke-width:1.5;" x1="179.5" x2="232.5" y1="181" y2="181"/><line style="stroke:#A80036;stroke-width:1.5;" x1="179.5" x2="232.5" y1="189" y2="189"/><!--MD5=[f98716f1ae24997d098dd7e1aa24a199]
class com.urjc.mca.tfm.generateuml.model.Function--><rect codeLine="3" fill="#FEFECE" filter="url(#f2jmidfishqv9)" height="48" id="com.urjc.mca.tfm.generateuml.model.Function" style="stroke:#A80036;stroke-width:1.5;" width="82" x="165" y="257"/><ellipse cx="180" cy="273" fill="#ADD1B2" rx="11" ry="11" style="stroke:#A80036;stroke-width:1.0;"/><path d="M182.3438,268.6719 C181.4063,268.2344 180.8125,268.0938 179.9375,268.0938 C177.3125,268.0938 175.3125,270.1719 175.3125,272.8906 L175.3125,274.0156 C175.3125,276.5938 177.4219,278.4844 180.3125,278.4844 C181.5313,278.4844 182.6875,278.1875 183.4375,277.6406 C184.0156,277.2344 184.3438,276.7813 184.3438,276.3906 C184.3438,275.9375 183.9531,275.5469 183.4844,275.5469 C183.2656,275.5469 183.0625,275.625 182.875,275.8125 C182.4219,276.2969 182.4219,276.2969 182.2344,276.3906 C181.8125,276.6563 181.125,276.7813 180.3594,276.7813 C178.3125,276.7813 177.0156,275.6875 177.0156,273.9844 L177.0156,272.8906 C177.0156,271.1094 178.2656,269.7969 180,269.7969 C180.5781,269.7969 181.1875,269.9531 181.6563,270.2031 C182.1406,270.4844 182.3125,270.7031 182.4063,271.1094 C182.4688,271.5156 182.5,271.6406 182.6406,271.7656 C182.7813,271.9063 183.0156,272.0156 183.2344,272.0156 C183.5,272.0156 183.7656,271.875 183.9375,271.6563 C184.0469,271.5 184.0781,271.3125 184.0781,270.8906 L184.0781,269.4688 C184.0781,269.0313 184.0625,268.9063 183.9688,268.75 C183.8125,268.4844 183.5313,268.3438 183.2344,268.3438 C182.9375,268.3438 182.7344,268.4375 182.5156,268.75 L182.3438,268.6719 Z " fill="#000000"/><text fill="#000000" font-family="sans-serif" font-size="12" lengthAdjust="spacingAndGlyphs" textLength="50" x="194" y="277.1543">Function</text><line style="stroke:#A80036;stroke-width:1.5;" x1="166" x2="246" y1="289" y2="289"/><line style="stroke:#A80036;stroke-width:1.5;" x1="166" x2="246" y1="297" y2="297"/><!--MD5=[743b553e78215d7fd70d565007f6771a]
class com.urjc.mca.tfm.generateuml.model.Attribute--><rect codeLine="4" fill="#FEFECE" filter="url(#f2jmidfishqv9)" height="48" id="com.urjc.mca.tfm.generateuml.model.Attribute" style="stroke:#A80036;stroke-width:1.5;" width="83" x="282.5" y="257"/><ellipse cx="297.5" cy="273" fill="#ADD1B2" rx="11" ry="11" style="stroke:#A80036;stroke-width:1.0;"/><path d="M299.8438,268.6719 C298.9063,268.2344 298.3125,268.0938 297.4375,268.0938 C294.8125,268.0938 292.8125,270.1719 292.8125,272.8906 L292.8125,274.0156 C292.8125,276.5938 294.9219,278.4844 297.8125,278.4844 C299.0313,278.4844 300.1875,278.1875 300.9375,277.6406 C301.5156,277.2344 301.8438,276.7813 301.8438,276.3906 C301.8438,275.9375 301.4531,275.5469 300.9844,275.5469 C300.7656,275.5469 300.5625,275.625 300.375,275.8125 C299.9219,276.2969 299.9219,276.2969 299.7344,276.3906 C299.3125,276.6563 298.625,276.7813 297.8594,276.7813 C295.8125,276.7813 294.5156,275.6875 294.5156,273.9844 L294.5156,272.8906 C294.5156,271.1094 295.7656,269.7969 297.5,269.7969 C298.0781,269.7969 298.6875,269.9531 299.1563,270.2031 C299.6406,270.4844 299.8125,270.7031 299.9063,271.1094 C299.9688,271.5156 300,271.6406 300.1406,271.7656 C300.2813,271.9063 300.5156,272.0156 300.7344,272.0156 C301,272.0156 301.2656,271.875 301.4375,271.6563 C301.5469,271.5 301.5781,271.3125 301.5781,270.8906 L301.5781,269.4688 C301.5781,269.0313 301.5625,268.9063 301.4688,268.75 C301.3125,268.4844 301.0313,268.3438 300.7344,268.3438 C300.4375,268.3438 300.2344,268.4375 300.0156,268.75 L299.8438,268.6719 Z " fill="#000000"/><text fill="#000000" font-family="sans-serif" font-size="12" lengthAdjust="spacingAndGlyphs" textLength="51" x="311.5" y="277.1543">Attribute</text><line style="stroke:#A80036;stroke-width:1.5;" x1="283.5" x2="364.5" y1="289" y2="289"/><line style="stroke:#A80036;stroke-width:1.5;" x1="283.5" x2="364.5" y1="297" y2="297"/><!--MD5=[3df3ba26d5911a75717337ee70edf07b]
class com.urjc.mca.tfm.generateuml.model.Visibility--><rect codeLine="5" fill="#FEFECE" filter="url(#f2jmidfishqv9)" height="48" id="com.urjc.mca.tfm.generateuml.model.Visibility" style="stroke:#A80036;stroke-width:1.5;" width="81" x="283.5" y="365"/><ellipse cx="298.5" cy="381" fill="#ADD1B2" rx="11" ry="11" style="stroke:#A80036;stroke-width:1.0;"/><path d="M300.8438,376.6719 C299.9063,376.2344 299.3125,376.0938 298.4375,376.0938 C295.8125,376.0938 293.8125,378.1719 293.8125,380.8906 L293.8125,382.0156 C293.8125,384.5938 295.9219,386.4844 298.8125,386.4844 C300.0313,386.4844 301.1875,386.1875 301.9375,385.6406 C302.5156,385.2344 302.8438,384.7813 302.8438,384.3906 C302.8438,383.9375 302.4531,383.5469 301.9844,383.5469 C301.7656,383.5469 301.5625,383.625 301.375,383.8125 C300.9219,384.2969 300.9219,384.2969 300.7344,384.3906 C300.3125,384.6563 299.625,384.7813 298.8594,384.7813 C296.8125,384.7813 295.5156,383.6875 295.5156,381.9844 L295.5156,380.8906 C295.5156,379.1094 296.7656,377.7969 298.5,377.7969 C299.0781,377.7969 299.6875,377.9531 300.1563,378.2031 C300.6406,378.4844 300.8125,378.7031 300.9063,379.1094 C300.9688,379.5156 301,379.6406 301.1406,379.7656 C301.2813,379.9063 301.5156,380.0156 301.7344,380.0156 C302,380.0156 302.2656,379.875 302.4375,379.6563 C302.5469,379.5 302.5781,379.3125 302.5781,378.8906 L302.5781,377.4688 C302.5781,377.0313 302.5625,376.9063 302.4688,376.75 C302.3125,376.4844 302.0313,376.3438 301.7344,376.3438 C301.4375,376.3438 301.2344,376.4375 301.0156,376.75 L300.8438,376.6719 Z " fill="#000000"/><text fill="#000000" font-family="sans-serif" font-size="12" lengthAdjust="spacingAndGlyphs" textLength="49" x="312.5" y="385.1543">Visibility</text><line style="stroke:#A80036;stroke-width:1.5;" x1="284.5" x2="363.5" y1="397" y2="397"/><line style="stroke:#A80036;stroke-width:1.5;" x1="284.5" x2="363.5" y1="405" y2="405"/><!--MD5=[ea56b9ecae5862df673fe2fa3ad17a74]
class com.urjc.mca.tfm.generateuml.model.Domain--><rect codeLine="6" fill="#FEFECE" filter="url(#f2jmidfishqv9)" height="48" id="com.urjc.mca.tfm.generateuml.model.Domain" style="stroke:#A80036;stroke-width:1.5;" width="77" x="286.5" y="41"/><ellipse cx="301.5" cy="57" fill="#ADD1B2" rx="11" ry="11" style="stroke:#A80036;stroke-width:1.0;"/><path d="M303.8438,52.6719 C302.9063,52.2344 302.3125,52.0938 301.4375,52.0938 C298.8125,52.0938 296.8125,54.1719 296.8125,56.8906 L296.8125,58.0156 C296.8125,60.5938 298.9219,62.4844 301.8125,62.4844 C303.0313,62.4844 304.1875,62.1875 304.9375,61.6406 C305.5156,61.2344 305.8438,60.7813 305.8438,60.3906 C305.8438,59.9375 305.4531,59.5469 304.9844,59.5469 C304.7656,59.5469 304.5625,59.625 304.375,59.8125 C303.9219,60.2969 303.9219,60.2969 303.7344,60.3906 C303.3125,60.6563 302.625,60.7813 301.8594,60.7813 C299.8125,60.7813 298.5156,59.6875 298.5156,57.9844 L298.5156,56.8906 C298.5156,55.1094 299.7656,53.7969 301.5,53.7969 C302.0781,53.7969 302.6875,53.9531 303.1563,54.2031 C303.6406,54.4844 303.8125,54.7031 303.9063,55.1094 C303.9688,55.5156 304,55.6406 304.1406,55.7656 C304.2813,55.9063 304.5156,56.0156 304.7344,56.0156 C305,56.0156 305.2656,55.875 305.4375,55.6563 C305.5469,55.5 305.5781,55.3125 305.5781,54.8906 L305.5781,53.4688 C305.5781,53.0313 305.5625,52.9063 305.4688,52.75 C305.3125,52.4844 305.0313,52.3438 304.7344,52.3438 C304.4375,52.3438 304.2344,52.4375 304.0156,52.75 L303.8438,52.6719 Z " fill="#000000"/><text fill="#000000" font-family="sans-serif" font-size="12" lengthAdjust="spacingAndGlyphs" textLength="45" x="315.5" y="61.1543">Domain</text><line style="stroke:#A80036;stroke-width:1.5;" x1="287.5" x2="362.5" y1="73" y2="73"/><line style="stroke:#A80036;stroke-width:1.5;" x1="287.5" x2="362.5" y1="81" y2="81"/><!--MD5=[cc3de0a176daa3c4ec875deafdf5ddd1]
class Serializable--><rect codeLine="2" fill="#FEFECE" filter="url(#f2jmidfishqv9)" height="48" id="Serializable" style="stroke:#A80036;stroke-width:1.5;" width="102" x="7" y="41"/><ellipse cx="22" cy="57" fill="#ADD1B2" rx="11" ry="11" style="stroke:#A80036;stroke-width:1.0;"/><path d="M24.3438,52.6719 C23.4063,52.2344 22.8125,52.0938 21.9375,52.0938 C19.3125,52.0938 17.3125,54.1719 17.3125,56.8906 L17.3125,58.0156 C17.3125,60.5938 19.4219,62.4844 22.3125,62.4844 C23.5313,62.4844 24.6875,62.1875 25.4375,61.6406 C26.0156,61.2344 26.3438,60.7813 26.3438,60.3906 C26.3438,59.9375 25.9531,59.5469 25.4844,59.5469 C25.2656,59.5469 25.0625,59.625 24.875,59.8125 C24.4219,60.2969 24.4219,60.2969 24.2344,60.3906 C23.8125,60.6563 23.125,60.7813 22.3594,60.7813 C20.3125,60.7813 19.0156,59.6875 19.0156,57.9844 L19.0156,56.8906 C19.0156,55.1094 20.2656,53.7969 22,53.7969 C22.5781,53.7969 23.1875,53.9531 23.6563,54.2031 C24.1406,54.4844 24.3125,54.7031 24.4063,55.1094 C24.4688,55.5156 24.5,55.6406 24.6406,55.7656 C24.7813,55.9063 25.0156,56.0156 25.2344,56.0156 C25.5,56.0156 25.7656,55.875 25.9375,55.6563 C26.0469,55.5 26.0781,55.3125 26.0781,54.8906 L26.0781,53.4688 C26.0781,53.0313 26.0625,52.9063 25.9688,52.75 C25.8125,52.4844 25.5313,52.3438 25.2344,52.3438 C24.9375,52.3438 24.7344,52.4375 24.5156,52.75 L24.3438,52.6719 Z " fill="#000000"/><text fill="#000000" font-family="sans-serif" font-size="12" lengthAdjust="spacingAndGlyphs" textLength="70" x="36" y="61.1543">Serializable</text><line style="stroke:#A80036;stroke-width:1.5;" x1="8" x2="108" y1="73" y2="73"/><line style="stroke:#A80036;stroke-width:1.5;" x1="8" x2="108" y1="81" y2="81"/><!--MD5=[248f897e4bb16c2722904b15df30346f]
class Logger--><rect codeLine="7" fill="#FEFECE" filter="url(#f2jmidfishqv9)" height="48" id="Logger" style="stroke:#A80036;stroke-width:1.5;" width="75" x="462.5" y="149"/><ellipse cx="477.5" cy="165" fill="#ADD1B2" rx="11" ry="11" style="stroke:#A80036;stroke-width:1.0;"/><path d="M479.8438,160.6719 C478.9063,160.2344 478.3125,160.0938 477.4375,160.0938 C474.8125,160.0938 472.8125,162.1719 472.8125,164.8906 L472.8125,166.0156 C472.8125,168.5938 474.9219,170.4844 477.8125,170.4844 C479.0313,170.4844 480.1875,170.1875 480.9375,169.6406 C481.5156,169.2344 481.8438,168.7813 481.8438,168.3906 C481.8438,167.9375 481.4531,167.5469 480.9844,167.5469 C480.7656,167.5469 480.5625,167.625 480.375,167.8125 C479.9219,168.2969 479.9219,168.2969 479.7344,168.3906 C479.3125,168.6563 478.625,168.7813 477.8594,168.7813 C475.8125,168.7813 474.5156,167.6875 474.5156,165.9844 L474.5156,164.8906 C474.5156,163.1094 475.7656,161.7969 477.5,161.7969 C478.0781,161.7969 478.6875,161.9531 479.1563,162.2031 C479.6406,162.4844 479.8125,162.7031 479.9063,163.1094 C479.9688,163.5156 480,163.6406 480.1406,163.7656 C480.2813,163.9063 480.5156,164.0156 480.7344,164.0156 C481,164.0156 481.2656,163.875 481.4375,163.6563 C481.5469,163.5 481.5781,163.3125 481.5781,162.8906 L481.5781,161.4688 C481.5781,161.0313 481.5625,160.9063 481.4688,160.75 C481.3125,160.4844 481.0313,160.3438 480.7344,160.3438 C480.4375,160.3438 480.2344,160.4375 480.0156,160.75 L479.8438,160.6719 Z " fill="#000000"/><text fill="#000000" font-family="sans-serif" font-size="12" lengthAdjust="spacingAndGlyphs" textLength="43" x="491.5" y="169.1543">Logger</text><line style="stroke:#A80036;stroke-width:1.5;" x1="463.5" x2="536.5" y1="181" y2="181"/><line style="stroke:#A80036;stroke-width:1.5;" x1="463.5" x2="536.5" y1="189" y2="189"/><!--MD5=[83156fc64949e5bc93a2e48787b7213f]
reverse link Serializable to com.urjc.mca.tfm.generateuml.model.Unit--><path codeLine="8" d="M106.5983,100.807 C130.438,117.882 158.282,137.823 178.425,152.251 " fill="none" id="Serializable-backto-com.urjc.mca.tfm.generateuml.model.Unit" style="stroke:#A80036;stroke-width:1.0;"/><polygon fill="none" points="102.2977,106.337,90.1138,89,110.45,94.955,102.2977,106.337" style="stroke:#A80036;stroke-width:1.0;"/><!--MD5=[dcdb82ce0314014e2718da2cae276103]
link com.urjc.mca.tfm.generateuml.model.Unit to com.urjc.mca.tfm.generateuml.model.Attribute--><path codeLine="9" d="M240.5314,205.0188 C240.5314,205.0188 273.312,234.467 288.178,247.821 " fill="none" id="com.urjc.mca.tfm.generateuml.model.Unit-com.urjc.mca.tfm.generateuml.model.Attribute" style="stroke:#A80036;stroke-width:1.0;"/><polygon fill="#A80036" points="298.038,256.678,294.0154,247.6881,294.3183,253.3368,288.6695,253.6397,298.038,256.678" style="stroke:#A80036;stroke-width:1.0;"/><line style="stroke:#A80036;stroke-width:1.0;" x1="294.3183" x2="288.3675" y1="253.3368" y2="247.991"/><polygon fill="#FFFFFF" points="231.604,197,233.3948,203.9852,240.5314,205.0188,238.7406,198.0336,231.604,197" style="stroke:#A80036;stroke-width:1.0;"/><!--MD5=[6139a32c06a04bee09aea5a27b7c6977]
link com.urjc.mca.tfm.generateuml.model.Unit to com.urjc.mca.tfm.generateuml.model.Unit--><path codeLine="10" d="M245.5445,152.9053 C245.5445,152.9053 268.5,160.027 268.5,173 C268.5,185.973 258.881,192.712 246.576,193.219 " fill="none" id="com.urjc.mca.tfm.generateuml.model.Unit-com.urjc.mca.tfm.generateuml.model.Unit" style="stroke:#A80036;stroke-width:1.0;"/><polygon fill="#A80036" points="233.632,191.648,242.0841,196.7038,238.5955,192.2508,243.0486,188.7622,233.632,191.648" style="stroke:#A80036;stroke-width:1.0;"/><line style="stroke:#A80036;stroke-width:1.0;" x1="238.5955" x2="246.5375" y1="192.2508" y2="193.2145"/><polygon fill="#FFFFFF" points="233.632,154.352,240.0705,157.5995,245.5445,152.9053,239.106,149.6578,233.632,154.352" style="stroke:#A80036;stroke-width:1.0;"/><!--MD5=[756c551b140893348b8d5c2fd802479f]
link com.urjc.mca.tfm.generateuml.model.Unit to com.urjc.mca.tfm.generateuml.model.Function--><path codeLine="11" d="M206,209 C206,209 206,232.677 206,243.364 " fill="none" id="com.urjc.mca.tfm.generateuml.model.Unit-com.urjc.mca.tfm.generateuml.model.Function" style="stroke:#A80036;stroke-width:1.0;"/><polygon fill="#A80036" points="206,256.678,210,247.678,206,251.678,202,247.678,206,256.678" style="stroke:#A80036;stroke-width:1.0;"/><line style="stroke:#A80036;stroke-width:1.0;" x1="206" x2="206" y1="251.678" y2="243.678"/><polygon fill="#FFFFFF" points="206,197,202,203,206,209,210,203,206,197" style="stroke:#A80036;stroke-width:1.0;"/><!--MD5=[ccc759d86d7b9b958f3ce0b5d0e61de4]
link com.urjc.mca.tfm.generateuml.model.Function to com.urjc.mca.tfm.generateuml.model.Visibility--><path codeLine="12" d="M231.604,305 C250.033,321.555 274.942,343.931 294.254,361.2791 " fill="none" id="com.urjc.mca.tfm.generateuml.model.Function-to-com.urjc.mca.tfm.generateuml.model.Visibility" style="stroke:#A80036;stroke-width:1.0;stroke-dasharray:7.0,7.0;"/><polygon fill="#A80036" points="298.038,364.6784,294.0159,355.6882,294.3185,361.337,288.6697,361.6395,298.038,364.6784" style="stroke:#A80036;stroke-width:1.0;"/><!--MD5=[ab3f45bae1ec7be492651a0c76608cf3]
link com.urjc.mca.tfm.generateuml.model.Attribute to com.urjc.mca.tfm.generateuml.model.Visibility--><path codeLine="13" d="M324,305 C324,321.003 324,342.446 324,359.528 " fill="none" id="com.urjc.mca.tfm.generateuml.model.Attribute-to-com.urjc.mca.tfm.generateuml.model.Visibility" style="stroke:#A80036;stroke-width:1.0;stroke-dasharray:7.0,7.0;"/><polygon fill="#A80036" points="324,364.6784,328,355.6784,324,359.6784,320,355.6784,324,364.6784" style="stroke:#A80036;stroke-width:1.0;"/><!--MD5=[9dc629a89c2f886ef7b61b580c7c8806]
link com.urjc.mca.tfm.generateuml.model.Domain to com.urjc.mca.tfm.generateuml.model.Unit--><path codeLine="14" d="M290.2186,96.9819 C290.2186,96.9819 257.117,126.467 242.126,139.821 " fill="none" id="com.urjc.mca.tfm.generateuml.model.Domain-com.urjc.mca.tfm.generateuml.model.Unit" style="stroke:#A80036;stroke-width:1.0;"/><polygon fill="#A80036" points="232.182,148.678,241.5629,145.6783,235.9155,145.3522,236.2416,139.7047,232.182,148.678" style="stroke:#A80036;stroke-width:1.0;"/><line style="stroke:#A80036;stroke-width:1.0;" x1="235.9155" x2="241.8895" y1="145.3522" y2="140.0315"/><polygon fill="#FFFFFF" points="299.179,89,292.0382,90.0042,290.2186,96.9819,297.3594,95.9778,299.179,89" style="stroke:#A80036;stroke-width:1.0;"/><!--MD5=[babbd0c57555f8fc0cb4ea12d690e051]
link com.urjc.mca.tfm.generateuml.model.Domain to com.urjc.mca.tfm.generateuml.model.Attribute--><path codeLine="15" d="M324.891,89.309 C324.706,128.866 324.332,208.994 324.132,251.702 " fill="none" id="com.urjc.mca.tfm.generateuml.model.Domain-to-com.urjc.mca.tfm.generateuml.model.Attribute" style="stroke:#A80036;stroke-width:1.0;"/><polygon fill="#A80036" points="324.109,256.72,328.1527,247.7395,324.1333,251.7201,320.1528,247.7007,324.109,256.72" style="stroke:#A80036;stroke-width:1.0;"/><!--MD5=[cbe92c1d06ada0caf497db75b6045cbe]
link com.urjc.mca.tfm.generateuml.model.Domain to Logger--><path codeLine="16" d="M362.972,89 C390.931,105.935 428.948,128.963 457.846,146.467 " fill="none" id="com.urjc.mca.tfm.generateuml.model.Domain-to-Logger" style="stroke:#A80036;stroke-width:1.0;"/><polygon fill="#A80036" points="462.403,149.227,456.7783,141.1422,458.1267,146.6361,452.6328,147.9844,462.403,149.227" style="stroke:#A80036;stroke-width:1.0;"/><!--MD5=[53a0de494c58a64616b3ec1e09fe3d8f]
link com.urjc.mca.tfm.generateuml.model.Domain to com.urjc.mca.tfm.generateuml.model.Function--><path codeLine="17" d="M317.101,89.062 C307.476,115.886 289.885,161.077 269,197 C257.516,216.752 242.03,237.217 229.285,252.883 " fill="none" id="com.urjc.mca.tfm.generateuml.model.Domain-to-com.urjc.mca.tfm.generateuml.model.Function" style="stroke:#A80036;stroke-width:1.0;"/><polygon fill="#A80036" points="226.108,256.759,234.9061,252.3325,229.2769,252.8914,228.718,247.2623,226.108,256.759" style="stroke:#A80036;stroke-width:1.0;"/><!--MD5=[55039873b4a19525e2ea6e06ce02ebe3]
link com.urjc.mca.tfm.generateuml.model.Domain to com.urjc.mca.tfm.generateuml.model.Visibility--><path codeLine="18" d="M338.925,89.036 C363.074,132.011 407.864,227.107 383,305 C376.415,325.629 362.625,345.5182 350.032,360.6531 " fill="none" id="com.urjc.mca.tfm.generateuml.model.Domain-to-com.urjc.mca.tfm.generateuml.model.Visibility" style="stroke:#A80036;stroke-width:1.0;stroke-dasharray:7.0,7.0;"/><polygon fill="#A80036" points="346.519,364.7925,355.392,360.5182,349.754,360.9801,349.2922,355.3421,346.519,364.7925" style="stroke:#A80036;stroke-width:1.0;"/><!--MD5=[63f3f4310e751998a55f86abcd478da8]
@startuml
class com.urjc.mca.tfm.generateuml.model.Unit
class Serializable
class com.urjc.mca.tfm.generateuml.model.Function
class com.urjc.mca.tfm.generateuml.model.Attribute
class com.urjc.mca.tfm.generateuml.model.Visibility
class com.urjc.mca.tfm.generateuml.model.Domain
class Logger
Serializable <|- - com.urjc.mca.tfm.generateuml.model.Unit
com.urjc.mca.tfm.generateuml.model.Unit o- -> com.urjc.mca.tfm.generateuml.model.Attribute
com.urjc.mca.tfm.generateuml.model.Unit o- -> com.urjc.mca.tfm.generateuml.model.Unit
com.urjc.mca.tfm.generateuml.model.Unit o- -> com.urjc.mca.tfm.generateuml.model.Function
com.urjc.mca.tfm.generateuml.model.Function ..> com.urjc.mca.tfm.generateuml.model.Visibility
com.urjc.mca.tfm.generateuml.model.Attribute ..> com.urjc.mca.tfm.generateuml.model.Visibility
com.urjc.mca.tfm.generateuml.model.Domain o- -> com.urjc.mca.tfm.generateuml.model.Unit
com.urjc.mca.tfm.generateuml.model.Domain - -> com.urjc.mca.tfm.generateuml.model.Attribute
com.urjc.mca.tfm.generateuml.model.Domain - -> Logger
com.urjc.mca.tfm.generateuml.model.Domain - -> com.urjc.mca.tfm.generateuml.model.Function
com.urjc.mca.tfm.generateuml.model.Domain ..> com.urjc.mca.tfm.generateuml.model.Visibility
@enduml

PlantUML version 1.2020.21(Mon Nov 30 16:40:11 UTC 2020)
(GPL source distribution)
Java Runtime: Java(TM) SE Runtime Environment
JVM: Java HotSpot(TM) 64-Bit Server VM
Default Encoding: UTF-8
Language: en
Country: US
--></g></svg>