<?xml version="1.0" encoding="UTF-8" standalone="no"?>
<svg xmlns="http://www.w3.org/2000/svg" contentScriptType="application/ecmascript" contentStyleType="text/css"
     height="328px" preserveAspectRatio="none" style="width:455px;height:328px;" version="1.1" viewBox="0 0 455 328"
     width="455px" zoomAndPan="magnify"><defs><filter height="300%" id="f3h767lvxfkcy" width="300%" x="-1" y="-1"><feGaussianBlur result="blurOut" stdDeviation="2.0"/><feColorMatrix in="blurOut" result="blurOut2" type="matrix" values="0 0 0 0 0 0 0 0 0 0 0 0 0 0 0 0 0 0 .4 0"/><feOffset dx="4.0" dy="4.0" in="blurOut2" result="blurOut3"/><feBlend in="SourceGraphic" in2="blurOut3" mode="normal"/></filter></defs><g><!--MD5=[b56d8ef9af079015670ad96965866810]
cluster mastermind--><polygon fill="#FFFFFF" filter="url(#f3h767lvxfkcy)" points="16,6,120,6,127,28.2969,438,28.2969,438,321,16,321,16,6" style="stroke:#000000;stroke-width:1.5;"/><line style="stroke:#000000;stroke-width:1.5;" x1="16" x2="127" y1="28.2969" y2="28.2969"/><text fill="#000000" font-family="sans-serif" font-size="14" font-weight="bold" lengthAdjust="spacingAndGlyphs" textLength="98" x="20" y="20.9951">mastermind</text><!--MD5=[e8e089a81bce7c77159245837d4cb7da]
class mastermind.SecretCombination--><rect codeLine="1" fill="#FEFECE" filter="url(#f3h767lvxfkcy)" height="48" id="mastermind.SecretCombination" style="stroke:#A80036;stroke-width:1.5;" width="146" x="164" y="149"/><ellipse cx="179" cy="165" fill="#ADD1B2" rx="11" ry="11" style="stroke:#A80036;stroke-width:1.0;"/><path d="M181.3438,160.6719 C180.4063,160.2344 179.8125,160.0938 178.9375,160.0938 C176.3125,160.0938 174.3125,162.1719 174.3125,164.8906 L174.3125,166.0156 C174.3125,168.5938 176.4219,170.4844 179.3125,170.4844 C180.5313,170.4844 181.6875,170.1875 182.4375,169.6406 C183.0156,169.2344 183.3438,168.7813 183.3438,168.3906 C183.3438,167.9375 182.9531,167.5469 182.4844,167.5469 C182.2656,167.5469 182.0625,167.625 181.875,167.8125 C181.4219,168.2969 181.4219,168.2969 181.2344,168.3906 C180.8125,168.6563 180.125,168.7813 179.3594,168.7813 C177.3125,168.7813 176.0156,167.6875 176.0156,165.9844 L176.0156,164.8906 C176.0156,163.1094 177.2656,161.7969 179,161.7969 C179.5781,161.7969 180.1875,161.9531 180.6563,162.2031 C181.1406,162.4844 181.3125,162.7031 181.4063,163.1094 C181.4688,163.5156 181.5,163.6406 181.6406,163.7656 C181.7813,163.9063 182.0156,164.0156 182.2344,164.0156 C182.5,164.0156 182.7656,163.875 182.9375,163.6563 C183.0469,163.5 183.0781,163.3125 183.0781,162.8906 L183.0781,161.4688 C183.0781,161.0313 183.0625,160.9063 182.9688,160.75 C182.8125,160.4844 182.5313,160.3438 182.2344,160.3438 C181.9375,160.3438 181.7344,160.4375 181.5156,160.75 L181.3438,160.6719 Z " fill="#000000"/><text fill="#000000" font-family="sans-serif" font-size="12" lengthAdjust="spacingAndGlyphs" textLength="114" x="193" y="169.1543">SecretCombination</text><line style="stroke:#A80036;stroke-width:1.5;" x1="165" x2="309" y1="181" y2="181"/><line style="stroke:#A80036;stroke-width:1.5;" x1="165" x2="309" y1="189" y2="189"/><!--MD5=[84816f97e2a98b46b4b3f115aab02d26]
class mastermind.Combination--><rect fill="#FEFECE" filter="url(#f3h767lvxfkcy)" height="48" id="mastermind.Combination" style="stroke:#A80036;stroke-width:1.5;" width="106" x="184" y="41"/><ellipse cx="199" cy="57" fill="#ADD1B2" rx="11" ry="11" style="stroke:#A80036;stroke-width:1.0;"/><path d="M201.3438,52.6719 C200.4063,52.2344 199.8125,52.0938 198.9375,52.0938 C196.3125,52.0938 194.3125,54.1719 194.3125,56.8906 L194.3125,58.0156 C194.3125,60.5938 196.4219,62.4844 199.3125,62.4844 C200.5313,62.4844 201.6875,62.1875 202.4375,61.6406 C203.0156,61.2344 203.3438,60.7813 203.3438,60.3906 C203.3438,59.9375 202.9531,59.5469 202.4844,59.5469 C202.2656,59.5469 202.0625,59.625 201.875,59.8125 C201.4219,60.2969 201.4219,60.2969 201.2344,60.3906 C200.8125,60.6563 200.125,60.7813 199.3594,60.7813 C197.3125,60.7813 196.0156,59.6875 196.0156,57.9844 L196.0156,56.8906 C196.0156,55.1094 197.2656,53.7969 199,53.7969 C199.5781,53.7969 200.1875,53.9531 200.6563,54.2031 C201.1406,54.4844 201.3125,54.7031 201.4063,55.1094 C201.4688,55.5156 201.5,55.6406 201.6406,55.7656 C201.7813,55.9063 202.0156,56.0156 202.2344,56.0156 C202.5,56.0156 202.7656,55.875 202.9375,55.6563 C203.0469,55.5 203.0781,55.3125 203.0781,54.8906 L203.0781,53.4688 C203.0781,53.0313 203.0625,52.9063 202.9688,52.75 C202.8125,52.4844 202.5313,52.3438 202.2344,52.3438 C201.9375,52.3438 201.7344,52.4375 201.5156,52.75 L201.3438,52.6719 Z " fill="#000000"/><text fill="#000000" font-family="sans-serif" font-size="12" lengthAdjust="spacingAndGlyphs" textLength="74" x="213" y="61.1543">Combination</text><line style="stroke:#A80036;stroke-width:1.5;" x1="185" x2="289" y1="73" y2="73"/><line style="stroke:#A80036;stroke-width:1.5;" x1="185" x2="289" y1="81" y2="81"/><!--MD5=[26303ba9f5ce9cad8aaa4fd967f9f4f3]
class mastermind.Message--><rect fill="#FEFECE" filter="url(#f3h767lvxfkcy)" height="48" id="mastermind.Message" style="stroke:#A80036;stroke-width:1.5;" width="87" x="32.5" y="257"/><ellipse cx="47.5" cy="273" fill="#ADD1B2" rx="11" ry="11" style="stroke:#A80036;stroke-width:1.0;"/><path d="M49.8438,268.6719 C48.9063,268.2344 48.3125,268.0938 47.4375,268.0938 C44.8125,268.0938 42.8125,270.1719 42.8125,272.8906 L42.8125,274.0156 C42.8125,276.5938 44.9219,278.4844 47.8125,278.4844 C49.0313,278.4844 50.1875,278.1875 50.9375,277.6406 C51.5156,277.2344 51.8438,276.7813 51.8438,276.3906 C51.8438,275.9375 51.4531,275.5469 50.9844,275.5469 C50.7656,275.5469 50.5625,275.625 50.375,275.8125 C49.9219,276.2969 49.9219,276.2969 49.7344,276.3906 C49.3125,276.6563 48.625,276.7813 47.8594,276.7813 C45.8125,276.7813 44.5156,275.6875 44.5156,273.9844 L44.5156,272.8906 C44.5156,271.1094 45.7656,269.7969 47.5,269.7969 C48.0781,269.7969 48.6875,269.9531 49.1563,270.2031 C49.6406,270.4844 49.8125,270.7031 49.9063,271.1094 C49.9688,271.5156 50,271.6406 50.1406,271.7656 C50.2813,271.9063 50.5156,272.0156 50.7344,272.0156 C51,272.0156 51.2656,271.875 51.4375,271.6563 C51.5469,271.5 51.5781,271.3125 51.5781,270.8906 L51.5781,269.4688 C51.5781,269.0313 51.5625,268.9063 51.4688,268.75 C51.3125,268.4844 51.0313,268.3438 50.7344,268.3438 C50.4375,268.3438 50.2344,268.4375 50.0156,268.75 L49.8438,268.6719 Z " fill="#000000"/><text fill="#000000" font-family="sans-serif" font-size="12" lengthAdjust="spacingAndGlyphs" textLength="55" x="61.5" y="277.1543">Message</text><line style="stroke:#A80036;stroke-width:1.5;" x1="33.5" x2="118.5" y1="289" y2="289"/><line style="stroke:#A80036;stroke-width:1.5;" x1="33.5" x2="118.5" y1="297" y2="297"/><!--MD5=[48a3007a8410194d9f1aaf02c9e3babc]
class mastermind.ProposedCombination--><rect fill="#FEFECE" filter="url(#f3h767lvxfkcy)" height="48" id="mastermind.ProposedCombination" style="stroke:#A80036;stroke-width:1.5;" width="164" x="155" y="257"/><ellipse cx="170" cy="273" fill="#ADD1B2" rx="11" ry="11" style="stroke:#A80036;stroke-width:1.0;"/><path d="M172.3438,268.6719 C171.4063,268.2344 170.8125,268.0938 169.9375,268.0938 C167.3125,268.0938 165.3125,270.1719 165.3125,272.8906 L165.3125,274.0156 C165.3125,276.5938 167.4219,278.4844 170.3125,278.4844 C171.5313,278.4844 172.6875,278.1875 173.4375,277.6406 C174.0156,277.2344 174.3438,276.7813 174.3438,276.3906 C174.3438,275.9375 173.9531,275.5469 173.4844,275.5469 C173.2656,275.5469 173.0625,275.625 172.875,275.8125 C172.4219,276.2969 172.4219,276.2969 172.2344,276.3906 C171.8125,276.6563 171.125,276.7813 170.3594,276.7813 C168.3125,276.7813 167.0156,275.6875 167.0156,273.9844 L167.0156,272.8906 C167.0156,271.1094 168.2656,269.7969 170,269.7969 C170.5781,269.7969 171.1875,269.9531 171.6563,270.2031 C172.1406,270.4844 172.3125,270.7031 172.4063,271.1094 C172.4688,271.5156 172.5,271.6406 172.6406,271.7656 C172.7813,271.9063 173.0156,272.0156 173.2344,272.0156 C173.5,272.0156 173.7656,271.875 173.9375,271.6563 C174.0469,271.5 174.0781,271.3125 174.0781,270.8906 L174.0781,269.4688 C174.0781,269.0313 174.0625,268.9063 173.9688,268.75 C173.8125,268.4844 173.5313,268.3438 173.2344,268.3438 C172.9375,268.3438 172.7344,268.4375 172.5156,268.75 L172.3438,268.6719 Z " fill="#000000"/><text fill="#000000" font-family="sans-serif" font-size="12" lengthAdjust="spacingAndGlyphs" textLength="132" x="184" y="277.1543">ProposedCombination</text><line style="stroke:#A80036;stroke-width:1.5;" x1="156" x2="318" y1="289" y2="289"/><line style="stroke:#A80036;stroke-width:1.5;" x1="156" x2="318" y1="297" y2="297"/><!--MD5=[215a6a2d871dc8a709ee73713ca6578d]
class mastermind.Result--><rect fill="#FEFECE" filter="url(#f3h767lvxfkcy)" height="48" id="mastermind.Result" style="stroke:#A80036;stroke-width:1.5;" width="68" x="354" y="257"/><ellipse cx="369" cy="273" fill="#ADD1B2" rx="11" ry="11" style="stroke:#A80036;stroke-width:1.0;"/><path d="M371.3438,268.6719 C370.4063,268.2344 369.8125,268.0938 368.9375,268.0938 C366.3125,268.0938 364.3125,270.1719 364.3125,272.8906 L364.3125,274.0156 C364.3125,276.5938 366.4219,278.4844 369.3125,278.4844 C370.5313,278.4844 371.6875,278.1875 372.4375,277.6406 C373.0156,277.2344 373.3438,276.7813 373.3438,276.3906 C373.3438,275.9375 372.9531,275.5469 372.4844,275.5469 C372.2656,275.5469 372.0625,275.625 371.875,275.8125 C371.4219,276.2969 371.4219,276.2969 371.2344,276.3906 C370.8125,276.6563 370.125,276.7813 369.3594,276.7813 C367.3125,276.7813 366.0156,275.6875 366.0156,273.9844 L366.0156,272.8906 C366.0156,271.1094 367.2656,269.7969 369,269.7969 C369.5781,269.7969 370.1875,269.9531 370.6563,270.2031 C371.1406,270.4844 371.3125,270.7031 371.4063,271.1094 C371.4688,271.5156 371.5,271.6406 371.6406,271.7656 C371.7813,271.9063 372.0156,272.0156 372.2344,272.0156 C372.5,272.0156 372.7656,271.875 372.9375,271.6563 C373.0469,271.5 373.0781,271.3125 373.0781,270.8906 L373.0781,269.4688 C373.0781,269.0313 373.0625,268.9063 372.9688,268.75 C372.8125,268.4844 372.5313,268.3438 372.2344,268.3438 C371.9375,268.3438 371.7344,268.4375 371.5156,268.75 L371.3438,268.6719 Z " fill="#000000"/><text fill="#000000" font-family="sans-serif" font-size="12" lengthAdjust="spacingAndGlyphs" textLength="36" x="383" y="277.1543">Result</text><line style="stroke:#A80036;stroke-width:1.5;" x1="355" x2="421" y1="289" y2="289"/><line style="stroke:#A80036;stroke-width:1.5;" x1="355" x2="421" y1="297" y2="297"/><!--MD5=[ddb7a5c41a7729d42626065dfa41bb3f]
reverse link mastermind.Combination to mastermind.SecretCombination--><path codeLine="2" d="M237,109.024 C237,122.579 237,137.038 237,148.678 " fill="none" id="mastermind.Combination-backto-mastermind.SecretCombination" style="stroke:#A80036;stroke-width:1.0;"/><polygon fill="none" points="230,109,237,89,244,109,230,109" style="stroke:#A80036;stroke-width:1.0;"/><!--MD5=[9a71e6c12a1f89feb4f5b4620eefffc4]
link mastermind.SecretCombination to mastermind.Message--><path codeLine="3" d="M202.065,197 C176.519,213.819 141.845,236.649 115.327,254.1075 " fill="none" id="mastermind.SecretCombination-to-mastermind.Message" style="stroke:#A80036;stroke-width:1.0;stroke-dasharray:7.0,7.0;"/><polygon fill="#A80036" points="111.144,256.8617,120.8605,255.2527,115.3199,254.1118,116.4608,248.5712,111.144,256.8617" style="stroke:#A80036;stroke-width:1.0;"/><!--MD5=[fa48c5b6d6848e99b414bcde1541f218]
link mastermind.SecretCombination to mastermind.ProposedCombination--><path codeLine="4" d="M237,197 C237,213.003 237,234.446 237,251.528 " fill="none" id="mastermind.SecretCombination-to-mastermind.ProposedCombination" style="stroke:#A80036;stroke-width:1.0;stroke-dasharray:7.0,7.0;"/><polygon fill="#A80036" points="237,256.6784,241,247.6784,237,251.6784,233,247.6784,237,256.6784" style="stroke:#A80036;stroke-width:1.0;"/><!--MD5=[e43ef47bf4ef687346198dd98e194798]
link mastermind.SecretCombination to mastermind.Result--><path codeLine="5" d="M269.765,197 C293.625,213.75 325.977,236.461 350.808,253.8917 " fill="none" id="mastermind.SecretCombination-to-mastermind.Result" style="stroke:#A80036;stroke-width:1.0;stroke-dasharray:7.0,7.0;"/><polygon fill="#A80036" points="355.039,256.8617,349.971,248.4168,350.9467,253.9889,345.3746,254.9645,355.039,256.8617" style="stroke:#A80036;stroke-width:1.0;"/><!--MD5=[7d9cd489f7671149169cb5c275d4045e]
@startuml
class mastermind.SecretCombination
mastermind.Combination <|- - mastermind.SecretCombination
mastermind.SecretCombination ..> mastermind.Message
mastermind.SecretCombination ..> mastermind.ProposedCombination
mastermind.SecretCombination ..> mastermind.Result
@enduml

PlantUML version 1.2020.21beta7(Unknown compile time)
(GPL source distribution)
Java Runtime: Java(TM) SE Runtime Environment
JVM: Java HotSpot(TM) 64-Bit Server VM
Default Encoding: UTF-8
Language: en
Country: US
--></g></svg>