<?xml version="1.0" encoding="UTF-8" standalone="no"?>
<svg xmlns="http://www.w3.org/2000/svg" contentScriptType="application/ecmascript" contentStyleType="text/css"
     height="544px" preserveAspectRatio="none" style="width:458px;height:544px;" version="1.1" viewBox="0 0 458 544"
     width="458px" zoomAndPan="magnify"><defs><filter height="300%" id="f1lct0y9etlxtq" width="300%" x="-1" y="-1"><feGaussianBlur result="blurOut" stdDeviation="2.0"/><feColorMatrix in="blurOut" result="blurOut2" type="matrix" values="0 0 0 0 0 0 0 0 0 0 0 0 0 0 0 0 0 0 .4 0"/><feOffset dx="4.0" dy="4.0" in="blurOut2" result="blurOut3"/><feBlend in="SourceGraphic" in2="blurOut3" mode="normal"/></filter></defs><g><!--MD5=[b56d8ef9af079015670ad96965866810]
cluster mastermind--><polygon fill="#FFFFFF" filter="url(#f1lct0y9etlxtq)" points="16,6,120,6,127,28.2969,441,28.2969,441,537,16,537,16,6" style="stroke:#000000;stroke-width:1.5;"/><line style="stroke:#000000;stroke-width:1.5;" x1="16" x2="127" y1="28.2969" y2="28.2969"/><text fill="#000000" font-family="sans-serif" font-size="14" font-weight="bold" lengthAdjust="spacingAndGlyphs" textLength="98" x="20" y="20.9951">mastermind</text><!--MD5=[3690083fa3c0b91189e580515c0d9fca]
class mastermind.Mastermind--><rect codeLine="1" fill="#FEFECE" filter="url(#f1lct0y9etlxtq)" height="48" id="mastermind.Mastermind" style="stroke:#A80036;stroke-width:1.5;" width="102" x="44" y="149"/><ellipse cx="59" cy="165" fill="#ADD1B2" rx="11" ry="11" style="stroke:#A80036;stroke-width:1.0;"/><path d="M61.3438,160.6719 C60.4063,160.2344 59.8125,160.0938 58.9375,160.0938 C56.3125,160.0938 54.3125,162.1719 54.3125,164.8906 L54.3125,166.0156 C54.3125,168.5938 56.4219,170.4844 59.3125,170.4844 C60.5313,170.4844 61.6875,170.1875 62.4375,169.6406 C63.0156,169.2344 63.3438,168.7813 63.3438,168.3906 C63.3438,167.9375 62.9531,167.5469 62.4844,167.5469 C62.2656,167.5469 62.0625,167.625 61.875,167.8125 C61.4219,168.2969 61.4219,168.2969 61.2344,168.3906 C60.8125,168.6563 60.125,168.7813 59.3594,168.7813 C57.3125,168.7813 56.0156,167.6875 56.0156,165.9844 L56.0156,164.8906 C56.0156,163.1094 57.2656,161.7969 59,161.7969 C59.5781,161.7969 60.1875,161.9531 60.6563,162.2031 C61.1406,162.4844 61.3125,162.7031 61.4063,163.1094 C61.4688,163.5156 61.5,163.6406 61.6406,163.7656 C61.7813,163.9063 62.0156,164.0156 62.2344,164.0156 C62.5,164.0156 62.7656,163.875 62.9375,163.6563 C63.0469,163.5 63.0781,163.3125 63.0781,162.8906 L63.0781,161.4688 C63.0781,161.0313 63.0625,160.9063 62.9688,160.75 C62.8125,160.4844 62.5313,160.3438 62.2344,160.3438 C61.9375,160.3438 61.7344,160.4375 61.5156,160.75 L61.3438,160.6719 Z " fill="#000000"/><text fill="#000000" font-family="sans-serif" font-size="12" lengthAdjust="spacingAndGlyphs" textLength="70" x="73" y="169.1543">Mastermind</text><line style="stroke:#A80036;stroke-width:1.5;" x1="45" x2="145" y1="181" y2="181"/><line style="stroke:#A80036;stroke-width:1.5;" x1="45" x2="145" y1="189" y2="189"/><!--MD5=[df4d90f1e1f0c9b019e0822a7a4655d0]
class mastermind.WithConsoleModel--><rect codeLine="2" fill="#FEFECE" filter="url(#f1lct0y9etlxtq)" height="48" id="mastermind.WithConsoleModel" style="stroke:#A80036;stroke-width:1.5;" width="144" x="91" y="41"/><ellipse cx="106" cy="57" fill="#ADD1B2" rx="11" ry="11" style="stroke:#A80036;stroke-width:1.0;"/><path d="M108.3438,52.6719 C107.4063,52.2344 106.8125,52.0938 105.9375,52.0938 C103.3125,52.0938 101.3125,54.1719 101.3125,56.8906 L101.3125,58.0156 C101.3125,60.5938 103.4219,62.4844 106.3125,62.4844 C107.5313,62.4844 108.6875,62.1875 109.4375,61.6406 C110.0156,61.2344 110.3438,60.7813 110.3438,60.3906 C110.3438,59.9375 109.9531,59.5469 109.4844,59.5469 C109.2656,59.5469 109.0625,59.625 108.875,59.8125 C108.4219,60.2969 108.4219,60.2969 108.2344,60.3906 C107.8125,60.6563 107.125,60.7813 106.3594,60.7813 C104.3125,60.7813 103.0156,59.6875 103.0156,57.9844 L103.0156,56.8906 C103.0156,55.1094 104.2656,53.7969 106,53.7969 C106.5781,53.7969 107.1875,53.9531 107.6563,54.2031 C108.1406,54.4844 108.3125,54.7031 108.4063,55.1094 C108.4688,55.5156 108.5,55.6406 108.6406,55.7656 C108.7813,55.9063 109.0156,56.0156 109.2344,56.0156 C109.5,56.0156 109.7656,55.875 109.9375,55.6563 C110.0469,55.5 110.0781,55.3125 110.0781,54.8906 L110.0781,53.4688 C110.0781,53.0313 110.0625,52.9063 109.9688,52.75 C109.8125,52.4844 109.5313,52.3438 109.2344,52.3438 C108.9375,52.3438 108.7344,52.4375 108.5156,52.75 L108.3438,52.6719 Z " fill="#000000"/><text fill="#000000" font-family="sans-serif" font-size="12" lengthAdjust="spacingAndGlyphs" textLength="112" x="120" y="61.1543">WithConsoleModel</text><line style="stroke:#A80036;stroke-width:1.5;" x1="92" x2="234" y1="73" y2="73"/><line style="stroke:#A80036;stroke-width:1.5;" x1="92" x2="234" y1="81" y2="81"/><!--MD5=[e8e089a81bce7c77159245837d4cb7da]
class mastermind.SecretCombination--><rect codeLine="3" fill="#FEFECE" filter="url(#f1lct0y9etlxtq)" height="48" id="mastermind.SecretCombination" style="stroke:#A80036;stroke-width:1.5;" width="146" x="143" y="257"/><ellipse cx="158" cy="273" fill="#ADD1B2" rx="11" ry="11" style="stroke:#A80036;stroke-width:1.0;"/><path d="M160.3438,268.6719 C159.4063,268.2344 158.8125,268.0938 157.9375,268.0938 C155.3125,268.0938 153.3125,270.1719 153.3125,272.8906 L153.3125,274.0156 C153.3125,276.5938 155.4219,278.4844 158.3125,278.4844 C159.5313,278.4844 160.6875,278.1875 161.4375,277.6406 C162.0156,277.2344 162.3438,276.7813 162.3438,276.3906 C162.3438,275.9375 161.9531,275.5469 161.4844,275.5469 C161.2656,275.5469 161.0625,275.625 160.875,275.8125 C160.4219,276.2969 160.4219,276.2969 160.2344,276.3906 C159.8125,276.6563 159.125,276.7813 158.3594,276.7813 C156.3125,276.7813 155.0156,275.6875 155.0156,273.9844 L155.0156,272.8906 C155.0156,271.1094 156.2656,269.7969 158,269.7969 C158.5781,269.7969 159.1875,269.9531 159.6563,270.2031 C160.1406,270.4844 160.3125,270.7031 160.4063,271.1094 C160.4688,271.5156 160.5,271.6406 160.6406,271.7656 C160.7813,271.9063 161.0156,272.0156 161.2344,272.0156 C161.5,272.0156 161.7656,271.875 161.9375,271.6563 C162.0469,271.5 162.0781,271.3125 162.0781,270.8906 L162.0781,269.4688 C162.0781,269.0313 162.0625,268.9063 161.9688,268.75 C161.8125,268.4844 161.5313,268.3438 161.2344,268.3438 C160.9375,268.3438 160.7344,268.4375 160.5156,268.75 L160.3438,268.6719 Z " fill="#000000"/><text fill="#000000" font-family="sans-serif" font-size="12" lengthAdjust="spacingAndGlyphs" textLength="114" x="172" y="277.1543">SecretCombination</text><line style="stroke:#A80036;stroke-width:1.5;" x1="144" x2="288" y1="289" y2="289"/><line style="stroke:#A80036;stroke-width:1.5;" x1="144" x2="288" y1="297" y2="297"/><!--MD5=[48a3007a8410194d9f1aaf02c9e3babc]
class mastermind.ProposedCombination--><rect codeLine="4" fill="#FEFECE" filter="url(#f1lct0y9etlxtq)" height="48" id="mastermind.ProposedCombination" style="stroke:#A80036;stroke-width:1.5;" width="164" x="209" y="365"/><ellipse cx="224" cy="381" fill="#ADD1B2" rx="11" ry="11" style="stroke:#A80036;stroke-width:1.0;"/><path d="M226.3438,376.6719 C225.4063,376.2344 224.8125,376.0938 223.9375,376.0938 C221.3125,376.0938 219.3125,378.1719 219.3125,380.8906 L219.3125,382.0156 C219.3125,384.5938 221.4219,386.4844 224.3125,386.4844 C225.5313,386.4844 226.6875,386.1875 227.4375,385.6406 C228.0156,385.2344 228.3438,384.7813 228.3438,384.3906 C228.3438,383.9375 227.9531,383.5469 227.4844,383.5469 C227.2656,383.5469 227.0625,383.625 226.875,383.8125 C226.4219,384.2969 226.4219,384.2969 226.2344,384.3906 C225.8125,384.6563 225.125,384.7813 224.3594,384.7813 C222.3125,384.7813 221.0156,383.6875 221.0156,381.9844 L221.0156,380.8906 C221.0156,379.1094 222.2656,377.7969 224,377.7969 C224.5781,377.7969 225.1875,377.9531 225.6563,378.2031 C226.1406,378.4844 226.3125,378.7031 226.4063,379.1094 C226.4688,379.5156 226.5,379.6406 226.6406,379.7656 C226.7813,379.9063 227.0156,380.0156 227.2344,380.0156 C227.5,380.0156 227.7656,379.875 227.9375,379.6563 C228.0469,379.5 228.0781,379.3125 228.0781,378.8906 L228.0781,377.4688 C228.0781,377.0313 228.0625,376.9063 227.9688,376.75 C227.8125,376.4844 227.5313,376.3438 227.2344,376.3438 C226.9375,376.3438 226.7344,376.4375 226.5156,376.75 L226.3438,376.6719 Z " fill="#000000"/><text fill="#000000" font-family="sans-serif" font-size="12" lengthAdjust="spacingAndGlyphs" textLength="132" x="238" y="385.1543">ProposedCombination</text><line style="stroke:#A80036;stroke-width:1.5;" x1="210" x2="372" y1="397" y2="397"/><line style="stroke:#A80036;stroke-width:1.5;" x1="210" x2="372" y1="405" y2="405"/><!--MD5=[215a6a2d871dc8a709ee73713ca6578d]
class mastermind.Result--><rect codeLine="5" fill="#FEFECE" filter="url(#f1lct0y9etlxtq)" height="48" id="mastermind.Result" style="stroke:#A80036;stroke-width:1.5;" width="68" x="69" y="365"/><ellipse cx="84" cy="381" fill="#ADD1B2" rx="11" ry="11" style="stroke:#A80036;stroke-width:1.0;"/><path d="M86.3438,376.6719 C85.4063,376.2344 84.8125,376.0938 83.9375,376.0938 C81.3125,376.0938 79.3125,378.1719 79.3125,380.8906 L79.3125,382.0156 C79.3125,384.5938 81.4219,386.4844 84.3125,386.4844 C85.5313,386.4844 86.6875,386.1875 87.4375,385.6406 C88.0156,385.2344 88.3438,384.7813 88.3438,384.3906 C88.3438,383.9375 87.9531,383.5469 87.4844,383.5469 C87.2656,383.5469 87.0625,383.625 86.875,383.8125 C86.4219,384.2969 86.4219,384.2969 86.2344,384.3906 C85.8125,384.6563 85.125,384.7813 84.3594,384.7813 C82.3125,384.7813 81.0156,383.6875 81.0156,381.9844 L81.0156,380.8906 C81.0156,379.1094 82.2656,377.7969 84,377.7969 C84.5781,377.7969 85.1875,377.9531 85.6563,378.2031 C86.1406,378.4844 86.3125,378.7031 86.4063,379.1094 C86.4688,379.5156 86.5,379.6406 86.6406,379.7656 C86.7813,379.9063 87.0156,380.0156 87.2344,380.0156 C87.5,380.0156 87.7656,379.875 87.9375,379.6563 C88.0469,379.5 88.0781,379.3125 88.0781,378.8906 L88.0781,377.4688 C88.0781,377.0313 88.0625,376.9063 87.9688,376.75 C87.8125,376.4844 87.5313,376.3438 87.2344,376.3438 C86.9375,376.3438 86.7344,376.4375 86.5156,376.75 L86.3438,376.6719 Z " fill="#000000"/><text fill="#000000" font-family="sans-serif" font-size="12" lengthAdjust="spacingAndGlyphs" textLength="36" x="98" y="385.1543">Result</text><line style="stroke:#A80036;stroke-width:1.5;" x1="70" x2="136" y1="397" y2="397"/><line style="stroke:#A80036;stroke-width:1.5;" x1="70" x2="136" y1="405" y2="405"/><!--MD5=[26303ba9f5ce9cad8aaa4fd967f9f4f3]
class mastermind.Message--><rect codeLine="6" fill="#FEFECE" filter="url(#f1lct0y9etlxtq)" height="48" id="mastermind.Message" style="stroke:#A80036;stroke-width:1.5;" width="87" x="129.5" y="473"/><ellipse cx="144.5" cy="489" fill="#ADD1B2" rx="11" ry="11" style="stroke:#A80036;stroke-width:1.0;"/><path d="M146.8438,484.6719 C145.9063,484.2344 145.3125,484.0938 144.4375,484.0938 C141.8125,484.0938 139.8125,486.1719 139.8125,488.8906 L139.8125,490.0156 C139.8125,492.5938 141.9219,494.4844 144.8125,494.4844 C146.0313,494.4844 147.1875,494.1875 147.9375,493.6406 C148.5156,493.2344 148.8438,492.7813 148.8438,492.3906 C148.8438,491.9375 148.4531,491.5469 147.9844,491.5469 C147.7656,491.5469 147.5625,491.625 147.375,491.8125 C146.9219,492.2969 146.9219,492.2969 146.7344,492.3906 C146.3125,492.6563 145.625,492.7813 144.8594,492.7813 C142.8125,492.7813 141.5156,491.6875 141.5156,489.9844 L141.5156,488.8906 C141.5156,487.1094 142.7656,485.7969 144.5,485.7969 C145.0781,485.7969 145.6875,485.9531 146.1563,486.2031 C146.6406,486.4844 146.8125,486.7031 146.9063,487.1094 C146.9688,487.5156 147,487.6406 147.1406,487.7656 C147.2813,487.9063 147.5156,488.0156 147.7344,488.0156 C148,488.0156 148.2656,487.875 148.4375,487.6563 C148.5469,487.5 148.5781,487.3125 148.5781,486.8906 L148.5781,485.4688 C148.5781,485.0313 148.5625,484.9063 148.4688,484.75 C148.3125,484.4844 148.0313,484.3438 147.7344,484.3438 C147.4375,484.3438 147.2344,484.4375 147.0156,484.75 L146.8438,484.6719 Z " fill="#000000"/><text fill="#000000" font-family="sans-serif" font-size="12" lengthAdjust="spacingAndGlyphs" textLength="55" x="158.5" y="493.1543">Message</text><line style="stroke:#A80036;stroke-width:1.5;" x1="130.5" x2="215.5" y1="505" y2="505"/><line style="stroke:#A80036;stroke-width:1.5;" x1="130.5" x2="215.5" y1="513" y2="513"/><!--MD5=[84816f97e2a98b46b4b3f115aab02d26]
class mastermind.Combination--><rect codeLine="7" fill="#FEFECE" filter="url(#f1lct0y9etlxtq)" height="48" id="mastermind.Combination" style="stroke:#A80036;stroke-width:1.5;" width="106" x="181" y="149"/><ellipse cx="196" cy="165" fill="#ADD1B2" rx="11" ry="11" style="stroke:#A80036;stroke-width:1.0;"/><path d="M198.3438,160.6719 C197.4063,160.2344 196.8125,160.0938 195.9375,160.0938 C193.3125,160.0938 191.3125,162.1719 191.3125,164.8906 L191.3125,166.0156 C191.3125,168.5938 193.4219,170.4844 196.3125,170.4844 C197.5313,170.4844 198.6875,170.1875 199.4375,169.6406 C200.0156,169.2344 200.3438,168.7813 200.3438,168.3906 C200.3438,167.9375 199.9531,167.5469 199.4844,167.5469 C199.2656,167.5469 199.0625,167.625 198.875,167.8125 C198.4219,168.2969 198.4219,168.2969 198.2344,168.3906 C197.8125,168.6563 197.125,168.7813 196.3594,168.7813 C194.3125,168.7813 193.0156,167.6875 193.0156,165.9844 L193.0156,164.8906 C193.0156,163.1094 194.2656,161.7969 196,161.7969 C196.5781,161.7969 197.1875,161.9531 197.6563,162.2031 C198.1406,162.4844 198.3125,162.7031 198.4063,163.1094 C198.4688,163.5156 198.5,163.6406 198.6406,163.7656 C198.7813,163.9063 199.0156,164.0156 199.2344,164.0156 C199.5,164.0156 199.7656,163.875 199.9375,163.6563 C200.0469,163.5 200.0781,163.3125 200.0781,162.8906 L200.0781,161.4688 C200.0781,161.0313 200.0625,160.9063 199.9688,160.75 C199.8125,160.4844 199.5313,160.3438 199.2344,160.3438 C198.9375,160.3438 198.7344,160.4375 198.5156,160.75 L198.3438,160.6719 Z " fill="#000000"/><text fill="#000000" font-family="sans-serif" font-size="12" lengthAdjust="spacingAndGlyphs" textLength="74" x="210" y="169.1543">Combination</text><line style="stroke:#A80036;stroke-width:1.5;" x1="182" x2="286" y1="181" y2="181"/><line style="stroke:#A80036;stroke-width:1.5;" x1="182" x2="286" y1="189" y2="189"/><!--MD5=[f8bb7d474ba077fa1429fa5bdfcb52ab]
class mastermind.Color--><rect codeLine="8" fill="#FEFECE" filter="url(#f1lct0y9etlxtq)" height="48" id="mastermind.Color" style="stroke:#A80036;stroke-width:1.5;" width="64" x="361" y="257"/><ellipse cx="376" cy="273" fill="#ADD1B2" rx="11" ry="11" style="stroke:#A80036;stroke-width:1.0;"/><path d="M378.3438,268.6719 C377.4063,268.2344 376.8125,268.0938 375.9375,268.0938 C373.3125,268.0938 371.3125,270.1719 371.3125,272.8906 L371.3125,274.0156 C371.3125,276.5938 373.4219,278.4844 376.3125,278.4844 C377.5313,278.4844 378.6875,278.1875 379.4375,277.6406 C380.0156,277.2344 380.3438,276.7813 380.3438,276.3906 C380.3438,275.9375 379.9531,275.5469 379.4844,275.5469 C379.2656,275.5469 379.0625,275.625 378.875,275.8125 C378.4219,276.2969 378.4219,276.2969 378.2344,276.3906 C377.8125,276.6563 377.125,276.7813 376.3594,276.7813 C374.3125,276.7813 373.0156,275.6875 373.0156,273.9844 L373.0156,272.8906 C373.0156,271.1094 374.2656,269.7969 376,269.7969 C376.5781,269.7969 377.1875,269.9531 377.6563,270.2031 C378.1406,270.4844 378.3125,270.7031 378.4063,271.1094 C378.4688,271.5156 378.5,271.6406 378.6406,271.7656 C378.7813,271.9063 379.0156,272.0156 379.2344,272.0156 C379.5,272.0156 379.7656,271.875 379.9375,271.6563 C380.0469,271.5 380.0781,271.3125 380.0781,270.8906 L380.0781,269.4688 C380.0781,269.0313 380.0625,268.9063 379.9688,268.75 C379.8125,268.4844 379.5313,268.3438 379.2344,268.3438 C378.9375,268.3438 378.7344,268.4375 378.5156,268.75 L378.3438,268.6719 Z " fill="#000000"/><text fill="#000000" font-family="sans-serif" font-size="12" lengthAdjust="spacingAndGlyphs" textLength="32" x="390" y="277.1543">Color</text><line style="stroke:#A80036;stroke-width:1.5;" x1="362" x2="424" y1="289" y2="289"/><line style="stroke:#A80036;stroke-width:1.5;" x1="362" x2="424" y1="297" y2="297"/><!--MD5=[201df681dee8e2b859dbc89b0e8701d0]
class mastermind.Error--><rect codeLine="9" fill="#FEFECE" filter="url(#f1lct0y9etlxtq)" height="48" id="mastermind.Error" style="stroke:#A80036;stroke-width:1.5;" width="62" x="260" y="473"/><ellipse cx="275" cy="489" fill="#ADD1B2" rx="11" ry="11" style="stroke:#A80036;stroke-width:1.0;"/><path d="M277.3438,484.6719 C276.4063,484.2344 275.8125,484.0938 274.9375,484.0938 C272.3125,484.0938 270.3125,486.1719 270.3125,488.8906 L270.3125,490.0156 C270.3125,492.5938 272.4219,494.4844 275.3125,494.4844 C276.5313,494.4844 277.6875,494.1875 278.4375,493.6406 C279.0156,493.2344 279.3438,492.7813 279.3438,492.3906 C279.3438,491.9375 278.9531,491.5469 278.4844,491.5469 C278.2656,491.5469 278.0625,491.625 277.875,491.8125 C277.4219,492.2969 277.4219,492.2969 277.2344,492.3906 C276.8125,492.6563 276.125,492.7813 275.3594,492.7813 C273.3125,492.7813 272.0156,491.6875 272.0156,489.9844 L272.0156,488.8906 C272.0156,487.1094 273.2656,485.7969 275,485.7969 C275.5781,485.7969 276.1875,485.9531 276.6563,486.2031 C277.1406,486.4844 277.3125,486.7031 277.4063,487.1094 C277.4688,487.5156 277.5,487.6406 277.6406,487.7656 C277.7813,487.9063 278.0156,488.0156 278.2344,488.0156 C278.5,488.0156 278.7656,487.875 278.9375,487.6563 C279.0469,487.5 279.0781,487.3125 279.0781,486.8906 L279.0781,485.4688 C279.0781,485.0313 279.0625,484.9063 278.9688,484.75 C278.8125,484.4844 278.5313,484.3438 278.2344,484.3438 C277.9375,484.3438 277.7344,484.4375 277.5156,484.75 L277.3438,484.6719 Z " fill="#000000"/><text fill="#000000" font-family="sans-serif" font-size="12" lengthAdjust="spacingAndGlyphs" textLength="30" x="289" y="493.1543">Error</text><line style="stroke:#A80036;stroke-width:1.5;" x1="261" x2="321" y1="505" y2="505"/><line style="stroke:#A80036;stroke-width:1.5;" x1="261" x2="321" y1="513" y2="513"/><!--MD5=[25c1ef4603869955f3baf1144d4c6e0e]
reverse link mastermind.WithConsoleModel to mastermind.Mastermind--><path codeLine="10" d="M137.254,106.134 C128.038,120.499 117.962,136.207 109.961,148.678 " fill="none" id="mastermind.WithConsoleModel-backto-mastermind.Mastermind" style="stroke:#A80036;stroke-width:1.0;"/><polygon fill="none" points="131.554,102.055,148.245,89,143.338,109.614,131.554,102.055" style="stroke:#A80036;stroke-width:1.0;"/><!--MD5=[2f6b7e5fd4c44e180613c6b75bc36dec]
link mastermind.Mastermind to mastermind.SecretCombination--><path codeLine="11" d="M130.2816,204.907 C130.2816,204.907 164.024,234.467 179.267,247.821 " fill="none" id="mastermind.Mastermind-mastermind.SecretCombination" style="stroke:#A80036;stroke-width:1.0;"/><polygon fill="#A80036" points="189.378,256.678,185.2445,247.7385,185.6172,253.3831,179.9726,253.7558,189.378,256.678" style="stroke:#A80036;stroke-width:1.0;"/><line style="stroke:#A80036;stroke-width:1.0;" x1="185.6172" x2="179.5995" y1="253.3831" y2="248.1125"/><polygon fill="#A80036" points="121.255,197,123.1326,203.9624,130.2816,204.907,128.404,197.9446,121.255,197" style="stroke:#A80036;stroke-width:1.0;"/><!--MD5=[c99e65334a2cfcc8bdafeaef6cff6963]
link mastermind.Mastermind to mastermind.ProposedCombination--><path codeLine="12" d="M95.1123,209.3488 C95.1123,209.3488 103.812,278.043 125,305 C144.079,329.274 172.132,347.005 199.768,359.69 " fill="none" id="mastermind.Mastermind-mastermind.ProposedCombination" style="stroke:#A80036;stroke-width:1.0;"/><polygon fill="#A80036" points="211.979,364.995,205.318,357.7403,207.393,363.0028,202.1305,365.0779,211.979,364.995" style="stroke:#A80036;stroke-width:1.0;"/><line style="stroke:#A80036;stroke-width:1.0;" x1="207.393" x2="200.056" y1="363.0028" y2="359.8145"/><polygon fill="#A80036" points="94.5716,197.361,90.846,203.5351,95.1123,209.3488,98.8379,203.1747,94.5716,197.361" style="stroke:#A80036;stroke-width:1.0;"/><!--MD5=[15065fbaca8d08904c43647bdd048cbc]
link mastermind.Mastermind to mastermind.Result--><path codeLine="13" d="M95.4523,209.1976 C95.4523,209.1976 96.6709,273.017 98,305 C98.6359,320.302 99.6035,337.177 100.519,351.692 " fill="none" id="mastermind.Mastermind-mastermind.Result" style="stroke:#A80036;stroke-width:1.0;"/><polygon fill="#A80036" points="101.367,364.757,104.7751,355.5166,101.0428,359.7675,96.7919,356.0353,101.367,364.757" style="stroke:#A80036;stroke-width:1.0;"/><line style="stroke:#A80036;stroke-width:1.0;" x1="101.0428" x2="100.5246" y1="359.7675" y2="351.784"/><polygon fill="#A80036" points="95.2703,197.199,91.3618,203.259,95.4523,209.1976,99.3608,203.1376,95.2703,197.199" style="stroke:#A80036;stroke-width:1.0;"/><!--MD5=[1108a78a5b4831c5d6c69138438b50de]
link mastermind.Mastermind to mastermind.Message--><path codeLine="14" d="M81.3979,197.223 C57.2638,241.735 12.9156,341.028 51,413 C66.5737,442.431 97.7838,463.373 124.737,476.8588 " fill="none" id="mastermind.Mastermind-to-mastermind.Message" style="stroke:#A80036;stroke-width:1.0;stroke-dasharray:7.0,7.0;"/><polygon fill="#A80036" points="129.368,479.1246,123.0412,471.5767,124.8766,476.9275,119.5258,478.7629,129.368,479.1246" style="stroke:#A80036;stroke-width:1.0;"/><!--MD5=[ddb7a5c41a7729d42626065dfa41bb3f]
reverse link mastermind.Combination to mastermind.SecretCombination--><path codeLine="15" d="M214.25,216.54 C211.332,230.235 209.426,244.9 209.186,256.678 " fill="none" id="mastermind.Combination-backto-mastermind.SecretCombination" style="stroke:#A80036;stroke-width:1.0;"/><polygon fill="none" points="207.528,214.574,219.368,197,221.071,218.122,207.528,214.574" style="stroke:#A80036;stroke-width:1.0;"/><!--MD5=[6d84acea16b5d0e4720ae45c7ad119ea]
link mastermind.Combination to mastermind.SecretCombination--><path codeLine="24" d="M240.7917,208.9819 C240.7917,208.9819 237.65,233.202 234.956,244.083 " fill="none" id="mastermind.Combination-mastermind.SecretCombination" style="stroke:#A80036;stroke-width:1.0;"/><polygon fill="#A80036" points="231.368,256.678,237.6805,249.1181,232.7378,251.8693,229.9866,246.9265,231.368,256.678" style="stroke:#A80036;stroke-width:1.0;"/><line style="stroke:#A80036;stroke-width:1.0;" x1="232.7378" x2="234.929" y1="251.8693" y2="244.1755"/><polygon fill="#A80036" points="241.451,197,237.1274,202.7712,240.7917,208.9819,245.1153,203.2107,241.451,197" style="stroke:#A80036;stroke-width:1.0;"/><!--MD5=[9a71e6c12a1f89feb4f5b4620eefffc4]
link mastermind.SecretCombination to mastermind.Message--><path codeLine="16" d="M208.016,305.001 C202.542,321.521 195.486,344.414 191,365 C183.393,399.907 178.383,440.785 175.623,467.4745 " fill="none" id="mastermind.SecretCombination-to-mastermind.Message" style="stroke:#A80036;stroke-width:1.0;stroke-dasharray:7.0,7.0;"/><polygon fill="#A80036" points="175.101,472.6172,179.9893,464.0671,175.6059,467.6428,172.0302,463.2593,175.101,472.6172" style="stroke:#A80036;stroke-width:1.0;"/><!--MD5=[fa48c5b6d6848e99b414bcde1541f218]
link mastermind.SecretCombination to mastermind.ProposedCombination--><path codeLine="17" d="M232.274,305 C243.792,321.279 259.293,343.187 271.477,360.408 " fill="none" id="mastermind.SecretCombination-to-mastermind.ProposedCombination" style="stroke:#A80036;stroke-width:1.0;stroke-dasharray:7.0,7.0;"/><polygon fill="#A80036" points="274.499,364.678,272.5648,355.0209,271.6105,360.5967,266.0348,359.6425,274.499,364.678" style="stroke:#A80036;stroke-width:1.0;"/><!--MD5=[e43ef47bf4ef687346198dd98e194798]
link mastermind.SecretCombination to mastermind.Result--><path codeLine="18" d="M191.481,305 C173.98,321.417 150.376,343.559 131.949,360.844 " fill="none" id="mastermind.SecretCombination-to-mastermind.Result" style="stroke:#A80036;stroke-width:1.0;stroke-dasharray:7.0,7.0;"/><polygon fill="#A80036" points="127.862,364.678,137.1625,361.4376,131.5086,361.2571,131.6891,355.6031,127.862,364.678" style="stroke:#A80036;stroke-width:1.0;"/><!--MD5=[dde5033a5b55a8eaeb8c1a43aaeec76c]
reverse link mastermind.Combination to mastermind.ProposedCombination--><path codeLine="19" d="M277.386,211.732 C289.313,224.738 300.692,240.278 307,257 C320.585,293.015 309.449,338.178 300.188,364.971 " fill="none" id="mastermind.Combination-backto-mastermind.ProposedCombination" style="stroke:#A80036;stroke-width:1.0;"/><polygon fill="none" points="272.064,216.309,262.871,197.217,281.963,206.41,272.064,216.309" style="stroke:#A80036;stroke-width:1.0;"/><!--MD5=[979338a77b8acaa3b180fe87b9e9c249]
link mastermind.ProposedCombination to mastermind.Message--><path codeLine="20" d="M265.396,413 C246.967,429.555 222.058,451.931 202.746,469.2791 " fill="none" id="mastermind.ProposedCombination-to-mastermind.Message" style="stroke:#A80036;stroke-width:1.0;stroke-dasharray:7.0,7.0;"/><polygon fill="#A80036" points="198.962,472.6784,208.3303,469.6395,202.6815,469.337,202.9841,463.6882,198.962,472.6784" style="stroke:#A80036;stroke-width:1.0;"/><!--MD5=[06a9165ec52b6cbacb84ae4cbda5ace8]
link mastermind.ProposedCombination to mastermind.Error--><path codeLine="21" d="M291,413 C291,429.003 291,450.446 291,467.528 " fill="none" id="mastermind.ProposedCombination-to-mastermind.Error" style="stroke:#A80036;stroke-width:1.0;stroke-dasharray:7.0,7.0;"/><polygon fill="#A80036" points="291,472.6784,295,463.6784,291,467.6784,287,463.6784,291,472.6784" style="stroke:#A80036;stroke-width:1.0;"/><!--MD5=[565f697bfaafd1479a880b17dc3b7c23]
reverse link mastermind.WithConsoleModel to mastermind.Combination--><path codeLine="22" d="M189.562,105.656 C199.27,120.15 209.932,136.068 218.379,148.678 " fill="none" id="mastermind.WithConsoleModel-backto-mastermind.Combination" style="stroke:#A80036;stroke-width:1.0;"/><polygon fill="none" points="183.72,109.513,178.406,89,195.352,101.722,183.72,109.513" style="stroke:#A80036;stroke-width:1.0;"/><!--MD5=[12a2be8cddababf9cc0715131deeffa3]
link mastermind.Combination to mastermind.Color--><path codeLine="23" d="M278.4852,203.657 C278.4852,203.657 328.059,236.706 349.822,251.215 " fill="none" id="mastermind.Combination-mastermind.Color" style="stroke:#A80036;stroke-width:1.0;"/><polygon fill="#A80036" points="360.734,258.489,355.4636,250.169,356.5735,255.7159,351.0266,256.8258,360.734,258.489" style="stroke:#A80036;stroke-width:1.0;"/><line style="stroke:#A80036;stroke-width:1.0;" x1="356.5735" x2="349.9175" y1="255.7159" y2="251.278"/><polygon fill="#A80036" points="268.501,197,271.2741,203.6566,278.4852,203.657,275.7121,197.0004,268.501,197" style="stroke:#A80036;stroke-width:1.0;"/><!--MD5=[29bb41d0fbb24ca0125e4cfb4f62f4e1]
@startuml
class mastermind.Mastermind
class mastermind.WithConsoleModel
class mastermind.SecretCombination
class mastermind.ProposedCombination
class mastermind.Result
class mastermind.Message
class mastermind.Combination
class mastermind.Color
class mastermind.Error
mastermind.WithConsoleModel <|- - mastermind.Mastermind
mastermind.Mastermind *- -> mastermind.SecretCombination
mastermind.Mastermind *- -> mastermind.ProposedCombination
mastermind.Mastermind *- -> mastermind.Result
mastermind.Mastermind ..> mastermind.Message
mastermind.Combination <|- - mastermind.SecretCombination
mastermind.SecretCombination ..> mastermind.Message
mastermind.SecretCombination ..> mastermind.ProposedCombination
mastermind.SecretCombination ..> mastermind.Result
mastermind.Combination <|- - mastermind.ProposedCombination
mastermind.ProposedCombination ..> mastermind.Message
mastermind.ProposedCombination ..> mastermind.Error
mastermind.WithConsoleModel <|- - mastermind.Combination
mastermind.Combination *- -> mastermind.Color
mastermind.Combination *- -> mastermind.SecretCombination
@enduml

PlantUML version 1.2020.21beta7(Unknown compile time)
(GPL source distribution)
Java Runtime: Java(TM) SE Runtime Environment
JVM: Java HotSpot(TM) 64-Bit Server VM
Default Encoding: UTF-8
Language: en
Country: US
--></g></svg>