<?xml version="1.0" encoding="UTF-8" standalone="no"?>
<svg xmlns="http://www.w3.org/2000/svg" contentScriptType="application/ecmascript" contentStyleType="text/css"
     height="328px" preserveAspectRatio="none" style="width:2141px;height:328px;" version="1.1" viewBox="0 0 2141 328"
     width="2141px" zoomAndPan="magnify"><defs><filter height="300%" id="f1q7n9x6wj0q8x" width="300%" x="-1" y="-1"><feGaussianBlur result="blurOut" stdDeviation="2.0"/><feColorMatrix in="blurOut" result="blurOut2" type="matrix" values="0 0 0 0 0 0 0 0 0 0 0 0 0 0 0 0 0 0 .4 0"/><feOffset dx="4.0" dy="4.0" in="blurOut2" result="blurOut3"/><feBlend in="SourceGraphic" in2="blurOut3" mode="normal"/></filter></defs><g><!--MD5=[bd10de1dd7089c6e49473cf9d698424f]
cluster efferent X--><polygon fill="#FFFFFF" filter="url(#f1q7n9x6wj0q8x)" points="16,6,104,6,111,28.2969,451,28.2969,451,321,16,321,16,6" style="stroke:#000000;stroke-width:1.5;"/><line style="stroke:#000000;stroke-width:1.5;" x1="16" x2="111" y1="28.2969" y2="28.2969"/><text fill="#000000" font-family="sans-serif" font-size="14" font-weight="bold" lengthAdjust="spacingAndGlyphs" textLength="82" x="20" y="20.9951">efferent X</text><!--MD5=[228e106fe8ac5d598cccae6a7705cc79]
cluster efferent Base_de_X--><polygon fill="#FFFFFF" filter="url(#f1q7n9x6wj0q8x)" points="475,6,635,6,642,28.2969,645,28.2969,645,105,475,105,475,6" style="stroke:#000000;stroke-width:1.5;"/><line style="stroke:#000000;stroke-width:1.5;" x1="475" x2="642" y1="28.2969" y2="28.2969"/><text fill="#000000" font-family="sans-serif" font-size="14" font-weight="bold" lengthAdjust="spacingAndGlyphs" textLength="154" x="479" y="20.9951">efferent Base_de_X</text><!--MD5=[a9cbefb772d3e0657ca2851ef36a7433]
cluster efferent Parte_de_X--><polygon fill="#FFFFFF" filter="url(#f1q7n9x6wj0q8x)" points="669,6,834,6,841,28.2969,844,28.2969,844,105,669,105,669,6" style="stroke:#000000;stroke-width:1.5;"/><line style="stroke:#000000;stroke-width:1.5;" x1="669" x2="841" y1="28.2969" y2="28.2969"/><text fill="#000000" font-family="sans-serif" font-size="14" font-weight="bold" lengthAdjust="spacingAndGlyphs" textLength="159" x="673" y="20.9951">efferent Parte_de_X</text><!--MD5=[e7ab43a0d764c9dff349cf6728e7e4e8]
cluster efferent Asociada_de_X--><polygon fill="#FFFFFF" filter="url(#f1q7n9x6wj0q8x)" points="868,6,1063,6,1070,28.2969,1073,28.2969,1073,105,868,105,868,6" style="stroke:#000000;stroke-width:1.5;"/><line style="stroke:#000000;stroke-width:1.5;" x1="868" x2="1070" y1="28.2969" y2="28.2969"/><text fill="#000000" font-family="sans-serif" font-size="14" font-weight="bold" lengthAdjust="spacingAndGlyphs" textLength="189" x="872" y="20.9951">efferent Asociada_de_X</text><!--MD5=[db363e20a39870b41e72b908b94aa633]
cluster efferent Usada_por_X--><polygon fill="#FFFFFF" filter="url(#f1q7n9x6wj0q8x)" points="1097,6,1276,6,1283,28.2969,1286,28.2969,1286,105,1097,105,1097,6" style="stroke:#000000;stroke-width:1.5;"/><line style="stroke:#000000;stroke-width:1.5;" x1="1097" x2="1283" y1="28.2969" y2="28.2969"/><text fill="#000000" font-family="sans-serif" font-size="14" font-weight="bold" lengthAdjust="spacingAndGlyphs" textLength="173" x="1101" y="20.9951">efferent Usada_por_X</text><!--MD5=[929bdc00888cbecdcdf2e441e7cc871f]
cluster efferent Todo_de_X--><polygon fill="#FFFFFF" filter="url(#f1q7n9x6wj0q8x)" points="1310,6,1472,6,1479,28.2969,1482,28.2969,1482,213,1310,213,1310,6" style="stroke:#000000;stroke-width:1.5;"/><line style="stroke:#000000;stroke-width:1.5;" x1="1310" x2="1479" y1="28.2969" y2="28.2969"/><text fill="#000000" font-family="sans-serif" font-size="14" font-weight="bold" lengthAdjust="spacingAndGlyphs" textLength="156" x="1314" y="20.9951">efferent Todo_de_X</text><!--MD5=[ba88ee94dadf6ed284a4f09b51f72987]
cluster efferent Usa_X--><polygon fill="#FFFFFF" filter="url(#f1q7n9x6wj0q8x)" points="1506,6,1631,6,1638,28.2969,1641,28.2969,1641,213,1506,213,1506,6" style="stroke:#000000;stroke-width:1.5;"/><line style="stroke:#000000;stroke-width:1.5;" x1="1506" x2="1638" y1="28.2969" y2="28.2969"/><text fill="#000000" font-family="sans-serif" font-size="14" font-weight="bold" lengthAdjust="spacingAndGlyphs" textLength="119" x="1510" y="20.9951">efferent Usa_X</text><!--MD5=[3870d8037054e9fc2622f5903ecf35d6]
cluster efferent Asociado_a_X--><polygon fill="#FFFFFF" filter="url(#f1q7n9x6wj0q8x)" points="1665,6,1851,6,1858,28.2969,1861,28.2969,1861,213,1665,213,1665,6" style="stroke:#000000;stroke-width:1.5;"/><line style="stroke:#000000;stroke-width:1.5;" x1="1665" x2="1858" y1="28.2969" y2="28.2969"/><text fill="#000000" font-family="sans-serif" font-size="14" font-weight="bold" lengthAdjust="spacingAndGlyphs" textLength="180" x="1669" y="20.9951">efferent Asociado_a_X</text><!--MD5=[5029496fa576bc4479686689c60a725b]
cluster efferent Descendiente_de_X--><polygon fill="#FFFFFF" filter="url(#f1q7n9x6wj0q8x)" points="1885,6,2114,6,2121,28.2969,2124,28.2969,2124,213,1885,213,1885,6" style="stroke:#000000;stroke-width:1.5;"/><line style="stroke:#000000;stroke-width:1.5;" x1="1885" x2="2121" y1="28.2969" y2="28.2969"/><text fill="#000000" font-family="sans-serif" font-size="14" font-weight="bold" lengthAdjust="spacingAndGlyphs" textLength="223" x="1889" y="20.9951">efferent Descendiente_de_X</text><!--MD5=[fc97964e1d9cc521f1680241c35ef8e8]
class efferent X.X--><rect codeLine="1" fill="#FEFECE" filter="url(#f1q7n9x6wj0q8x)" height="48" id="efferent X.X" style="stroke:#A80036;stroke-width:1.5;" width="40" x="207" y="149"/><ellipse cx="222" cy="165" fill="#ADD1B2" rx="11" ry="11" style="stroke:#A80036;stroke-width:1.0;"/><path d="M224.3438,160.6719 C223.4063,160.2344 222.8125,160.0938 221.9375,160.0938 C219.3125,160.0938 217.3125,162.1719 217.3125,164.8906 L217.3125,166.0156 C217.3125,168.5938 219.4219,170.4844 222.3125,170.4844 C223.5313,170.4844 224.6875,170.1875 225.4375,169.6406 C226.0156,169.2344 226.3438,168.7813 226.3438,168.3906 C226.3438,167.9375 225.9531,167.5469 225.4844,167.5469 C225.2656,167.5469 225.0625,167.625 224.875,167.8125 C224.4219,168.2969 224.4219,168.2969 224.2344,168.3906 C223.8125,168.6563 223.125,168.7813 222.3594,168.7813 C220.3125,168.7813 219.0156,167.6875 219.0156,165.9844 L219.0156,164.8906 C219.0156,163.1094 220.2656,161.7969 222,161.7969 C222.5781,161.7969 223.1875,161.9531 223.6563,162.2031 C224.1406,162.4844 224.3125,162.7031 224.4063,163.1094 C224.4688,163.5156 224.5,163.6406 224.6406,163.7656 C224.7813,163.9063 225.0156,164.0156 225.2344,164.0156 C225.5,164.0156 225.7656,163.875 225.9375,163.6563 C226.0469,163.5 226.0781,163.3125 226.0781,162.8906 L226.0781,161.4688 C226.0781,161.0313 226.0625,160.9063 225.9688,160.75 C225.8125,160.4844 225.5313,160.3438 225.2344,160.3438 C224.9375,160.3438 224.7344,160.4375 224.5156,160.75 L224.3438,160.6719 Z " fill="#000000"/><text fill="#000000" font-family="sans-serif" font-size="12" lengthAdjust="spacingAndGlyphs" textLength="8" x="236" y="169.1543">X</text><line style="stroke:#A80036;stroke-width:1.5;" x1="208" x2="246" y1="181" y2="181"/><line style="stroke:#A80036;stroke-width:1.5;" x1="208" x2="246" y1="189" y2="189"/><!--MD5=[57b9c8eee76ce780979dbbdaa28ad23a]
class efferent X.Base_de_X--><rect fill="#FEFECE" filter="url(#f1q7n9x6wj0q8x)" height="48" id="efferent X.Base_de_X" style="stroke:#A80036;stroke-width:1.5;" width="98" x="178" y="41"/><ellipse cx="193" cy="57" fill="#ADD1B2" rx="11" ry="11" style="stroke:#A80036;stroke-width:1.0;"/><path d="M195.3438,52.6719 C194.4063,52.2344 193.8125,52.0938 192.9375,52.0938 C190.3125,52.0938 188.3125,54.1719 188.3125,56.8906 L188.3125,58.0156 C188.3125,60.5938 190.4219,62.4844 193.3125,62.4844 C194.5313,62.4844 195.6875,62.1875 196.4375,61.6406 C197.0156,61.2344 197.3438,60.7813 197.3438,60.3906 C197.3438,59.9375 196.9531,59.5469 196.4844,59.5469 C196.2656,59.5469 196.0625,59.625 195.875,59.8125 C195.4219,60.2969 195.4219,60.2969 195.2344,60.3906 C194.8125,60.6563 194.125,60.7813 193.3594,60.7813 C191.3125,60.7813 190.0156,59.6875 190.0156,57.9844 L190.0156,56.8906 C190.0156,55.1094 191.2656,53.7969 193,53.7969 C193.5781,53.7969 194.1875,53.9531 194.6563,54.2031 C195.1406,54.4844 195.3125,54.7031 195.4063,55.1094 C195.4688,55.5156 195.5,55.6406 195.6406,55.7656 C195.7813,55.9063 196.0156,56.0156 196.2344,56.0156 C196.5,56.0156 196.7656,55.875 196.9375,55.6563 C197.0469,55.5 197.0781,55.3125 197.0781,54.8906 L197.0781,53.4688 C197.0781,53.0313 197.0625,52.9063 196.9688,52.75 C196.8125,52.4844 196.5313,52.3438 196.2344,52.3438 C195.9375,52.3438 195.7344,52.4375 195.5156,52.75 L195.3438,52.6719 Z " fill="#000000"/><text fill="#000000" font-family="sans-serif" font-size="12" lengthAdjust="spacingAndGlyphs" textLength="66" x="207" y="61.1543">Base_de_X</text><line style="stroke:#A80036;stroke-width:1.5;" x1="179" x2="275" y1="73" y2="73"/><line style="stroke:#A80036;stroke-width:1.5;" x1="179" x2="275" y1="81" y2="81"/><!--MD5=[c0e5f48dc76b116ba9d0651cbc667517]
class efferent X.Parte_de_X--><rect fill="#FEFECE" filter="url(#f1q7n9x6wj0q8x)" height="48" id="efferent X.Parte_de_X" style="stroke:#A80036;stroke-width:1.5;" width="98" x="32" y="257"/><ellipse cx="47" cy="273" fill="#ADD1B2" rx="11" ry="11" style="stroke:#A80036;stroke-width:1.0;"/><path d="M49.3438,268.6719 C48.4063,268.2344 47.8125,268.0938 46.9375,268.0938 C44.3125,268.0938 42.3125,270.1719 42.3125,272.8906 L42.3125,274.0156 C42.3125,276.5938 44.4219,278.4844 47.3125,278.4844 C48.5313,278.4844 49.6875,278.1875 50.4375,277.6406 C51.0156,277.2344 51.3438,276.7813 51.3438,276.3906 C51.3438,275.9375 50.9531,275.5469 50.4844,275.5469 C50.2656,275.5469 50.0625,275.625 49.875,275.8125 C49.4219,276.2969 49.4219,276.2969 49.2344,276.3906 C48.8125,276.6563 48.125,276.7813 47.3594,276.7813 C45.3125,276.7813 44.0156,275.6875 44.0156,273.9844 L44.0156,272.8906 C44.0156,271.1094 45.2656,269.7969 47,269.7969 C47.5781,269.7969 48.1875,269.9531 48.6563,270.2031 C49.1406,270.4844 49.3125,270.7031 49.4063,271.1094 C49.4688,271.5156 49.5,271.6406 49.6406,271.7656 C49.7813,271.9063 50.0156,272.0156 50.2344,272.0156 C50.5,272.0156 50.7656,271.875 50.9375,271.6563 C51.0469,271.5 51.0781,271.3125 51.0781,270.8906 L51.0781,269.4688 C51.0781,269.0313 51.0625,268.9063 50.9688,268.75 C50.8125,268.4844 50.5313,268.3438 50.2344,268.3438 C49.9375,268.3438 49.7344,268.4375 49.5156,268.75 L49.3438,268.6719 Z " fill="#000000"/><text fill="#000000" font-family="sans-serif" font-size="12" lengthAdjust="spacingAndGlyphs" textLength="66" x="61" y="277.1543">Parte_de_X</text><line style="stroke:#A80036;stroke-width:1.5;" x1="33" x2="129" y1="289" y2="289"/><line style="stroke:#A80036;stroke-width:1.5;" x1="33" x2="129" y1="297" y2="297"/><!--MD5=[f5eef3f244d2f32c65a36ce0fe1ff07a]
class efferent X.Asociada_de_X--><rect fill="#FEFECE" filter="url(#f1q7n9x6wj0q8x)" height="48" id="efferent X.Asociada_de_X" style="stroke:#A80036;stroke-width:1.5;" width="123" x="165.5" y="257"/><ellipse cx="180.5" cy="273" fill="#ADD1B2" rx="11" ry="11" style="stroke:#A80036;stroke-width:1.0;"/><path d="M182.8438,268.6719 C181.9063,268.2344 181.3125,268.0938 180.4375,268.0938 C177.8125,268.0938 175.8125,270.1719 175.8125,272.8906 L175.8125,274.0156 C175.8125,276.5938 177.9219,278.4844 180.8125,278.4844 C182.0313,278.4844 183.1875,278.1875 183.9375,277.6406 C184.5156,277.2344 184.8438,276.7813 184.8438,276.3906 C184.8438,275.9375 184.4531,275.5469 183.9844,275.5469 C183.7656,275.5469 183.5625,275.625 183.375,275.8125 C182.9219,276.2969 182.9219,276.2969 182.7344,276.3906 C182.3125,276.6563 181.625,276.7813 180.8594,276.7813 C178.8125,276.7813 177.5156,275.6875 177.5156,273.9844 L177.5156,272.8906 C177.5156,271.1094 178.7656,269.7969 180.5,269.7969 C181.0781,269.7969 181.6875,269.9531 182.1563,270.2031 C182.6406,270.4844 182.8125,270.7031 182.9063,271.1094 C182.9688,271.5156 183,271.6406 183.1406,271.7656 C183.2813,271.9063 183.5156,272.0156 183.7344,272.0156 C184,272.0156 184.2656,271.875 184.4375,271.6563 C184.5469,271.5 184.5781,271.3125 184.5781,270.8906 L184.5781,269.4688 C184.5781,269.0313 184.5625,268.9063 184.4688,268.75 C184.3125,268.4844 184.0313,268.3438 183.7344,268.3438 C183.4375,268.3438 183.2344,268.4375 183.0156,268.75 L182.8438,268.6719 Z " fill="#000000"/><text fill="#000000" font-family="sans-serif" font-size="12" lengthAdjust="spacingAndGlyphs" textLength="91" x="194.5" y="277.1543">Asociada_de_X</text><line style="stroke:#A80036;stroke-width:1.5;" x1="166.5" x2="287.5" y1="289" y2="289"/><line style="stroke:#A80036;stroke-width:1.5;" x1="166.5" x2="287.5" y1="297" y2="297"/><!--MD5=[da4349559b899870f96bcfced1571955]
class efferent X.Usada_por_X--><rect fill="#FEFECE" filter="url(#f1q7n9x6wj0q8x)" height="48" id="efferent X.Usada_por_X" style="stroke:#A80036;stroke-width:1.5;" width="111" x="323.5" y="257"/><ellipse cx="338.5" cy="273" fill="#ADD1B2" rx="11" ry="11" style="stroke:#A80036;stroke-width:1.0;"/><path d="M340.8438,268.6719 C339.9063,268.2344 339.3125,268.0938 338.4375,268.0938 C335.8125,268.0938 333.8125,270.1719 333.8125,272.8906 L333.8125,274.0156 C333.8125,276.5938 335.9219,278.4844 338.8125,278.4844 C340.0313,278.4844 341.1875,278.1875 341.9375,277.6406 C342.5156,277.2344 342.8438,276.7813 342.8438,276.3906 C342.8438,275.9375 342.4531,275.5469 341.9844,275.5469 C341.7656,275.5469 341.5625,275.625 341.375,275.8125 C340.9219,276.2969 340.9219,276.2969 340.7344,276.3906 C340.3125,276.6563 339.625,276.7813 338.8594,276.7813 C336.8125,276.7813 335.5156,275.6875 335.5156,273.9844 L335.5156,272.8906 C335.5156,271.1094 336.7656,269.7969 338.5,269.7969 C339.0781,269.7969 339.6875,269.9531 340.1563,270.2031 C340.6406,270.4844 340.8125,270.7031 340.9063,271.1094 C340.9688,271.5156 341,271.6406 341.1406,271.7656 C341.2813,271.9063 341.5156,272.0156 341.7344,272.0156 C342,272.0156 342.2656,271.875 342.4375,271.6563 C342.5469,271.5 342.5781,271.3125 342.5781,270.8906 L342.5781,269.4688 C342.5781,269.0313 342.5625,268.9063 342.4688,268.75 C342.3125,268.4844 342.0313,268.3438 341.7344,268.3438 C341.4375,268.3438 341.2344,268.4375 341.0156,268.75 L340.8438,268.6719 Z " fill="#000000"/><text fill="#000000" font-family="sans-serif" font-size="12" lengthAdjust="spacingAndGlyphs" textLength="79" x="352.5" y="277.1543">Usada_por_X</text><line style="stroke:#A80036;stroke-width:1.5;" x1="324.5" x2="433.5" y1="289" y2="289"/><line style="stroke:#A80036;stroke-width:1.5;" x1="324.5" x2="433.5" y1="297" y2="297"/><!--MD5=[7f7ce051e573d7790ef6e8c5cfa6e5ac]
class efferent Base_de_X.Base_de_X--><rect codeLine="2" fill="#FEFECE" filter="url(#f1q7n9x6wj0q8x)" height="48" id="efferent Base_de_X.Base_de_X" style="stroke:#A80036;stroke-width:1.5;" width="98" x="511" y="41"/><ellipse cx="526" cy="57" fill="#ADD1B2" rx="11" ry="11" style="stroke:#A80036;stroke-width:1.0;"/><path d="M528.3438,52.6719 C527.4063,52.2344 526.8125,52.0938 525.9375,52.0938 C523.3125,52.0938 521.3125,54.1719 521.3125,56.8906 L521.3125,58.0156 C521.3125,60.5938 523.4219,62.4844 526.3125,62.4844 C527.5313,62.4844 528.6875,62.1875 529.4375,61.6406 C530.0156,61.2344 530.3438,60.7813 530.3438,60.3906 C530.3438,59.9375 529.9531,59.5469 529.4844,59.5469 C529.2656,59.5469 529.0625,59.625 528.875,59.8125 C528.4219,60.2969 528.4219,60.2969 528.2344,60.3906 C527.8125,60.6563 527.125,60.7813 526.3594,60.7813 C524.3125,60.7813 523.0156,59.6875 523.0156,57.9844 L523.0156,56.8906 C523.0156,55.1094 524.2656,53.7969 526,53.7969 C526.5781,53.7969 527.1875,53.9531 527.6563,54.2031 C528.1406,54.4844 528.3125,54.7031 528.4063,55.1094 C528.4688,55.5156 528.5,55.6406 528.6406,55.7656 C528.7813,55.9063 529.0156,56.0156 529.2344,56.0156 C529.5,56.0156 529.7656,55.875 529.9375,55.6563 C530.0469,55.5 530.0781,55.3125 530.0781,54.8906 L530.0781,53.4688 C530.0781,53.0313 530.0625,52.9063 529.9688,52.75 C529.8125,52.4844 529.5313,52.3438 529.2344,52.3438 C528.9375,52.3438 528.7344,52.4375 528.5156,52.75 L528.3438,52.6719 Z " fill="#000000"/><text fill="#000000" font-family="sans-serif" font-size="12" lengthAdjust="spacingAndGlyphs" textLength="66" x="540" y="61.1543">Base_de_X</text><line style="stroke:#A80036;stroke-width:1.5;" x1="512" x2="608" y1="73" y2="73"/><line style="stroke:#A80036;stroke-width:1.5;" x1="512" x2="608" y1="81" y2="81"/><!--MD5=[08b61245c0b0e113d40914148ab7d889]
class efferent Parte_de_X.Parte_de_X--><rect codeLine="3" fill="#FEFECE" filter="url(#f1q7n9x6wj0q8x)" height="48" id="efferent Parte_de_X.Parte_de_X" style="stroke:#A80036;stroke-width:1.5;" width="98" x="707" y="41"/><ellipse cx="722" cy="57" fill="#ADD1B2" rx="11" ry="11" style="stroke:#A80036;stroke-width:1.0;"/><path d="M724.3438,52.6719 C723.4063,52.2344 722.8125,52.0938 721.9375,52.0938 C719.3125,52.0938 717.3125,54.1719 717.3125,56.8906 L717.3125,58.0156 C717.3125,60.5938 719.4219,62.4844 722.3125,62.4844 C723.5313,62.4844 724.6875,62.1875 725.4375,61.6406 C726.0156,61.2344 726.3438,60.7813 726.3438,60.3906 C726.3438,59.9375 725.9531,59.5469 725.4844,59.5469 C725.2656,59.5469 725.0625,59.625 724.875,59.8125 C724.4219,60.2969 724.4219,60.2969 724.2344,60.3906 C723.8125,60.6563 723.125,60.7813 722.3594,60.7813 C720.3125,60.7813 719.0156,59.6875 719.0156,57.9844 L719.0156,56.8906 C719.0156,55.1094 720.2656,53.7969 722,53.7969 C722.5781,53.7969 723.1875,53.9531 723.6563,54.2031 C724.1406,54.4844 724.3125,54.7031 724.4063,55.1094 C724.4688,55.5156 724.5,55.6406 724.6406,55.7656 C724.7813,55.9063 725.0156,56.0156 725.2344,56.0156 C725.5,56.0156 725.7656,55.875 725.9375,55.6563 C726.0469,55.5 726.0781,55.3125 726.0781,54.8906 L726.0781,53.4688 C726.0781,53.0313 726.0625,52.9063 725.9688,52.75 C725.8125,52.4844 725.5313,52.3438 725.2344,52.3438 C724.9375,52.3438 724.7344,52.4375 724.5156,52.75 L724.3438,52.6719 Z " fill="#000000"/><text fill="#000000" font-family="sans-serif" font-size="12" lengthAdjust="spacingAndGlyphs" textLength="66" x="736" y="61.1543">Parte_de_X</text><line style="stroke:#A80036;stroke-width:1.5;" x1="708" x2="804" y1="73" y2="73"/><line style="stroke:#A80036;stroke-width:1.5;" x1="708" x2="804" y1="81" y2="81"/><!--MD5=[0c4d472e3b551d00121b1bb1a7be63bc]
class efferent Asociada_de_X.Asociada_de_X--><rect codeLine="4" fill="#FEFECE" filter="url(#f1q7n9x6wj0q8x)" height="48" id="efferent Asociada_de_X.Asociada_de_X" style="stroke:#A80036;stroke-width:1.5;" width="123" x="908.5" y="41"/><ellipse cx="923.5" cy="57" fill="#ADD1B2" rx="11" ry="11" style="stroke:#A80036;stroke-width:1.0;"/><path d="M925.8438,52.6719 C924.9063,52.2344 924.3125,52.0938 923.4375,52.0938 C920.8125,52.0938 918.8125,54.1719 918.8125,56.8906 L918.8125,58.0156 C918.8125,60.5938 920.9219,62.4844 923.8125,62.4844 C925.0313,62.4844 926.1875,62.1875 926.9375,61.6406 C927.5156,61.2344 927.8438,60.7813 927.8438,60.3906 C927.8438,59.9375 927.4531,59.5469 926.9844,59.5469 C926.7656,59.5469 926.5625,59.625 926.375,59.8125 C925.9219,60.2969 925.9219,60.2969 925.7344,60.3906 C925.3125,60.6563 924.625,60.7813 923.8594,60.7813 C921.8125,60.7813 920.5156,59.6875 920.5156,57.9844 L920.5156,56.8906 C920.5156,55.1094 921.7656,53.7969 923.5,53.7969 C924.0781,53.7969 924.6875,53.9531 925.1563,54.2031 C925.6406,54.4844 925.8125,54.7031 925.9063,55.1094 C925.9688,55.5156 926,55.6406 926.1406,55.7656 C926.2813,55.9063 926.5156,56.0156 926.7344,56.0156 C927,56.0156 927.2656,55.875 927.4375,55.6563 C927.5469,55.5 927.5781,55.3125 927.5781,54.8906 L927.5781,53.4688 C927.5781,53.0313 927.5625,52.9063 927.4688,52.75 C927.3125,52.4844 927.0313,52.3438 926.7344,52.3438 C926.4375,52.3438 926.2344,52.4375 926.0156,52.75 L925.8438,52.6719 Z " fill="#000000"/><text fill="#000000" font-family="sans-serif" font-size="12" lengthAdjust="spacingAndGlyphs" textLength="91" x="937.5" y="61.1543">Asociada_de_X</text><line style="stroke:#A80036;stroke-width:1.5;" x1="909.5" x2="1030.5" y1="73" y2="73"/><line style="stroke:#A80036;stroke-width:1.5;" x1="909.5" x2="1030.5" y1="81" y2="81"/><!--MD5=[537e7968e22673dea8f08e970ccbc636]
class efferent Usada_por_X.Usada_por_X--><rect codeLine="5" fill="#FEFECE" filter="url(#f1q7n9x6wj0q8x)" height="48" id="efferent Usada_por_X.Usada_por_X" style="stroke:#A80036;stroke-width:1.5;" width="111" x="1135.5" y="41"/><ellipse cx="1150.5" cy="57" fill="#ADD1B2" rx="11" ry="11" style="stroke:#A80036;stroke-width:1.0;"/><path d="M1152.8438,52.6719 C1151.9063,52.2344 1151.3125,52.0938 1150.4375,52.0938 C1147.8125,52.0938 1145.8125,54.1719 1145.8125,56.8906 L1145.8125,58.0156 C1145.8125,60.5938 1147.9219,62.4844 1150.8125,62.4844 C1152.0313,62.4844 1153.1875,62.1875 1153.9375,61.6406 C1154.5156,61.2344 1154.8438,60.7813 1154.8438,60.3906 C1154.8438,59.9375 1154.4531,59.5469 1153.9844,59.5469 C1153.7656,59.5469 1153.5625,59.625 1153.375,59.8125 C1152.9219,60.2969 1152.9219,60.2969 1152.7344,60.3906 C1152.3125,60.6563 1151.625,60.7813 1150.8594,60.7813 C1148.8125,60.7813 1147.5156,59.6875 1147.5156,57.9844 L1147.5156,56.8906 C1147.5156,55.1094 1148.7656,53.7969 1150.5,53.7969 C1151.0781,53.7969 1151.6875,53.9531 1152.1563,54.2031 C1152.6406,54.4844 1152.8125,54.7031 1152.9063,55.1094 C1152.9688,55.5156 1153,55.6406 1153.1406,55.7656 C1153.2813,55.9063 1153.5156,56.0156 1153.7344,56.0156 C1154,56.0156 1154.2656,55.875 1154.4375,55.6563 C1154.5469,55.5 1154.5781,55.3125 1154.5781,54.8906 L1154.5781,53.4688 C1154.5781,53.0313 1154.5625,52.9063 1154.4688,52.75 C1154.3125,52.4844 1154.0313,52.3438 1153.7344,52.3438 C1153.4375,52.3438 1153.2344,52.4375 1153.0156,52.75 L1152.8438,52.6719 Z " fill="#000000"/><text fill="#000000" font-family="sans-serif" font-size="12" lengthAdjust="spacingAndGlyphs" textLength="79" x="1164.5" y="61.1543">Usada_por_X</text><line style="stroke:#A80036;stroke-width:1.5;" x1="1136.5" x2="1245.5" y1="73" y2="73"/><line style="stroke:#A80036;stroke-width:1.5;" x1="1136.5" x2="1245.5" y1="81" y2="81"/><!--MD5=[5907402257107f9bad5f5a7dc96f2837]
class efferent Todo_de_X.Todo_de_X--><rect codeLine="6" fill="#FEFECE" filter="url(#f1q7n9x6wj0q8x)" height="48" id="efferent Todo_de_X.Todo_de_X" style="stroke:#A80036;stroke-width:1.5;" width="99" x="1346.5" y="41"/><ellipse cx="1361.5" cy="57" fill="#ADD1B2" rx="11" ry="11" style="stroke:#A80036;stroke-width:1.0;"/><path d="M1363.8438,52.6719 C1362.9063,52.2344 1362.3125,52.0938 1361.4375,52.0938 C1358.8125,52.0938 1356.8125,54.1719 1356.8125,56.8906 L1356.8125,58.0156 C1356.8125,60.5938 1358.9219,62.4844 1361.8125,62.4844 C1363.0313,62.4844 1364.1875,62.1875 1364.9375,61.6406 C1365.5156,61.2344 1365.8438,60.7813 1365.8438,60.3906 C1365.8438,59.9375 1365.4531,59.5469 1364.9844,59.5469 C1364.7656,59.5469 1364.5625,59.625 1364.375,59.8125 C1363.9219,60.2969 1363.9219,60.2969 1363.7344,60.3906 C1363.3125,60.6563 1362.625,60.7813 1361.8594,60.7813 C1359.8125,60.7813 1358.5156,59.6875 1358.5156,57.9844 L1358.5156,56.8906 C1358.5156,55.1094 1359.7656,53.7969 1361.5,53.7969 C1362.0781,53.7969 1362.6875,53.9531 1363.1563,54.2031 C1363.6406,54.4844 1363.8125,54.7031 1363.9063,55.1094 C1363.9688,55.5156 1364,55.6406 1364.1406,55.7656 C1364.2813,55.9063 1364.5156,56.0156 1364.7344,56.0156 C1365,56.0156 1365.2656,55.875 1365.4375,55.6563 C1365.5469,55.5 1365.5781,55.3125 1365.5781,54.8906 L1365.5781,53.4688 C1365.5781,53.0313 1365.5625,52.9063 1365.4688,52.75 C1365.3125,52.4844 1365.0313,52.3438 1364.7344,52.3438 C1364.4375,52.3438 1364.2344,52.4375 1364.0156,52.75 L1363.8438,52.6719 Z " fill="#000000"/><text fill="#000000" font-family="sans-serif" font-size="12" lengthAdjust="spacingAndGlyphs" textLength="67" x="1375.5" y="61.1543">Todo_de_X</text><line style="stroke:#A80036;stroke-width:1.5;" x1="1347.5" x2="1444.5" y1="73" y2="73"/><line style="stroke:#A80036;stroke-width:1.5;" x1="1347.5" x2="1444.5" y1="81" y2="81"/><!--MD5=[00d2875d38c6a12d83fd28ed5bad725f]
class efferent Todo_de_X.X--><rect fill="#FEFECE" filter="url(#f1q7n9x6wj0q8x)" height="48" id="efferent Todo_de_X.X" style="stroke:#A80036;stroke-width:1.5;" width="40" x="1376" y="149"/><ellipse cx="1391" cy="165" fill="#ADD1B2" rx="11" ry="11" style="stroke:#A80036;stroke-width:1.0;"/><path d="M1393.3438,160.6719 C1392.4063,160.2344 1391.8125,160.0938 1390.9375,160.0938 C1388.3125,160.0938 1386.3125,162.1719 1386.3125,164.8906 L1386.3125,166.0156 C1386.3125,168.5938 1388.4219,170.4844 1391.3125,170.4844 C1392.5313,170.4844 1393.6875,170.1875 1394.4375,169.6406 C1395.0156,169.2344 1395.3438,168.7813 1395.3438,168.3906 C1395.3438,167.9375 1394.9531,167.5469 1394.4844,167.5469 C1394.2656,167.5469 1394.0625,167.625 1393.875,167.8125 C1393.4219,168.2969 1393.4219,168.2969 1393.2344,168.3906 C1392.8125,168.6563 1392.125,168.7813 1391.3594,168.7813 C1389.3125,168.7813 1388.0156,167.6875 1388.0156,165.9844 L1388.0156,164.8906 C1388.0156,163.1094 1389.2656,161.7969 1391,161.7969 C1391.5781,161.7969 1392.1875,161.9531 1392.6563,162.2031 C1393.1406,162.4844 1393.3125,162.7031 1393.4063,163.1094 C1393.4688,163.5156 1393.5,163.6406 1393.6406,163.7656 C1393.7813,163.9063 1394.0156,164.0156 1394.2344,164.0156 C1394.5,164.0156 1394.7656,163.875 1394.9375,163.6563 C1395.0469,163.5 1395.0781,163.3125 1395.0781,162.8906 L1395.0781,161.4688 C1395.0781,161.0313 1395.0625,160.9063 1394.9688,160.75 C1394.8125,160.4844 1394.5313,160.3438 1394.2344,160.3438 C1393.9375,160.3438 1393.7344,160.4375 1393.5156,160.75 L1393.3438,160.6719 Z " fill="#000000"/><text fill="#000000" font-family="sans-serif" font-size="12" lengthAdjust="spacingAndGlyphs" textLength="8" x="1405" y="169.1543">X</text><line style="stroke:#A80036;stroke-width:1.5;" x1="1377" x2="1415" y1="181" y2="181"/><line style="stroke:#A80036;stroke-width:1.5;" x1="1377" x2="1415" y1="189" y2="189"/><!--MD5=[70943a57f5c39792c686e155a070febf]
class efferent Usa_X.Usa_X--><rect codeLine="7" fill="#FEFECE" filter="url(#f1q7n9x6wj0q8x)" height="48" id="efferent Usa_X.Usa_X" style="stroke:#A80036;stroke-width:1.5;" width="69" x="1538.5" y="41"/><ellipse cx="1553.5" cy="57" fill="#ADD1B2" rx="11" ry="11" style="stroke:#A80036;stroke-width:1.0;"/><path d="M1555.8438,52.6719 C1554.9063,52.2344 1554.3125,52.0938 1553.4375,52.0938 C1550.8125,52.0938 1548.8125,54.1719 1548.8125,56.8906 L1548.8125,58.0156 C1548.8125,60.5938 1550.9219,62.4844 1553.8125,62.4844 C1555.0313,62.4844 1556.1875,62.1875 1556.9375,61.6406 C1557.5156,61.2344 1557.8438,60.7813 1557.8438,60.3906 C1557.8438,59.9375 1557.4531,59.5469 1556.9844,59.5469 C1556.7656,59.5469 1556.5625,59.625 1556.375,59.8125 C1555.9219,60.2969 1555.9219,60.2969 1555.7344,60.3906 C1555.3125,60.6563 1554.625,60.7813 1553.8594,60.7813 C1551.8125,60.7813 1550.5156,59.6875 1550.5156,57.9844 L1550.5156,56.8906 C1550.5156,55.1094 1551.7656,53.7969 1553.5,53.7969 C1554.0781,53.7969 1554.6875,53.9531 1555.1563,54.2031 C1555.6406,54.4844 1555.8125,54.7031 1555.9063,55.1094 C1555.9688,55.5156 1556,55.6406 1556.1406,55.7656 C1556.2813,55.9063 1556.5156,56.0156 1556.7344,56.0156 C1557,56.0156 1557.2656,55.875 1557.4375,55.6563 C1557.5469,55.5 1557.5781,55.3125 1557.5781,54.8906 L1557.5781,53.4688 C1557.5781,53.0313 1557.5625,52.9063 1557.4688,52.75 C1557.3125,52.4844 1557.0313,52.3438 1556.7344,52.3438 C1556.4375,52.3438 1556.2344,52.4375 1556.0156,52.75 L1555.8438,52.6719 Z " fill="#000000"/><text fill="#000000" font-family="sans-serif" font-size="12" lengthAdjust="spacingAndGlyphs" textLength="37" x="1567.5" y="61.1543">Usa_X</text><line style="stroke:#A80036;stroke-width:1.5;" x1="1539.5" x2="1606.5" y1="73" y2="73"/><line style="stroke:#A80036;stroke-width:1.5;" x1="1539.5" x2="1606.5" y1="81" y2="81"/><!--MD5=[fc20e3ceb4aeba9848dd65cd9021ac69]
class efferent Usa_X.X--><rect fill="#FEFECE" filter="url(#f1q7n9x6wj0q8x)" height="48" id="efferent Usa_X.X" style="stroke:#A80036;stroke-width:1.5;" width="40" x="1553" y="149"/><ellipse cx="1568" cy="165" fill="#ADD1B2" rx="11" ry="11" style="stroke:#A80036;stroke-width:1.0;"/><path d="M1570.3438,160.6719 C1569.4063,160.2344 1568.8125,160.0938 1567.9375,160.0938 C1565.3125,160.0938 1563.3125,162.1719 1563.3125,164.8906 L1563.3125,166.0156 C1563.3125,168.5938 1565.4219,170.4844 1568.3125,170.4844 C1569.5313,170.4844 1570.6875,170.1875 1571.4375,169.6406 C1572.0156,169.2344 1572.3438,168.7813 1572.3438,168.3906 C1572.3438,167.9375 1571.9531,167.5469 1571.4844,167.5469 C1571.2656,167.5469 1571.0625,167.625 1570.875,167.8125 C1570.4219,168.2969 1570.4219,168.2969 1570.2344,168.3906 C1569.8125,168.6563 1569.125,168.7813 1568.3594,168.7813 C1566.3125,168.7813 1565.0156,167.6875 1565.0156,165.9844 L1565.0156,164.8906 C1565.0156,163.1094 1566.2656,161.7969 1568,161.7969 C1568.5781,161.7969 1569.1875,161.9531 1569.6563,162.2031 C1570.1406,162.4844 1570.3125,162.7031 1570.4063,163.1094 C1570.4688,163.5156 1570.5,163.6406 1570.6406,163.7656 C1570.7813,163.9063 1571.0156,164.0156 1571.2344,164.0156 C1571.5,164.0156 1571.7656,163.875 1571.9375,163.6563 C1572.0469,163.5 1572.0781,163.3125 1572.0781,162.8906 L1572.0781,161.4688 C1572.0781,161.0313 1572.0625,160.9063 1571.9688,160.75 C1571.8125,160.4844 1571.5313,160.3438 1571.2344,160.3438 C1570.9375,160.3438 1570.7344,160.4375 1570.5156,160.75 L1570.3438,160.6719 Z " fill="#000000"/><text fill="#000000" font-family="sans-serif" font-size="12" lengthAdjust="spacingAndGlyphs" textLength="8" x="1582" y="169.1543">X</text><line style="stroke:#A80036;stroke-width:1.5;" x1="1554" x2="1592" y1="181" y2="181"/><line style="stroke:#A80036;stroke-width:1.5;" x1="1554" x2="1592" y1="189" y2="189"/><!--MD5=[f977272a142b5417a2a6144a2754f546]
class efferent Asociado_a_X.Asociado_a_X--><rect codeLine="8" fill="#FEFECE" filter="url(#f1q7n9x6wj0q8x)" height="48" id="efferent Asociado_a_X.Asociado_a_X" style="stroke:#A80036;stroke-width:1.5;" width="115" x="1705.5" y="41"/><ellipse cx="1720.5" cy="57" fill="#ADD1B2" rx="11" ry="11" style="stroke:#A80036;stroke-width:1.0;"/><path d="M1722.8438,52.6719 C1721.9063,52.2344 1721.3125,52.0938 1720.4375,52.0938 C1717.8125,52.0938 1715.8125,54.1719 1715.8125,56.8906 L1715.8125,58.0156 C1715.8125,60.5938 1717.9219,62.4844 1720.8125,62.4844 C1722.0313,62.4844 1723.1875,62.1875 1723.9375,61.6406 C1724.5156,61.2344 1724.8438,60.7813 1724.8438,60.3906 C1724.8438,59.9375 1724.4531,59.5469 1723.9844,59.5469 C1723.7656,59.5469 1723.5625,59.625 1723.375,59.8125 C1722.9219,60.2969 1722.9219,60.2969 1722.7344,60.3906 C1722.3125,60.6563 1721.625,60.7813 1720.8594,60.7813 C1718.8125,60.7813 1717.5156,59.6875 1717.5156,57.9844 L1717.5156,56.8906 C1717.5156,55.1094 1718.7656,53.7969 1720.5,53.7969 C1721.0781,53.7969 1721.6875,53.9531 1722.1563,54.2031 C1722.6406,54.4844 1722.8125,54.7031 1722.9063,55.1094 C1722.9688,55.5156 1723,55.6406 1723.1406,55.7656 C1723.2813,55.9063 1723.5156,56.0156 1723.7344,56.0156 C1724,56.0156 1724.2656,55.875 1724.4375,55.6563 C1724.5469,55.5 1724.5781,55.3125 1724.5781,54.8906 L1724.5781,53.4688 C1724.5781,53.0313 1724.5625,52.9063 1724.4688,52.75 C1724.3125,52.4844 1724.0313,52.3438 1723.7344,52.3438 C1723.4375,52.3438 1723.2344,52.4375 1723.0156,52.75 L1722.8438,52.6719 Z " fill="#000000"/><text fill="#000000" font-family="sans-serif" font-size="12" lengthAdjust="spacingAndGlyphs" textLength="83" x="1734.5" y="61.1543">Asociado_a_X</text><line style="stroke:#A80036;stroke-width:1.5;" x1="1706.5" x2="1819.5" y1="73" y2="73"/><line style="stroke:#A80036;stroke-width:1.5;" x1="1706.5" x2="1819.5" y1="81" y2="81"/><!--MD5=[fb05d28514f9b253d7b084e23c8da21f]
class efferent Asociado_a_X.X--><rect fill="#FEFECE" filter="url(#f1q7n9x6wj0q8x)" height="48" id="efferent Asociado_a_X.X" style="stroke:#A80036;stroke-width:1.5;" width="40" x="1743" y="149"/><ellipse cx="1758" cy="165" fill="#ADD1B2" rx="11" ry="11" style="stroke:#A80036;stroke-width:1.0;"/><path d="M1760.3438,160.6719 C1759.4063,160.2344 1758.8125,160.0938 1757.9375,160.0938 C1755.3125,160.0938 1753.3125,162.1719 1753.3125,164.8906 L1753.3125,166.0156 C1753.3125,168.5938 1755.4219,170.4844 1758.3125,170.4844 C1759.5313,170.4844 1760.6875,170.1875 1761.4375,169.6406 C1762.0156,169.2344 1762.3438,168.7813 1762.3438,168.3906 C1762.3438,167.9375 1761.9531,167.5469 1761.4844,167.5469 C1761.2656,167.5469 1761.0625,167.625 1760.875,167.8125 C1760.4219,168.2969 1760.4219,168.2969 1760.2344,168.3906 C1759.8125,168.6563 1759.125,168.7813 1758.3594,168.7813 C1756.3125,168.7813 1755.0156,167.6875 1755.0156,165.9844 L1755.0156,164.8906 C1755.0156,163.1094 1756.2656,161.7969 1758,161.7969 C1758.5781,161.7969 1759.1875,161.9531 1759.6563,162.2031 C1760.1406,162.4844 1760.3125,162.7031 1760.4063,163.1094 C1760.4688,163.5156 1760.5,163.6406 1760.6406,163.7656 C1760.7813,163.9063 1761.0156,164.0156 1761.2344,164.0156 C1761.5,164.0156 1761.7656,163.875 1761.9375,163.6563 C1762.0469,163.5 1762.0781,163.3125 1762.0781,162.8906 L1762.0781,161.4688 C1762.0781,161.0313 1762.0625,160.9063 1761.9688,160.75 C1761.8125,160.4844 1761.5313,160.3438 1761.2344,160.3438 C1760.9375,160.3438 1760.7344,160.4375 1760.5156,160.75 L1760.3438,160.6719 Z " fill="#000000"/><text fill="#000000" font-family="sans-serif" font-size="12" lengthAdjust="spacingAndGlyphs" textLength="8" x="1772" y="169.1543">X</text><line style="stroke:#A80036;stroke-width:1.5;" x1="1744" x2="1782" y1="181" y2="181"/><line style="stroke:#A80036;stroke-width:1.5;" x1="1744" x2="1782" y1="189" y2="189"/><!--MD5=[c27bfee400c2dad73439cf0dd42fd5b9]
class efferent Descendiente_de_X.Descendiente_de_X--><rect codeLine="9" fill="#FEFECE" filter="url(#f1q7n9x6wj0q8x)" height="48" id="efferent Descendiente_de_X.Descendiente_de_X" style="stroke:#A80036;stroke-width:1.5;" width="152" x="1928" y="149"/><ellipse cx="1943" cy="165" fill="#ADD1B2" rx="11" ry="11" style="stroke:#A80036;stroke-width:1.0;"/><path d="M1945.3438,160.6719 C1944.4063,160.2344 1943.8125,160.0938 1942.9375,160.0938 C1940.3125,160.0938 1938.3125,162.1719 1938.3125,164.8906 L1938.3125,166.0156 C1938.3125,168.5938 1940.4219,170.4844 1943.3125,170.4844 C1944.5313,170.4844 1945.6875,170.1875 1946.4375,169.6406 C1947.0156,169.2344 1947.3438,168.7813 1947.3438,168.3906 C1947.3438,167.9375 1946.9531,167.5469 1946.4844,167.5469 C1946.2656,167.5469 1946.0625,167.625 1945.875,167.8125 C1945.4219,168.2969 1945.4219,168.2969 1945.2344,168.3906 C1944.8125,168.6563 1944.125,168.7813 1943.3594,168.7813 C1941.3125,168.7813 1940.0156,167.6875 1940.0156,165.9844 L1940.0156,164.8906 C1940.0156,163.1094 1941.2656,161.7969 1943,161.7969 C1943.5781,161.7969 1944.1875,161.9531 1944.6563,162.2031 C1945.1406,162.4844 1945.3125,162.7031 1945.4063,163.1094 C1945.4688,163.5156 1945.5,163.6406 1945.6406,163.7656 C1945.7813,163.9063 1946.0156,164.0156 1946.2344,164.0156 C1946.5,164.0156 1946.7656,163.875 1946.9375,163.6563 C1947.0469,163.5 1947.0781,163.3125 1947.0781,162.8906 L1947.0781,161.4688 C1947.0781,161.0313 1947.0625,160.9063 1946.9688,160.75 C1946.8125,160.4844 1946.5313,160.3438 1946.2344,160.3438 C1945.9375,160.3438 1945.7344,160.4375 1945.5156,160.75 L1945.3438,160.6719 Z " fill="#000000"/><text fill="#000000" font-family="sans-serif" font-size="12" lengthAdjust="spacingAndGlyphs" textLength="120" x="1957" y="169.1543">Descendiente_de_X</text><line style="stroke:#A80036;stroke-width:1.5;" x1="1929" x2="2079" y1="181" y2="181"/><line style="stroke:#A80036;stroke-width:1.5;" x1="1929" x2="2079" y1="189" y2="189"/><!--MD5=[07f8b80108d3dee5b7b0c39b8eb7c137]
class efferent Descendiente_de_X.X--><rect fill="#FEFECE" filter="url(#f1q7n9x6wj0q8x)" height="48" id="efferent Descendiente_de_X.X" style="stroke:#A80036;stroke-width:1.5;" width="40" x="1984" y="41"/><ellipse cx="1999" cy="57" fill="#ADD1B2" rx="11" ry="11" style="stroke:#A80036;stroke-width:1.0;"/><path d="M2001.3438,52.6719 C2000.4063,52.2344 1999.8125,52.0938 1998.9375,52.0938 C1996.3125,52.0938 1994.3125,54.1719 1994.3125,56.8906 L1994.3125,58.0156 C1994.3125,60.5938 1996.4219,62.4844 1999.3125,62.4844 C2000.5313,62.4844 2001.6875,62.1875 2002.4375,61.6406 C2003.0156,61.2344 2003.3438,60.7813 2003.3438,60.3906 C2003.3438,59.9375 2002.9531,59.5469 2002.4844,59.5469 C2002.2656,59.5469 2002.0625,59.625 2001.875,59.8125 C2001.4219,60.2969 2001.4219,60.2969 2001.2344,60.3906 C2000.8125,60.6563 2000.125,60.7813 1999.3594,60.7813 C1997.3125,60.7813 1996.0156,59.6875 1996.0156,57.9844 L1996.0156,56.8906 C1996.0156,55.1094 1997.2656,53.7969 1999,53.7969 C1999.5781,53.7969 2000.1875,53.9531 2000.6563,54.2031 C2001.1406,54.4844 2001.3125,54.7031 2001.4063,55.1094 C2001.4688,55.5156 2001.5,55.6406 2001.6406,55.7656 C2001.7813,55.9063 2002.0156,56.0156 2002.2344,56.0156 C2002.5,56.0156 2002.7656,55.875 2002.9375,55.6563 C2003.0469,55.5 2003.0781,55.3125 2003.0781,54.8906 L2003.0781,53.4688 C2003.0781,53.0313 2003.0625,52.9063 2002.9688,52.75 C2002.8125,52.4844 2002.5313,52.3438 2002.2344,52.3438 C2001.9375,52.3438 2001.7344,52.4375 2001.5156,52.75 L2001.3438,52.6719 Z " fill="#000000"/><text fill="#000000" font-family="sans-serif" font-size="12" lengthAdjust="spacingAndGlyphs" textLength="8" x="2013" y="61.1543">X</text><line style="stroke:#A80036;stroke-width:1.5;" x1="1985" x2="2023" y1="73" y2="73"/><line style="stroke:#A80036;stroke-width:1.5;" x1="1985" x2="2023" y1="81" y2="81"/><!--MD5=[f9c9182443320a0b1f1fb6cc017347f8]
reverse link efferent X.Base_de_X to efferent X.X--><path codeLine="10" d="M227,109.024 C227,122.579 227,137.038 227,148.678 " fill="none" id="efferent X.Base_de_X-backto-efferent X.X" style="stroke:#A80036;stroke-width:1.0;"/><polygon fill="none" points="220,109,227,89,234,109,220,109" style="stroke:#A80036;stroke-width:1.0;"/><!--MD5=[ea02eeae73c635c1262e9d384adb17b3]
link efferent X.X to efferent X.Parte_de_X--><path codeLine="11" d="M196.9892,195.7902 C196.9892,195.7902 146.642,232.342 123.492,249.1498 " fill="none" id="efferent X.X-efferent X.Parte_de_X" style="stroke:#A80036;stroke-width:1.0;"/><polygon fill="#A80036" points="112.916,256.8279,122.5491,254.7775,116.9622,253.8905,117.8492,248.3036,112.916,256.8279" style="stroke:#A80036;stroke-width:1.0;"/><line style="stroke:#A80036;stroke-width:1.0;" x1="116.9622" x2="123.436" y1="253.8905" y2="249.1903"/><polygon fill="#A80036" points="206.699,188.739,199.4937,189.028,196.9892,195.7902,204.1945,195.5012,206.699,188.739" style="stroke:#A80036;stroke-width:1.0;"/><!--MD5=[f44572a228f1e611e1b2db36eafbf8ff]
link efferent X.X to efferent X.Asociada_de_X--><path codeLine="12" d="M227,197 C227,213.003 227,234.446 227,251.528 " fill="none" id="efferent X.X-to-efferent X.Asociada_de_X" style="stroke:#A80036;stroke-width:1.0;"/><polygon fill="#A80036" points="227,256.6784,231,247.6784,227,251.6784,223,247.6784,227,256.6784" style="stroke:#A80036;stroke-width:1.0;"/><!--MD5=[6b48d34ae595c10dccd95c13ec7b9bf3]
link efferent X.X to efferent X.Usada_por_X--><path codeLine="13" d="M247.184,188.076 C271.199,204.823 311.785,233.126 341.591,253.912 " fill="none" id="efferent X.X-to-efferent X.Usada_por_X" style="stroke:#A80036;stroke-width:1.0;stroke-dasharray:7.0,7.0;"/><polygon fill="#A80036" points="345.907,256.922,340.8127,248.493,341.8057,254.062,336.2367,255.055,345.907,256.922" style="stroke:#A80036;stroke-width:1.0;"/><!--MD5=[d25ee7c8e3e7dbeb6c493056ea0d908e]
link efferent Todo_de_X.Todo_de_X to efferent Todo_de_X.X--><path codeLine="14" d="M1396,101 C1396,101 1396,124.677 1396,135.364 " fill="none" id="efferent Todo_de_X.Todo_de_X-efferent Todo_de_X.X" style="stroke:#A80036;stroke-width:1.0;"/><polygon fill="#A80036" points="1396,148.678,1400,139.678,1396,143.678,1392,139.678,1396,148.678" style="stroke:#A80036;stroke-width:1.0;"/><line style="stroke:#A80036;stroke-width:1.0;" x1="1396" x2="1396" y1="143.678" y2="135.678"/><polygon fill="#A80036" points="1396,89,1392,95,1396,101,1400,95,1396,89" style="stroke:#A80036;stroke-width:1.0;"/><!--MD5=[da39dc25f5d84257a3f8fb68f7526343]
link efferent Usa_X.Usa_X to efferent Usa_X.X--><path codeLine="15" d="M1573,89 C1573,105.003 1573,126.446 1573,143.528 " fill="none" id="efferent Usa_X.Usa_X-to-efferent Usa_X.X" style="stroke:#A80036;stroke-width:1.0;stroke-dasharray:7.0,7.0;"/><polygon fill="#A80036" points="1573,148.678,1577,139.678,1573,143.678,1569,139.678,1573,148.678" style="stroke:#A80036;stroke-width:1.0;"/><!--MD5=[5f8f7b9f5d296d5261ecf67df7715500]
link efferent Asociado_a_X.Asociado_a_X to efferent Asociado_a_X.X--><path codeLine="16" d="M1763,89 C1763,105.003 1763,126.446 1763,143.528 " fill="none" id="efferent Asociado_a_X.Asociado_a_X-to-efferent Asociado_a_X.X" style="stroke:#A80036;stroke-width:1.0;"/><polygon fill="#A80036" points="1763,148.678,1767,139.678,1763,143.678,1759,139.678,1763,148.678" style="stroke:#A80036;stroke-width:1.0;"/><!--MD5=[6da6d97597ebdfa7dcfffaefde40428e]
reverse link efferent Descendiente_de_X.X to efferent Descendiente_de_X.Descendiente_de_X--><path codeLine="17" d="M2004,109.024 C2004,122.579 2004,137.038 2004,148.678 " fill="none" id="efferent Descendiente_de_X.X-backto-efferent Descendiente_de_X.Descendiente_de_X" style="stroke:#A80036;stroke-width:1.0;"/><polygon fill="none" points="1997,109,2004,89,2011,109,1997,109" style="stroke:#A80036;stroke-width:1.0;"/><!--MD5=[9ef5cd0e8807724430c34086e2e97a65]
@startuml
class "efferent X.X"
class "efferent Base_de_X.Base_de_X"
class "efferent Parte_de_X.Parte_de_X"
class "efferent Asociada_de_X.Asociada_de_X"
class "efferent Usada_por_X.Usada_por_X"
class "efferent Todo_de_X.Todo_de_X"
class "efferent Usa_X.Usa_X"
class "efferent Asociado_a_X.Asociado_a_X"
class "efferent Descendiente_de_X.Descendiente_de_X"
"efferent X.Base_de_X" <|- - "efferent X.X"
"efferent X.X" *- -> "efferent X.Parte_de_X"
"efferent X.X" - -> "efferent X.Asociada_de_X"
"efferent X.X" ..> "efferent X.Usada_por_X"
"efferent Todo_de_X.Todo_de_X" *- -> "efferent Todo_de_X.X"
"efferent Usa_X.Usa_X" ..> "efferent Usa_X.X"
"efferent Asociado_a_X.Asociado_a_X" - -> "efferent Asociado_a_X.X"
"efferent Descendiente_de_X.X" <|- - "efferent Descendiente_de_X.Descendiente_de_X"
@enduml

PlantUML version 1.2020.21beta7(Unknown compile time)
(GPL source distribution)
Java Runtime: Java(TM) SE Runtime Environment
JVM: Java HotSpot(TM) 64-Bit Server VM
Default Encoding: UTF-8
Language: en
Country: US
--></g></svg>