<?xml version="1.0" encoding="UTF-8" standalone="no"?>
<svg xmlns="http://www.w3.org/2000/svg" contentScriptType="application/ecmascript" contentStyleType="text/css"
     height="235px" preserveAspectRatio="none" style="width:580px;height:235px;" version="1.1" viewBox="0 0 580 235"
     width="580px" zoomAndPan="magnify"><defs><filter height="300%" id="f181nbmhw54lns" width="300%" x="-1" y="-1"><feGaussianBlur result="blurOut" stdDeviation="2.0"/><feColorMatrix in="blurOut" result="blurOut2" type="matrix" values="0 0 0 0 0 0 0 0 0 0 0 0 0 0 0 0 0 0 .4 0"/><feOffset dx="4.0" dy="4.0" in="blurOut2" result="blurOut3"/><feBlend in="SourceGraphic" in2="blurOut3" mode="normal"/></filter></defs><g><!--MD5=[491e7f2c0c9250fb4d1154da1be3239e]
cluster com.urjc.mca.tfm.generateuml--><polygon fill="#FFFFFF" filter="url(#f181nbmhw54lns)" points="146,6,403,6,410,28.2969,413,28.2969,413,228,146,228,146,6" style="stroke:#000000;stroke-width:1.5;"/><line style="stroke:#000000;stroke-width:1.5;" x1="146" x2="410" y1="28.2969" y2="28.2969"/><text fill="#000000" font-family="sans-serif" font-size="14" font-weight="bold" lengthAdjust="spacingAndGlyphs" textLength="251" x="150" y="20.9951">com.urjc.mca.tfm.generateuml</text><!--MD5=[aa8f7b917213fcc1c2766e2d59b49067]
cluster java.lang--><polygon fill="#FFFFFF" filter="url(#f181nbmhw54lns)" points="16,6,96,6,103,28.2969,122,28.2969,122,105,16,105,16,6" style="stroke:#000000;stroke-width:1.5;"/><line style="stroke:#000000;stroke-width:1.5;" x1="16" x2="103" y1="28.2969" y2="28.2969"/><text fill="#000000" font-family="sans-serif" font-size="14" font-weight="bold" lengthAdjust="spacingAndGlyphs" textLength="74" x="20" y="20.9951">java.lang</text><!--MD5=[7db3c59d38ae5b37b484eb2df9368145]
cluster java.util--><polygon fill="#FFFFFF" filter="url(#f181nbmhw54lns)" points="437,129,510,129,517,151.2969,563,151.2969,563,228,437,228,437,129" style="stroke:#000000;stroke-width:1.5;"/><line style="stroke:#000000;stroke-width:1.5;" x1="437" x2="517" y1="151.2969" y2="151.2969"/><text fill="#000000" font-family="sans-serif" font-size="14" font-weight="bold" lengthAdjust="spacingAndGlyphs" textLength="67" x="441" y="143.9951">java.util</text><!--MD5=[2ce6ebeeead493309275a631d28c0b87]
class com.urjc.mca.tfm.generateuml.CloneRepository--><rect codeLine="1" fill="#FEFECE" filter="url(#f181nbmhw54lns)" height="48" id="com.urjc.mca.tfm.generateuml.CloneRepository" style="stroke:#A80036;stroke-width:1.5;" width="131" x="213.5" y="41"/><ellipse cx="228.5" cy="57" fill="#ADD1B2" rx="11" ry="11" style="stroke:#A80036;stroke-width:1.0;"/><path d="M230.8438,52.6719 C229.9063,52.2344 229.3125,52.0938 228.4375,52.0938 C225.8125,52.0938 223.8125,54.1719 223.8125,56.8906 L223.8125,58.0156 C223.8125,60.5938 225.9219,62.4844 228.8125,62.4844 C230.0313,62.4844 231.1875,62.1875 231.9375,61.6406 C232.5156,61.2344 232.8438,60.7813 232.8438,60.3906 C232.8438,59.9375 232.4531,59.5469 231.9844,59.5469 C231.7656,59.5469 231.5625,59.625 231.375,59.8125 C230.9219,60.2969 230.9219,60.2969 230.7344,60.3906 C230.3125,60.6563 229.625,60.7813 228.8594,60.7813 C226.8125,60.7813 225.5156,59.6875 225.5156,57.9844 L225.5156,56.8906 C225.5156,55.1094 226.7656,53.7969 228.5,53.7969 C229.0781,53.7969 229.6875,53.9531 230.1563,54.2031 C230.6406,54.4844 230.8125,54.7031 230.9063,55.1094 C230.9688,55.5156 231,55.6406 231.1406,55.7656 C231.2813,55.9063 231.5156,56.0156 231.7344,56.0156 C232,56.0156 232.2656,55.875 232.4375,55.6563 C232.5469,55.5 232.5781,55.3125 232.5781,54.8906 L232.5781,53.4688 C232.5781,53.0313 232.5625,52.9063 232.4688,52.75 C232.3125,52.4844 232.0313,52.3438 231.7344,52.3438 C231.4375,52.3438 231.2344,52.4375 231.0156,52.75 L230.8438,52.6719 Z " fill="#000000"/><text fill="#000000" font-family="sans-serif" font-size="12" lengthAdjust="spacingAndGlyphs" textLength="99" x="242.5" y="61.1543">CloneRepository</text><line style="stroke:#A80036;stroke-width:1.5;" x1="214.5" x2="343.5" y1="73" y2="73"/><line style="stroke:#A80036;stroke-width:1.5;" x1="214.5" x2="343.5" y1="81" y2="81"/><!--MD5=[caebe37441fde438dbb58586b9cceffe]
class com.urjc.mca.tfm.generateuml.StreamGobbler--><rect codeLine="2" fill="#FEFECE" filter="url(#f181nbmhw54lns)" height="48" id="com.urjc.mca.tfm.generateuml.StreamGobbler" style="stroke:#A80036;stroke-width:1.5;" width="124" x="215" y="164"/><ellipse cx="230" cy="180" fill="#ADD1B2" rx="11" ry="11" style="stroke:#A80036;stroke-width:1.0;"/><path d="M232.3438,175.6719 C231.4063,175.2344 230.8125,175.0938 229.9375,175.0938 C227.3125,175.0938 225.3125,177.1719 225.3125,179.8906 L225.3125,181.0156 C225.3125,183.5938 227.4219,185.4844 230.3125,185.4844 C231.5313,185.4844 232.6875,185.1875 233.4375,184.6406 C234.0156,184.2344 234.3438,183.7813 234.3438,183.3906 C234.3438,182.9375 233.9531,182.5469 233.4844,182.5469 C233.2656,182.5469 233.0625,182.625 232.875,182.8125 C232.4219,183.2969 232.4219,183.2969 232.2344,183.3906 C231.8125,183.6563 231.125,183.7813 230.3594,183.7813 C228.3125,183.7813 227.0156,182.6875 227.0156,180.9844 L227.0156,179.8906 C227.0156,178.1094 228.2656,176.7969 230,176.7969 C230.5781,176.7969 231.1875,176.9531 231.6563,177.2031 C232.1406,177.4844 232.3125,177.7031 232.4063,178.1094 C232.4688,178.5156 232.5,178.6406 232.6406,178.7656 C232.7813,178.9063 233.0156,179.0156 233.2344,179.0156 C233.5,179.0156 233.7656,178.875 233.9375,178.6563 C234.0469,178.5 234.0781,178.3125 234.0781,177.8906 L234.0781,176.4688 C234.0781,176.0313 234.0625,175.9063 233.9688,175.75 C233.8125,175.4844 233.5313,175.3438 233.2344,175.3438 C232.9375,175.3438 232.7344,175.4375 232.5156,175.75 L232.3438,175.6719 Z " fill="#000000"/><text fill="#000000" font-family="sans-serif" font-size="12" lengthAdjust="spacingAndGlyphs" textLength="92" x="244" y="184.1543">StreamGobbler</text><line style="stroke:#A80036;stroke-width:1.5;" x1="216" x2="338" y1="196" y2="196"/><line style="stroke:#A80036;stroke-width:1.5;" x1="216" x2="338" y1="204" y2="204"/><!--MD5=[0d73d898558f5941c48aa254e51fef11]
class java.lang.Thread--><rect codeLine="3" fill="#FEFECE" filter="url(#f181nbmhw54lns)" height="48" id="java.lang.Thread" style="stroke:#A80036;stroke-width:1.5;" width="74" x="32" y="41"/><ellipse cx="47" cy="57" fill="#ADD1B2" rx="11" ry="11" style="stroke:#A80036;stroke-width:1.0;"/><path d="M49.3438,52.6719 C48.4063,52.2344 47.8125,52.0938 46.9375,52.0938 C44.3125,52.0938 42.3125,54.1719 42.3125,56.8906 L42.3125,58.0156 C42.3125,60.5938 44.4219,62.4844 47.3125,62.4844 C48.5313,62.4844 49.6875,62.1875 50.4375,61.6406 C51.0156,61.2344 51.3438,60.7813 51.3438,60.3906 C51.3438,59.9375 50.9531,59.5469 50.4844,59.5469 C50.2656,59.5469 50.0625,59.625 49.875,59.8125 C49.4219,60.2969 49.4219,60.2969 49.2344,60.3906 C48.8125,60.6563 48.125,60.7813 47.3594,60.7813 C45.3125,60.7813 44.0156,59.6875 44.0156,57.9844 L44.0156,56.8906 C44.0156,55.1094 45.2656,53.7969 47,53.7969 C47.5781,53.7969 48.1875,53.9531 48.6563,54.2031 C49.1406,54.4844 49.3125,54.7031 49.4063,55.1094 C49.4688,55.5156 49.5,55.6406 49.6406,55.7656 C49.7813,55.9063 50.0156,56.0156 50.2344,56.0156 C50.5,56.0156 50.7656,55.875 50.9375,55.6563 C51.0469,55.5 51.0781,55.3125 51.0781,54.8906 L51.0781,53.4688 C51.0781,53.0313 51.0625,52.9063 50.9688,52.75 C50.8125,52.4844 50.5313,52.3438 50.2344,52.3438 C49.9375,52.3438 49.7344,52.4375 49.5156,52.75 L49.3438,52.6719 Z " fill="#000000"/><text fill="#000000" font-family="sans-serif" font-size="12" lengthAdjust="spacingAndGlyphs" textLength="42" x="61" y="61.1543">Thread</text><line style="stroke:#A80036;stroke-width:1.5;" x1="33" x2="105" y1="73" y2="73"/><line style="stroke:#A80036;stroke-width:1.5;" x1="33" x2="105" y1="81" y2="81"/><!--MD5=[3e5da536a98d1ce88349162a207d5656]
class java.util.Properties--><rect codeLine="4" fill="#FEFECE" filter="url(#f181nbmhw54lns)" height="48" id="java.util.Properties" style="stroke:#A80036;stroke-width:1.5;" width="94" x="453" y="164"/><ellipse cx="468" cy="180" fill="#ADD1B2" rx="11" ry="11" style="stroke:#A80036;stroke-width:1.0;"/><path d="M470.3438,175.6719 C469.4063,175.2344 468.8125,175.0938 467.9375,175.0938 C465.3125,175.0938 463.3125,177.1719 463.3125,179.8906 L463.3125,181.0156 C463.3125,183.5938 465.4219,185.4844 468.3125,185.4844 C469.5313,185.4844 470.6875,185.1875 471.4375,184.6406 C472.0156,184.2344 472.3438,183.7813 472.3438,183.3906 C472.3438,182.9375 471.9531,182.5469 471.4844,182.5469 C471.2656,182.5469 471.0625,182.625 470.875,182.8125 C470.4219,183.2969 470.4219,183.2969 470.2344,183.3906 C469.8125,183.6563 469.125,183.7813 468.3594,183.7813 C466.3125,183.7813 465.0156,182.6875 465.0156,180.9844 L465.0156,179.8906 C465.0156,178.1094 466.2656,176.7969 468,176.7969 C468.5781,176.7969 469.1875,176.9531 469.6563,177.2031 C470.1406,177.4844 470.3125,177.7031 470.4063,178.1094 C470.4688,178.5156 470.5,178.6406 470.6406,178.7656 C470.7813,178.9063 471.0156,179.0156 471.2344,179.0156 C471.5,179.0156 471.7656,178.875 471.9375,178.6563 C472.0469,178.5 472.0781,178.3125 472.0781,177.8906 L472.0781,176.4688 C472.0781,176.0313 472.0625,175.9063 471.9688,175.75 C471.8125,175.4844 471.5313,175.3438 471.2344,175.3438 C470.9375,175.3438 470.7344,175.4375 470.5156,175.75 L470.3438,175.6719 Z " fill="#000000"/><text fill="#000000" font-family="sans-serif" font-size="12" lengthAdjust="spacingAndGlyphs" textLength="62" x="482" y="184.1543">Properties</text><line style="stroke:#A80036;stroke-width:1.5;" x1="454" x2="546" y1="196" y2="196"/><line style="stroke:#A80036;stroke-width:1.5;" x1="454" x2="546" y1="204" y2="204"/><!--MD5=[1465deb7f9e852a2256d52d0929b65ef]
reverse link java.lang.Thread to com.urjc.mca.tfm.generateuml.StreamGobbler--><path codeLine="6" d="M123.793,97.875 C159.448,118.617 205.131,145.1918 237.303,163.9069 " fill="none" id="java.lang.Thread-backto-com.urjc.mca.tfm.generateuml.StreamGobbler" style="stroke:#A80036;stroke-width:1.0;"/><polygon fill="none" points="119.954,103.74,106.186,87.632,126.994,91.638,119.954,103.74" style="stroke:#A80036;stroke-width:1.0;"/><!--MD5=[5d0a98b791e72311996c2969bd590d84]
link com.urjc.mca.tfm.generateuml.CloneRepository to com.urjc.mca.tfm.generateuml.StreamGobbler--><path codeLine="7" d="M278.619,89.044 C278.293,108.766 277.822,137.243 277.472,158.4143 " fill="none" id="com.urjc.mca.tfm.generateuml.CloneRepository-to-com.urjc.mca.tfm.generateuml.StreamGobbler" style="stroke:#A80036;stroke-width:1.0;stroke-dasharray:7.0,7.0;"/><polygon fill="#A80036" points="277.386,163.6297,281.5343,154.6971,277.4687,158.6304,273.5354,154.5648,277.386,163.6297" style="stroke:#A80036;stroke-width:1.0;"/><!--MD5=[2088c8451cf060773f344bc3e4f52bd3]
link com.urjc.mca.tfm.generateuml.CloneRepository to java.util.Properties--><path codeLine="8" d="M321.089,89.044 C358.756,109.668 413.91,139.865 453.006,161.2704 " fill="none" id="com.urjc.mca.tfm.generateuml.CloneRepository-to-java.util.Properties" style="stroke:#A80036;stroke-width:1.0;"/><polygon fill="#A80036" points="457.692,163.8361,451.719,156.0052,453.3064,161.4347,447.8768,163.0221,457.692,163.8361" style="stroke:#A80036;stroke-width:1.0;"/><!--MD5=[48c9737e6bfd53651a40d9e4f6030f05]
@startuml
class com.urjc.mca.tfm.generateuml.CloneRepository
class com.urjc.mca.tfm.generateuml.StreamGobbler
class java.lang.Thread
class java.util.Properties 

java.lang.Thread <|- - com.urjc.mca.tfm.generateuml.StreamGobbler
com.urjc.mca.tfm.generateuml.CloneRepository ..> com.urjc.mca.tfm.generateuml.StreamGobbler
com.urjc.mca.tfm.generateuml.CloneRepository - -> java.util.Properties
@enduml

PlantUML version 1.2020.22beta2(Unknown compile time)
(GPL source distribution)
Java Runtime: Java(TM) SE Runtime Environment
JVM: Java HotSpot(TM) 64-Bit Server VM
Default Encoding: UTF-8
Language: en
Country: US
--></g></svg>