<?xml version="1.0" encoding="UTF-8" standalone="no"?>
<svg xmlns="http://www.w3.org/2000/svg" contentScriptType="application/ecmascript" contentStyleType="text/css"
     height="410px" preserveAspectRatio="none" style="width:312px;height:410px;" version="1.1" viewBox="0 0 312 410"
     width="312px" zoomAndPan="magnify"><defs><filter height="300%" id="f1cjv7aahijckn" width="300%" x="-1" y="-1"><feGaussianBlur result="blurOut" stdDeviation="2.0"/><feColorMatrix in="blurOut" result="blurOut2" type="matrix" values="0 0 0 0 0 0 0 0 0 0 0 0 0 0 0 0 0 0 .4 0"/><feOffset dx="4.0" dy="4.0" in="blurOut2" result="blurOut3"/><feBlend in="SourceGraphic" in2="blurOut3" mode="normal"/></filter></defs><g><ellipse cx="153" cy="20" fill="#000000" filter="url(#f1cjv7aahijckn)" rx="10" ry="10" style="stroke:none;stroke-width:1.0;"/><rect fill="#000000" filter="url(#f1cjv7aahijckn)" height="6" rx="2.5" ry="2.5" style="stroke:#000000;stroke-width:1.0;" width="284" x="11" y="50"/><rect fill="#FEFECE" filter="url(#f1cjv7aahijckn)" height="33.9688" rx="12.5" ry="12.5" style="stroke:#A80036;stroke-width:1.5;" width="104" x="23" y="129.9688"/><text fill="#000000" font-family="sans-serif" font-size="12" lengthAdjust="spacingAndGlyphs" textLength="84" x="33" y="151.1074">crear dominio</text><rect fill="#FEFECE" filter="url(#f1cjv7aahijckn)" height="33.9688" rx="12.5" ry="12.5" style="stroke:#A80036;stroke-width:1.5;" width="128" x="155" y="76"/><text fill="#000000" font-family="sans-serif" font-size="12" lengthAdjust="spacingAndGlyphs" textLength="108" x="165" y="97.1387">descargar codigo</text><rect fill="#FEFECE" filter="url(#f1cjv7aahijckn)" height="33.9688" rx="12.5" ry="12.5" style="stroke:#A80036;stroke-width:1.5;" width="112" x="163" y="129.9688"/><text fill="#000000" font-family="sans-serif" font-size="12" lengthAdjust="spacingAndGlyphs" textLength="92" x="173" y="151.1074">analizar c칩digo</text><rect fill="#FEFECE" filter="url(#f1cjv7aahijckn)" height="33.9688" rx="12.5" ry="12.5" style="stroke:#A80036;stroke-width:1.5;" width="104" x="167" y="183.9375"/><text fill="#000000" font-family="sans-serif" font-size="12" lengthAdjust="spacingAndGlyphs" textLength="84" x="177" y="205.0762">crear dominio</text><rect fill="#000000" filter="url(#f1cjv7aahijckn)" height="6" rx="2.5" ry="2.5" style="stroke:#000000;stroke-width:1.0;" width="284" x="11" y="237.9063"/><rect fill="#FEFECE" filter="url(#f1cjv7aahijckn)" height="33.9688" rx="12.5" ry="12.5" style="stroke:#A80036;stroke-width:1.5;" width="122" x="92" y="263.9063"/><text fill="#000000" font-family="sans-serif" font-size="12" lengthAdjust="spacingAndGlyphs" textLength="102" x="102" y="285.0449">generar plantuml</text><rect fill="#FEFECE" filter="url(#f1cjv7aahijckn)" height="33.9688" rx="12.5" ry="12.5" style="stroke:#A80036;stroke-width:1.5;" width="114" x="96" y="317.875"/><text fill="#000000" font-family="sans-serif" font-size="12" lengthAdjust="spacingAndGlyphs" textLength="94" x="106" y="339.0137">generar gr치fico</text><ellipse cx="153" cy="382.8438" fill="#FFFFFF" filter="url(#f1cjv7aahijckn)" rx="11" ry="11" style="stroke:#000000;stroke-width:1.0;"/><ellipse cx="153" cy="382.8438" fill="#000000" rx="6" ry="6" style="stroke:#7F7F7F;stroke-width:1.0;"/><line style="stroke:#A80036;stroke-width:1.5;" x1="219" x2="219" y1="109.9688" y2="129.9688"/><polygon fill="#A80036" points="215,119.9688,219,129.9688,223,119.9688,219,123.9688" style="stroke:#A80036;stroke-width:1.0;"/><line style="stroke:#A80036;stroke-width:1.5;" x1="219" x2="219" y1="163.9375" y2="183.9375"/><polygon fill="#A80036" points="215,173.9375,219,183.9375,223,173.9375,219,177.9375" style="stroke:#A80036;stroke-width:1.0;"/><line style="stroke:#A80036;stroke-width:1.5;" x1="75" x2="75" y1="56" y2="129.9688"/><polygon fill="#A80036" points="71,119.9688,75,129.9688,79,119.9688,75,123.9688" style="stroke:#A80036;stroke-width:1.0;"/><line style="stroke:#A80036;stroke-width:1.5;" x1="219" x2="219" y1="56" y2="76"/><polygon fill="#A80036" points="215,66,219,76,223,66,219,70" style="stroke:#A80036;stroke-width:1.0;"/><line style="stroke:#A80036;stroke-width:1.5;" x1="75" x2="75" y1="163.9375" y2="237.9063"/><polygon fill="#A80036" points="71,227.9063,75,237.9063,79,227.9063,75,231.9063" style="stroke:#A80036;stroke-width:1.0;"/><line style="stroke:#A80036;stroke-width:1.5;" x1="219" x2="219" y1="217.9063" y2="237.9063"/><polygon fill="#A80036" points="215,227.9063,219,237.9063,223,227.9063,219,231.9063" style="stroke:#A80036;stroke-width:1.0;"/><line style="stroke:#A80036;stroke-width:1.5;" x1="153" x2="153" y1="30" y2="50"/><polygon fill="#A80036" points="149,40,153,50,157,40,153,44" style="stroke:#A80036;stroke-width:1.0;"/><line style="stroke:#A80036;stroke-width:1.5;" x1="153" x2="153" y1="243.9063" y2="263.9063"/><polygon fill="#A80036" points="149,253.9063,153,263.9063,157,253.9063,153,257.9063" style="stroke:#A80036;stroke-width:1.0;"/><line style="stroke:#A80036;stroke-width:1.5;" x1="153" x2="153" y1="297.875" y2="317.875"/><polygon fill="#A80036" points="149,307.875,153,317.875,157,307.875,153,311.875" style="stroke:#A80036;stroke-width:1.0;"/><line style="stroke:#A80036;stroke-width:1.5;" x1="153" x2="153" y1="351.8438" y2="371.8438"/><polygon fill="#A80036" points="149,361.8438,153,371.8438,157,361.8438,153,365.8438" style="stroke:#A80036;stroke-width:1.0;"/><!--MD5=[024633c7d776c8f77fb4f161196a866d]
@startuml
start
fork
:crear dominio;
fork again
:descargar codigo;
:analizar c칩digo;
:crear dominio;
end fork;
:generar plantuml;
:generar gr치fico;
stop
@enduml

PlantUML version 1.2020.22(Sun Dec 06 09:36:27 UTC 2020)
(GPL source distribution)
Java Runtime: Java(TM) SE Runtime Environment
JVM: Java HotSpot(TM) 64-Bit Server VM
Default Encoding: UTF-8
Language: en
Country: US
--></g></svg>