<?xml version="1.0" encoding="UTF-8" standalone="no"?>
<svg xmlns="http://www.w3.org/2000/svg" contentScriptType="application/ecmascript" contentStyleType="text/css"
     height="285px" preserveAspectRatio="none" style="width:374px;height:285px;" version="1.1" viewBox="0 0 374 285"
     width="374px" zoomAndPan="magnify"><defs><filter height="300%" id="f13f5njxqnbexy" width="300%" x="-1" y="-1"><feGaussianBlur result="blurOut" stdDeviation="2.0"/><feColorMatrix in="blurOut" result="blurOut2" type="matrix" values="0 0 0 0 0 0 0 0 0 0 0 0 0 0 0 0 0 0 .4 0"/><feOffset dx="4.0" dy="4.0" in="blurOut2" result="blurOut3"/><feBlend in="SourceGraphic" in2="blurOut3" mode="normal"/></filter></defs><g><!--MD5=[e0ded2fc8f5d737c785babf3aeef48ec]
class Todo_de_X--><rect codeLine="1" fill="#FEFECE" filter="url(#f13f5njxqnbexy)" height="48" id="Todo_de_X" style="stroke:#A80036;stroke-width:1.5;" width="99" x="7" y="7"/><ellipse cx="22" cy="23" fill="#ADD1B2" rx="11" ry="11" style="stroke:#A80036;stroke-width:1.0;"/><path d="M24.3438,18.6719 C23.4063,18.2344 22.8125,18.0938 21.9375,18.0938 C19.3125,18.0938 17.3125,20.1719 17.3125,22.8906 L17.3125,24.0156 C17.3125,26.5938 19.4219,28.4844 22.3125,28.4844 C23.5313,28.4844 24.6875,28.1875 25.4375,27.6406 C26.0156,27.2344 26.3438,26.7813 26.3438,26.3906 C26.3438,25.9375 25.9531,25.5469 25.4844,25.5469 C25.2656,25.5469 25.0625,25.625 24.875,25.8125 C24.4219,26.2969 24.4219,26.2969 24.2344,26.3906 C23.8125,26.6563 23.125,26.7813 22.3594,26.7813 C20.3125,26.7813 19.0156,25.6875 19.0156,23.9844 L19.0156,22.8906 C19.0156,21.1094 20.2656,19.7969 22,19.7969 C22.5781,19.7969 23.1875,19.9531 23.6563,20.2031 C24.1406,20.4844 24.3125,20.7031 24.4063,21.1094 C24.4688,21.5156 24.5,21.6406 24.6406,21.7656 C24.7813,21.9063 25.0156,22.0156 25.2344,22.0156 C25.5,22.0156 25.7656,21.875 25.9375,21.6563 C26.0469,21.5 26.0781,21.3125 26.0781,20.8906 L26.0781,19.4688 C26.0781,19.0313 26.0625,18.9063 25.9688,18.75 C25.8125,18.4844 25.5313,18.3438 25.2344,18.3438 C24.9375,18.3438 24.7344,18.4375 24.5156,18.75 L24.3438,18.6719 Z " fill="#000000"/><text fill="#000000" font-family="sans-serif" font-size="12" lengthAdjust="spacingAndGlyphs" textLength="67" x="36" y="27.1543">Todo_de_X</text><line style="stroke:#A80036;stroke-width:1.5;" x1="8" x2="105" y1="39" y2="39"/><line style="stroke:#A80036;stroke-width:1.5;" x1="8" x2="105" y1="47" y2="47"/><!--MD5=[c16719ac4a691fbb2b993dd32fbda91a]
class Usa_X--><rect codeLine="2" fill="#FEFECE" filter="url(#f13f5njxqnbexy)" height="48" id="Usa_X" style="stroke:#A80036;stroke-width:1.5;" width="69" x="141" y="7"/><ellipse cx="156" cy="23" fill="#ADD1B2" rx="11" ry="11" style="stroke:#A80036;stroke-width:1.0;"/><path d="M158.3438,18.6719 C157.4063,18.2344 156.8125,18.0938 155.9375,18.0938 C153.3125,18.0938 151.3125,20.1719 151.3125,22.8906 L151.3125,24.0156 C151.3125,26.5938 153.4219,28.4844 156.3125,28.4844 C157.5313,28.4844 158.6875,28.1875 159.4375,27.6406 C160.0156,27.2344 160.3438,26.7813 160.3438,26.3906 C160.3438,25.9375 159.9531,25.5469 159.4844,25.5469 C159.2656,25.5469 159.0625,25.625 158.875,25.8125 C158.4219,26.2969 158.4219,26.2969 158.2344,26.3906 C157.8125,26.6563 157.125,26.7813 156.3594,26.7813 C154.3125,26.7813 153.0156,25.6875 153.0156,23.9844 L153.0156,22.8906 C153.0156,21.1094 154.2656,19.7969 156,19.7969 C156.5781,19.7969 157.1875,19.9531 157.6563,20.2031 C158.1406,20.4844 158.3125,20.7031 158.4063,21.1094 C158.4688,21.5156 158.5,21.6406 158.6406,21.7656 C158.7813,21.9063 159.0156,22.0156 159.2344,22.0156 C159.5,22.0156 159.7656,21.875 159.9375,21.6563 C160.0469,21.5 160.0781,21.3125 160.0781,20.8906 L160.0781,19.4688 C160.0781,19.0313 160.0625,18.9063 159.9688,18.75 C159.8125,18.4844 159.5313,18.3438 159.2344,18.3438 C158.9375,18.3438 158.7344,18.4375 158.5156,18.75 L158.3438,18.6719 Z " fill="#000000"/><text fill="#000000" font-family="sans-serif" font-size="12" lengthAdjust="spacingAndGlyphs" textLength="37" x="170" y="27.1543">Usa_X</text><line style="stroke:#A80036;stroke-width:1.5;" x1="142" x2="209" y1="39" y2="39"/><line style="stroke:#A80036;stroke-width:1.5;" x1="142" x2="209" y1="47" y2="47"/><!--MD5=[224f9b79532c27a78f7bae7981b23587]
class Asociado_a_X--><rect codeLine="3" fill="#FEFECE" filter="url(#f13f5njxqnbexy)" height="48" id="Asociado_a_X" style="stroke:#A80036;stroke-width:1.5;" width="115" x="245" y="7"/><ellipse cx="260" cy="23" fill="#ADD1B2" rx="11" ry="11" style="stroke:#A80036;stroke-width:1.0;"/><path d="M262.3438,18.6719 C261.4063,18.2344 260.8125,18.0938 259.9375,18.0938 C257.3125,18.0938 255.3125,20.1719 255.3125,22.8906 L255.3125,24.0156 C255.3125,26.5938 257.4219,28.4844 260.3125,28.4844 C261.5313,28.4844 262.6875,28.1875 263.4375,27.6406 C264.0156,27.2344 264.3438,26.7813 264.3438,26.3906 C264.3438,25.9375 263.9531,25.5469 263.4844,25.5469 C263.2656,25.5469 263.0625,25.625 262.875,25.8125 C262.4219,26.2969 262.4219,26.2969 262.2344,26.3906 C261.8125,26.6563 261.125,26.7813 260.3594,26.7813 C258.3125,26.7813 257.0156,25.6875 257.0156,23.9844 L257.0156,22.8906 C257.0156,21.1094 258.2656,19.7969 260,19.7969 C260.5781,19.7969 261.1875,19.9531 261.6563,20.2031 C262.1406,20.4844 262.3125,20.7031 262.4063,21.1094 C262.4688,21.5156 262.5,21.6406 262.6406,21.7656 C262.7813,21.9063 263.0156,22.0156 263.2344,22.0156 C263.5,22.0156 263.7656,21.875 263.9375,21.6563 C264.0469,21.5 264.0781,21.3125 264.0781,20.8906 L264.0781,19.4688 C264.0781,19.0313 264.0625,18.9063 263.9688,18.75 C263.8125,18.4844 263.5313,18.3438 263.2344,18.3438 C262.9375,18.3438 262.7344,18.4375 262.5156,18.75 L262.3438,18.6719 Z " fill="#000000"/><text fill="#000000" font-family="sans-serif" font-size="12" lengthAdjust="spacingAndGlyphs" textLength="83" x="274" y="27.1543">Asociado_a_X</text><line style="stroke:#A80036;stroke-width:1.5;" x1="246" x2="359" y1="39" y2="39"/><line style="stroke:#A80036;stroke-width:1.5;" x1="246" x2="359" y1="47" y2="47"/><!--MD5=[bfcec886569ce0907c8dd7774cd6ebb5]
class Descendiente_de_X--><rect codeLine="4" fill="#FEFECE" filter="url(#f13f5njxqnbexy)" height="48" id="Descendiente_de_X" style="stroke:#A80036;stroke-width:1.5;" width="152" x="99.5" y="223"/><ellipse cx="114.5" cy="239" fill="#ADD1B2" rx="11" ry="11" style="stroke:#A80036;stroke-width:1.0;"/><path d="M116.8438,234.6719 C115.9063,234.2344 115.3125,234.0938 114.4375,234.0938 C111.8125,234.0938 109.8125,236.1719 109.8125,238.8906 L109.8125,240.0156 C109.8125,242.5938 111.9219,244.4844 114.8125,244.4844 C116.0313,244.4844 117.1875,244.1875 117.9375,243.6406 C118.5156,243.2344 118.8438,242.7813 118.8438,242.3906 C118.8438,241.9375 118.4531,241.5469 117.9844,241.5469 C117.7656,241.5469 117.5625,241.625 117.375,241.8125 C116.9219,242.2969 116.9219,242.2969 116.7344,242.3906 C116.3125,242.6563 115.625,242.7813 114.8594,242.7813 C112.8125,242.7813 111.5156,241.6875 111.5156,239.9844 L111.5156,238.8906 C111.5156,237.1094 112.7656,235.7969 114.5,235.7969 C115.0781,235.7969 115.6875,235.9531 116.1563,236.2031 C116.6406,236.4844 116.8125,236.7031 116.9063,237.1094 C116.9688,237.5156 117,237.6406 117.1406,237.7656 C117.2813,237.9063 117.5156,238.0156 117.7344,238.0156 C118,238.0156 118.2656,237.875 118.4375,237.6563 C118.5469,237.5 118.5781,237.3125 118.5781,236.8906 L118.5781,235.4688 C118.5781,235.0313 118.5625,234.9063 118.4688,234.75 C118.3125,234.4844 118.0313,234.3438 117.7344,234.3438 C117.4375,234.3438 117.2344,234.4375 117.0156,234.75 L116.8438,234.6719 Z " fill="#000000"/><text fill="#000000" font-family="sans-serif" font-size="12" lengthAdjust="spacingAndGlyphs" textLength="120" x="128.5" y="243.1543">Descendiente_de_X</text><line style="stroke:#A80036;stroke-width:1.5;" x1="100.5" x2="250.5" y1="255" y2="255"/><line style="stroke:#A80036;stroke-width:1.5;" x1="100.5" x2="250.5" y1="263" y2="263"/><!--MD5=[b203f6b098b8dffe494a95d9c500f8e2]
class X--><rect fill="#FEFECE" filter="url(#f13f5njxqnbexy)" height="48" id="X" style="stroke:#A80036;stroke-width:1.5;" width="40" x="155.5" y="115"/><ellipse cx="170.5" cy="131" fill="#ADD1B2" rx="11" ry="11" style="stroke:#A80036;stroke-width:1.0;"/><path d="M172.8438,126.6719 C171.9063,126.2344 171.3125,126.0938 170.4375,126.0938 C167.8125,126.0938 165.8125,128.1719 165.8125,130.8906 L165.8125,132.0156 C165.8125,134.5938 167.9219,136.4844 170.8125,136.4844 C172.0313,136.4844 173.1875,136.1875 173.9375,135.6406 C174.5156,135.2344 174.8438,134.7813 174.8438,134.3906 C174.8438,133.9375 174.4531,133.5469 173.9844,133.5469 C173.7656,133.5469 173.5625,133.625 173.375,133.8125 C172.9219,134.2969 172.9219,134.2969 172.7344,134.3906 C172.3125,134.6563 171.625,134.7813 170.8594,134.7813 C168.8125,134.7813 167.5156,133.6875 167.5156,131.9844 L167.5156,130.8906 C167.5156,129.1094 168.7656,127.7969 170.5,127.7969 C171.0781,127.7969 171.6875,127.9531 172.1563,128.2031 C172.6406,128.4844 172.8125,128.7031 172.9063,129.1094 C172.9688,129.5156 173,129.6406 173.1406,129.7656 C173.2813,129.9063 173.5156,130.0156 173.7344,130.0156 C174,130.0156 174.2656,129.875 174.4375,129.6563 C174.5469,129.5 174.5781,129.3125 174.5781,128.8906 L174.5781,127.4688 C174.5781,127.0313 174.5625,126.9063 174.4688,126.75 C174.3125,126.4844 174.0313,126.3438 173.7344,126.3438 C173.4375,126.3438 173.2344,126.4375 173.0156,126.75 L172.8438,126.6719 Z " fill="#000000"/><text fill="#000000" font-family="sans-serif" font-size="12" lengthAdjust="spacingAndGlyphs" textLength="8" x="184.5" y="135.1543">X</text><line style="stroke:#A80036;stroke-width:1.5;" x1="156.5" x2="194.5" y1="147" y2="147"/><line style="stroke:#A80036;stroke-width:1.5;" x1="156.5" x2="194.5" y1="155" y2="155"/><!--MD5=[7e89fec46af417b9553968599a896d7d]
link Todo_de_X to X--><path codeLine="5" d="M91.2817,62.9818 C91.2817,62.9818 129.021,96.599 145.225,111.032 " fill="none" id="Todo_de_X-X" style="stroke:#A80036;stroke-width:1.0;"/><polygon fill="#A80036" points="155.246,119.959,151.1864,110.9857,151.5125,116.6332,145.8651,116.9593,155.246,119.959" style="stroke:#A80036;stroke-width:1.0;"/><line style="stroke:#A80036;stroke-width:1.0;" x1="151.5125" x2="145.5385" y1="116.6332" y2="111.3115"/><polygon fill="#A80036" points="82.3212,55,84.1409,61.9777,91.2817,62.9818,89.4621,56.0041,82.3212,55" style="stroke:#A80036;stroke-width:1.0;"/><!--MD5=[729199c2a4923a46b92b2414d6e691a8]
link Usa_X to X--><path codeLine="6" d="M175.5,55 C175.5,71.003 175.5,92.446 175.5,109.528 " fill="none" id="Usa_X-to-X" style="stroke:#A80036;stroke-width:1.0;stroke-dasharray:7.0,7.0;"/><polygon fill="#A80036" points="175.5,114.678,179.5,105.678,175.5,109.678,171.5,105.678,175.5,114.678" style="stroke:#A80036;stroke-width:1.0;"/><!--MD5=[2fbae0e8206336491591d7974ed80db6]
link Asociado_a_X to X--><path codeLine="7" d="M274.943,55 C252.417,73.802 220.892,100.114 199.416,118.039 " fill="none" id="Asociado_a_X-to-X" style="stroke:#A80036;stroke-width:1.0;"/><polygon fill="#A80036" points="195.527,121.284,204.9995,118.5873,199.3654,118.0798,199.8728,112.4458,195.527,121.284" style="stroke:#A80036;stroke-width:1.0;"/><!--MD5=[c4d45f73cb06d36b2fc6322d269c7ddd]
reverse link X to Descendiente_de_X--><path codeLine="8" d="M175.5,183.0236 C175.5,196.5792 175.5,211.0381 175.5,222.6784 " fill="none" id="X-backto-Descendiente_de_X" style="stroke:#A80036;stroke-width:1.0;"/><polygon fill="none" points="168.5,183.0005,175.5,163,182.5,183.0004,168.5,183.0005" style="stroke:#A80036;stroke-width:1.0;"/><!--MD5=[17b313738eb5791e2d019091254eb0ec]
@startuml
class Todo_de_X
class Usa_X
class Asociado_a_X
class Descendiente_de_X
Todo_de_X *- -> X
Usa_X ..> X
Asociado_a_X - -> X
X <|- - Descendiente_de_X
@enduml

PlantUML version 1.2020.21beta7(Unknown compile time)
(GPL source distribution)
Java Runtime: Java(TM) SE Runtime Environment
JVM: Java HotSpot(TM) 64-Bit Server VM
Default Encoding: UTF-8
Language: en
Country: US
--></g></svg>