<?xml version="1.0" encoding="UTF-8" standalone="no"?>
<svg xmlns="http://www.w3.org/2000/svg" contentScriptType="application/ecmascript" contentStyleType="text/css"
     height="220px" preserveAspectRatio="none" style="width:127px;height:220px;" version="1.1" viewBox="0 0 127 220"
     width="127px" zoomAndPan="magnify"><defs><filter height="300%" id="fpfeuy4jto543" width="300%" x="-1" y="-1"><feGaussianBlur result="blurOut" stdDeviation="2.0"/><feColorMatrix in="blurOut" result="blurOut2" type="matrix" values="0 0 0 0 0 0 0 0 0 0 0 0 0 0 0 0 0 0 .4 0"/><feOffset dx="4.0" dy="4.0" in="blurOut2" result="blurOut3"/><feBlend in="SourceGraphic" in2="blurOut3" mode="normal"/></filter></defs><g><!--MD5=[3c22739714270d73bb1ebb97dee24d10]
cluster package--><polygon fill="#FFFFFF" filter="url(#fpfeuy4jto543)" points="16,6,89,6,96,28.2969,110,28.2969,110,213,16,213,16,6" style="stroke:#000000;stroke-width:1.5;"/><line style="stroke:#000000;stroke-width:1.5;" x1="16" x2="96" y1="28.2969" y2="28.2969"/><text fill="#000000" font-family="sans-serif" font-size="14" font-weight="bold" lengthAdjust="spacingAndGlyphs" textLength="67" x="20" y="20.9951">package</text><!--MD5=[e108eb7ecdb5e0eb0f3c0ef062fd094b]
class package.Unit1--><rect codeLine="1" fill="#FEFECE" filter="url(#fpfeuy4jto543)" height="48" id="package.Unit1" style="stroke:#A80036;stroke-width:1.5;" width="62" x="32" y="41"/><ellipse cx="47" cy="57" fill="#ADD1B2" rx="11" ry="11" style="stroke:#A80036;stroke-width:1.0;"/><path d="M49.3438,52.6719 C48.4063,52.2344 47.8125,52.0938 46.9375,52.0938 C44.3125,52.0938 42.3125,54.1719 42.3125,56.8906 L42.3125,58.0156 C42.3125,60.5938 44.4219,62.4844 47.3125,62.4844 C48.5313,62.4844 49.6875,62.1875 50.4375,61.6406 C51.0156,61.2344 51.3438,60.7813 51.3438,60.3906 C51.3438,59.9375 50.9531,59.5469 50.4844,59.5469 C50.2656,59.5469 50.0625,59.625 49.875,59.8125 C49.4219,60.2969 49.4219,60.2969 49.2344,60.3906 C48.8125,60.6563 48.125,60.7813 47.3594,60.7813 C45.3125,60.7813 44.0156,59.6875 44.0156,57.9844 L44.0156,56.8906 C44.0156,55.1094 45.2656,53.7969 47,53.7969 C47.5781,53.7969 48.1875,53.9531 48.6563,54.2031 C49.1406,54.4844 49.3125,54.7031 49.4063,55.1094 C49.4688,55.5156 49.5,55.6406 49.6406,55.7656 C49.7813,55.9063 50.0156,56.0156 50.2344,56.0156 C50.5,56.0156 50.7656,55.875 50.9375,55.6563 C51.0469,55.5 51.0781,55.3125 51.0781,54.8906 L51.0781,53.4688 C51.0781,53.0313 51.0625,52.9063 50.9688,52.75 C50.8125,52.4844 50.5313,52.3438 50.2344,52.3438 C49.9375,52.3438 49.7344,52.4375 49.5156,52.75 L49.3438,52.6719 Z " fill="#000000"/><text fill="#000000" font-family="sans-serif" font-size="12" lengthAdjust="spacingAndGlyphs" textLength="30" x="61" y="61.1543">Unit1</text><line style="stroke:#A80036;stroke-width:1.5;" x1="33" x2="93" y1="73" y2="73"/><line style="stroke:#A80036;stroke-width:1.5;" x1="33" x2="93" y1="81" y2="81"/><!--MD5=[f5c06af6b885dd2422a7902888e5d526]
class package.Part--><rect codeLine="2" fill="#FEFECE" filter="url(#fpfeuy4jto543)" height="48" id="package.Part" style="stroke:#A80036;stroke-width:1.5;" width="54" x="36" y="149"/><ellipse cx="51" cy="165" fill="#ADD1B2" rx="11" ry="11" style="stroke:#A80036;stroke-width:1.0;"/><path d="M53.3438,160.6719 C52.4063,160.2344 51.8125,160.0938 50.9375,160.0938 C48.3125,160.0938 46.3125,162.1719 46.3125,164.8906 L46.3125,166.0156 C46.3125,168.5938 48.4219,170.4844 51.3125,170.4844 C52.5313,170.4844 53.6875,170.1875 54.4375,169.6406 C55.0156,169.2344 55.3438,168.7813 55.3438,168.3906 C55.3438,167.9375 54.9531,167.5469 54.4844,167.5469 C54.2656,167.5469 54.0625,167.625 53.875,167.8125 C53.4219,168.2969 53.4219,168.2969 53.2344,168.3906 C52.8125,168.6563 52.125,168.7813 51.3594,168.7813 C49.3125,168.7813 48.0156,167.6875 48.0156,165.9844 L48.0156,164.8906 C48.0156,163.1094 49.2656,161.7969 51,161.7969 C51.5781,161.7969 52.1875,161.9531 52.6563,162.2031 C53.1406,162.4844 53.3125,162.7031 53.4063,163.1094 C53.4688,163.5156 53.5,163.6406 53.6406,163.7656 C53.7813,163.9063 54.0156,164.0156 54.2344,164.0156 C54.5,164.0156 54.7656,163.875 54.9375,163.6563 C55.0469,163.5 55.0781,163.3125 55.0781,162.8906 L55.0781,161.4688 C55.0781,161.0313 55.0625,160.9063 54.9688,160.75 C54.8125,160.4844 54.5313,160.3438 54.2344,160.3438 C53.9375,160.3438 53.7344,160.4375 53.5156,160.75 L53.3438,160.6719 Z " fill="#000000"/><text fill="#000000" font-family="sans-serif" font-size="12" lengthAdjust="spacingAndGlyphs" textLength="22" x="65" y="169.1543">Part</text><line style="stroke:#A80036;stroke-width:1.5;" x1="37" x2="89" y1="181" y2="181"/><line style="stroke:#A80036;stroke-width:1.5;" x1="37" x2="89" y1="189" y2="189"/><!--MD5=[193cb646cd65b7f7d4cc1a41644aba12]
link package.Unit1 to package.Part--><path codeLine="3" d="M63,101 C63,101 63,124.677 63,135.3638 " fill="none" id="package.Unit1-package.Part" style="stroke:#A80036;stroke-width:1.0;"/><polygon fill="#A80036" points="63,148.6784,67,139.6784,63,143.6784,59,139.6784,63,148.6784" style="stroke:#A80036;stroke-width:1.0;"/><line style="stroke:#A80036;stroke-width:1.0;" x1="63" x2="63.0001" y1="143.6784" y2="135.6785"/><polygon fill="#A80036" points="63,89,59,95,63,101,67,95,63,89" style="stroke:#A80036;stroke-width:1.0;"/><!--MD5=[f28f2d061bbd1af2e1ca107c7cad35b5]
@startuml
class package.Unit1
class package.Part
package.Unit1 *- -> package.Part
@enduml

PlantUML version 1.2020.21beta7(Unknown compile time)
(GPL source distribution)
Java Runtime: Java(TM) SE Runtime Environment
JVM: Java HotSpot(TM) 64-Bit Server VM
Default Encoding: UTF-8
Language: en
Country: US
--></g></svg>