<?xml version="1.0" encoding="UTF-8" standalone="no"?>
<svg xmlns="http://www.w3.org/2000/svg" contentScriptType="application/ecmascript" contentStyleType="text/css"
     height="178px" preserveAspectRatio="none" style="width:262px;height:178px;" version="1.1" viewBox="0 0 262 178"
     width="262px" zoomAndPan="magnify"><defs><filter height="300%" id="fsxdpzk0vlnq2" width="300%" x="-1" y="-1"><feGaussianBlur result="blurOut" stdDeviation="2.0"/><feColorMatrix in="blurOut" result="blurOut2" type="matrix" values="0 0 0 0 0 0 0 0 0 0 0 0 0 0 0 0 0 0 .4 0"/><feOffset dx="4.0" dy="4.0" in="blurOut2" result="blurOut3"/><feBlend in="SourceGraphic" in2="blurOut3" mode="normal"/></filter></defs><g><polygon fill="#FFFFFF" filter="url(#fsxdpzk0vlnq2)" points="16,119,99,119,106,141.2969,113,141.2969,113,171.5938,16,171.5938,16,119" style="stroke:#000000;stroke-width:1.5;"/><line style="stroke:#000000;stroke-width:1.5;" x1="16" x2="106" y1="141.2969" y2="141.2969"/><text fill="#000000" font-family="sans-serif" font-size="14" font-weight="bold" lengthAdjust="spacingAndGlyphs" textLength="77" x="20" y="133.9951">package1</text><polygon fill="#FFFFFF" filter="url(#fsxdpzk0vlnq2)" points="148,6,231,6,238,28.2969,245,28.2969,245,58.5938,148,58.5938,148,6" style="stroke:#000000;stroke-width:1.5;"/><line style="stroke:#000000;stroke-width:1.5;" x1="148" x2="238" y1="28.2969" y2="28.2969"/><text fill="#000000" font-family="sans-serif" font-size="14" font-weight="bold" lengthAdjust="spacingAndGlyphs" textLength="77" x="152" y="20.9951">package2</text><polygon fill="#FFFFFF" filter="url(#fsxdpzk0vlnq2)" points="16,6,99,6,106,28.2969,113,28.2969,113,58.5938,16,58.5938,16,6" style="stroke:#000000;stroke-width:1.5;"/><line style="stroke:#000000;stroke-width:1.5;" x1="16" x2="106" y1="28.2969" y2="28.2969"/><text fill="#000000" font-family="sans-serif" font-size="14" font-weight="bold" lengthAdjust="spacingAndGlyphs" textLength="77" x="20" y="20.9951">package3</text><!--MD5=[746f37e625993f75962499a8fe94fbb1]
link package3 to package1--><path d="M64.5,59.245 C64.5,75.4958 64.5,96.5795 64.5,113.7139 " fill="none" id="package3-to-package1" style="stroke:#A80036;stroke-width:1.0;stroke-dasharray:7.0,7.0;"/><polygon fill="#A80036" points="64.5,118.895,68.5,109.895,64.5,113.895,60.5,109.895,64.5,118.895" style="stroke:#A80036;stroke-width:1.0;"/><!--MD5=[f6e462b87c588a0fae9e17a463538483]
@startuml
package package1 {} 
package package2 {} 
package package3 {} 
package3 ..> package1
@enduml

PlantUML version 1.2020.21beta7(Unknown compile time)
(GPL source distribution)
Java Runtime: Java(TM) SE Runtime Environment
JVM: Java HotSpot(TM) 64-Bit Server VM
Default Encoding: UTF-8
Language: en
Country: US
--></g></svg>