<?xml version="1.0" encoding="UTF-8" standalone="no"?>
<svg xmlns="http://www.w3.org/2000/svg" contentScriptType="application/ecmascript" contentStyleType="text/css"
     height="220px" preserveAspectRatio="none" style="width:145px;height:220px;" version="1.1" viewBox="0 0 145 220"
     width="145px" zoomAndPan="magnify"><defs><filter height="300%" id="f14vzo6ydd36gy" width="300%" x="-1" y="-1"><feGaussianBlur result="blurOut" stdDeviation="2.0"/><feColorMatrix in="blurOut" result="blurOut2" type="matrix" values="0 0 0 0 0 0 0 0 0 0 0 0 0 0 0 0 0 0 .4 0"/><feOffset dx="4.0" dy="4.0" in="blurOut2" result="blurOut3"/><feBlend in="SourceGraphic" in2="blurOut3" mode="normal"/></filter></defs><g><!--MD5=[3c22739714270d73bb1ebb97dee24d10]
cluster package--><polygon fill="#FFFFFF" filter="url(#f14vzo6ydd36gy)" points="16,6,89,6,96,28.2969,128,28.2969,128,213,16,213,16,6" style="stroke:#000000;stroke-width:1.5;"/><line style="stroke:#000000;stroke-width:1.5;" x1="16" x2="96" y1="28.2969" y2="28.2969"/><text fill="#000000" font-family="sans-serif" font-size="14" font-weight="bold" lengthAdjust="spacingAndGlyphs" textLength="67" x="20" y="20.9951">package</text><!--MD5=[e108eb7ecdb5e0eb0f3c0ef062fd094b]
class package.Unit1--><rect codeLine="1" fill="#FEFECE" filter="url(#f14vzo6ydd36gy)" height="48" id="package.Unit1" style="stroke:#A80036;stroke-width:1.5;" width="62" x="41" y="41"/><ellipse cx="56" cy="57" fill="#ADD1B2" rx="11" ry="11" style="stroke:#A80036;stroke-width:1.0;"/><path d="M58.3438,52.6719 C57.4063,52.2344 56.8125,52.0938 55.9375,52.0938 C53.3125,52.0938 51.3125,54.1719 51.3125,56.8906 L51.3125,58.0156 C51.3125,60.5938 53.4219,62.4844 56.3125,62.4844 C57.5313,62.4844 58.6875,62.1875 59.4375,61.6406 C60.0156,61.2344 60.3438,60.7813 60.3438,60.3906 C60.3438,59.9375 59.9531,59.5469 59.4844,59.5469 C59.2656,59.5469 59.0625,59.625 58.875,59.8125 C58.4219,60.2969 58.4219,60.2969 58.2344,60.3906 C57.8125,60.6563 57.125,60.7813 56.3594,60.7813 C54.3125,60.7813 53.0156,59.6875 53.0156,57.9844 L53.0156,56.8906 C53.0156,55.1094 54.2656,53.7969 56,53.7969 C56.5781,53.7969 57.1875,53.9531 57.6563,54.2031 C58.1406,54.4844 58.3125,54.7031 58.4063,55.1094 C58.4688,55.5156 58.5,55.6406 58.6406,55.7656 C58.7813,55.9063 59.0156,56.0156 59.2344,56.0156 C59.5,56.0156 59.7656,55.875 59.9375,55.6563 C60.0469,55.5 60.0781,55.3125 60.0781,54.8906 L60.0781,53.4688 C60.0781,53.0313 60.0625,52.9063 59.9688,52.75 C59.8125,52.4844 59.5313,52.3438 59.2344,52.3438 C58.9375,52.3438 58.7344,52.4375 58.5156,52.75 L58.3438,52.6719 Z " fill="#000000"/><text fill="#000000" font-family="sans-serif" font-size="12" lengthAdjust="spacingAndGlyphs" textLength="30" x="70" y="61.1543">Unit1</text><line style="stroke:#A80036;stroke-width:1.5;" x1="42" x2="102" y1="73" y2="73"/><line style="stroke:#A80036;stroke-width:1.5;" x1="42" x2="102" y1="81" y2="81"/><!--MD5=[ce95d3c018f6c52721d0b37f107e3d35]
class package.Element--><rect codeLine="2" fill="#FEFECE" filter="url(#f14vzo6ydd36gy)" height="48" id="package.Element" style="stroke:#A80036;stroke-width:1.5;" width="80" x="32" y="149"/><ellipse cx="47" cy="165" fill="#ADD1B2" rx="11" ry="11" style="stroke:#A80036;stroke-width:1.0;"/><path d="M49.3438,160.6719 C48.4063,160.2344 47.8125,160.0938 46.9375,160.0938 C44.3125,160.0938 42.3125,162.1719 42.3125,164.8906 L42.3125,166.0156 C42.3125,168.5938 44.4219,170.4844 47.3125,170.4844 C48.5313,170.4844 49.6875,170.1875 50.4375,169.6406 C51.0156,169.2344 51.3438,168.7813 51.3438,168.3906 C51.3438,167.9375 50.9531,167.5469 50.4844,167.5469 C50.2656,167.5469 50.0625,167.625 49.875,167.8125 C49.4219,168.2969 49.4219,168.2969 49.2344,168.3906 C48.8125,168.6563 48.125,168.7813 47.3594,168.7813 C45.3125,168.7813 44.0156,167.6875 44.0156,165.9844 L44.0156,164.8906 C44.0156,163.1094 45.2656,161.7969 47,161.7969 C47.5781,161.7969 48.1875,161.9531 48.6563,162.2031 C49.1406,162.4844 49.3125,162.7031 49.4063,163.1094 C49.4688,163.5156 49.5,163.6406 49.6406,163.7656 C49.7813,163.9063 50.0156,164.0156 50.2344,164.0156 C50.5,164.0156 50.7656,163.875 50.9375,163.6563 C51.0469,163.5 51.0781,163.3125 51.0781,162.8906 L51.0781,161.4688 C51.0781,161.0313 51.0625,160.9063 50.9688,160.75 C50.8125,160.4844 50.5313,160.3438 50.2344,160.3438 C49.9375,160.3438 49.7344,160.4375 49.5156,160.75 L49.3438,160.6719 Z " fill="#000000"/><text fill="#000000" font-family="sans-serif" font-size="12" lengthAdjust="spacingAndGlyphs" textLength="48" x="61" y="169.1543">Element</text><line style="stroke:#A80036;stroke-width:1.5;" x1="33" x2="111" y1="181" y2="181"/><line style="stroke:#A80036;stroke-width:1.5;" x1="33" x2="111" y1="189" y2="189"/><!--MD5=[34a06ab21e64ca86876e147bd986a380]
link package.Unit1 to package.Element--><path codeLine="3" d="M72,101 C72,101 72,124.677 72,135.3638 " fill="none" id="package.Unit1-package.Element" style="stroke:#A80036;stroke-width:1.0;"/><polygon fill="#A80036" points="72,148.6784,76,139.6784,72,143.6784,68,139.6784,72,148.6784" style="stroke:#A80036;stroke-width:1.0;"/><line style="stroke:#A80036;stroke-width:1.0;" x1="72" x2="72.0001" y1="143.6784" y2="135.6785"/><polygon fill="#FFFFFF" points="72,89,68,95,72,101,76,95,72,89" style="stroke:#A80036;stroke-width:1.0;"/><!--MD5=[02c36273ceeacbedf78fea0433ff3e83]
@startuml
class package.Unit1
class package.Element
package.Unit1 o- -> package.Element
@enduml

PlantUML version 1.2020.21beta7(Unknown compile time)
(GPL source distribution)
Java Runtime: Java(TM) SE Runtime Environment
JVM: Java HotSpot(TM) 64-Bit Server VM
Default Encoding: UTF-8
Language: en
Country: US
--></g></svg>