<?xml version="1.0" encoding="UTF-8" standalone="no"?>
<svg xmlns="http://www.w3.org/2000/svg" contentScriptType="application/ecmascript" contentStyleType="text/css"
     height="81px" preserveAspectRatio="none" style="width:295px;height:81px;" version="1.1" viewBox="0 0 295 81"
     width="295px" zoomAndPan="magnify"><defs><filter height="300%" id="f1fv48p6q0t9ws" width="300%" x="-1" y="-1"><feGaussianBlur result="blurOut" stdDeviation="2.0"/><feColorMatrix in="blurOut" result="blurOut2" type="matrix" values="0 0 0 0 0 0 0 0 0 0 0 0 0 0 0 0 0 0 .4 0"/><feOffset dx="4.0" dy="4.0" in="blurOut2" result="blurOut3"/><feBlend in="SourceGraphic" in2="blurOut3" mode="normal"/></filter></defs><g><!--MD5=[71453aad0c321cc4e5ffc62c5a278467]
class unit--><rect codeLine="1" fill="#FEFECE" filter="url(#f1fv48p6q0t9ws)" height="60.8047" id="unit" style="stroke:#A80036;stroke-width:1.5;" width="274" x="7" y="7"/><ellipse cx="129.25" cy="23" fill="#ADD1B2" rx="11" ry="11" style="stroke:#A80036;stroke-width:1.0;"/><path d="M131.5938,18.6719 C130.6563,18.2344 130.0625,18.0938 129.1875,18.0938 C126.5625,18.0938 124.5625,20.1719 124.5625,22.8906 L124.5625,24.0156 C124.5625,26.5938 126.6719,28.4844 129.5625,28.4844 C130.7813,28.4844 131.9375,28.1875 132.6875,27.6406 C133.2656,27.2344 133.5938,26.7813 133.5938,26.3906 C133.5938,25.9375 133.2031,25.5469 132.7344,25.5469 C132.5156,25.5469 132.3125,25.625 132.125,25.8125 C131.6719,26.2969 131.6719,26.2969 131.4844,26.3906 C131.0625,26.6563 130.375,26.7813 129.6094,26.7813 C127.5625,26.7813 126.2656,25.6875 126.2656,23.9844 L126.2656,22.8906 C126.2656,21.1094 127.5156,19.7969 129.25,19.7969 C129.8281,19.7969 130.4375,19.9531 130.9063,20.2031 C131.3906,20.4844 131.5625,20.7031 131.6563,21.1094 C131.7188,21.5156 131.75,21.6406 131.8906,21.7656 C132.0313,21.9063 132.2656,22.0156 132.4844,22.0156 C132.75,22.0156 133.0156,21.875 133.1875,21.6563 C133.2969,21.5 133.3281,21.3125 133.3281,20.8906 L133.3281,19.4688 C133.3281,19.0313 133.3125,18.9063 133.2188,18.75 C133.0625,18.4844 132.7813,18.3438 132.4844,18.3438 C132.1875,18.3438 131.9844,18.4375 131.7656,18.75 L131.5938,18.6719 Z " fill="#000000"/><text fill="#000000" font-family="sans-serif" font-size="12" lengthAdjust="spacingAndGlyphs" textLength="21" x="149.75" y="27.1543">unit</text><line style="stroke:#A80036;stroke-width:1.5;" x1="8" x2="280" y1="39" y2="39"/><line style="stroke:#A80036;stroke-width:1.5;" x1="8" x2="280" y1="47" y2="47"/><ellipse cx="18" cy="58" fill="#84BE84" rx="3" ry="3" style="stroke:#038048;stroke-width:1.0;"/><text fill="#000000" font-family="sans-serif" font-size="11" lengthAdjust="spacingAndGlyphs" text-decoration="underline" textLength="248" x="27" y="61.2104">attribute: String+ function(String, int): String</text><!--MD5=[18eb88994fb39c82f1bf9fecb2e6d41e]
@startuml
class unit{
+ {static} attribute: String+ function(String, int): String
}
@enduml

PlantUML version 1.2020.21beta7(Unknown compile time)
(GPL source distribution)
Java Runtime: Java(TM) SE Runtime Environment
JVM: Java HotSpot(TM) 64-Bit Server VM
Default Encoding: UTF-8
Language: en
Country: US
--></g></svg>