<?xml version="1.0" encoding="UTF-8" standalone="no"?>
<svg xmlns="http://www.w3.org/2000/svg" contentScriptType="application/ecmascript" contentStyleType="text/css"
     height="266px" preserveAspectRatio="none" style="width:723px;height:266px;" version="1.1" viewBox="0 0 723 266"
     width="723px" zoomAndPan="magnify"><defs><filter height="300%" id="f19rfdfxits39c" width="300%" x="-1" y="-1"><feGaussianBlur result="blurOut" stdDeviation="2.0"/><feColorMatrix in="blurOut" result="blurOut2" type="matrix" values="0 0 0 0 0 0 0 0 0 0 0 0 0 0 0 0 0 0 .4 0"/><feOffset dx="4.0" dy="4.0" in="blurOut2" result="blurOut3"/><feBlend in="SourceGraphic" in2="blurOut3" mode="normal"/></filter></defs><g><!--MD5=[7ecfd14b23748f3a7dd29cbe680ebe27]
cluster GenerateUML--><polygon fill="#FFFFFF" filter="url(#f19rfdfxits39c)" points="16,6,130,6,137,28.2969,706,28.2969,706,259,16,259,16,6" style="stroke:#000000;stroke-width:1.5;"/><line style="stroke:#000000;stroke-width:1.5;" x1="16" x2="137" y1="28.2969" y2="28.2969"/><text fill="#000000" font-family="sans-serif" font-size="14" font-weight="bold" lengthAdjust="spacingAndGlyphs" textLength="108" x="20" y="20.9951">GenerateUML</text><!--MD5=[0a47f41a79208e3933daa41d23af385b]
entity clientNode--><polygon fill="#DDDDDD" filter="url(#f19rfdfxits39c)" points="278.5,51,288.5,41,449.5,41,449.5,126.1875,439.5,136.1875,278.5,136.1875,278.5,51" style="stroke:#000000;stroke-width:1.5;"/><line style="stroke:#000000;stroke-width:1.5;" x1="439.5" x2="449.5" y1="51" y2="41"/><line style="stroke:#000000;stroke-width:1.5;" x1="278.5" x2="439.5" y1="51" y2="51"/><line style="stroke:#000000;stroke-width:1.5;" x1="439.5" x2="439.5" y1="51" y2="136.1875"/><text fill="#000000" font-family="sans-serif" font-size="14" font-weight="bold" lengthAdjust="spacingAndGlyphs" textLength="131" x="293.5" y="73.9951">Client Computer</text><text fill="#000000" font-family="sans-serif" font-size="14" lengthAdjust="spacingAndGlyphs" textLength="36" x="293.5" y="90.292">- - - -</text><text fill="#000000" font-family="sans-serif" font-size="14" lengthAdjust="spacingAndGlyphs" textLength="123" x="293.5" y="106.5889">memory : xxx Mb</text><text fill="#000000" font-family="sans-serif" font-size="14" lengthAdjust="spacingAndGlyphs" textLength="96" x="293.5" y="122.8857">cpu : xxx GHz</text><!--MD5=[b44ab08de9c6116d244b4c6b384e4695]
entity clientComponent--><rect fill="#FEFECE" filter="url(#f19rfdfxits39c)" height="46.2969" style="stroke:#A80036;stroke-width:1.5;" width="163" x="282.5" y="197"/><rect fill="#FEFECE" height="10" style="stroke:#A80036;stroke-width:1.5;" width="15" x="425.5" y="202"/><rect fill="#FEFECE" height="2" style="stroke:#A80036;stroke-width:1.5;" width="4" x="423.5" y="204"/><rect fill="#FEFECE" height="2" style="stroke:#A80036;stroke-width:1.5;" width="4" x="423.5" y="208"/><text fill="#000000" font-family="sans-serif" font-size="14" lengthAdjust="spacingAndGlyphs" textLength="115" x="301.5" y="229.9951">generateuml.jar</text><!--MD5=[dd4c3b8997c01cae5e384ea008a8b026]
entity serverGit--><polygon fill="#DDDDDD" filter="url(#f19rfdfxits39c)" points="526.5,51,536.5,41,689.5,41,689.5,126.1875,679.5,136.1875,526.5,136.1875,526.5,51" style="stroke:#000000;stroke-width:1.5;"/><line style="stroke:#000000;stroke-width:1.5;" x1="679.5" x2="689.5" y1="51" y2="41"/><line style="stroke:#000000;stroke-width:1.5;" x1="526.5" x2="679.5" y1="51" y2="51"/><line style="stroke:#000000;stroke-width:1.5;" x1="679.5" x2="679.5" y1="51" y2="136.1875"/><text fill="#000000" font-family="sans-serif" font-size="14" font-weight="bold" lengthAdjust="spacingAndGlyphs" textLength="114" x="541.5" y="73.9951">Git repository</text><text fill="#000000" font-family="sans-serif" font-size="14" lengthAdjust="spacingAndGlyphs" textLength="36" x="541.5" y="90.292">- - - -</text><text fill="#000000" font-family="sans-serif" font-size="14" lengthAdjust="spacingAndGlyphs" textLength="123" x="541.5" y="106.5889">memory : xxx Mb</text><text fill="#000000" font-family="sans-serif" font-size="14" lengthAdjust="spacingAndGlyphs" textLength="96" x="541.5" y="122.8857">cpu : xxx GHz</text><!--MD5=[4eea16f78dafb3d3ac3745052ea717e5]
entity serverPlantUML--><polygon fill="#DDDDDD" filter="url(#f19rfdfxits39c)" points="32,51,42,41,202,41,202,126.1875,192,136.1875,32,136.1875,32,51" style="stroke:#000000;stroke-width:1.5;"/><line style="stroke:#000000;stroke-width:1.5;" x1="192" x2="202" y1="51" y2="41"/><line style="stroke:#000000;stroke-width:1.5;" x1="32" x2="192" y1="51" y2="51"/><line style="stroke:#000000;stroke-width:1.5;" x1="192" x2="192" y1="51" y2="136.1875"/><text fill="#000000" font-family="sans-serif" font-size="14" font-weight="bold" lengthAdjust="spacingAndGlyphs" textLength="130" x="47" y="73.9951">PlantUml Server</text><text fill="#000000" font-family="sans-serif" font-size="14" lengthAdjust="spacingAndGlyphs" textLength="36" x="47" y="90.292">- - - -</text><text fill="#000000" font-family="sans-serif" font-size="14" lengthAdjust="spacingAndGlyphs" textLength="123" x="47" y="106.5889">memory : xxx Mb</text><text fill="#000000" font-family="sans-serif" font-size="14" lengthAdjust="spacingAndGlyphs" textLength="96" x="47" y="122.8857">cpu : xxx GHz</text><!--MD5=[e79b9563b7c71f60e1c69fc11aa07838]
link clientNode to clientComponent--><path d="M364,148.252 C364,148.252 364,173.22 364,183.8818 " fill="none" id="clientNode-clientComponent" style="stroke:#A80036;stroke-width:1.0;"/><polygon fill="#A80036" points="364,196.9771,368,187.9771,364,191.9771,360,187.9771,364,196.9771" style="stroke:#A80036;stroke-width:1.0;"/><line style="stroke:#A80036;stroke-width:1.0;" x1="364" x2="364" y1="191.9771" y2="183.9771"/><polygon fill="#A80036" points="364,136.252,360,142.252,364,148.252,368,142.252,364,136.252" style="stroke:#A80036;stroke-width:1.0;"/><!--MD5=[27552cd31052f8d3a6108f26f7a47040]
link clientNode to serverGit--><path d="M449.682,88.5 C472.789,88.5 497.808,88.5 520.987,88.5 " fill="none" id="clientNode-to-serverGit" style="stroke:#A80036;stroke-width:1.0;"/><polygon fill="#A80036" points="526.213,88.5,517.213,84.5,521.213,88.5,517.213,92.5,526.213,88.5" style="stroke:#A80036;stroke-width:1.0;"/><text fill="#000000" font-family="sans-serif" font-size="13" lengthAdjust="spacingAndGlyphs" textLength="40" x="468" y="81.5669">TCP/IP</text><!--MD5=[5e3906086c8f19cf6648ed2bda0f2a1c]
reverse link serverPlantUML to clientNode--><path d="M207.246,88.5 C230.487,88.5 255.425,88.5 278.421,88.5 " fill="none" id="serverPlantUML-backto-clientNode" style="stroke:#A80036;stroke-width:1.0;"/><polygon fill="#A80036" points="202.003,88.5,211.003,92.5,207.003,88.5,211.003,84.5,202.003,88.5" style="stroke:#A80036;stroke-width:1.0;"/><text fill="#000000" font-family="sans-serif" font-size="13" lengthAdjust="spacingAndGlyphs" textLength="40" x="220.25" y="81.5669">TCP/IP</text><!--MD5=[ef65d06e3e9dd9347c78f0f889194495]
@startuml
package GenerateUML {

node clientNode #DDDDDD [
<b>Client Computer</b>
- - - -
memory : xxx Mb
cpu : xxx GHz
]

[ generateuml.jar ] as clientComponent

node serverGit #DDDDDD [
<b>Git repository</b>
- - - -
memory : xxx Mb
cpu : xxx GHz
]

node serverPlantUML #DDDDDD [
<b>PlantUml Server</b>
- - - -
memory : xxx Mb
cpu : xxx GHz
]


}

clientNode *- -> clientComponent


clientNode -right-> serverGit : TCP/IP
clientNode -left-> serverPlantUML : TCP/IP
@enduml

PlantUML version 1.2020.22(Sun Dec 06 09:36:27 UTC 2020)
(GPL source distribution)
Java Runtime: Java(TM) SE Runtime Environment
JVM: Java HotSpot(TM) 64-Bit Server VM
Default Encoding: UTF-8
Language: en
Country: US
--></g></svg>