<?xml version="1.0" encoding="UTF-8" standalone="no"?>
<svg xmlns="http://www.w3.org/2000/svg" contentScriptType="application/ecmascript" contentStyleType="text/css"
     height="220px" preserveAspectRatio="none" style="width:157px;height:220px;" version="1.1" viewBox="0 0 157 220"
     width="157px" zoomAndPan="magnify"><defs><filter height="300%" id="f1jcfjiee1fgn9" width="300%" x="-1" y="-1"><feGaussianBlur result="blurOut" stdDeviation="2.0"/><feColorMatrix in="blurOut" result="blurOut2" type="matrix" values="0 0 0 0 0 0 0 0 0 0 0 0 0 0 0 0 0 0 .4 0"/><feOffset dx="4.0" dy="4.0" in="blurOut2" result="blurOut3"/><feBlend in="SourceGraphic" in2="blurOut3" mode="normal"/></filter></defs><g><!--MD5=[3c22739714270d73bb1ebb97dee24d10]
cluster package--><polygon fill="#FFFFFF" filter="url(#f1jcfjiee1fgn9)" points="16,6,89,6,96,28.2969,140,28.2969,140,213,16,213,16,6" style="stroke:#000000;stroke-width:1.5;"/><line style="stroke:#000000;stroke-width:1.5;" x1="16" x2="96" y1="28.2969" y2="28.2969"/><text fill="#000000" font-family="sans-serif" font-size="14" font-weight="bold" lengthAdjust="spacingAndGlyphs" textLength="67" x="20" y="20.9951">package</text><!--MD5=[e108eb7ecdb5e0eb0f3c0ef062fd094b]
class package.Unit1--><rect codeLine="1" fill="#FEFECE" filter="url(#f1jcfjiee1fgn9)" height="48" id="package.Unit1" style="stroke:#A80036;stroke-width:1.5;" width="62" x="47" y="41"/><ellipse cx="62" cy="57" fill="#ADD1B2" rx="11" ry="11" style="stroke:#A80036;stroke-width:1.0;"/><path d="M64.3438,52.6719 C63.4063,52.2344 62.8125,52.0938 61.9375,52.0938 C59.3125,52.0938 57.3125,54.1719 57.3125,56.8906 L57.3125,58.0156 C57.3125,60.5938 59.4219,62.4844 62.3125,62.4844 C63.5313,62.4844 64.6875,62.1875 65.4375,61.6406 C66.0156,61.2344 66.3438,60.7813 66.3438,60.3906 C66.3438,59.9375 65.9531,59.5469 65.4844,59.5469 C65.2656,59.5469 65.0625,59.625 64.875,59.8125 C64.4219,60.2969 64.4219,60.2969 64.2344,60.3906 C63.8125,60.6563 63.125,60.7813 62.3594,60.7813 C60.3125,60.7813 59.0156,59.6875 59.0156,57.9844 L59.0156,56.8906 C59.0156,55.1094 60.2656,53.7969 62,53.7969 C62.5781,53.7969 63.1875,53.9531 63.6563,54.2031 C64.1406,54.4844 64.3125,54.7031 64.4063,55.1094 C64.4688,55.5156 64.5,55.6406 64.6406,55.7656 C64.7813,55.9063 65.0156,56.0156 65.2344,56.0156 C65.5,56.0156 65.7656,55.875 65.9375,55.6563 C66.0469,55.5 66.0781,55.3125 66.0781,54.8906 L66.0781,53.4688 C66.0781,53.0313 66.0625,52.9063 65.9688,52.75 C65.8125,52.4844 65.5313,52.3438 65.2344,52.3438 C64.9375,52.3438 64.7344,52.4375 64.5156,52.75 L64.3438,52.6719 Z " fill="#000000"/><text fill="#000000" font-family="sans-serif" font-size="12" lengthAdjust="spacingAndGlyphs" textLength="30" x="76" y="61.1543">Unit1</text><line style="stroke:#A80036;stroke-width:1.5;" x1="48" x2="108" y1="73" y2="73"/><line style="stroke:#A80036;stroke-width:1.5;" x1="48" x2="108" y1="81" y2="81"/><!--MD5=[73a31375f40b4862b237ff127c15ea7c]
class package.Associate--><rect codeLine="2" fill="#FEFECE" filter="url(#f1jcfjiee1fgn9)" height="48" id="package.Associate" style="stroke:#A80036;stroke-width:1.5;" width="91" x="32.5" y="149"/><ellipse cx="47.5" cy="165" fill="#ADD1B2" rx="11" ry="11" style="stroke:#A80036;stroke-width:1.0;"/><path d="M49.8438,160.6719 C48.9063,160.2344 48.3125,160.0938 47.4375,160.0938 C44.8125,160.0938 42.8125,162.1719 42.8125,164.8906 L42.8125,166.0156 C42.8125,168.5938 44.9219,170.4844 47.8125,170.4844 C49.0313,170.4844 50.1875,170.1875 50.9375,169.6406 C51.5156,169.2344 51.8438,168.7813 51.8438,168.3906 C51.8438,167.9375 51.4531,167.5469 50.9844,167.5469 C50.7656,167.5469 50.5625,167.625 50.375,167.8125 C49.9219,168.2969 49.9219,168.2969 49.7344,168.3906 C49.3125,168.6563 48.625,168.7813 47.8594,168.7813 C45.8125,168.7813 44.5156,167.6875 44.5156,165.9844 L44.5156,164.8906 C44.5156,163.1094 45.7656,161.7969 47.5,161.7969 C48.0781,161.7969 48.6875,161.9531 49.1563,162.2031 C49.6406,162.4844 49.8125,162.7031 49.9063,163.1094 C49.9688,163.5156 50,163.6406 50.1406,163.7656 C50.2813,163.9063 50.5156,164.0156 50.7344,164.0156 C51,164.0156 51.2656,163.875 51.4375,163.6563 C51.5469,163.5 51.5781,163.3125 51.5781,162.8906 L51.5781,161.4688 C51.5781,161.0313 51.5625,160.9063 51.4688,160.75 C51.3125,160.4844 51.0313,160.3438 50.7344,160.3438 C50.4375,160.3438 50.2344,160.4375 50.0156,160.75 L49.8438,160.6719 Z " fill="#000000"/><text fill="#000000" font-family="sans-serif" font-size="12" lengthAdjust="spacingAndGlyphs" textLength="59" x="61.5" y="169.1543">Associate</text><line style="stroke:#A80036;stroke-width:1.5;" x1="33.5" x2="122.5" y1="181" y2="181"/><line style="stroke:#A80036;stroke-width:1.5;" x1="33.5" x2="122.5" y1="189" y2="189"/><!--MD5=[c998f580f6877868a6b30e03b903e592]
link package.Unit1 to package.Associate--><path codeLine="3" d="M78,89 C78,105.003 78,126.446 78,143.528 " fill="none" id="package.Unit1-to-package.Associate" style="stroke:#A80036;stroke-width:1.0;"/><polygon fill="#A80036" points="78,148.6784,82,139.6784,78,143.6784,74,139.6784,78,148.6784" style="stroke:#A80036;stroke-width:1.0;"/><!--MD5=[54b2828195dded62cdd4299a9a2c1f93]
@startuml
class package.Unit1
class package.Associate
package.Unit1 - -> package.Associate
@enduml

PlantUML version 1.2020.21beta7(Unknown compile time)
(GPL source distribution)
Java Runtime: Java(TM) SE Runtime Environment
JVM: Java HotSpot(TM) 64-Bit Server VM
Default Encoding: UTF-8
Language: en
Country: US
--></g></svg>